/* XPM */
static char *result[] = {
/* columns rows colors chars-per-pixel */
"32 32 196 2 ",
"   c #040302",
".  c #080504",
"X  c #0C0805",
"o  c #08070C",
"O  c #160C06",
"+  c #150A07",
"@  c #1B1209",
"#  c #1D1512",
"$  c #271A0D",
"%  c #331E0D",
"&  c #2C1E11",
"*  c #291C19",
"=  c #341F10",
"-  c #2A0404",
";  c #342111",
":  c #392614",
">  c #3D2814",
",  c #3C2C1D",
"<  c #1C1C23",
"1  c #281628",
"2  c #25222D",
"3  c #3A222C",
"4  c #332933",
"5  c #49090F",
"6  c #51030B",
"7  c #461D12",
"8  c #501F14",
"9  c #690107",
"0  c #6A0208",
"q  c #630107",
"w  c #791C09",
"e  c #7E1F13",
"r  c #462B15",
"t  c #442D19",
"y  c #552411",
"u  c #522D18",
"i  c #5C2919",
"p  c #5C2A14",
"a  c #4B3218",
"s  c #483017",
"d  c #53371A",
"f  c #5B331B",
"g  c #55391A",
"h  c #5C3D1E",
"j  c #553514",
"k  c #512B09",
"l  c #79251D",
"z  c #63391B",
"x  c #6B3604",
"c  c #4C1823",
"v  c #4B3423",
"b  c #5A3E22",
"n  c #452F37",
"m  c #4A323A",
"M  c #453038",
"N  c #5C3B30",
"B  c #532624",
"V  c #6F3E23",
"C  c #6A4108",
"Z  c #754A07",
"A  c #62411F",
"S  c #7B491B",
"D  c #795105",
"F  c #5E4125",
"G  c #644322",
"H  c #694621",
"J  c #6F4B27",
"K  c #784829",
"L  c #7C532B",
"P  c #79512B",
"I  c #7A5335",
"U  c #634436",
"Y  c #293451",
"T  c #382D45",
"R  c #4E3841",
"E  c #503941",
"W  c #555460",
"Q  c #8E1C0F",
"!  c #BA0300",
"~  c #9E3104",
"^  c #902216",
"/  c #DB0000",
"(  c #D01802",
")  c #E20100",
"_  c #F70000",
"`  c #E61001",
"'  c #DC2303",
"]  c #885A09",
"[  c #835318",
"{  c #AA4A05",
"}  c #8D6206",
"|  c #97680A",
" . c #A47809",
".. c #B2780F",
"X. c #A06B19",
"o. c #AB7913",
"O. c #804A29",
"+. c #8F5E2E",
"@. c #86572D",
"#. c #935C25",
"$. c #844A30",
"%. c #825B35",
"&. c #8B5B33",
"*. c #8A5539",
"=. c #995F3E",
"-. c #92602F",
";. c #996226",
":. c #946333",
">. c #95653C",
",. c #9B6B3B",
"<. c #996536",
"1. c #A16C28",
"2. c #A2643C",
"3. c #A46D3A",
"4. c #A5713C",
"5. c #B47A3F",
"6. c #CC710A",
"7. c #925B40",
"8. c #9A6F44",
"9. c #966E48",
"0. c #9F7145",
"q. c #A46541",
"w. c #A57545",
"e. c #AB7644",
"r. c #AD7946",
"t. c #AE7E4E",
"y. c #B87946",
"u. c #AB7D53",
"i. c #B07A58",
"p. c #C17A4B",
"a. c #B5860B",
"s. c #B9834D",
"d. c #AC825B",
"f. c #B48353",
"g. c #BA8C5F",
"h. c #B88658",
"j. c #B68C65",
"k. c #B98F67",
"l. c #B79A7C",
"z. c #C08346",
"x. c #C4824D",
"c. c #CA8B4E",
"v. c #C78B4F",
"b. c #C28A52",
"n. c #CA8B51",
"m. c #C48C5D",
"M. c #CB8A5C",
"N. c #D28F5A",
"B. c #CF945B",
"V. c #D1965D",
"C. c #C08F61",
"Z. c #D28E62",
"A. c #CF9A65",
"S. c #C4966B",
"D. c #CA9A6A",
"F. c #D19A64",
"G. c #D29E6B",
"H. c #DB9D63",
"J. c #C69B71",
"K. c #CA9D71",
"L. c #DFA06A",
"P. c #CBA37C",
"I. c #D3A372",
"U. c #D1A67A",
"Y. c #D9A47B",
"T. c #D5A97D",
"R. c #DCA175",
"E. c #E8B07E",
"W. c #E2A872",
"Q. c #627C98",
"!. c #6E90AE",
"~. c #BEA285",
"^. c #CDA987",
"/. c #D4AB82",
"(. c #D9AD82",
"). c #DBB48B",
"_. c #DAB188",
"`. c #DDB791",
"'. c #DDB993",
"]. c #D9BB9D",
"[. c #D5B390",
"{. c #E0AE84",
"}. c #E6B283",
"|. c #EAB789",
" X c #F2BD8C",
".X c #E1BE9B",
"XX c #CCBAA6",
"oX c #E1C19E",
"OX c #F6C596",
"+X c #E2C3A3",
"@X c #E6CAAD",
"#X c #FCD1A3",
"$X c #E7CDB1",
"%X c #E8CFB5",
"&X c #E9D0B6",
"*X c None",
/* pixels */
"*X*X*X*X*X*X*X*X*X*X*X*X*X*X*X*X*X*X*X*X*X*X*X*X*X*X*X*X*X*X*X*X",
"*X*X*X*X*X*X*X*X*X*X*X*X*X*XL %.w.w.w.w.0.%.K *X*X*X*X*X*X*X*X*X",
"*X*X*X*X*X*X*X*X*X*X*X$.&.e.C.^.].].].].].^.d.%.K K *X*X*X*X*X*X",
"*X*X*X*X*X*X*X*X*X*X-.r.D.[.+X&X&X&X&X&X&X$X+X^.d.%.A *X*X*X*X*X",
"*X*X*X*X*X*X*X*X*X*X,.U.@X$X&X%X%X&X%X%X%X%X&X%X'.f.L *X*X*X*X*X",
"*X*X*X*X*X*X*X*X*X:.g.oX%X%X%X%X%X%X%X%X%X%X%X%X+XI.,.A *X*X*X*X",
"*X*X*X*X*X*X*X*X*X,._.$X%X%X%X%X%X%X%X%X%X%X%X%X$X].g.@.h *X*X*X",
"*X*X*X*X*X*X*X*XJ d..X$X%X%X%X%X%X%X%X%X&X%X%X%X&XoXI.,.z *X*X*X",
"*X*X*X*X*X*X*X*X:.g.).+X%X%X%X&X$X&X$X&X$X&X$X&X$XoXI.,.h *X*X*X",
"*X*X*X*X*X*X*X*X+.r.I.oX@X$X%X%X&X&X&X&X&X&X$X@XoX).L.,.A *X*X*X",
"*X*X*X*X*X*X*X*XF :.G.`.`..X$X%X&X$X$X@X@X@X.X'.).I.v.:.g *X*X*X",
"*X*X*X*X*X*X*X*X@ G m.(._.)..X@X@X@X'.'.'.'.).(.F.c.5.A O *X*X*X",
"*X*X*X*X*X*X*X*X. g 5.A.(.).`.`._./.P.U.T.(.T.L.c.s.:.>   *X*X*X",
"*X*X*X*X*X*X*X*X. > @.4.D.T.T.K.s.w.e.e.s.b.n.c.z.:.H :   *X*X*X",
"*X*X*X*X*X*X*X*X. & h A &.w.w.+.L s.K.h.:.-.4.4.+.G g ;   *X*X*X",
"*X*X*X*X*X*X*X*X*X. : h s % > : , g.T.k.v g a & s h > X   *X*X*X",
"*X*X*X*X*X*X*X*X*X  % f u r = + , ,.f.9.; + : r u f = o *X*X*X*X",
"*X*X*X*X*X*X*X*X*X*X7 p p p i i >.P.U.S.I i i i 8 8 8 *X*X*X*X*X",
"*X*X*X*X*X*X*X*X*X*X$.;.X.#.y.Z.E.}.E.}.Y.M.y.#.S K $.*X*X*X*X*X",
"*X*X*X*X*X*X*X*X*X*X2.H.L.c.N.}.OX|.L.|.#X XH.2.2.p.q.V *X*X*X*X",
"*X*X*X*X*X*X*X*X*XO.3.L.}.u.7.p.B.R.M.Y.|.U.i.7.7.p.2.O.| *X*X*X",
"*X*X*X*X*X*X*X*X*X] o.1.>.U 3 w Q ^ e l l l B 4 N #.;...6.{ *X*X",
"*X*X*X*X*X*X*X*XC D a.a.} g 1 6 0 0 0 9 6 6 5 1 v | a.6.' ` *X*X",
"*X*X*X*X*X*X*X*X .| } D Z g 4 n E m m m E n 3 2 t x ~ ( ) _ *X*X",
"*X*X*X*X*X*X*X*XD  .a.] k & L g.P.j.u.j.P.g.P F f w ! / _ *X*X*X",
"*X*X*X*X*X*X*X*XV S [ x % s 4.V.A.f.r.f.D.A.w.:.S z *X*X*X*X*X*X",
"*X*X*X*X*X*X*X*X*X*.<.b r +.s.T./.J.J.[.+X.XT.b.+.*X*X*X*X*X*X*X",
"*X*X*X*X*X*X*X*X*X: & > A +.4.v.t.I 0.U.oX).F.c.<.J *X*X*X*X*X*X",
"*X*X*X*X*X*X*X*X*X*X*X*X*Xb G P F a G r.F.F.B.x.G @ *X*X*X*X*X*X",
"*X*X*X*X*X*X*X*X*X*X*X*X*X*X# 2 < O # I l.XX~.9.> *X*X*X*X*X*X*X",
"*X*X*X*X*X*X*X*X*X*X*X*X*X*X*Xo o *X  4 Q.!.W * O *X*X*X*X*X*X*X",
"*X*X*X*X*X*X*X*X*X*X*X*X*X*X*X*X*X*XO 5 T Y c - *X*X*X*X*X*X*X*X"
};
