/* XPM */
static char *result[] = {
/* columns rows colors chars-per-pixel */
"32 32 198 2 ",
"   c #050302",
".  c #090605",
"X  c #0C0804",
"o  c #08070C",
"O  c #150D07",
"+  c #140906",
"@  c #1C1309",
"#  c #1C1515",
"$  c #330F08",
"%  c #2F1F0F",
"&  c #221706",
"*  c #321F0F",
"=  c #2C1E17",
"-  c #361D10",
";  c #3A1F10",
":  c #2B0405",
">  c #33200F",
",  c #3D280B",
"<  c #2F2215",
"1  c #3A2612",
"2  c #3D2913",
"3  c #372411",
"4  c #1A1923",
"5  c #27172A",
"6  c #3A1924",
"7  c #252129",
"8  c #39222A",
"9  c #262130",
"0  c #322833",
"q  c #4F050B",
"w  c #530207",
"e  c #410710",
"r  c #471C12",
"t  c #501E15",
"y  c #540C17",
"u  c #640309",
"i  c #6A0208",
"p  c #620107",
"a  c #71190F",
"s  c #7C1E12",
"d  c #452B15",
"f  c #412D1C",
"g  c #5B2718",
"h  c #522D18",
"j  c #572814",
"k  c #4A3218",
"l  c #4A3117",
"z  c #5B351B",
"x  c #56391A",
"c  c #5B3D1D",
"v  c #573615",
"b  c #5A2F09",
"n  c #673E02",
"m  c #77241C",
"M  c #451322",
"N  c #483521",
"B  c #5A3C28",
"V  c #4B2F36",
"C  c #49323A",
"Z  c #522827",
"A  c #6C3132",
"S  c #5E401F",
"D  c #674104",
"F  c #774D04",
"G  c #755005",
"H  c #64421F",
"J  c #7A401E",
"K  c #644322",
"L  c #694622",
"P  c #7C442C",
"I  c #76482D",
"U  c #744826",
"Y  c #7B532C",
"T  c #78512B",
"R  c #634336",
"E  c #7E4E30",
"W  c #7D5635",
"Q  c #4E3841",
"!  c #890502",
"~  c #911B11",
"^  c #91211A",
"/  c #B13405",
"(  c #922726",
")  c #AE2A26",
"_  c #D10D00",
"`  c #C61401",
"'  c #E10000",
"]  c #F70000",
"[  c #E11301",
"{  c #8B5D06",
"}  c #885A09",
"|  c #834F1E",
" . c #A85D10",
".. c #966908",
"X. c #9C7007",
"o. c #9F6C17",
"O. c #A1630A",
"+. c #AB7D0E",
"@. c #82562B",
"#. c #8E5D2D",
"$. c #8A582F",
"%. c #985B26",
"&. c #834B30",
"*. c #835B35",
"=. c #8D5C34",
"-. c #88553C",
";. c #965D3E",
":. c #976224",
">. c #93612F",
",. c #9C6028",
"<. c #936332",
"1. c #996735",
"2. c #9C6B39",
"3. c #946239",
"4. c #A2633B",
"5. c #A56E3B",
"6. c #A86C38",
"7. c #A4713E",
"8. c #B3793F",
"9. c #C1610A",
"0. c #976B44",
"q. c #986E47",
"w. c #9D7044",
"e. c #A46541",
"r. c #A37445",
"t. c #AB7744",
"y. c #AB7947",
"u. c #AE7E4D",
"i. c #B77A48",
"p. c #AA7C53",
"a. c #B17A5B",
"s. c #C17A4C",
"d. c #B2860B",
"f. c #BB854C",
"g. c #BE8145",
"h. c #AD845B",
"j. c #B48251",
"k. c #B6875E",
"l. c #BB8858",
"z. c #B68D66",
"x. c #BB8E63",
"c. c #B78D68",
"v. c #C5834D",
"b. c #C4894E",
"n. c #CA8B4E",
"m. c #C08246",
"M. c #C28B52",
"N. c #CA8B5C",
"B. c #C98956",
"V. c #D38F5A",
"C. c #CF945B",
"Z. c #D1955C",
"A. c #C08F62",
"S. c #D38D62",
"D. c #C4976C",
"F. c #CD9D6D",
"G. c #C49463",
"H. c #D19A64",
"J. c #DA9B63",
"K. c #D19E6A",
"L. c #C69B71",
"P. c #C79975",
"I. c #DC9D7A",
"U. c #D6A16E",
"Y. c #DFA566",
"T. c #CBA47C",
"R. c #D3A272",
"E. c #D8A37C",
"W. c #D4A97D",
"Q. c #DAAA7C",
"!. c #D0A57A",
"~. c #E0A06A",
"^. c #E3AD7C",
"/. c #ECB27E",
"(. c #CBA886",
"). c #CDAB8A",
"_. c #D5AC82",
"`. c #DBAE82",
"'. c #DAB186",
"]. c #DCB48C",
"[. c #DEB992",
"{. c #D9BB9C",
"}. c #D9B591",
"|. c #E9B486",
" X c #F2BD8D",
".X c #E1BF9C",
"XX c #E0BC97",
"oX c #E2C09E",
"OX c #F6C596",
"+X c #DFC1A3",
"@X c #E2C3A3",
"#X c #E6CAAD",
"$X c #FBCFA1",
"%X c #E7CDB1",
"&X c #E8CFB5",
"*X c #E8D0B6",
"=X c #E9D1B8",
"-X c None",
/* pixels */
"-X-X-X-X-X-X-X-X-X-X-X-X-X-X-X-X-X-X-X-X-X-X-X-X-X-X-X-X-X-X-X-X",
"-X-X-X-X-X-X-X-X-XY *.w.r.r.r.r.W I -X-X-X-X-X-X-X-X-X-X-X-X-X-X",
"-X-X-X-X-X-X&.=.t.x.(.{.{.{.{.{.(.p.*.I U -X-X-X-X-X-X-X-X-X-X-X",
"-X-X-X-X-X>.t.D.].#X%X*X=X=X=X=X%X@X).h.@.H -X-X-X-X-X-X-X-X-X-X",
"-X-X-X-X-X2.W.#X%X*X*X&X%X*X*X#X*X*X%X[.j.T -X-X-X-X-X-X-X-X-X-X",
"-X-X-X-X<.N.@X&X&X&X&X&X*X*X*X*X&X*X&X@XR.1.L -X-X-X-X-X-X-X-X-X",
"-X-X-XK w.`.%X&X*X*X%X*X%X*X*X*X&X&X&X%X{.k.Y -X-X-X-X-X-X-X-X-X",
"-X-X-XL h.@X%X&X%X*X*X*X%X*X%X*X&X&X&X&XoXU.1.H -X-X-X-X-X-X-X-X",
"-X-X-X#.x.].+X*X*X&X&X&X*X*X%X*X&X*X*X%X.XU.2.K -X-X-X-X-X-X-X-X",
"-X-X-X#.f.R..X#X%X&X*X&X*X*X*X*X&X#X#XoX'.H.2.L -X-X-X-X-X-X-X-X",
"-X-X-Xc 2.F.].[.oX#X&X*X%X#X#X#X#X.X[.'.K.b.<.c -X-X-X-X-X-X-X-X",
"-X-X-XO L N.'.'.]..X#X#X#XXX[.].[.'.'.H.n.8.S O -X-X-X-X-X-X-X-X",
"-X-X-X  x t.U.'.].].[.'.W.T.!.W.'._.H.n.g.<.1   -X-X-X-X-X-X-X-X",
"-X-X-X  d @.7.G.'.W.F.f.r.y.j.f.b.n.n.g.<.L 1 . -X-X-X-X-X-X-X-X",
"-X-X-X  > c H =.y.r.*.W l.F.l.<.>.7.7.$.L x % . -X-X-X-X-X-X-X-X",
"-X-X-X  X 1 S l % 2 , 2 x.W.z.k x k % k c 1 X -X-X-X-X-X-X-X-X-X",
"-X-X-X-X  - x x d - + 1 w.u.0.- O , d h z -   -X-X-X-X-X-X-X-X-X",
"-X-X-X-X-Xr t h g g z 0.L.W.L.*.h j g j j d -X-X-X-X-X-X-X-X-X-X",
"-X-X-X-X-X&.&.m %.i.N.^.|.|.|.E.B.i.,.o.,.P -X-X-X-X-X-X-X-X-X-X",
"-X-X-X-XP e.s.4.4.V. X$X XJ. XOX/.V.n.~.J.e.-X-X-X-X-X-X-X-X-X-X",
"-X-X-X..| e.s.e.-.B.I.}.Q.N.I.S.s.;.a.`.K.6.-X-X-X-X-X-X-X-X-X-X",
"-X-X} d.+.%.$.B 0 Z m m m m ~ ~ a M R =.,. .9.-X-X-X-X-X-X-X-X-X",
"-X-XF } d.d.} N 5 $ w p i u i u q 5 S ../ ` [ -X-X-X-X-X-X-X-X-X",
"-X-X....} } n f 9 6 C Q C V C Q C 0 x / [ ' ] -X-X-X-X-X-X-X-X-X",
"-X-XF ..X.G b v B T k.T.z.p.z.T.k.W - ! -X-X-X-X-X-X-X-X-X-X-X-X",
"-X-X-XD , & , U 3.y.H.H.j.y.f.F.Z.5.d $ -X-X-X-X-X-X-X-X-X-X-X-X",
"-X-X-X-X-X-XS >.M._..X+X}.L.c._.Q.f.>.-X-X-X-X-X-X-X-X-X-X-X-X-X",
"-X-X-X-X-X-X-X1.n.H.].oXW.q.*.j.M.5.#.$.-X-X-X-X-X-X-X-X-X-X-X-X",
"-X-X-X-X-X-X@ K v.C.H.H.u.K k K W H S -X-X-X-X-X-X-X-X-X-X-X-X-X",
"-X-X-X-X-X-X-X2 q.P.I.N.Y @ O 4 5 # -X-X-X-X-X-X-X-X-X-X-X-X-X-X",
"-X-X-X-X-X-X-XO 5 A ) ( 6 . -Xo o -X-X-X-X-X-X-X-X-X-X-X-X-X-X-X",
"-X-X-X-X-X-X-X-X: y 6 M q X -X-X-X-X-X-X-X-X-X-X-X-X-X-X-X-X-X-X"
};
