/* XPM */
static char *result[] = {
/* columns rows colors chars-per-pixel */
"32 32 191 2 ",
"   c #090403",
".  c #160E07",
"X  c #180E08",
"o  c #1D1309",
"O  c #2B0F0A",
"+  c #221509",
"@  c #2A1C0D",
"#  c #251607",
"$  c #2A1C11",
"%  c #261910",
"&  c #35230F",
"*  c #2F2015",
"=  c #392513",
"-  c #382512",
";  c #2C1D2B",
":  c #261D28",
">  c #44050E",
",  c #420913",
"<  c #4A1110",
"1  c #581B14",
"2  c #5C1D1D",
"3  c #670207",
"4  c #482D06",
"5  c #54240C",
"6  c #59290D",
"7  c #432D15",
"8  c #4B2D17",
"9  c #422614",
"0  c #552617",
"q  c #5F2917",
"w  c #56281E",
"e  c #4B3018",
"r  c #55351A",
"t  c #56391C",
"y  c #5D3D1D",
"u  c #633807",
"i  c #7E261E",
"p  c #5F3B28",
"a  c #4C353A",
"s  c #503838",
"d  c #532D32",
"f  c #603B22",
"g  c #6F2E36",
"h  c #7A3027",
"j  c #6F420A",
"k  c #734708",
"l  c #62401E",
"z  c #5E412A",
"x  c #59483A",
"c  c #654320",
"v  c #6C4D2E",
"b  c #6C4823",
"n  c #734C27",
"m  c #744B2B",
"M  c #775129",
"N  c #7D552C",
"B  c #714631",
"V  c #794B31",
"C  c #7C5131",
"Z  c #4A3844",
"A  c #4D2F50",
"S  c #554B41",
"D  c #414258",
"F  c #654F41",
"G  c #6C5542",
"H  c #655444",
"J  c #7B5D43",
"K  c #7F6145",
"L  c #42497F",
"P  c #49487F",
"I  c #B31809",
"U  c #A10906",
"Y  c #8B231B",
"T  c #8F291F",
"R  c #94261D",
"E  c #923911",
"W  c #872D2D",
"Q  c #86363A",
"!  c #C60602",
"~  c #D10100",
"^  c #DB0D04",
"/  c #EB0100",
"(  c #F30301",
")  c #8D5C12",
"_  c #8B5D06",
"`  c #AF501E",
"'  c #8E6107",
"]  c #8C6608",
"[  c #906307",
"{  c #94611F",
"}  c #9D6E12",
"|  c #A77809",
" . c #934F2F",
".. c #895A2B",
"X. c #814D33",
"o. c #865131",
"O. c #91583F",
"+. c #9B6825",
"@. c #97622F",
"#. c #926130",
"$. c #9C6533",
"%. c #9D6935",
"&. c #9B6B3C",
"*. c #AB7922",
"=. c #A26F3E",
"-. c #B96C3E",
";. c #A5713E",
":. c #AC763C",
">. c #805F40",
",. c #935D40",
"<. c #876747",
"1. c #9D6C42",
"2. c #9B6D4A",
"3. c #9D7146",
"4. c #9E7156",
"5. c #A96B41",
"6. c #A16A49",
"7. c #A97544",
"8. c #AA7B4C",
"9. c #A97744",
"0. c #B17441",
"q. c #B37A43",
"w. c #A37857",
"e. c #B37F55",
"r. c #B98D0C",
"t. c #B3860C",
"y. c #BB8E11",
"u. c #C89C10",
"i. c #BA854E",
"p. c #BD854A",
"a. c #BB8551",
"s. c #BD865F",
"d. c #B9895A",
"f. c #B88559",
"g. c #BB8160",
"h. c #BF9369",
"j. c #BC9875",
"k. c #C2864B",
"l. c #C4894B",
"z. c #C8894B",
"x. c #C28A53",
"c. c #C28C5D",
"v. c #C88854",
"b. c #CD9157",
"n. c #CA925C",
"m. c #C78E63",
"M. c #C9996A",
"N. c #CA946A",
"B. c #D59B63",
"V. c #D39B6D",
"C. c #D99B73",
"Z. c #C59D78",
"A. c #CFA57C",
"S. c #CAA076",
"D. c #D4A374",
"F. c #D9A574",
"G. c #D3A67A",
"H. c #D6A97C",
"J. c #D8AA7B",
"K. c #E1A77A",
"L. c #E5AB7B",
"P. c #E4A675",
"I. c #D2AA82",
"U. c #DAAE81",
"Y. c #DBB185",
"T. c #DBB48B",
"R. c #D4B595",
"E. c #DDB790",
"W. c #DEBA94",
"Q. c #DABE9F",
"!. c #D5B89A",
"~. c #E6AD85",
"^. c #E3B183",
"/. c #EAB382",
"(. c #E5B28A",
"). c #E8BE95",
"_. c #E0BF9C",
"`. c #E1BC97",
"'. c #DABEA0",
"]. c #EFC38A",
"[. c #E2C09E",
"{. c #F7C89A",
"}. c #F8CB9E",
"|. c #E3C4A5",
" X c #E4C7A8",
".X c #E6CAAE",
"XX c #E6CDB1",
"oX c #E8CFB5",
"OX c #E8D0B6",
"+X c #E9D1B8",
"@X c None",
/* pixels */
"@X@X@X@X@X@X@X@X@X@X@XX.F <.1.1.1.1.<.F m @X@X@X@X@X@X@X@X@X@X@X",
"@X@X@X@X@X@X@X@X@Xo.&.a.Z.R.'.'.Q.Q.R.j.<.G B @X@X@X@X@X@X@X@X@X",
"@X@X@X@X@X@X@X@X&.a.A.Q..XoXOX+X+XOXoX X!.Z.2.x @X@X@X@X@X@X@X@X",
"@X@X@X@X@X@X@XG d.`..XoXOXoXoXoXoXoXoXOXOX|.S.<.S @X@X@X@X@X@X@X",
"@X@X@X@X@X@X@X3.I.XXOXoXoXoXoXoXoXoXoXoXoXXXT.d.H @X@X@X@X@X@X@X",
"@X@X@X@X@X@XG m. XOXoXoXoXoXoXoXoXoXoXoXoXoX XI.3.S @X@X@X@X@X@X",
"@X@X@X@X@X@XK A..XoXoXoXoXoXoXoXoXOXoXoXoXOXXXT.i.H @X@X@X@X@X@X",
"@X@X@X@X@X@X7.H.W.XXOXOXoXoXoXoXoXoXoXoXoXoX XT.d.N @X@X@X@X@X@X",
"@X@X@X@X@X@X%.n.T. XXXoXOXXXOXOXOXOXOXoXXX XE.J.l.N @X@X@X@X@X@X",
"@X@X@X@X@X@XM i.U.E.W. XOXOXOXXX.X.X.X|.W.T.J.b.q.n @X@X@X@X@X@X",
"@X@X@X@X@X@X- &.G.T.T.E. X.X.X|.E.W.E.E.T.D.b.l.#.- @X@X@X@X@X@X",
"@X@X@X@X@X@X% ..x.J.T.T.E.T.U.A.A.H.U.U.D.b.l.q.b X @X@X@X@X@X@X",
"@X@X@X@X@X@Xo c #.i.G.Y.G.c.9.9.9.q.l.x.z.z.:.M t o @X@X@X@X@X@X",
"@X@X@X@X@X@X. e l n 1.9.&.M %.M.M.;.#.%.;.&.n y e . @X@X@X@X@X@X",
"@X@X@X@X@X@X  o r t - & 7 @ J G.G.K = l - - t r o   @X@X@X@X@X@X",
"@X@X@X@X@X@X@X. e r 8 9 + . v 8.8.v . # 9 e r 8 . @X@X@X@X@X@X@X",
"@X@X@X@X@X@X@X@X5 6 q q w m g.G.G.w.p 0 q q 6 5 @X@X@X@X@X@X@X@X",
"@X@X@X@X@X@X@X@X{ *.+.0.v.V.^././.~.V.k.0.+.*.{ @X@X@X@X@X@X@X@X",
"@X@X@X@X@X@X@X6.F.].C.K./.{.{.P.P.{.{./.K.F.].F.6.@X@X@X@X@X@X@X",
"@X@X@X@X@X@X,.C.}.).w.e.C.~.(.m.N.(.(.C.e.w.).}.C.,.@X@X@X@X@X@X",
"@X@X@X@X@X) @.b.L.c.s 2 Q Q Q g i Y R Y 1 s s.P.b. .E @X@X@X@X@X",
"@X@X@X@X_ t.y.*.:.V ; , A P L L A 3 3 3 > ; B -.` I ^ ( @X@X@X@X",
"@X@X@Xu j ' | | k % : 2 Z D D Z Z a a d 2 ; < I ! ~ ( @X@X@X@X@X",
"@X@X@Xk _ r.y.[ 4 X p 5.m.h.f.7.5.f.j.g.;.W U ! ~ / @X@X@X@X@X@X",
"@X@X@Xu j } u.] + @X$.k.B.B.i.9.7.a.B.B.k.$.@X@X@X@X@X@X@X@X@X@X",
"@X@X@Xr C q...4 o ..a.J.Q.|.R.I.G.T.|._.H.i.%.@X@X@X@X@X@X@X@X@X",
"@X@X@X@Xz f.X.# @X$.M._.OXOX XT.T. X+XoX_.M.%.@X@X@X@X@X@X@X@X@X",
"@X@X@X@X@X* * @X@X$.x.T.|..XJ.9.9.I..X|.T.x.%.@X@X@X@X@X@X@X@X@X",
"@X@X@X@X@X@X@X@X@X$.p.D.T.U.n.c c n.T.T.D.q...@X@X@X@X@X@X@X@X@X",
"@X@X@X@X@X@X@X@X@X@X..x.Y.D.7.7 7 =.F.Y.d.M @ @X@X@X@X@X@X@X@X@X",
"@X@X@X@X@X@X@X@X@X@X$ 2.J.V.p . . p V.J.2.$ @X@X@X@X@X@X@X@X@X@X",
"@X@X@X@X@X@X@X@X@X@X  1 R i O @X@XO W R 1 . @X@X@X@X@X@X@X@X@X@X"
};
