/* XPM */
static char *result[] = {
/* columns rows colors chars-per-pixel */
"32 32 189 2 ",
"   c #010100",
".  c #0C0503",
"X  c #0E0803",
"o  c #120B05",
"O  c #1D0607",
"+  c #1E120B",
"@  c #181007",
"#  c #2D0405",
"$  c #21160B",
"%  c #2D1D0E",
"&  c #27190C",
"*  c #33140D",
"=  c #3D160A",
"-  c #2A1D17",
";  c #38101B",
":  c #3B2906",
">  c #32210E",
",  c #3B290A",
"<  c #27211B",
"1  c #322111",
"2  c #3A2611",
"3  c #3E2914",
"4  c #362719",
"5  c #2B1C23",
"6  c #2F2223",
"7  c #550709",
"8  c #521B0C",
"9  c #41151B",
"0  c #690C09",
"q  c #780A04",
"w  c #721108",
"e  c #452C0D",
"r  c #5C2705",
"t  c #583B07",
"y  c #442D15",
"u  c #452F19",
"i  c #4A331B",
"p  c #4D3215",
"a  c #52361B",
"s  c #5B3D1D",
"d  c #573A17",
"f  c #672905",
"g  c #77310C",
"h  c #772919",
"j  c #61371E",
"k  c #79301A",
"l  c #683D09",
"z  c #562A28",
"x  c #433323",
"c  c #483828",
"v  c #553C25",
"b  c #5A3436",
"n  c #772A23",
"m  c #683527",
"M  c #5F411F",
"N  c #6C450E",
"B  c #7F580A",
"V  c #60401F",
"C  c #53493C",
"Z  c #634222",
"A  c #684725",
"S  c #6D4B26",
"D  c #634529",
"F  c #6E4C29",
"G  c #744E25",
"H  c #794A2E",
"J  c #7D532A",
"K  c #6D553D",
"L  c #7F5931",
"P  c #7C5C3D",
"I  c #755738",
"U  c #4F4740",
"Y  c #62584A",
"T  c #785E4A",
"R  c #74614C",
"E  c #7D6E5E",
"W  c #840101",
"Q  c #8F0B0C",
"!  c #9D0600",
"~  c #9D190F",
"^  c #8A1910",
"/  c #911A11",
"(  c #A80600",
")  c #B70501",
"_  c #992017",
"`  c #D70504",
"'  c #D11906",
"]  c #E30201",
"[  c red",
"{  c #8B5F08",
"}  c #B04B09",
"|  c #A75F1C",
" . c #986E0A",
".. c #A67909",
"X. c #AC7F11",
"o. c #825529",
"O. c #84592D",
"+. c #8B5D2E",
"@. c #8B5D33",
"#. c #805C38",
"$. c #8A462A",
"%. c #92612E",
"&. c #8A6138",
"*. c #946433",
"=. c #9B6935",
"-. c #91663B",
";. c #9C6D3D",
":. c #98693A",
">. c #A06D3A",
",. c #AE6437",
"<. c #A4713D",
"1. c #AF763E",
"2. c #896541",
"3. c #996E43",
"4. c #906E4A",
"5. c #9B7146",
"6. c #947453",
"7. c #A47444",
"8. c #AE7945",
"9. c #A1744D",
"0. c #AB7B4D",
"q. c #A97548",
"w. c #B17B45",
"e. c #B47F4A",
"r. c #BE7040",
"t. c #A77851",
"y. c #B4870D",
"u. c #BE8C1C",
"i. c #AC850A",
"p. c #BB854D",
"a. c #B5804C",
"s. c #AC845B",
"d. c #BD8853",
"f. c #BB8B5C",
"g. c #B78553",
"h. c #BA8F63",
"j. c #B08961",
"k. c #BE9165",
"l. c #BB946D",
"z. c #B99673",
"x. c #BA9C7D",
"c. c #C3894F",
"v. c #C7865E",
"b. c #C18F5D",
"n. c #CC9359",
"m. c #C69565",
"M. c #CC9660",
"N. c #C3976A",
"B. c #CC9D6E",
"V. c #CA9967",
"C. c #D39E69",
"Z. c #C09E7B",
"A. c #D99F7B",
"S. c #D2A16E",
"D. c #CAA37A",
"F. c #CAA178",
"G. c #D4A377",
"H. c #B29A82",
"J. c #BFA68C",
"K. c #BCA287",
"L. c #C9AB8B",
"P. c #C8A581",
"I. c #D9AE83",
"U. c #D4AE88",
"Y. c #DBB186",
"T. c #D5B18C",
"R. c #DCB38B",
"E. c #DFB88F",
"W. c #CCB39A",
"Q. c #D7B693",
"!. c #DAB693",
"~. c #DEBA94",
"^. c #DABB9C",
"/. c #E2B78C",
"(. c #E1BB93",
"). c #E1BF9B",
"_. c #CDB7A2",
"`. c #DBBEA2",
"'. c #E2C19D",
"]. c #DDC2A7",
"[. c #E4C4A3",
"{. c #E4C6A8",
"}. c #E6C9AB",
"|. c #E9CBAD",
" X c #E7CDB1",
".X c #E8CFB5",
"XX c #E9D0B7",
"oX c #EAD2B9",
"OX c None",
/* pixels */
"OXOXOXOXOXOXOXOXOXOXOXOXOXOXOXOXOXOXOXOXOXOXOXOXOXOXOXOXOXOXOXOX",
"OXOXOXOXOXOXOXOXOXOXOXOXOXOXOXR 5.7.7.7.4.T OXOXOXOXOXOXOXOXOXOX",
"OXOXOXOXOXOXOXOXOXOXOXOXOXe.N.L.^.^.^.`.^.L.s.R Y OXOXOXOXOXOXOX",
"OXOXOXOXOXOXOXOXOXOX%.e.B.R.[. XXXXXXXXXXX.X].L.j.P U OXOXOXOXOX",
"OXOXOXOXOXOXOXOXOXOX;.G.{..XXXXXXX.X.X.X.X.X.X.X!.s.K OXOXOXOXOX",
"OXOXOXOXOXOXOXOXOX+.f.'.XXXX.X.X.X.X.XXX.X.X.X.X'.S.4.C OXOXOXOX",
"OXOXOXOXOXOXOXOXOX;.U. X.X.X.X.X.X.X.X.X.X.X.X.X'.Y.h.J M OXOXOX",
"OXOXOXOXOXOXOXOXF s.^..X.X.XXXXX.XXX.X.X.X.XXX.X'.R.S.=.Z OXOXOX",
"OXOXOXOXOXOXOXOX*.f.I.)..X X}. X XXXXXXXXX.X|.'.R.Y.S.>.j OXOXOX",
"OXOXOXOXOXOXOXOX%.w.n.R.XX}.~.).}.XX XXX{.~.~.!.R.G.n.>.V OXOXOX",
"OXOXOXOXOXOXOXOXs =.M.~.oXXX'.I.T.{.XX[.B.S.).{.'.I.M.*.d OXOXOX",
"OXOXOXOXOXOXOXOX@ s 8.D.W.J.l.a.g.T.}.R.a.8.l.x.Z.V.w.V o OXOXOX",
"OXOXOXOXOXOXOXOX. 2 o.O.c < 4 G g.Y.E.Y.d.J 4 - x J O.3   OXOXOX",
"OXOXOXOXOXOXOXOXOX3 o.s X     3 f.Y.Y.Y.k.3     X s o.3 X OXOXOX",
"OXOXOXOXOXOXOXOXOXi +.@.%     x F.(.E.!.D.c     % +.%.i OXOXOXOX",
"OXOXOXOXOXOXOXOXOXOXA <.Z $ % P T. X|.|.Q.&.% + V <.F OXOXOXOXOX",
"OXOXOXOXOXOXOXOXOXX y *.1.*.*.N.].W.]._.].N.*.*.1.*.u o OXOXOXOX",
"OXOXOXOXOXOXOXOX1 u A J +.*.d.Y.J.E H.E K.R.d.*.+.o.A i 1 OXOXOX",
"OXOXOXOXOXOXOXJ 3.l.N.:.y 2 2.B.k.z.k.z.k.B.2.2 y *.N.l.3.J OXOX",
"OXOXOXOXOXOXOX<.m.R.!.6.s > u 7.;.g.;.f.<.7.i 1 s 6.Q.E.m.&.d OX",
"OXOXOXOXOXOXOXF L 5.&.D H A v =.8.f.8.f.8.=.v D J A T 3.L s & OX",
"OXOXOXOXOXOXOXk 8 = > s -.9.t.=.S F S A G *.t.5.%.p : , e d p OX",
"OXOXOXOXOXOXOX` ` ) } | m z h g f r r r f g h z - t ..i. .{ t OX",
"OXOXOXOXOXOXOXOX[ ] ' ' Q 7 W ( ! q 0 q ! ( W 7 O , { ..y.X.l OX",
"OXOXOXOXOXOXOXOXOXOXOXOXQ ; w ~ ~ n b n _ ~ w 9 5 OXt y.u.+.j OX",
"OXOXOXOXOXOXOXOXOXOXOXOX* 6 T v.I.R.!.!.G.v.@.D D OXOXN o.H 1 OX",
"OXOXOXOXOXOXOXOXOXOXOXOXe P P.[.[.Y./.}.oX|.U.f.+.OXOXOX$ - OXOX",
"OXOXOXOXOXOXOXOXOXOXOXOX> O.n.Y.Z.q.c.Y.|..X}.B.+.s OXOXOXOXOXOX",
"OXOXOXOXOXOXOXOXOXOXOXOXOXG =.p.q.H %.V.Y.^.U.0.G OXOXOXOXOXOXOX",
"OXOXOXOXOXOXOXOXOXOXOXOXOXOXV j d a A 7.c.0.I Z Z OXOXOXOXOXOXOX",
"OXOXOXOXOXOXOXOXOXOXOXOXOXOXOXo . $ m ,.r.$.* @ OXOXOXOXOXOXOXOX",
"OXOXOXOXOXOXOXOXOXOXOXOXOXOXOXOXOX. 7 ^ / q # OXOXOXOXOXOXOXOXOX"
};
