/* XPM */
static char *result[] = {
/* columns rows colors chars-per-pixel */
"32 32 196 2 ",
"   c #020100",
".  c #0E0904",
"X  c #090502",
"o  c #140D06",
"O  c #170507",
"+  c #1C1209",
"@  c #2E0505",
"#  c #21160B",
"$  c #2C1D0E",
"%  c #31160C",
"&  c #291E18",
"*  c #381118",
"=  c #33210F",
"-  c #3D2C09",
";  c #2A231B",
":  c #322111",
">  c #3B2713",
",  c #3F2A14",
"<  c #352619",
"1  c #392919",
"2  c #2C1E23",
"3  c #54090A",
"4  c #5F1005",
"5  c #411517",
"6  c #4A190D",
"7  c #760700",
"8  c #720E08",
"9  c #7E1109",
"0  c #670903",
"q  c #5E2704",
"w  c #42310C",
"e  c #56350B",
"r  c #442D16",
"t  c #432E19",
"y  c #4A331C",
"u  c #483114",
"i  c #52371A",
"p  c #56391A",
"a  c #5B3C1C",
"s  c #513514",
"d  c #662906",
"f  c #762F0E",
"g  c #663C06",
"h  c #78310B",
"j  c #792A17",
"k  c #64391F",
"l  c #773416",
"z  c #562825",
"x  c #463626",
"c  c #573D22",
"v  c #573434",
"b  c #762C24",
"n  c #693F2C",
"m  c #784A08",
"M  c #7F5205",
"N  c #64411F",
"B  c #634512",
"V  c #7D4B13",
"C  c #624809",
"Z  c #4D433C",
"A  c #644322",
"S  c #684725",
"D  c #6C4A26",
"F  c #644629",
"G  c #6C4B28",
"H  c #744D25",
"J  c #7C5126",
"K  c #7D532A",
"L  c #6F533B",
"P  c #7C5C3B",
"I  c #7B5631",
"U  c #786149",
"Y  c #7D6E5E",
"T  c #840200",
"R  c #9E0600",
"E  c #8C1A0F",
"W  c #9C190E",
"Q  c #901B10",
"!  c #A70500",
"~  c #BB0802",
"^  c #9A2015",
"/  c #DF0300",
"(  c #D21902",
")  c #E20D04",
"_  c #FD0000",
"`  c #E7180C",
"'  c #CE2604",
"]  c #8B5E06",
"[  c #8A401D",
"{  c #875E1A",
"}  c #B75206",
"|  c #976C0A",
" . c #8D6609",
".. c #AB7D0B",
"X. c #B0750A",
"o. c #A07218",
"O. c #82562A",
"+. c #8B5C2D",
"@. c #82582E",
"#. c #905F2D",
"$. c #8B5D32",
"%. c #835C3C",
"&. c #815A33",
"*. c #8D4627",
"=. c #8F6133",
"-. c #89633D",
";. c #946434",
":. c #986735",
">. c #9C6936",
",. c #91663B",
"<. c #9D6C3C",
"1. c #966839",
"2. c #A36F3B",
"3. c #B06339",
"4. c #A4703D",
"5. c #A8713B",
"6. c #B0773E",
"7. c #966C40",
"8. c #996F45",
"9. c #936E49",
"0. c #9B7148",
"q. c #8D6E50",
"w. c #947453",
"e. c #896643",
"r. c #A47444",
"t. c #AE7944",
"y. c #AD7C4A",
"u. c #A67649",
"i. c #B47D46",
"p. c #B27E49",
"a. c #BE7041",
"s. c #A67950",
"d. c #AB840A",
"f. c #B2860A",
"g. c #B7910B",
"h. c #C49B0C",
"j. c #BA824B",
"k. c #A9845E",
"l. c #BB8754",
"z. c #BE8953",
"x. c #BB8B5C",
"c. c #B38454",
"v. c #AD8760",
"b. c #BA8E62",
"n. c #BD956D",
"m. c #BD9165",
"M. c #BA9672",
"N. c #BB9C7D",
"B. c #C58858",
"V. c #CC935B",
"C. c #C59464",
"Z. c #CC9762",
"A. c #C4966A",
"S. c #C5986B",
"D. c #CE9D6D",
"F. c #CE9861",
"G. c #D09F6D",
"H. c #D39C66",
"J. c #C69D75",
"K. c #DA9F7A",
"L. c #CAA37B",
"P. c #C9A178",
"I. c #D4A576",
"U. c #B29981",
"Y. c #BFA68B",
"T. c #BFA387",
"R. c #C7A98A",
"E. c #CCAD8C",
"W. c #DAAE83",
"Q. c #D6AD82",
"!. c #DBB185",
"~. c #D6B28D",
"^. c #DCB48C",
"/. c #CCB39B",
"(. c #D6B695",
"). c #D9B693",
"_. c #DEBA94",
"`. c #D7BA9C",
"'. c #DBBC9C",
"]. c #E1B78D",
"[. c #E0B88E",
"{. c #E1BE9A",
"}. c #E1BD97",
"|. c #CDB8A1",
" X c #DABEA2",
".X c #E2C09E",
"XX c #DCC2A8",
"oX c #E4C4A3",
"OX c #E5C7A8",
"+X c #E6C9AB",
"@X c #E9CCAE",
"#X c #E7CCB0",
"$X c #E8CFB5",
"%X c #E9D0B6",
"&X c #EBD2B8",
"*X c None",
/* pixels */
"*X*X*X*X*X*X*X*X*X*X*X*X*X*X*X*X*X*X*X*X*X*X*X*X*X*X*X*X*X*X*X*X",
"*X*X*X*X*X*X*X*X*X*XU 0.u.u.r.0.U *X*X*X*X*X*X*X*X*X*X*X*X*X*X*X",
"*X*X*X*X*X*X*X2.j.n.Y.`.`.`.'.`.R.k.U *X*X*X*X*X*X*X*X*X*X*X*X*X",
"*X*X*X*X*X;.i.D.).OX%X&X&X%X&X&X@XXXE.v.@.N *X*X*X*X*X*X*X*X*X*X",
"*X*X*X*X*X9.I.+X$X$X$X$X$X$X$X$X%X%X$X).c.H *X*X*X*X*X*X*X*X*X*X",
"*X*X*X*X-.b.oX%X$X$X$X$X$X$X%X$X%X%X$X.XG.1.N *X*X*X*X*X*X*X*X*X",
"*X*X*XZ 0.!.$X$X$X$X$X$X$X$X$X$X%X$X$X.X!.x.K *X*X*X*X*X*X*X*X*X",
"*X*X*XF v..X#X$X$X$X$X$X$X$X$X$X$X$X$X_.^.G.:.N *X*X*X*X*X*X*X*X",
"*X*X*X=.x.!..X$X#X@X#X$X$X$X$X$X$X+X'.^.!.H.>.A *X*X*X*X*X*X*X*X",
"*X*X*X#.j.V.^.$X+X_.'.#X$X$X$XOX_._.}.^.I.V.<.A *X*X*X*X*X*X*X*X",
"*X*X*Xa :.F.{.%X$X{.Q.~.+X%XXXD.I..X+X{.I.H.;.p *X*X*X*X*X*X*X*X",
"*X*X*Xo k i.L./.Y.M.j.c.^.OX~.j.i.n.N.J.C.i.a + *X*X*X*X*X*X*X*X",
"*X*X*XX , O.I x ; < H z.!.^.I.B.H < & x K O., X *X*X*X*X*X*X*X*X",
"*X*X*XX , O.a .     y x.!.^.!.x.t     X a O.> *X*X*X*X*X*X*X*X*X",
"*X*X*X*Xy =.+.$     x P._._._.P.x     $ +.$.y *X*X*X*X*X*X*X*X*X",
"*X*X*X*X*XD 5.a + $ e.(.@X@X@X~.P $ # A 5.D *X*X*X*X*X*X*X*X*X*X",
"*X*X*X*X. r ;.6.;.>.m.XX|.XX/.XXC.;.;.6.;., . *X*X*X*X*X*X*X*X*X",
"*X*X*X: y A O.+.;.z.^.T.Y U.Y T.^.l.:.+.K D y : *X*X*X*X*X*X*X*X",
"*X*XJ 7.n.A.,.r > e.D.m.M.m.M.m.D.-.> u ,.S.n.7.K *X*X*X*X*X*X*X",
"*Xi ;.C._.).w.p = y 4.<.l.8.x.<.2.y = p w.).].C.4.*X*X*X*X*X*X*X",
"*X$ A I 8.%.F K S c :.y.x.y.b.u.:.c F J F %.8.I D *X*X*X*X*X*X*X",
"*X[ l 6 w - s $.s.s.:.D G D G H ;.s.u.,.a - w w p *X*X*X*X*X*X*X",
"*X` ) ~ } X.e & z j h d q q d d f j z n o.g.d. .*X*X*X*X*X*X*X*X",
"*X*X_ / ( ' 4 O 3 T ! R 7 0 7 R ! T 3 V ..f.| M m *X*X*X*X*X*X*X",
"*X*X*X*X*X*X*X2 * 8 W W b v b W W 8 * B d.h.f.] g *X*X*X*X*X*X*X",
"*X*X*X*X*X*X*XF F $.V.K.(.`.].K.B.&.< C | { { { m *X*X*X*X*X*X*X",
"*X*X*X*X*X*X*X$.B.~.OX%X+X].!..XoXR.P e +.H.S.O.g *X*X*X*X*X*X*X",
"*X*X*X*X*X*Xa +.G.@X%X+X^.B.r.P.!.V.@.% L A.q., *X*X*X*X*X*X*X*X",
"*X*X*X*X*X*X*XH s.E.(.!.S.;.J r.j.:.N *X*X; & *X*X*X*X*X*X*X*X*X",
"*X*X*X*X*X*X*XN A I u.B.r.D s p k n *X*X*X*X*X*X*X*X*X*X*X*X*X*X",
"*X*X*X*X*X*X*X*Xo % *.a.3.k + o o *X*X*X*X*X*X*X*X*X*X*X*X*X*X*X",
"*X*X*X*X*X*X*X*X*X@ 9 Q E 3 O *X*X*X*X*X*X*X*X*X*X*X*X*X*X*X*X*X"
};
