/* XPM */
static char *result[] = {
/* columns rows colors chars-per-pixel */
"32 32 189 2 ",
"   c #000000",
".  c #0B0402",
"X  c #0E0905",
"o  c #130D06",
"O  c #140D0A",
"+  c #180804",
"@  c #1C1209",
"#  c #1B1007",
"$  c #1D0F1C",
"%  c #280606",
"&  c #33050D",
"*  c #201509",
"=  c #2B1C0D",
"-  c #241708",
";  c #301F0B",
":  c #2E1F12",
">  c #33210D",
",  c #3A290A",
"<  c #292118",
"1  c #362413",
"2  c #3A2613",
"3  c #382817",
"4  c #382624",
"5  c #42130A",
"6  c #560E10",
"7  c #6A0003",
"8  c #6C0903",
"9  c #6C160E",
"0  c #731D10",
"q  c #5D2703",
"w  c #502F02",
"e  c #4F3204",
"r  c #593704",
"t  c #412B15",
"y  c #482F15",
"u  c #4C331A",
"i  c #5A3C1E",
"p  c #55361D",
"a  c #682B05",
"s  c #702D07",
"d  c #7B2E13",
"f  c #4B3620",
"g  c #593E21",
"h  c #5B3925",
"j  c #692A25",
"k  c #613220",
"l  c #613030",
"z  c #5F4218",
"x  c #6C4408",
"c  c #744A07",
"v  c #7C5204",
"b  c #604715",
"n  c #65421F",
"m  c #5C4125",
"M  c #654321",
"N  c #6A4623",
"B  c #6D4A25",
"V  c #6E4D2C",
"C  c #63482E",
"Z  c #734D26",
"A  c #744D2A",
"S  c #7C542B",
"D  c #7F5326",
"F  c #6C4F34",
"G  c #675848",
"H  c #880700",
"J  c #990300",
"K  c #8E150D",
"L  c #9E1E14",
"P  c #A80700",
"I  c #B01509",
"U  c #A01D14",
"Y  c #91261B",
"T  c #99271A",
"R  c #8F3F1C",
"E  c #8B241C",
"W  c #C30100",
"Q  c #D41804",
"!  c #FC0000",
"~  c #FA0601",
"^  c #F31006",
"/  c #F22205",
"(  c #87460F",
")  c #84491E",
"_  c #865A12",
"`  c #8F5906",
"'  c #9F7209",
"]  c #9E7909",
"[  c #9A6D07",
"{  c #A87A09",
"}  c #A87B16",
"|  c #8D4C25",
" . c #845629",
".. c #82582A",
"X. c #8C5D2E",
"o. c #845C33",
"O. c #8F5F30",
"+. c #945B37",
"@. c #8F6031",
"#. c #8E633A",
"$. c #876039",
"%. c #976635",
"&. c #9D6936",
"*. c #9C6C3B",
"=. c #986735",
"-. c #A16E39",
";. c #A16C37",
":. c #A6723C",
">. c #AA743E",
",. c #E7400B",
"<. c #CB7D0E",
"1. c #876949",
"2. c #816140",
"3. c #9A6E43",
"4. c #976E46",
"5. c #9D7247",
"6. c #907252",
"7. c #AF6C43",
"8. c #B06B42",
"9. c #A37445",
"0. c #AB7947",
"q. c #AB7A4A",
"w. c #A87144",
"e. c #B07F4E",
"r. c #A47A55",
"t. c #8F7B68",
"y. c #B7910F",
"u. c #A78011",
"i. c #B88D0B",
"p. c #C79B0D",
"a. c #B5814D",
"s. c #BA824A",
"d. c #AF8357",
"f. c #B28354",
"g. c #BB8752",
"h. c #BF8953",
"j. c #BA8A5A",
"k. c #B78758",
"l. c #9C8772",
"z. c #B28F6B",
"x. c #B68C62",
"c. c #B9926C",
"v. c #BA9168",
"b. c #BC9C7B",
"n. c #B89775",
"m. c #C68A59",
"M. c #C5905B",
"N. c #D18E65",
"B. c #C69667",
"V. c #C69A6D",
"C. c #CA9969",
"Z. c #D09F6C",
"A. c #D19B65",
"S. c #C59D75",
"D. c #CA9E73",
"F. c #C09E7B",
"G. c #DC9C71",
"H. c #D4A26E",
"J. c #CEA479",
"K. c #C6A07B",
"L. c #D3A373",
"P. c #D5A97C",
"I. c #D5A778",
"U. c #BD9F80",
"Y. c #CFA983",
"T. c #DAA680",
"R. c #D9AF84",
"E. c #D3AC83",
"W. c #DFB284",
"Q. c #D6B18C",
"!. c #DCB58C",
"~. c #C5AE98",
"^. c #CFB293",
"/. c #D4B494",
"(. c #DEB994",
"). c #DCBC9C",
"_. c #DAB896",
"`. c #E3BF99",
"'. c #E4BB91",
"]. c #D4BCA4",
"[. c #DDBFA0",
"{. c #E4C19C",
"}. c #E3C4A4",
"|. c #E6CAAD",
" X c #E7CCB1",
".X c #E8CFB5",
"XX c #E9D0B6",
"oX c #EBD2B9",
"OX c None",
/* pixels */
"OXOXOXOXOXOXOXOXOXOXOXOXG 1.5.9.9.5.1.G OXOXOXOXOXOXOXOXOXOXOXOX",
"OXOXOXOXOXOXOXOXOXOX>.j.Y./.).].).).^.n.6.G OXOXOXOXOXOXOXOXOXOX",
"OXOXOXOXOXOXOXOX*.M.P.).|..XXXXXoXXXoX|.).b.3.N OXOXOXOXOXOXOXOX",
"OXOXOXOXOXOXOXG j.).|.XX.X.X.X.X.X.X.XXX.X}.J.%.n OXOXOXOXOXOXOX",
"OXOXOXOXOXOXOX9.E..X.X.X.X.X.X.X.X.X.X.X.X XW.g.S OXOXOXOXOXOXOX",
"OXOXOXOXOXOXF v.}..XXX.X.X.X.X.X.X.X.X.X.X|.(.J.*.N OXOXOXOXOXOX",
"OXOXOXOXOXOX2.E.|..X.X.X.X.X.X.X.X.X.X.X.X}._.W.g.S OXOXOXOXOXOX",
"OXOXOXOXOXOX9.J.!.|..X X|..X.X.X.X.X.X X}._.Q.P.g.S OXOXOXOXOXOX",
"OXOXOXOXOXOX;.m.H.}.XX{.(.}..X.X.X|.{.(.(.(.R.A.s...OXOXOXOXOXOX",
"OXOXOXOXOXOXZ s.I.|.oX|.!.E.)..X.XQ.C.!.|.}.!.L.s.Z OXOXOXOXOXOX",
"OXOXOXOXOXOX1 @.j./.~.F.j.0.V.{.}.B.>.k.b.b.S.m.X.1 OXOXOXOXOXOX",
"OXOXOXOXOXOXO N @.m 4 < p &.H.(.!.Z.*.p < 1 M X.n # OXOXOXOXOXOX",
"OXOXOXOXOXOX@ M D ;     o $.I.W.!.H.#.o     = S M @ OXOXOXOXOXOX",
"OXOXOXOXOXOXOXN -.m X   O 6.!.(._.!.6.o   X i -.N OXOXOXOXOXOXOX",
"OXOXOXOXOXOXOX2 &.X.3 @ u z.}..X X}.z.p @ 2 O.&.2 OXOXOXOXOXOXOX",
"OXOXOXOXOXOXOX* B >.-.@.q.Q.].].].].Q.q.@.-.>.B * OXOXOXOXOXOXOX",
"OXOXOXOXOXOX2 m B X.X.:.Z.).t.l.l.l./.Z.w.X.X.Z g 1 OXOXOXOXOXOX",
"OXOXOXOXOX..d.K.d.N > m x.B.c.z.c.c.B.x.g : N f.S.d.o.OXOXOXOXOX",
"OXOXOXOXB q.P.{.F.V y = o.*.a.q.q.f.*.S = y V F.`.P.e.B OXOXOXOX",
"OXOXOX= 2 A #.4.F B S f S >.k.f.d.j.9.S f  .A F 4.#.A 2 @ OXOXOX",
"OXOXOX) | z , > 2 N 3.r.w...B N n Z ..9.r.*.B 2 ; , z z OXOXOXOX",
"OXOXOX^ ,.<.` ( | 1 4 j d s a q q q s d d 4 3  ._ ] y.{ OXOXOXOX",
"OXOXOXOX~ / Q Q I & & 7 J P H 8 8 H P J 7 & O c u.p.' x OXOXOXOX",
"OXOXOXOXOX! ~ ! W % * 6 K U E l l Y T K 6 $ O e v { ] ` c OXOXOX",
"OXOXOXOXOXOXOXOXOX. O k 8.N.T./.Q.P.N.8.k O o r [ i.} x e OXOXOX",
"OXOXOXOXOXOXOXOXOXOXM #.D.'.`.`.{.`.'.D.#.M OX- w _ a.g X OXOXOX",
"OXOXOXOXOXOXOXOXOX&.a.J.}. X[.).`.[. X}.J.a.=.OX@ A w.f OXOXOXOX",
"OXOXOXOXOXOXOXOXOX%.V.}. X XS.0.q.S. XXX{.C.%.OXOX: = OXOXOXOXOX",
"OXOXOXOXOXOXOXOXOXM q.P.}.'.M.N k M.(.}.P.0.M OXOXOXOXOXOXOXOXOX",
"OXOXOXOXOXOXOXOXOX@ i a.R.H.-.t t :.L.W.e.i @ OXOXOXOXOXOXOXOXOX",
"OXOXOXOXOXOXOXOXOXOX* +.G.m.p o @ i m.G.+.@ OXOXOXOXOXOXOXOXOXOX",
"OXOXOXOXOXOXOXOXOXOX% 0 T Y 5 OXOX& L T 9 + OXOXOXOXOXOXOXOXOXOX"
};
