/* XPM */
static char *result[] = {
/* columns rows colors chars-per-pixel */
"32 32 192 2 ",
"   c #020100",
".  c #0C0603",
"X  c #0D0804",
"o  c #150D06",
"O  c #190C06",
"+  c #1C1208",
"@  c #181109",
"#  c #290604",
"$  c #3B0F0A",
"%  c #22160A",
"&  c #26180B",
"*  c #2C1D0D",
"=  c #2D120B",
"-  c #341B09",
";  c #271F18",
":  c #36131E",
">  c #2E2014",
",  c #2B231B",
"<  c #3A2713",
"1  c #3E2913",
"2  c #372616",
"3  c #1E1826",
"4  c #282321",
"5  c #34272B",
"6  c #362826",
"7  c #4A0202",
"8  c #43151A",
"9  c #630404",
"0  c #610806",
"q  c #631408",
"w  c #71140B",
"e  c #4C2F08",
"r  c #5D3C06",
"t  c #482111",
"y  c #462E16",
"u  c #492E12",
"i  c #48251B",
"p  c #4D331A",
"a  c #443217",
"s  c #533317",
"d  c #51361A",
"f  c #5D3E1D",
"g  c #54391C",
"h  c #643F05",
"j  c #7C3806",
"k  c #61241D",
"l  c #483827",
"z  c #5A3B23",
"x  c #5A3631",
"c  c #6A3829",
"v  c #674307",
"b  c #774907",
"n  c #755308",
"m  c #62401F",
"M  c #774A17",
"N  c #5C4329",
"B  c #5B4D3B",
"V  c #644324",
"C  c #694622",
"Z  c #6F4A25",
"A  c #674828",
"S  c #65482B",
"D  c #744D26",
"F  c #76462D",
"G  c #7A552A",
"H  c #67493C",
"J  c #6E5236",
"K  c #7F5932",
"L  c #745639",
"P  c #4A4B47",
"I  c #544C42",
"U  c #795F44",
"Y  c #9D0C02",
"T  c #950300",
"R  c #87110A",
"E  c #8E1D11",
"W  c #9A3D06",
"Q  c #B72F05",
"!  c #C62103",
"~  c #844607",
"^  c #82560A",
"/  c #875C19",
"(  c #976C0B",
")  c #9C710A",
"_  c #99661A",
"`  c #A06A07",
"'  c #A77808",
"]  c #A0720D",
"[  c #BE7808",
"{  c #AC7D17",
"}  c #864E28",
"|  c #81562C",
" . c #84592C",
".. c #8A5B2E",
"X. c #895A24",
"o. c #8A5E32",
"O. c #855C36",
"+. c #955A35",
"@. c #96622F",
"#. c #9F6A26",
"$. c #8F653B",
"%. c #8F6031",
"&. c #916231",
"*. c #9A6733",
"=. c #9D6934",
"-. c #936639",
";. c #9C6C3D",
":. c #95683E",
">. c #A36D36",
",. c #A66F3A",
"<. c #A1663E",
"1. c #A4703D",
"2. c #AC743C",
"3. c #895942",
"4. c #866241",
"5. c #956B40",
"6. c #97714A",
"7. c #977857",
"8. c #A16840",
"9. c #A37344",
"0. c #AB7743",
"q. c #A7794B",
"w. c #B47B42",
"e. c #BA7F44",
"r. c #B97A48",
"t. c #AD7B57",
"y. c #C17544",
"u. c #AF860E",
"i. c #B3810A",
"p. c #BA8928",
"a. c #C69B0E",
"s. c #D0900C",
"d. c #CFA50F",
"f. c #D5A915",
"g. c #CA903A",
"h. c #BE8144",
"j. c #BB834C",
"k. c #B4824F",
"l. c #BC8957",
"z. c #B88859",
"x. c #AA8866",
"c. c #B48B60",
"v. c #BE946A",
"b. c #A58C73",
"n. c #B89674",
"m. c #C18446",
"M. c #C3874B",
"N. c #C78849",
"B. c #C9894B",
"V. c #C48A53",
"C. c #C88E57",
"Z. c #CB935B",
"A. c #C99158",
"S. c #CD9964",
"D. c #CA9B6C",
"F. c #C69669",
"G. c #D19861",
"H. c #D19C69",
"J. c #C89D71",
"K. c #DBA26A",
"L. c #CCA57D",
"P. c #C9A177",
"I. c #D5A576",
"U. c #DBAC7E",
"Y. c #D6A97A",
"T. c #E8AD7C",
"R. c #C9AA8B",
"E. c #D3AD87",
"W. c #D9AD81",
"Q. c #D0AE8C",
"!. c #DBB38B",
"~. c #D3B08C",
"^. c #C2AD98",
"/. c #CCB49B",
"(. c #DDB791",
"). c #DEB993",
"_. c #DBBB9B",
"`. c #D6B592",
"'. c #E0B78E",
"]. c #E1BE9A",
"[. c #E0BC97",
"{. c #D6BCA0",
"}. c #F2C295",
"|. c #DFC0A1",
" X c #E3C3A3",
".X c #E6CAAC",
"XX c #E5C7A8",
"oX c #E7CDB1",
"OX c #E8CFB5",
"+X c #E9D0B6",
"@X c #EBD2B8",
"#X c None",
/* pixels */
"#X#X#X#X#X#X#X#X#X#X#X#X#X#X#X#X#X#X#X#X#X#X#X#X#X#X#X#X#X#X#X#X",
"#X#X#X#X#X#X#X=.6.9.9.9.q.9.0.#X#X#X#X#X#X#X#X#X#X#X#X#X#X#X#X#X",
"#X#X#X#X;.9.k.D.Q.{._._._._.L.q.*.#X#X#X#X#X#X#X#X#X#X#X#X#X#X#X",
"#X#X#X9.v.`. XXXOX@X+X+X+X+X.XE.C.2.#X#X#X#X#X#X#X#X#X#X#X#X#X#X",
"#X#X*.v.].+X+X+XOXOXOXOXOXOX+X.X!.A.2.#X#X#X#X#X#X#X#X#X#X#X#X#X",
"#X#X;.E.+XOXOXOXOX+XOXOX+X+XoX.X).E.A.,.#X#X#X#X#X#X#X#X#X#X#X#X",
"#X=.k.).+X+XoX.XoX+XoX.X.X.X).(.!.!.G.2.@.#X#X#X#X#X#X#X#X#X#X#X",
"#X .F.XX+XoX X_. X+X.X].!.!.!.!.!.W.Z.M.&.#X#X#X#X#X#X#X#X#X#X#X",
"#X* x.XXoX_.)..X+X@X+X|.I.Z.I.U.U.G.N.N.%.f #X#X#X#X#X#X#X#X#X#X",
"#X@ $.W. Xv.z.Q.^./._.Y.j.,.M.A.C.B.N.m.%.m #X#X#X#X#X#X#X#X#X#X",
"#X@ D F.!.l...N 4 l 5.j.>.>.m.N.N.N.N.2.Z p #X#X#X#X#X#X#X#X#X#X",
"#X#XN 0.I.S.A .     1 =.h.w.h.m.N.N.m. .> #X#X#X#X#X#X#X#X#X#X#X",
"#X#XB q.W.!.U o     p w.w.>.*.>.m.m.>.p X #X#X#X#X#X#X#X#X#X#X#X",
"#X#XL c.R.{.R.J ; a &.w.*.@.@.2.2.>.m & #X#X#X#X#X#X#X#X#X#X#X#X",
"#X#XI 4.J b..X~.n.v.V.2. .0.%.C f g * #X#X#X#X#X#X#X#X#X#X#X#X#X",
"#X#XP 6.w.J.).!.(.W.H.2.K z.A & + o o #X#X#X#X#X#X#X#X#X#X#X#X#X",
"#X#XP 7.l.J.D.D.P.V.j.*.%.;.< 1 m & #X#X#X#X#X#X#X#X#X#X#X#X#X#X",
"#X#X#X, G -.-.-.&.=.>.2.-.D + 1 f * o #X#X#X#X#X#X#X#X#X#X#X#X#X",
"#X#X#XX V |  . ...*.D d > 2 , 6 N N 8 #X#X#X#X#X#X#X#X#X#X#X#X#X",
"#X#X#X#X* % & * a d % + a G 7.b.x. .t $ #X#X#X#X#X#X#X#X#X#X#X#X",
"#X#X#X#X#X#X- e v v r n u.{ X.%.-.M - . #X#X#X#X#X#X#X#X#X#X#X#X",
"#X#X#X#X#X#X5 i ~ [ s.i.^ X.j.H.V.} % #X#X#X#X#X#X#X#X#X#X#X#X#X",
"#X#X#X#X#X#X: 9 Y Q Q ~ ~ _ G.}.T.3.5 3 #X#X#X#X#X#X#X#X#X#X#X#X",
"#X#X#X#X#X#X: 9 T T W ` ' a.p.K.S.H x i #X#X#X#X#X#X#X#X#X#X#X#X",
"#X#X#X#X#X#X#X8 0 q M ] d.a.f.g.+.F <...d #X#X#X#X#X#X#X#X#X#X#X",
"#X#X#X#X#X#X#Xc i z ;.#.a.( a.) M 9.C.M.C #X#X#X#X#X#X#X#X#X#X#X",
"#X#X#X#X#X#X#XD A L t.X.) b ( / 9.E.(.S.| 1 #X#X#X#X#X#X#X#X#X#X",
"#X#X#X#X#X#Xf D *.2.O.d v r M z.]..X].S.V @ #X#X#X#X#X#X#X#X#X#X",
"#X#X#X#X#X#X#XD ,.B.2.c & u G J.].'.L.9.y #X#X#X#X#X#X#X#X#X#X#X",
"#X#X#X#X#X#X#Xs } r.5.p . + d O.l.A.5.1 o #X#X#X#X#X#X#X#X#X#X#X",
"#X#X#X#X#X#X#X# q k 5 @ #X#X# $ +.y.} = #X#X#X#X#X#X#X#X#X#X#X#X",
"#X#X#X#X#X#X#X#X#X#X#X#X#X#X7 9 R E w #   #X#X#X#X#X#X#X#X#X#X#X"
};
