/* XPM */
static char *result[] = {
/* columns rows colors chars-per-pixel */
"32 32 189 2 ",
"   c #010000",
".  c #0D0907",
"X  c #130C05",
"o  c #100B08",
"O  c #1A1005",
"+  c #1C1209",
"@  c #16100A",
"#  c #22160B",
"$  c #261A0D",
"%  c #2B1C0C",
"&  c #32230D",
"*  c #39270E",
"=  c #2A231C",
"-  c #2F2214",
";  c #3D2B1B",
":  c #372716",
">  c #231A2E",
",  c #2A192A",
"<  c #362121",
"1  c #3F3124",
"2  c #4B090E",
"3  c #47180C",
"4  c #5C100D",
"5  c #4B0B11",
"6  c #4F1918",
"7  c #670301",
"8  c #770502",
"9  c #60170F",
"0  c #7C160E",
"q  c #711D12",
"w  c #452D0A",
"e  c #542F02",
"r  c #5A3201",
"t  c #553408",
"y  c #442C13",
"u  c #482719",
"i  c #4B3316",
"p  c #4C3319",
"a  c #51351A",
"s  c #5C3E1E",
"d  c #53361A",
"f  c #682A0F",
"g  c #6A3D07",
"h  c #703C04",
"j  c #7D2519",
"k  c #453424",
"l  c #523C26",
"z  c #6D3A25",
"x  c #6C4605",
"c  c #724908",
"v  c #7C5506",
"b  c #6E4014",
"n  c #5F4020",
"m  c #654323",
"M  c #6A4422",
"N  c #65472A",
"B  c #6A4B2D",
"V  c #6C4822",
"C  c #764E25",
"Z  c #774528",
"A  c #7C532A",
"S  c #77532F",
"D  c #674C31",
"F  c #7E5A36",
"G  c #705841",
"H  c #9D0000",
"J  c #930000",
"K  c #9D1905",
"L  c #B30000",
"P  c #86251C",
"I  c #972C1F",
"U  c #8B2E20",
"Y  c #833C24",
"T  c #C52505",
"R  c #D22504",
"E  c #82560C",
"W  c #8B6206",
"Q  c #996E07",
"!  c #9B7409",
"~  c #986A16",
"^  c #A0670A",
"/  c #A57C0A",
"(  c #B47B0A",
")  c #83552E",
"_  c #84582D",
"`  c #8B5D2E",
"'  c #925A23",
"]  c #8A5B35",
"[  c #9B5E33",
"{  c #96632F",
"}  c #9A672F",
"|  c #8D6132",
" . c #8D643A",
".. c #946434",
"X. c #9B6634",
"o. c #9D6933",
"O. c #9B6C3C",
"+. c #97693D",
"@. c #A16B35",
"#. c #A46A3C",
"$. c #A2703C",
"%. c #AE753D",
"&. c #A67137",
"*. c #B0773D",
"=. c #B2793F",
"-. c #8B6945",
";. c #996D41",
":. c #976944",
">. c #9A7044",
",. c #9E7954",
"<. c #A06A41",
"1. c #A57544",
"2. c #AB7642",
"3. c #AC7944",
"4. c #AE7D4E",
"5. c #B37A42",
"6. c #BA7E43",
"7. c #B6774E",
"8. c #A77C53",
"9. c #AE820A",
"0. c #B78C0A",
"q. c #D4930D",
"w. c #CB9E13",
"e. c #D5A719",
"r. c #BC8145",
"t. c #BA834C",
"y. c #B7834F",
"u. c #AC845D",
"i. c #AF8152",
"p. c #B28354",
"a. c #BB8857",
"s. c #AF8C69",
"d. c #BB9065",
"f. c #B89673",
"g. c #BC9B7C",
"h. c #C18345",
"j. c #C68749",
"k. c #C5884B",
"l. c #C8894A",
"z. c #D19746",
"x. c #C98E52",
"c. c #C38A58",
"v. c #C3905D",
"b. c #C89058",
"n. c #CB9156",
"m. c #DEA259",
"M. c #C69564",
"N. c #CB9464",
"B. c #CD9A6A",
"V. c #CA976A",
"C. c #D49465",
"Z. c #C39B72",
"A. c #C29F7A",
"S. c #D49E76",
"D. c #DEA06B",
"F. c #CEA275",
"G. c #CDA57C",
"H. c #C3A17E",
"J. c #D5A575",
"K. c #D9A675",
"L. c #D5A47A",
"P. c #D5AA7F",
"I. c #D9AA7B",
"U. c #D0AB84",
"Y. c #D7AE84",
"T. c #DCB38B",
"R. c #D7B18A",
"E. c #C7AF96",
"W. c #C6AE96",
"Q. c #CBB197",
"!. c #DAB692",
"~. c #DDB994",
"^. c #D7B99B",
"/. c #DBBD9D",
"(. c #E4B689",
"). c #F0BE8D",
"_. c #E3BC95",
"`. c #E1BF9D",
"'. c #DFC09F",
"]. c #E4C09D",
"[. c #EFC092",
"{. c #F5C89B",
"}. c #E2C3A3",
"|. c #E6CAAE",
" X c #E7CDB2",
".X c #E8CFB5",
"XX c #E9D0B7",
"oX c #EAD1B8",
"OX c None",
/* pixels */
"OXOXOXOXOXOXOXOXOXOX| X.O.<.;.;.>.:.[ OXOXOXOXOXOXOXOXOXOXOXOXOX",
"OXOXOXOXOXOXOXOX$.1.c.G.^./././.'.!.Z.$.o.OXOXOXOXOXOXOXOXOXOXOX",
"OXOXOXOXOXOXOX4.G.^.}.|..XoXoXoXoX.X/.F.t.@.OXOXOXOXOXOXOXOXOXOX",
"OXOXOXOXOXOX1.U.|.XXXXXX.X.X.X.X.X.X.X}.I.t.@.OXOXOXOXOXOXOXOXOX",
"OXOXOXOXOXOXp.}.XX XXXXX XXXXXXX.X.X X}.T.J.t.X.OXOXOXOXOXOXOXOX",
"OXOXOXOXOX@.V.|.XX.X|.|. X.X X X X}.~.T.T.I.k.@.OXOXOXOXOXOXOXOX",
"OXOXOXOXC :.R. X X|.]./.|.XX}.~.T.T.T.T.T.J.x.=.A OXOXOXOXOXOXOX",
"OXOXOXOXo n U.|.|.!.]. XXXXX|.~.B.N.I.P.J.n.l.r.C OXOXOXOXOXOXOX",
"OXOXOXOX  ; a._.!.i.Z.E.W.^.^.B.%.=.l.x.l.j.l.=.C OXOXOXOXOXOXOX",
"OXOXOXOXOX& ;.Y.P.1.) 1 = D 3.5.o.%.l.l.l.l.h...s OXOXOXOXOXOXOX",
"OXOXOXOXOXOX_ v.I.4.:     X b =.r.6.r.h.k.l.3.s + OXOXOXOXOXOXOX",
"OXOXOXOXOXOX_ b.(.A.k     X S r.%.o.o.*.j.6._ $   OXOXOXOXOXOXOX",
"OXOXOXOXOXOXO.f.E./.u.k - m %.%.{ { o.*.%.` p o   OXOXOXOXOXOXOX",
"OXOXOXOXOXOXA  .G Q.}.H.f.a.k.....2.A n s i + o OXOXOXOXOXOXOXOX",
"OXOXOXOXOXOXA 5.p.Y.!.~.T.P.b.` :.8.y # + X OXOXOXOXOXOXOXOXOXOX",
"OXOXOXOXOXOXD u.v.G.M.G.M.k.3.` +.S % d d . OXOXOXOXOXOXOXOXOXOX",
"OXOXOXOXOXOX@ 1 |  .O. ...o.&.$.| p @ p p O OXOXOXOXOXOXOXOXOXOX",
"OXOXOXOXOXOXOX% A A ` A ..| b ; - : = k N a OXOXOXOXOXOXOXOXOXOX",
"OXOXOXOXOXOXOXOX$ % * & a y & & i  .g.g.8.B OXOXOXOXOXOXOXOXOXOX",
"OXOXOXOXOXOXOXOXOXw v c x v ! / E o.D.N.:.OXOXOXOXOXOXOXOXOXOXOX",
"OXOXOXOXOXOXOXOXOX: b ( q.q.Q h { C.).(.7.Z OXOXOXOXOXOXOXOXOXOX",
"OXOXOXOXOXOXOXOX> 5 8 K T R K 7 Y B.{.).a.b OXOXOXOXOXOXOXOXOXOX",
"OXOXOXOXOXOXOXOX> 5 8 H L L J 7 6 -.m.z.~ x r OXOXOXOXOXOXOXOXOX",
"OXOXOXOXOXOXOXOXOX, 4 0 P U P q f Q e.w.Q g r OXOXOXOXOXOXOXOXOX",
"OXOXOXOXOXOXOXOXOXOXz #.S.T.K.c.' E / Q v x r OXOXOXOXOXOXOXOXOX",
"OXOXOXOXOXOXOXOXOXOXA p.(.`._.K.} E ( 0.E t e OXOXOXOXOXOXOXOXOX",
"OXOXOXOXOXOXOXOXOXV 2.L.]. X|._.-.t c E r # OXOXOXOXOXOXOXOXOXOX",
"OXOXOXOXOXOXOXOXOXV 2.!..XoX X`.d.C Z _ u . OXOXOXOXOXOXOXOXOXOX",
"OXOXOXOXOXOXOXOXOXOXN s.`.|._.U.,.d # # + OXOXOXOXOXOXOXOXOXOXOX",
"OXOXOXOXOXOXOXOXOXOX+ l ;.S.K.8.F s $   OXOXOXOXOXOXOXOXOXOXOXOX",
"OXOXOXOXOXOXOXOXOXOXOXX # ] C.V.7.M @ OXOXOXOXOXOXOXOXOXOXOXOXOX",
"OXOXOXOXOXOXOXOXOXOXOXOXX 9 I U j 3 + OXOXOXOXOXOXOXOXOXOXOXOXOX"
};
