/* XPM */
static char *result[] = {
/* columns rows colors chars-per-pixel */
"32 32 204 2 ",
"   c #020101",
".  c #0A0503",
"X  c #0D0904",
"o  c #0F0D0C",
"O  c #120B05",
"+  c #150A06",
"@  c #19110B",
"#  c #340404",
"$  c #22150A",
"%  c #24190E",
"&  c #2B1C0D",
"*  c #2D1905",
"=  c #341C0F",
"-  c #2B1C11",
";  c #211911",
":  c #35131F",
">  c #2C0705",
",  c #32210F",
"<  c #2E2115",
"1  c #2B231B",
"2  c #332211",
"3  c #3B2713",
"4  c #382918",
"5  c #101529",
"6  c #211F2F",
"7  c #291D28",
"8  c #3F1D21",
"9  c #332A21",
"0  c #4E060A",
"q  c #431119",
"w  c #5B1A11",
"e  c #590605",
"r  c #610B09",
"t  c #690504",
"y  c #7E0506",
"u  c #750305",
"i  c #6A1107",
"p  c #761A12",
"a  c #482A04",
"s  c #412D0D",
"d  c #5C3905",
"f  c #543203",
"g  c #432D1B",
"h  c #4C2C1B",
"j  c #44211A",
"k  c #532517",
"l  c #4B3218",
"z  c #52361B",
"x  c #55391C",
"c  c #5A3C1D",
"v  c #523516",
"b  c #632A1B",
"n  c #7E281E",
"m  c #413426",
"M  c #5B3C22",
"N  c #553729",
"B  c #663C22",
"V  c #634306",
"C  c #6E460B",
"Z  c #664805",
"A  c #754D05",
"S  c #62411E",
"D  c #69461C",
"F  c #5A432C",
"G  c #654321",
"H  c #6E4C22",
"J  c #6E492B",
"K  c #664627",
"L  c #744C25",
"P  c #784327",
"I  c #7B5127",
"U  c #77522B",
"Y  c #7E562D",
"T  c #775725",
"R  c #6B4C38",
"E  c #7A4D36",
"W  c #745434",
"Q  c #7C5B39",
"!  c #860000",
"~  c #85130C",
"^  c #911703",
"/  c #A80001",
"(  c #B10000",
")  c #BA1102",
"_  c #8A251B",
"`  c #AC2404",
"'  c #B12203",
"]  c #CB2403",
"[  c #82500A",
"{  c #854409",
"}  c #966906",
"|  c #8E6619",
" . c #8A6509",
".. c #AE7F0A",
"X. c #A1780B",
"o. c #B77D0B",
"O. c #A06F18",
"+. c #A97910",
"@. c #85592C",
"#. c #895B2E",
"$. c #895727",
"%. c #924E34",
"&. c #8C5E30",
"*. c #8E5B3E",
"=. c #915B39",
"-. c #A15D37",
";. c #95622E",
":. c #916526",
">. c #8C643B",
",. c #956434",
"<. c #996633",
"1. c #9D6934",
"2. c #956738",
"3. c #9C6C3B",
"4. c #9B633F",
"5. c #A26C36",
"6. c #A16D3C",
"7. c #A3703C",
"8. c #AB733B",
"9. c #B57B3C",
"0. c #B0773D",
"q. c #8A6B4C",
"w. c #886040",
"e. c #9B694A",
"r. c #9E6D51",
"t. c #9B7956",
"y. c #A27343",
"u. c #AA7643",
"i. c #A7754C",
"p. c #B47C44",
"a. c #BB7F43",
"s. c #B37B49",
"d. c #B47850",
"f. c #A76844",
"g. c #C07F4C",
"h. c #B0830A",
"j. c #B9940E",
"k. c #AE8410",
"l. c #CC8E0C",
"z. c #D6950D",
"x. c #C19810",
"c. c #CEA217",
"v. c #BD8043",
"b. c #BC824A",
"n. c #B68047",
"m. c #AD8053",
"M. c #B7895C",
"N. c #BE8D5C",
"B. c #B88756",
"V. c #98826B",
"C. c #BC8E61",
"Z. c #BE8663",
"A. c #BC936B",
"S. c #B99878",
"D. c #C38547",
"F. c #C48648",
"G. c #C78849",
"H. c #C88A4B",
"J. c #C58C53",
"K. c #C78C58",
"L. c #CA945E",
"P. c #C89159",
"I. c #E0A65E",
"U. c #C58C62",
"Y. c #C99663",
"T. c #C6946B",
"R. c #CA9969",
"E. c #D19E6B",
"W. c #D09A64",
"Q. c #C39B75",
"!. c #C99E74",
"~. c #DDA46D",
"^. c #D3A06C",
"/. c #CAA37C",
"(. c #D4A372",
"). c #D8AA7C",
"_. c #D7A87D",
"`. c #E7B27F",
"'. c #CBA886",
"]. c #D4AB82",
"[. c #DAAE82",
"{. c #D3AC8A",
"}. c #D5B28E",
"|. c #DCB48B",
" X c #DCB185",
".X c #C4AD96",
"XX c #CAB29B",
"oX c #D4B293",
"OX c #DCB791",
"+X c #DFBA93",
"@X c #DCBC9C",
"#X c #D3B99F",
"$X c #E8B383",
"%X c #E1BB94",
"&X c #DEBFA0",
"*X c #E4C09A",
"=X c #E3C3A3",
"-X c #E6CAAD",
";X c #E8CAAB",
":X c #E7CDB1",
">X c #E8CFB5",
",X c #E9D0B6",
"<X c #EAD1B8",
"1X c None",
/* pixels */
"1X1X1X1X1X1X1X1X1X1X1X1X1X1X1X1X1X1X1X1X1X1X1X1X1X1X1X1X1X1X1X1X",
"1X1X1X1X1X1X1X1X1X1X1X1X1X1.y.y.y.y.y.y.7.1X1X1X1X1X1X1X1X1X1X1X",
"1X1X1X1X1X1X1X1X1X1X3.y.n.Y.{.@X@X@X&X@X'.m.1.1X1X1X1X1X1X1X1X1X",
"1X1X1X1X1X1X1X1X1X7.C.}.&X-X>X>X<X<X<X<X:X}.P.8.1X1X1X1X1X1X1X1X",
"1X1X1X1X1X1X1X1X1XC.@X>X,X,X>X>X>X>X>X>X,X:X+XY.0.1X1X1X1X1X1X1X",
"1X1X1X1X1X1X1X1X3./.,X>X>X,X>X>X>X>X>X:X-X-X+X[.Y.8.1X1X1X1X1X1X",
"1X1X1X1X1X1X1X<.n.}.>X>X:X-X:X>X>X:X:X;X@XOX|.|.E.9.;.1X1X1X1X1X",
"1X1X1X1X1X1X1XY C.=X>X:X;X@X=X,X:X@XOX}.|.|.|.[.Y.D.2.1X1X1X1X1X",
"1X1X1X1X1X1X1X% t.*X>X@XOX-X,X,X>X;X).L.(.).).W.H.H.<.G 1X1X1X1X",
"1X1X1X1X1X1X1XX Q ).=XQ.M.'..XXX@X).B.8.F.P.P.H.H.D.,.G 1X1X1X1X",
"1X1X1X1X1X1X1XO G N.|.C.,.K 1 m >.n.5.1.v.H.H.F.H.0.L x 1X1X1X1X",
"1X1X1X1X1X1X1X1XS y.(.E.W O     , ;.a.a.v.D.F.H.D.;.3 O 1X1X1X1X",
"1X1X1X1X1X1X1X1X1Xy.).OXq.@     3 8.v.5.1.5.v.F.8.x .   1X1X1X1X",
"1X1X1X1X1X1X1X1X#.d.'.#X'.Q 1 4 &.n.1.;.;.8.9.5.L -   1X1X1X1X1X",
"1X1X1X1X1X1X1X1XH >.W V.;X}.S.A.J.p.@.8.1.G S x , o o 1X1X1X1X1X",
"1X1X1X1X1X1X1X1XG 3.u.T.OXOX+X).^.u.Y M.W & @ + X 1X1X1X1X1X1X1X",
"1X1X1X1X1X1X1X1Xx q.N.!.!.T./.J.b.1.#.7.g 3 S & 1X1X1X1X1X1X1X1X",
"1X1X1X1X1X1X1X1X1X; H 2.2.2.>.5.1.8.2.U $ 2 c < O 1X1X1X1X1X1X1X",
"1X1X1X1X1X1X1X1X1X  x @.@.@.@.1.T x < 4 1 4 F M l 1X1X1X1X1X1X1X",
"1X1X1X1X1X1X1X1X1X1X; % & & 3 z * @ 3 T t.S.Q.*.1X1X1X1X1X1X1X1X",
"1X1X1X1X1X1X1X1X1X1X1X5 4 d V Z Z  .j.k.:.L.~.f.P 1X1X1X1X1X1X1X",
"1X1X1X1X1X1X1X1X1X1X1X6 q { ..l.z.z.h.[ 8.`.$XK.$.d 1X1X1X1X1X1X",
"1X1X1X1X1X1X1X1X1X1X1X: y ) ' ` ] ] ^ i -.~.I.9.O.Z 1X1X1X1X1X1X",
"1X1X1X1X1X1X1X1X1X1X6 : y / y ! ( / u 0 = | c.c.h.A a 1X1X1X1X1X",
"1X1X1X1X1X1X1X1X1X- N N q r p _ _ p 8 7 @ f } h...} a 1X1X1X1X1X",
"1X1X1X1X1X1X1X1X1XJ g.4.h B K.%X].d.E M c C X.x.+.C * 1X1X1X1X1X",
"1X1X1X1X1X1X1X1X1XJ p.6.4.C.%X;X%X_.b.;.@.D s L =.h O 1X1X1X1X1X",
"1X1X1X1X1X1X1X1X1X% - z i. X:X>X=X XJ.,.D z = R i.c 1X1X1X1X1X1X",
"1X1X1X1X1X1X1X1X1X1X1X1XM M.{.oX'.!.s.I = 3 z m 2 % 1X1X1X1X1X1X",
"1X1X1X1X1X1X1X1X1X1X1X1X1XN 4.r.r.*.B & O @ k k $ 1X1X1X1X1X1X1X",
"1X1X1X1X1X1X1X1X1X1X1X1X1Xb %.U.T.=.% 1X. # e r > 1X1X1X1X1X1X1X",
"1X1X1X1X1X1X1X1X1X1X1X1X1Xt ~ _ n w O 1X1X1X1X1X1X1X1X1X1X1X1X1X"
};
