/* XPM */
static char *result[] = {
/* columns rows colors chars-per-pixel */
"32 32 201 2 ",
"   c #020200",
".  c #0A0603",
"X  c #0E0904",
"o  c #0E0C0D",
"O  c #120C05",
"+  c #150A06",
"@  c #191108",
"#  c #1E1810",
"$  c #270B0A",
"%  c #320403",
"&  c #24190E",
"*  c #2C1D0D",
"=  c #211608",
"-  c #321D0F",
";  c #36170E",
":  c #291C10",
">  c #31200E",
",  c #3B2A0F",
"<  c #2F2112",
"1  c #2D231A",
"2  c #352312",
"3  c #392612",
"4  c #31261C",
"5  c #392B1B",
"6  c #0E1629",
"7  c #1F1F2F",
"8  c #1F1B32",
"9  c #351621",
"0  c #281D29",
"q  c #2B2520",
"w  c #382421",
"e  c #3E3125",
"r  c #4E0609",
"t  c #5B0A07",
"y  c #5F1910",
"u  c #441417",
"i  c #660605",
"p  c #7A0505",
"a  c #6B1208",
"s  c #761C13",
"d  c #5B3A06",
"f  c #4F2515",
"g  c #502D1E",
"h  c #4C3218",
"j  c #44301B",
"k  c #51361B",
"l  c #55391D",
"z  c #5A3D1D",
"x  c #59371A",
"c  c #623F04",
"v  c #602419",
"b  c #7E281D",
"n  c #79371A",
"m  c #733C10",
"M  c #421E23",
"N  c #553B21",
"B  c #53342C",
"V  c #583A26",
"C  c #613C22",
"Z  c #6E3421",
"A  c #654606",
"S  c #66421E",
"D  c #5B4127",
"F  c #654320",
"G  c #6C4923",
"H  c #6A4629",
"J  c #674827",
"K  c #784A27",
"L  c #7B5127",
"P  c #7C542A",
"I  c #765524",
"U  c #7C4D36",
"Y  c #795633",
"T  c #79593A",
"R  c #860000",
"E  c #85110C",
"W  c #931503",
"Q  c #AE0000",
"!  c #A70100",
"~  c #B90D01",
"^  c #B31D07",
"/  c #89261C",
"(  c #AF2607",
")  c #DD0904",
"_  c #DA0B01",
"`  c #CB1303",
"'  c #C11002",
"]  c #CA2403",
"[  c #DD2302",
"{  c #854809",
"}  c #954608",
"|  c #A05619",
" . c #946219",
".. c #866509",
"X. c #B7720A",
"o. c #83562A",
"O. c #86592D",
"+. c #895C2F",
"@. c #925D26",
"#. c #8D4931",
"$. c #895E31",
"%. c #9A5C39",
"&. c #96622E",
"*. c #9A642F",
"=. c #936421",
"-. c #8C633A",
";. c #946433",
":. c #9B6733",
">. c #9C6935",
",. c #9D6D3D",
"<. c #98663B",
"1. c #A26C36",
"2. c #A36E3A",
"3. c #A96F37",
"4. c #B66B3D",
"5. c #A1703F",
"6. c #AA723B",
"7. c #B2783E",
"8. c #CA4A0C",
"9. c #8F5F42",
"0. c #896643",
"q. c #956341",
"w. c #9E6D51",
"e. c #967452",
"r. c #A27345",
"t. c #AF7942",
"y. c #A87442",
"u. c #B47B44",
"i. c #BA7E42",
"p. c #B37E4B",
"a. c #AA7E53",
"s. c #B87B52",
"d. c #A86D46",
"f. c #937D67",
"g. c #C17F4D",
"h. c #BC830C",
"j. c #B8940F",
"k. c #AF8410",
"l. c #C68D0C",
"z. c #D4940D",
"x. c #DA971B",
"c. c #BE8144",
"v. c #BC834C",
"b. c #AF845A",
"n. c #B48659",
"m. c #BC8C5C",
"M. c #B4865A",
"N. c #BA8E62",
"B. c #BD9369",
"V. c #BC9977",
"C. c #B5987C",
"Z. c #C58648",
"A. c #C78849",
"S. c #C88A4B",
"D. c #C28447",
"F. c #C38C55",
"G. c #C98E54",
"H. c #C78B5A",
"J. c #C8925A",
"K. c #C18561",
"L. c #C59566",
"P. c #CB9662",
"I. c #C6946B",
"U. c #C7996B",
"Y. c #D19B65",
"T. c #D29F6C",
"R. c #C69E76",
"E. c #D3A16F",
"W. c #DBA36B",
"Q. c #CBA37B",
"!. c #D3A271",
"~. c #D9AB7D",
"^. c #D7A777",
"/. c #E0A762",
"(. c #E5AF7E",
"). c #C9A684",
"_. c #D9AD81",
"`. c #D3AD89",
"'. c #D6AD89",
"]. c #DCB185",
"[. c #D6B28E",
"{. c #DCB48B",
"}. c #C3AD98",
"|. c #CBB199",
" X c #D4B393",
".X c #DCB791",
"XX c #DEB892",
"oX c #DBBC9C",
"OX c #D3B99E",
"+X c #EAB282",
"@X c #E1BA92",
"#X c #E0BE9A",
"$X c #E5C19D",
"%X c #E3C4A4",
"&X c #E5C7A8",
"*X c #E6CAAD",
"=X c #E7CCB1",
"-X c #E8CFB4",
";X c #E9D1B7",
":X c #EBD2B8",
">X c None",
/* pixels */
">X>X>X>X>X>X>X>X>X>X>X>X>X>X>X>X>X>X>X>X>X>X>X>X>X>X>X>X>X>X>X>X",
">X>X>X>X>X>X>X>X>X>X>X>X>X>X>X5.r.r.r.r.r.2.>.>X>X>X>X>X>X>X>X>X",
">X>X>X>X>X>X>X>X>X>X>X>X>X>.b.`.OXoXoXoXoX`.L.b.r.,.>X>X>X>X>X>X",
">X>X>X>X>X>X>X>X>X>X>X*.7.J.[.*X:X:X:X:X:X=X%XoX`.N.2.>X>X>X>X>X",
">X>X>X>X>X>X>X>X>X>X>.u.J.XX=X;X;X-X-X;X-X-X;X;X-XoXm.>X>X>X>X>X",
">X>X>X>X>X>X>X>X>X>X6.J.].#X*X=X-X-X-X-X-X-X-X-X-X-XR.>.>X>X>X>X",
">X>X>X>X>X>X>X>X>X;.7.T.{..XXX#X*X*X*X-X-X=X*X=X-X;X[.u.:.>X>X>X",
">X>X>X>X>X>X>X>X>X:.Z.Y.].{.{.{.{..X$X=X-X%XoX%X-X;X%Xm.P >X>X>X",
">X>X>X>X>X>X>X>XS >.S.S.E.~.~.!.J.~.%X-X:X;X*X.XoX-X#Xe.& >X>X>X",
">X>X>X>X>X>X>X>XG ;.Z.S.S.G.G.c.3.m.].oX|.}.).M.R.%X^.Y . >X>X>X",
">X>X>X>X>X>X>X>Xk L 7.S.Z.S.Z.c.>.6.u.-.e q J ;.B.{.m.F X >X>X>X",
">X>X>X>X>X>X>X>XO 3 ;.Z.A.D.c.c.7.c.;.<     X Y T.!.,.z >X>X>X>X",
">X>X>X>X>X>X>X>X  . z 6.Z.c.1.:.3.c.6.2     @ e..X^.,.>X>X>X>X>X",
">X>X>X>X>X>X>X>X>X  > K 1.7.3.&.&.>.c.+.5 1 T [.OXQ.a.O.>X>X>X>X",
">X>X>X>X>X>X>X>X>Xo o 2 l V G >.y.o.u.F.B.V. X&Xf.Y -.G >X>X>X>X",
">X>X>X>X>X>X>X>X>X>X>XO @ = > Y b.Y 7.E.].@X.XXXB.u.<.F >X>X>X>X",
">X>X>X>X>X>X>X>X>X>X>X>X* S 3 j 5.O.,.v.F.Q.U.Q.U.m.0.D >X>X>X>X",
">X>X>X>X>X>X>X>X>X>X>XO 2 z 2 & L >.6.1.>.;.;.;.;.J # >X>X>X>X>X",
">X>X>X>X>X>X>X>X>X>X>Xh N D q 4 4 < l L :.o.$.o.O.l   >X>X>X>X>X",
">X>X>X>X>X>X>X>X>X>X>X>X0.R.C.r.I , = * k , * * # & >X>X>X>X>X>X",
">X>X>X>X>X>X>X>X>X>X>XK d.W.H.@.k.j...A A A A 4 6 >X>X>X>X>X>X>X",
">X>X>X>X>X>X>X>X>X>Xd @.H.+X+X3.{ h.z.z.l.X./ 5 7 >X>X>X>X>X>X>X",
">X>X>X>X>X>X>X>X>X>Xm | 4./.W.%.a W ] ] ( ( ~ p 9 >X>X>X>X>X>X>X",
">X>X>X>X>X>X>X>X>X' ` ` 8.x. .; r p ! Q R R ! p 9 7 >X>X>X>X>X>X",
">X>X>X>X>X>X>X>X>X>X] ) _ [ W @ q 9 s / b s i u B B : >X>X>X>X>X",
">X>X>X>X>X>X>X>X>X>X} ( ) ) ^ x V #.s._.'.H.V g q.D.H >X>X>X>X>X",
">X>X>X>X>X>X>X>X>X>X>XZ n n n o.<.s.~.#X-X@Xm.<.2.u.Z >X>X>X>X>X",
">X>X>X>X>X>X>X>X>X>Xh l z z z G 1.G.].&X-X=X].r.k : : >X>X>X>X>X",
">X>X>X>X>X>X>X>X>X>XO 3 C z 3 - L p.R.).OX'.M.V >X>X>X>X>X>X>X>X",
">X>X>X>X>X>X>X>X>X>X  - Z f + O * C %.w.w.q.N >X>X>X>X>X>X>X>X>X",
">X>X>X>X>X>X>X>X>X>X>X% t t % . >X: %.I.K.#.v >X>X>X>X>X>X>X>X>X",
">X>X>X>X>X>X>X>X>X>X>X>X>X>X>X>X>X+ y b / E i >X>X>X>X>X>X>X>X>X"
};
