/* XPM */
static char *result[] = {
/* columns rows colors chars-per-pixel */
"32 32 192 2 ",
"   c #020100",
".  c #0E0803",
"X  c #0F0D0C",
"o  c #120B05",
"O  c #160C08",
"+  c #1B130B",
"@  c #18110B",
"#  c #220602",
"$  c #300806",
"%  c #25190C",
"&  c #2E1D0B",
"*  c #211509",
"=  c #32190A",
"-  c #291D11",
";  c #391616",
":  c #32230C",
">  c #34290D",
",  c #2C241B",
"<  c #332211",
"1  c #392816",
"2  c #1B1826",
"3  c #2A1D29",
"4  c #301424",
"5  c #352928",
"6  c #3B3024",
"7  c #470404",
"8  c #5F0404",
"9  c #5D0609",
"0  c #5F1008",
"q  c #6A0F0A",
"w  c #6A1C09",
"e  c #77120B",
"r  c #492E08",
"t  c #5C3A05",
"y  c #462E14",
"u  c #43271C",
"i  c #512F17",
"p  c #47321D",
"a  c #4D3319",
"s  c #51361B",
"d  c #573A1D",
"f  c #5B3C1D",
"g  c #533417",
"h  c #7F2B09",
"j  c #613D06",
"k  c #60231D",
"l  c #593E22",
"z  c #563933",
"x  c #673A28",
"c  c #7B4209",
"v  c #6F5007",
"b  c #61401F",
"n  c #7F5217",
"m  c #664607",
"M  c #59422C",
"N  c #624321",
"B  c #6B4722",
"V  c #694828",
"C  c #734B24",
"Z  c #744F29",
"A  c #784429",
"S  c #7C542B",
"D  c #7D5127",
"F  c #755433",
"G  c #7D5B39",
"H  c #735141",
"J  c #8F0100",
"K  c #960C01",
"L  c #871405",
"P  c #911E0E",
"I  c #93371B",
"U  c #A42E04",
"Y  c #BC2504",
"T  c #C80D02",
"R  c #DE0806",
"E  c #C81C07",
"W  c #D41105",
"Q  c #D91B08",
"!  c #EE1610",
"~  c #C22003",
"^  c #EF231A",
"/  c #834706",
"(  c #89561E",
")  c #865B08",
"_  c #AE441D",
"`  c #AB4608",
"'  c #946613",
"]  c #A27D0D",
"[  c #B9740C",
"{  c #A07310",
"}  c #B7711E",
"|  c #804926",
" . c #914E2E",
".. c #82562A",
"X. c #85592D",
"o. c #8C5D2D",
"O. c #895525",
"+. c #945F2D",
"@. c #855D33",
"#. c #8C5F32",
"$. c #945934",
"%. c #AB5F35",
"&. c #94622E",
"*. c #9A652F",
"=. c #8C633A",
"-. c #956332",
";. c #9B6631",
":. c #9D6935",
">. c #95663A",
",. c #9D6C3B",
"<. c #98653D",
"1. c #A26C35",
"2. c #A26E3B",
"3. c #A4703C",
"4. c #AC743C",
"5. c #B4793F",
"6. c #C17D0E",
"7. c #C65A34",
"8. c #F04031",
"9. c #856443",
"0. c #997148",
"q. c #8A6E51",
"w. c #956F4F",
"e. c #A06D42",
"r. c #A37344",
"t. c #A97C4F",
"y. c #B47B42",
"u. c #BA7E42",
"i. c #B37F4A",
"p. c #B67443",
"a. c #A87D53",
"s. c #8E7962",
"d. c #C67243",
"f. c #D8795A",
"g. c #B6870C",
"h. c #D08D0C",
"j. c #BE8144",
"k. c #BD8349",
"l. c #AC8258",
"z. c #B5875A",
"x. c #B88757",
"c. c #B98D60",
"v. c #BA936A",
"b. c #AA8F75",
"n. c #BA9876",
"m. c #C58748",
"M. c #C6884A",
"N. c #C88A4B",
"B. c #C48547",
"V. c #C38C55",
"C. c #CA8D5C",
"Z. c #CB9055",
"A. c #CB945A",
"S. c #C49464",
"D. c #C4996C",
"F. c #CB9866",
"G. c #D39666",
"H. c #D19B66",
"J. c #D49A6D",
"K. c #C49C73",
"L. c #E09574",
"P. c #D3A16E",
"I. c #CAA27A",
"U. c #CBA57D",
"Y. c #D4A373",
"T. c #D8AC7F",
"R. c #C8A785",
"E. c #D2AD87",
"W. c #D9AD81",
"Q. c #DAB085",
"!. c #D3B18C",
"~. c #DBB48B",
"^. c #C4AE98",
"/. c #C8B099",
"(. c #DBB791",
"). c #DDB994",
"_. c #DBBC9C",
"`. c #D3B799",
"'. c #E1B991",
"]. c #E2BE9C",
"[. c #EAB586",
"{. c #DEBFA0",
"}. c #E2C19E",
"|. c #F2C194",
" X c #E4C5A4",
".X c #E4C7A8",
"XX c #E6CBAE",
"oX c #E7CDB1",
"OX c #E8CFB4",
"+X c #E9D0B6",
"@X c #EBD2B9",
"#X c None",
/* pixels */
"#X#X#X#X#X#X#X#X#X#X#X#X#X#X#X#X#X#X#X#X#X#X#X#X#X#X#X#X#X#X#X#X",
"#X#X#X#X#X#X#X#X#X#Xr.r.r.r.r.r.r.:.#X#X#X#X#X#X#X#X#X#X#X#X#X#X",
"#X#X#X#X#X#X#X;.:.l.E._._._.{.`.E.S.i.0.,.#X#X#X#X#X#X#X#X#X#X#X",
"#X#X#X#X#X#X;.4.F.!.XX+X@X@XOX+XoX.X].!.c.,.#X#X#X#X#X#X#X#X#X#X",
"#X#X#X#X#X;.y.F.).OX+XOXOXOXOXOX+X+X+XOX_.z.#X#X#X#X#X#X#X#X#X#X",
"#X#X#X#X#X4.F.W.].XXXX+X+XOX+XOX+X+X+XOX+XK.:.#X#X#X#X#X#X#X#X#X",
"#X#X#X#X;.5.P.~.~.~.].XXoXXXOXOXXXOXOX+X+XQ.y.#X#X#X#X#X#X#X#X#X",
"#X#X#XN :.B.H.Q.~.~.~.~.)._.XXOX}.). XoX+X}.z.X.#X#X#X#X#X#X#X#X",
"#X#X#Xb 2.M.N.H.W.W.Y.A.T. X+X@X+X.X`.{.OX].q.- #X#X#X#X#X#X#X#X",
"#X#X#Xb ;.B.M.N.Z.Z.k.3.V.Q._./.^.R.z.I. XY.F o #X#X#X#X#X#X#X#X",
"#X#X#Xa D 5.N.N.m.m.u.:.3.i.=.6 , V -.S.Q.x.l #X#X#X#X#X#X#X#X#X",
"#X#X#Xo y -.B.M.B.B.j.5.u.-.&     O @.P.Y.,.f #X#X#X#X#X#X#X#X#X",
"#X#X#X  . f 4.M.5.1.;.1.B.2.<     @ w.'.Y.,.#X#X#X#X#X#X#X#X#X#X",
"#X#X#X    < C 1.5.1.&.*.1.5.@.1 , 9.`.`.U.t.X.#X#X#X#X#X#X#X#X#X",
"#X#X#X#XX X 1 f b B :.r.X.u.V.v.n.(. Xs.F o.B #X#X#X#X#X#X#X#X#X",
"#X#X#X#X#X#X. @ % : G l.S y.P.Q.'.(.).v.i.>.b #X#X#X#X#X#X#X#X#X",
"#X#X#X#X#X#X#X& b > p 0.@.1.m.x.U.D.I.F.x.9.l #X#X#X#X#X#X#X#X#X",
"#X#X#X#X#X#Xo < f : - S :.4.1.:.=.-.=.>.V + #X#X#X#X#X#X#X#X#X#X",
"#X#X#X#X#X#Xs N M , , > , d D ;...o.X.X.s   #X#X#X#X#X#X#X#X#X#X",
"#X#X#X#X#X#Xs G v.b.0.b > : & a > & : % % #X#X#X#X#X#X#X#X#X#X#X",
"#X#X#X#X#X#XX y #.<.S ( { g.m m j t r & #X#X#X#X#X#X#X#X#X#X#X#X",
"#X#X#X#X#X#X#X& O.C.F.y.( ) g.h.[ c u 3 #X#X#X#X#X#X#X#X#X#X#X#X",
"#X#X#X#X#X#X2 5 0.[.|.A.' c U Y E K 9 4 #X#X#X#X#X#X#X#X#X#X#X#X",
"#X#X#X#X#X#Xu z F G.G.} h.` T L K J 8 4 #X#X#X#X#X#X#X#X#X#X#X#X",
"#X#X#X#X#Xl $.<.x %.7.E W W W P w q ; #X#X#X#X#X#X#X#X#X#X#X#X#X",
"#X#X#X#X#XZ M.C.e.I W R ! Q _ O.O.A x #X#X#X#X#X#X#X#X#X#X#X#X#X",
"#X#X#X#Xy -.H.'.).f.^ 8.f.1.+.+.;.+.C #X#X#X#X#X#X#X#X#X#X#X#X#X",
"#X#X#X#X@ Z H. XOX].L.J.v.=.$.;.p.:.C f #X#X#X#X#X#X#X#X#X#X#X#X",
"#X#X#X#X#Xa a.U.'.].D.>.l & S u.M.:.C #X#X#X#X#X#X#X#X#X#X#X#X#X",
"#X#X#X#X#X@ a 0.Z.i.S u o . s e.p.| i #X#X#X#X#X#X#X#X#X#X#X#X#X",
"#X#X#X#X#X#X= $.d. .= O #X#X@ 5 k 0 # #X#X#X#X#X#X#X#X#X#X#X#X#X",
"#X#X#X#X#X  $ e P e q 7 #X#X#X#X#X#X#X#X#X#X#X#X#X#X#X#X#X#X#X#X"
};
