/* XPM */
static char *result[] = {
/* columns rows colors chars-per-pixel */
"32 32 194 2 ",
"   c #030202",
".  c #0F0A05",
"X  c #0C0B0A",
"o  c #120C06",
"O  c #130E0A",
"+  c #1C130A",
"@  c #17110A",
"#  c #131312",
"$  c #1E1B18",
"%  c #2C0201",
"&  c #20160B",
"*  c #2A1C0D",
"=  c #24180D",
"-  c #3E110C",
";  c #251F18",
":  c #31220B",
">  c #38280C",
",  c #2A221C",
"<  c #2D2215",
"1  c #372818",
"2  c #2F1726",
"3  c #341F23",
"4  c #211C31",
"5  c #1F2122",
"6  c #3D3933",
"7  c #5A170B",
"8  c #470B12",
"9  c #570E10",
"0  c #4D1B10",
"q  c #501713",
"w  c #690301",
"e  c #730502",
"r  c #7B160D",
"t  c #711E14",
"y  c #442D15",
"u  c #4C3219",
"i  c #4B3216",
"p  c #53361A",
"a  c #55381B",
"s  c #5C3D1E",
"d  c #772909",
"f  c #6B3B09",
"g  c #7E271A",
"h  c #603F1F",
"j  c #7D351E",
"k  c #443325",
"l  c #4D3A28",
"z  c #573F27",
"x  c #6A3624",
"c  c #704F07",
"v  c #785608",
"b  c #704416",
"n  c #664607",
"m  c #49433B",
"M  c #51493D",
"N  c #624323",
"B  c #6C492D",
"V  c #664829",
"C  c #764B29",
"Z  c #7C532A",
"A  c #76502C",
"S  c #624A31",
"D  c #6D573F",
"F  c #7E5839",
"G  c #4B4741",
"H  c #6D6253",
"J  c #9A0000",
"K  c #941C02",
"L  c #B30000",
"P  c #A21202",
"I  c #8E3C07",
"U  c #87241B",
"Y  c #982B19",
"T  c #A02A0C",
"R  c #8F2E21",
"E  c #C00400",
"W  c #D50801",
"Q  c #CF1101",
"!  c #D01508",
"~  c #E30D02",
"^  c #E9160F",
"/  c #F11E17",
"(  c #C52703",
")  c #D52504",
"_  c #E92618",
"`  c #875F0C",
"'  c #8C561E",
"]  c #A3551B",
"[  c #9A7509",
"{  c #A87C0A",
"}  c #A56909",
"|  c #81552A",
" . c #8D5D2E",
".. c #83592F",
"X. c #905F2E",
"o. c #8D5F31",
"O. c #805130",
"+. c #97632F",
"@. c #8C6136",
"#. c #8C6339",
"$. c #946433",
"%. c #9A6632",
"&. c #9E6933",
"*. c #936739",
"=. c #96693C",
"-. c #9C6B3B",
";. c #A26C35",
":. c #A56F39",
">. c #A4653D",
",. c #A4713F",
"<. c #AC743C",
"1. c #B1773D",
"2. c #CE5631",
"3. c #8F6C49",
"4. c #9C6B41",
"5. c #9B6642",
"6. c #9B764F",
"7. c #887157",
"8. c #A57545",
"9. c #AC7C4C",
"0. c #AE7841",
"q. c #B27A42",
"w. c #BA7E42",
"e. c #B37F4B",
"r. c #A87E55",
"t. c #B67855",
"y. c #947E65",
"u. c #CB7847",
"i. c #D27F53",
"p. c #CF920C",
"a. c #D5930D",
"s. c #BE8144",
"d. c #BD844C",
"f. c #A2805F",
"g. c #B68555",
"h. c #B88757",
"j. c #AA8662",
"k. c #B68D64",
"l. c #BA946D",
"z. c #A18970",
"x. c #BA9978",
"c. c #C38446",
"v. c #C6884A",
"b. c #C8894A",
"n. c #C68748",
"m. c #C28B53",
"M. c #C98D51",
"N. c #C28D5A",
"B. c #CE8D5D",
"V. c #CB9156",
"C. c #C9925B",
"Z. c #C49463",
"A. c #CD9764",
"S. c #CA9869",
"D. c #D69868",
"F. c #C59B71",
"G. c #CD9A72",
"H. c #D29970",
"J. c #E69876",
"K. c #CEA276",
"L. c #CBA47C",
"P. c #D5A675",
"I. c #D5A67B",
"U. c #D7AA7B",
"Y. c #D9AA7A",
"T. c #D8A876",
"R. c #C5A381",
"E. c #D3AB84",
"W. c #D9AE81",
"Q. c #DEAF8B",
"!. c #DBB48B",
"~. c #DFB182",
"^. c #C6AC91",
"/. c #C6AE97",
"(. c #DAB792",
"). c #DEB994",
"_. c #DDBC9C",
"`. c #D2B89C",
"'. c #EDBB8B",
"]. c #E0B68B",
"[. c #E3BD94",
"{. c #E0BE9B",
"}. c #DBBEA0",
"|. c #E7C39B",
" X c #F4C798",
".X c #DEC0A1",
"XX c #E3C3A3",
"oX c #E6CAAD",
"OX c #E7CAAC",
"+X c #E7CCB1",
"@X c #E8CFB5",
"#X c #E9D0B6",
"$X c #EAD1B8",
"%X c None",
/* pixels */
"%X%X%X%X%X%X%X%X%X%X%X%X*.-.4.4.4.4.4.-.&.%X%X%X%X%X%X%X%X%X%X%X",
"%X%X%X%X%X%X%X%X%X%X%.,.K.(.`..X.X}.(.K.h.8.,.%X%X%X%X%X%X%X%X%X",
"%X%X%X%X%X%X%X%X%X;.d.L..X@X$X$X$X$X@XoX.X_.L.9.%X%X%X%X%X%X%X%X",
"%X%X%X%X%X%X%X%X,.d.U.XX@X@X@X@X@X@X@X@X#X#XoXL.8.%X%X%X%X%X%X%X",
"%X%X%X%X%X%X%X&.d.T.).|.+X@X#X#X@X@X@X@X@X@X$X.X9.%X%X%X%X%X%X%X",
"%X%X%X%X%X%X%X;.m.U.!.).)..X+X+X+X#X@XoXoX@X$XXXZ.;.%X%X%X%X%X%X",
"%X%X%X%X%X%XZ w.V.T.!.).!.!.].[..X#XoX{..XoX#X@XE.=.%X%X%X%X%X%X",
"%X%X%X%X%X%XZ s.b.V.P.U.U.C.S.).@X$X#XoX.X!.oXoXL.S %X%X%X%X%X%X",
"%X%X%X%X%X%XZ w.n.n.M.V.M.<.1.F.).`././.F.g._.(.g.< %X%X%X%X%X%X",
"%X%X%X%X%X%Xh %.c.b.n.n.n.<.&.s.8.S , k ..8.E.U.*.* %X%X%X%X%X%X",
"%X%X%X%X%X%X& N 1.b.n.c.s.w.s.1.h .     1 h.Y.N.A %X%X%X%X%X%X%X",
"%X%X%X%X%X%X  *  .s.n.<.&.&.1.s.B .     l L.].N.Z %X%X%X%X%X%X%X",
"%X%X%X%X%X%X  O a +.1.<.%.+.+.<.<.N < l k._.^.l.*.%X%X%X%X%X%X%X",
"%X%X%X%X%X%X%XX + i s x Z 1.@.%.b.k.l.L.XX^.D @.Z %X%X%X%X%X%X%X",
"%X%X%X%X%X%X%X%X%Xo + & u f.*.X.C.U.!.).(.E.d.q.A %X%X%X%X%X%X%X",
"%X%X%X%X%X%X%X%X%Xo a a < F *.X.s.d.Z.L.S.L.h.r.S %X%X%X%X%X%X%X",
"%X%X%X%X%X%X%X%X%X+ p u @ p $.,.,.;.*.@.*.*.o.1 O %X%X%X%X%X%X%X",
"%X%X%X%X%X%X%X%X%Xa V k , 1 < 1 N X.$.| o.| Z & %X%X%X%X%X%X%X%X",
"%X%X%X%X%X%X%X%X%XB f.x.l.#.y > : y p : > * * %X%X%X%X%X%X%X%X%X",
"%X%X%X%X%X%X%X%X%X%X4.A.D.%.` { [ v n c v > %X%X%X%X%X%X%X%X%X%X",
"%X%X%X%X%X%X%X%X%XC u.[.'.B.| n } a.a.{ f 3 %X%X%X%X%X%X%X%X%X%X",
"%X%X%X%X%X%X%X%X%Xb N. X XS.R w P ) ( K e 8 4 %X%X%X%X%X%X%X%X%X",
"%X%X%X%X%X%X%X%Xd I ] u.i.F q w J L L J e 8 4 %X%X%X%X%X%X%X%X%X",
"%X%X%X%X%X%X%X%XQ ~ W ! ! T d t g U U r 9 2 %X%X%X%X%X%X%X%X%X%X",
"%X%X%X%X%X%X%X%XK L W ^ / _ 2.N.I.Q.H.>.x %X%X%X%X%X%X%X%X%X%X%X",
"%X%X%X%X%X%X%X%X%X% 8 t.J.J.D.T.[.|.].e.A %X%X%X%X%X%X%X%X%X%X%X",
"%X%X%X%X%X%X%X%X%X%X# 7.!.~.W.).OXOXXXH.8.V %X%X%X%X%X%X%X%X%X%X",
"%X%X%X%X%X%X%X%X%X%X  , 7.k.K.XX@X$X@X!.6.M %X%X%X%X%X%X%X%X%X%X",
"%X%X%X%X%X%X%X%X%X%X%X  5 l y.E.{.OX{.z.G %X%X%X%X%X%X%X%X%X%X%X",
"%X%X%X%X%X%X%X%X%X%X%X  4 G H j.T.G.3.6 # %X%X%X%X%X%X%X%X%X%X%X",
"%X%X%X%X%X%X%X%X%X%X%X%XX S t.G.D.O.+ X %X%X%X%X%X%X%X%X%X%X%X%X",
"%X%X%X%X%X%X%X%X%X%X%X%XX 0 g R Y 7 O %X%X%X%X%X%X%X%X%X%X%X%X%X"
};
