/* XPM */
static char *tile0101697913298[] = {
/* columns rows colors chars-per-pixel */
"64 64 238 2 ",
"   c None",
".  c #020100",
"X  c #0C0301",
"o  c #0B0806",
"O  c #150D05",
"+  c #140904",
"@  c #1C130A",
"#  c #1C1501",
"$  c #151114",
"%  c #330403",
"&  c #23160B",
"*  c #2D1C0E",
"=  c #261809",
"-  c #36120B",
";  c #3A0813",
":  c #2B1E10",
">  c #2D070A",
",  c #36220C",
"<  c #3C2815",
"1  c #372516",
"2  c #2E241B",
"3  c #17192B",
"4  c #1F1A30",
"5  c #29172A",
"6  c #291B31",
"7  c #382933",
"8  c #2F2E34",
"9  c #560001",
"0  c #570307",
"q  c #4B1B11",
"w  c #471911",
"e  c #4B140C",
"r  c #680306",
"t  c #760000",
"y  c #670913",
"u  c #472902",
"i  c #58230A",
"p  c #5C3404",
"a  c #432D15",
"s  c #462A17",
"d  c #4C3319",
"f  c #4C3217",
"g  c #53341A",
"h  c #5C3D1D",
"j  c #58361C",
"k  c #502C1A",
"l  c #612D09",
"z  c #643A03",
"x  c #672A1B",
"c  c #762619",
"v  c #68371E",
"b  c #733F03",
"n  c #551628",
"m  c #5A1F36",
"M  c #6F1628",
"N  c #592524",
"B  c #473A3C",
"V  c #483327",
"C  c #7D2B21",
"Z  c #6A392B",
"A  c #733C28",
"S  c #683B31",
"D  c #774806",
"F  c #61401E",
"G  c #69431F",
"H  c #764618",
"J  c #724E04",
"K  c #4A463E",
"L  c #56493B",
"P  c #5A4229",
"I  c #6A4723",
"U  c #754828",
"Y  c #7D532A",
"T  c #7B5229",
"R  c #764734",
"E  c #785738",
"W  c #674A38",
"Q  c #1E3158",
"!  c #212F55",
"~  c #4D3446",
"^  c #583E6A",
"/  c #3C4446",
"(  c #464547",
")  c #6B5542",
"_  c #6D5646",
"`  c #75614B",
"'  c #46487A",
"]  c #820000",
"[  c #8B0909",
"{  c #9C1C10",
"}  c #B20A03",
"|  c #942F17",
" . c #A83607",
".. c #983228",
"X. c #8D3225",
"o. c #A02F23",
"O. c #CC0000",
"+. c #C00700",
"@. c #D30000",
"#. c #CE1708",
"$. c #E90200",
"%. c #FE0000",
"&. c #F40000",
"*. c #845505",
"=. c #87441D",
"-. c #89540C",
";. c #986806",
":. c #9A6517",
">. c #A87908",
",. c #A26E16",
"<. c #8B5C2D",
"1. c #845529",
"2. c #925E2B",
"3. c #935F26",
"4. c #885832",
"5. c #945935",
"6. c #8C4E30",
"7. c #94612D",
"8. c #996524",
"9. c #8B6237",
"0. c #956434",
"q. c #9B6632",
"w. c #9E6934",
"e. c #98683B",
"r. c #AC782A",
"t. c #A26B34",
"y. c #A36E3A",
"u. c #AD6D3C",
"i. c #AB733B",
"p. c #A87237",
"a. c #B5783C",
"s. c #AE5627",
"d. c #C76233",
"f. c #945D42",
"g. c #8A664A",
"h. c #996648",
"j. c #9B724B",
"k. c #836E55",
"l. c #A46948",
"z. c #B46D42",
"x. c #A47342",
"c. c #AC7845",
"v. c #AA7D4E",
"b. c #A97347",
"n. c #BA7F43",
"m. c #B57946",
"M. c #A57A52",
"N. c #B67D57",
"B. c #B58809",
"V. c #B78A0E",
"C. c #B18027",
"Z. c #C79C10",
"A. c #D4AA0F",
"S. c #CA9D2E",
"D. c #BB8249",
"F. c #BA8147",
"G. c #BA8656",
"H. c #A9815B",
"J. c #B48866",
"K. c #BC9165",
"L. c #B79577",
"P. c #AF8A69",
"I. c #C48446",
"U. c #C2854A",
"Y. c #CA8A4B",
"T. c #C6884A",
"R. c #C48C54",
"E. c #CB8D52",
"W. c #C78958",
"Q. c #D28E57",
"!. c #CD9155",
"~. c #CC945B",
"^. c #C1905F",
"/. c #D2955B",
"(. c #D59559",
"). c #D08E4C",
"_. c #C58965",
"`. c #D18965",
"'. c #CE9863",
"]. c #C99567",
"[. c #D19A63",
"{. c #DD9B64",
"}. c #D49E6B",
"|. c #C99E72",
" X c #C69C70",
".X c #DA9B75",
"XX c #E19F68",
"oX c #D9A36E",
"OX c #CDA175",
"+X c #CCA47A",
"@X c #D4A474",
"#X c #D2A67B",
"$X c #D6A97B",
"%X c #D9AB7D",
"&X c #DCA777",
"*X c #E6A976",
"=X c #E4AC7B",
"-X c #E6AA78",
";X c #E0AB79",
":X c #ECC17F",
">X c #3C5B9B",
",X c #3D548F",
"<X c #56528A",
"1X c #515188",
"2X c #DAAE83",
"3X c #D7A782",
"4X c #DBB186",
"5X c #DCB48B",
"6X c #D7B28B",
"7X c #D4B695",
"8X c #DEBA94",
"9X c #DFBC98",
"0X c #DDB791",
"qX c #C5A888",
"wX c #E3AD83",
"eX c #EDB687",
"rX c #EEB98A",
"tX c #E5B68A",
"yX c #F1BC8C",
"uX c #E1BE9B",
"iX c #E1BB95",
"pX c #E4C09C",
"aX c #F7C99A",
"sX c #F8CA9C",
"dX c #EDC380",
"fX c #E4C4A3",
"gX c #E4C7A9",
"hX c #E5C9AC",
"jX c #E9CAAB",
"kX c #FFD9AD",
"lX c #FCD4A6",
"zX c #E7CDB2",
"xX c #E8CFB5",
"cX c #E8D0B6",
"vX c #E9D2B9",
"bX c #FFDEB2",
"nX c #F9CEA4",
"mX c #DFC1A1",
/* pixels */
"                                              S B 8 V U =.=.=.=.=.=.=.H I L ( L U                                               ",
"                                            6.6.) ` k.v.v.H.v.v.v.v.v.G.M.` ` W R I                                             ",
"                                    A R 1.q.t.m.G.L.qX7X7X7X7X7X7X7X7X7X7XqXL.j.9.E K K S A                                     ",
"                                    6.4.e.b.R.[.2XiXfXxXvXvXvXvXcXcXcXvXzXjX7X+XH.` ` _ R U                                     ",
"                                7.q.p.m.K.OX6XpXgXhXzXcXcXvXcXcXcXcXcXcXcXzXhXfX7XqXL.H.9.E L /                                 ",
"                              E e.i.R.oX4XpXhXcXvXcXxXxXxXxXxXxXcXcXcXxXxXxXxXcXcXjXpX$XG.e.W K (                               ",
"                            ( ) i.R.4XpXgXhXcXzXcXxXxXxXxXxXxXxXxXxXxXxXxXxXxXcXcXxXhXuX+XK.g.E L (                             ",
"                            L ` G.@XfXcXcXcXcXcXxXxXxXxXxXxXxXxXxXxXxXxXxXxXxXxXcXcXcXgX9XOXF.9.) /                             ",
"                            E j.K.0XhXcXcXcXcXzXxXxXzXcXxXxXxXxXxXxXxXxXxXxXxXxXxXxXxXhX8X@XR.y.) (                             ",
"                          9.w.D.2XmXzXcXcXzXcXzXxXxXcXxXxXxXxXxXxXxXxXxXxXxXxXxXxXxXxXhXuX5XoXG.` ( K                           ",
"                        ( E c.'.9XhXcXzXcXcXcXcXxXxXxXxXxXxXxXxXxXxXxXxXxXxXxXxXxXxXxXzXhXpX5X XH.T L (                         ",
"                      B L ` G.%XgXvXvXvXcXzXzXcXxXxXxXxXxXxXxXxXcXxXxXxXxXcXzXxXxXxXxXxXvXhX9X#XD.0.W ( /                       ",
"                      P P g.|.iXgXvXvXzXxXxXxXxXxXzXcXxXcXcXxXxXxXxXxXxXxXxXxXxXxXxXxXvXxXhX9X$X~.C._ / /                       ",
"                        I j.+XpXgXgXzXcXxXxXxXxXxXcXxXxXzXcXxXxXxXxXxXxXxXxXxXxXxXxXxXxXxXhX9X2X'.F.` (                         ",
"                        Y H.$X9X8XmXhXxXxXxXxXxXxXxXxXxXzXcXzXcXxXxXxXxXxXxXxXxXxXxXxXxXvXhX9X%X/.F.<.P                         ",
"                        q.D.OX%X4X9XhXcXcXxXxXxXcXxXxXxXvXzXvXzXxXxXxXxXxXxXxXxXxXxXvXzXhXfX9X$X'.F.<.F                         ",
"                        7.i.R.oX%X9XgXvXvXvXxXxXcXzXcXcXcXzXzXvXzXvXcXzXxXxXxXcXvXcXcXhXuX0X0X%X'.D.<.I                         ",
"                        <.y.D.'.%X8XfXgXgXhXzXxXcXzXcXzXcXcXvXzXvXzXcXcXcXcXxXzXgXhXgXmX0X5X%X@X/.C.4.F                         ",
"                        I 7.F./.%X0X8X8X8X9XgXzXcXcXcXcXcXcXzXvXcXzXvXcXcXcXxXfX9X8X8X8X5X%X'.!.E.F.4.F                         ",
"                        f U i.~.$X5X6X5X5X0XmXgXzXcXcXcXzXcXzXhXgXgXgXhXgXgXgXuX5X5X5X6X$X}.!.I.F.i.T d                         ",
"                        # d <.G.#X5X5X5X5X4X0X8XgXxXcXcXcXcXhXuX9X8X8X8X8X8X0X0X5X5X5X@X'.!.Y.I.a.7.d @                         ",
"                        . , Y m.|.%X5X5X5X5X4X5XuXgXgXhXhXhXmX8X5X5X5X5X5X5X5X5X5X4X#X}.Y.T.Y.F.t.I 1 .                         ",
"                        o , T p.R.oX2X6X5X5X5X6X0X8X8XiX9X9X8X0X6X4X5X5X5X5X5X5X5X#X/.!.T.Y.Y.D.7.h = .                         ",
"                        o , T w.i.T.}.%X4X5X5X5X5X5X%X$X+XOX XOXOXOXOX@X$X$X$X$X#X'.E.T.T.I.F.w.T d & .                         ",
"                        o = h Y 7.i.T.oX%X5X5X5X5X5X@X/.D.F.j.y.y.j.c.G.~././.~.!.E.T.Y.Y.C.9.I I d = .                         ",
"                        . & g I Y 7.w.F. X%X%X%X#XOXK.c.p.w.w.y.y.w.t.a.C.D.n.I.T.Y.Y.I.m.e.I h h h & o                         ",
"                        . = g G G F I <.D.~./.~.G.i.7.Y <.i.G.]. XG.a.p.t.w.t.a.T.).).c.<.I F h h d = .                         ",
"                      . . @ < d h h h I 1.0.w.9.7.1.F d T D.oX4X%XoXD.0.U Y 7.0.0.e.e.Y I h h h d < @ . .                       ",
"                      . . o O * d h h g < : * , d F < = P K.4XtXtX4XK.L , F <.G , : : < d h F d , O o . .                       ",
"                        . . . @ d F F d * O + O , < & . 7 P.+X+XOX+XP.V o , F a O + O * d F F d @ . . .                         ",
"                          . . @ d F F j d a a a : O . . < 9.x.x.x.c.9.1 . X & , a a a f h h v d @ . .                           ",
"                            . & a g g g g g j k * X + & h 9.x.x.j.c.9.d O X X * k j j j g g g s & .                             ",
"                              - e q q q q w q w - - s G h.K.|.|.|.}.P.E a - > - e q q q q q e e -                               ",
"                                i i l l i i x c x x 6.l.G.3XiXtX5XiX#XH.Y U x v x x i i l l i i                                 ",
"                                b *.;.;.*.D 2.u.u.z.W.[.=XwXeXeXeXrXwX@X].U.z.z.u.2.D *.;.;.*.D                                 ",
"                              1.8.r.S.S.r.r.T.(.{.{.=XrXyXeXwX-X=X=XrXyXyX*X{.{.(.I.p.C.S.S.r.8.1.                              ",
"                            A f.W.&X:X:X;X.X.X-X-X-XyXnXnXeX-X{.{.-XrXsXnXyX=X=X-X.XoX=X:X:X*X_.e.A                             ",
"                          f.f.N.wXsXkXnX5X3XwXeXeXeXsXkXkXyXwX{.`.eXyXlXkXaXrXeXrXwX.XwXnXkXsX3XN.f.f.                          ",
"                        R l.`.wXaXkXbXpXN.l._.eXeXeXsXkXbXlXyXXXXXyXlXbXkXsXrXrXeX_.l.J.pXbXkXaX3X].l.6.                        ",
"                      A A l..XyXsXlXsX2Xg.R f._.`.`..X-XwX3X].m.N.].3XwX3X.X`.`._.h.S g.2XsXlXsXyX.Xl.S A                       ",
"                    *.v A h.Q.*XrXyX-X_.) 7 n C o.o.o.o...X.C M | C X...o.o.o.X.C N 7 ) _.-XrXrX*XQ.h.Y H *.                    ",
"                  ;.;.:.3.t.a.).*X{.W.h.B 4 ; 9 y M M M M n n n n 9 r t ] ] t t 9 ; 3 ~ f.Q.XX*XQ.a.5.X.|  . .                  ",
"                *.>.B.Z.A.>.,.u.E.W.u.A 7 4 ; 0 ~ <X<X<X1X1X1X1X^ M t t t ] ] r 0 ; 4 7 A l.W.E.a.:. .} #.#.$.%.%.              ",
"              D D ;.B.Z.A.Z.,.,.a.t.A V 6 4 ; 0 ~ >X>X1X>X>X>X>X' m y r r y r r 0 ; 4 4 V A s.u. . .} @.$.%.%.%.%.              ",
"              p p z D *.>.>.B.>.:.H , $ 3 4 ; 0 5 ! ! Q Q Q Q Q ! 6 5 5 5 5 5 e 0 ; 4 3 $ - { #.#.} +.O.$.%.%.                  ",
"              p z D J *.;.>.>.>.*.p O o 3 8 N x S ~ ( ~ ( ~ B B B B ~ ~ ( ( ~ S c N 7 5 > 9 } O.O.O.@.@.$.%.                    ",
"              D *.>.Z.Z.>.>.;.*.D , O o s S 5.z.N.K.L.L.J.b.b.b.l.b.M.P.L.L.L.N.z.5.S c [ } } O.O.O.$.&.&.                      ",
"              D *.>.Z.A.Z.Z.;.D u = X @ N 6.z.Q.XX*X*X=X{.E.I.I.I.I.Q.{.=X=X*XXXQ.c.6.X.} @.@.O.O.@.$.%.                        ",
"              p z J *.B.A.A.Z.J , .     T 2.c.Y.Q.Q.(.Q.U.i.t.t.y.w.i.U.(.(.(.!.Y.a.8.6.                                        ",
"              p l p H ,.A.A.B.J # .     t.p.n.~.~.[.[.~.G.c.j.y.y.x.c.G.~.[.~.~.E.F.y.w.                                        ",
"              Z U 5.u.t.<.-.J u O # F y.a.U.'.$X5X9XpX9X6XOX XOXOX XOX6XuXpX9X5X$X'.D.i.w.7.                                    ",
"              k S l.(.N.5.v u = o * U w.D.[.$X9XgXvXvXcXhXpX8X0X0X9XmXhXvXvXxXhX9X2X'.D.w.2.                                    ",
"              + 2 g.;XXXm.U & .     <.y.K.2XpXhXzXvXvXxXzXzXgX8X8XfXhXxXxXvXxXxXhXuX2XK.e.7.                                    ",
"                $ _ N.G.h.I @       7.w.^.2X9XhXzXzXvXxXhXmX6X+X#X5XfXhXxXcXxXzXhX9X2X^.y.2.                                    ",
"                  2 2 1 1 :         7.w.F.~.$X8XgXxXvXxX9X@XR.F.v.R.@X9XzXvXxXgX9X$X'.F.w.2.                                    ",
"                    . . .           2.w.a.!.@X5XpXgXzXgX5X!.p.Y 1.p.!.5XhXhXgXuX5X@XE.a.w.7.                                    ",
"                                    2.q.a.E.@X5X0X8X9X8X%X!.0.a a 7.!.%X8X9X8X0X5X@XE.a.w.7.                                    ",
"                                    7.q.a.U.].$X4X4X2X%X[.U.Y & & Y T.[.#X4X4X4X$X'.U.y.Y G                                     ",
"                                        w.p.D.~.@X2X@X~.U.i.I & @ I i.U.~.@X2X@X~.D.p.T < &                                     ",
"                                        G T i.~.;X0XwX/.c.Y d @ @ d 1.c./.;XpX;X/.x.T d O .                                     ",
"                                        @ < h.&XaXnXaX=Xl.s @     @ s j.;XaXnXaX=Xj.1 O                                         ",
"                                        . @ W _.&X&X.X_.) @ .     . $ E _.&X&X.X_.R $ .                                         ",
"                                        . o w C ..o...C w + .     . X w X.......c q o .                                         ",
"                                        . X % 9 t t r 9 % X .     . X % 9 r t t 9 % X .                                         "
};
