/* XPM */
static char *tile0111697913298[] = {
/* columns rows colors chars-per-pixel */
"64 64 239 2 ",
"   c None",
".  c #010101",
"X  c #090607",
"o  c #140D06",
"O  c #160502",
"+  c #1C130A",
"@  c #1D1207",
"#  c #130C18",
"$  c #21150A",
"%  c #2B1C0E",
"&  c #261709",
"*  c #36150A",
"=  c #330E1D",
"-  c #2A1E14",
";  c #380907",
":  c #35220D",
">  c #352313",
",  c #3D2914",
"<  c #3B2718",
"1  c #151927",
"2  c #1C1C33",
"3  c #0E1A30",
"4  c #2C1529",
"5  c #251628",
"6  c #281F34",
"7  c #342C2A",
"8  c #272733",
"9  c #342B36",
"0  c #362F32",
"q  c #1B2035",
"w  c #49050B",
"e  c #570103",
"r  c #481A0F",
"t  c #460A14",
"y  c #4B1B11",
"u  c #44111F",
"i  c #501A13",
"p  c #5A1313",
"a  c #610000",
"s  c #65050C",
"d  c #6B0000",
"f  c #7A0000",
"g  c #760203",
"h  c #7F1A00",
"j  c #4B2908",
"k  c #582907",
"l  c #573409",
"z  c #432C14",
"x  c #472B17",
"c  c #522915",
"v  c #4A3117",
"b  c #4D3319",
"n  c #47311B",
"m  c #53351A",
"M  c #59331A",
"N  c #56391B",
"B  c #5C3D1D",
"V  c #672804",
"C  c #653B03",
"Z  c #662C1B",
"A  c #66371C",
"S  c #732C13",
"D  c #463525",
"F  c #503431",
"G  c #673625",
"H  c #743D2D",
"J  c #723D21",
"K  c #6F352A",
"L  c #5F401E",
"P  c #684205",
"I  c #744B03",
"U  c #7C4A09",
"Y  c #785003",
"T  c #62411E",
"R  c #6B451D",
"E  c #754417",
"W  c #5B4228",
"Q  c #654321",
"!  c #6A4621",
"~  c #6D4926",
"^  c #734C24",
"/  c #784628",
"(  c #7D5227",
")  c #7C542A",
"_  c #775029",
"`  c #7B5535",
"'  c #714934",
"]  c #2B3D5D",
"[  c #443C42",
"{  c #432A40",
"}  c #314359",
"|  c #49454C",
" . c #4D4D56",
".. c #60595B",
"X. c #830000",
"o. c #931400",
"O. c #AA0A01",
"+. c #902812",
"@. c #893227",
"#. c #B13D04",
"$. c #CD0100",
"%. c #C00000",
"&. c #D40000",
"*. c #D81802",
"=. c #E60000",
"-. c #FD0000",
";. c #F40000",
":. c #E11301",
">. c #D43205",
",. c #885807",
"<. c #8D5919",
"1. c #855010",
"2. c #9A6A07",
"3. c #9A6B0C",
"4. c #A87A08",
"5. c #A97613",
"6. c #A2671F",
"7. c #844D28",
"8. c #845629",
"9. c #8B5C2D",
"0. c #87552A",
"q. c #935E2A",
"w. c #985E28",
"e. c #874D33",
"r. c #8D5235",
"t. c #875A35",
"y. c #94573A",
"u. c #95612E",
"i. c #9A602C",
"p. c #8D6237",
"a. c #956534",
"s. c #9B6632",
"d. c #9E6934",
"f. c #97663B",
"g. c #A36C35",
"h. c #A76E3C",
"j. c #B66A3D",
"k. c #AB743C",
"l. c #A6713C",
"z. c #B2753B",
"x. c #B5793D",
"c. c #A84605",
"v. c #CF6D09",
"b. c #D74206",
"n. c #8A5A45",
"m. c #8D6741",
"M. c #986A44",
"N. c #957250",
"B. c #A96C42",
"V. c #B16E42",
"C. c #A47443",
"Z. c #AB7947",
"A. c #A4754C",
"S. c #A77A4D",
"D. c #AB7A49",
"F. c #B37B43",
"G. c #BB7D42",
"H. c #B57647",
"J. c #AE7B56",
"K. c #C17C4C",
"L. c #CD7F57",
"P. c #B48809",
"I. c #BC910F",
"U. c #BF8C2C",
"Y. c #CB980C",
"T. c #E38E0D",
"R. c #CDA30E",
"E. c #D1A50F",
"W. c #C69423",
"Q. c #BC8145",
"!. c #BC844C",
"~. c #B5814D",
"^. c #BA8755",
"/. c #AA8159",
"(. c #B68C66",
"). c #BC9776",
"_. c #B2916F",
"`. c #C38445",
"'. c #CA8A4B",
"]. c #C7864A",
"[. c #C48C53",
"{. c #CA8D53",
"}. c #C38A58",
"|. c #D48D52",
" X c #CD945A",
".X c #CB9157",
"XX c #D7955A",
"oX c #CD9761",
"OX c #C99868",
"+X c #D19A63",
"@X c #DD9B63",
"#X c #D29A67",
"$X c #C99F73",
"%X c #C09971",
"&X c #CF926F",
"*X c #E19E67",
"=X c #D6A16B",
"-X c #CCA175",
";X c #CBA47C",
":X c #D4A67A",
">X c #D6A97C",
",X c #D9AB7D",
"<X c #D8A575",
"1X c #E7AA77",
"2X c #E5A771",
"3X c #DDA55F",
"4X c #527295",
"5X c #4F87B7",
"6X c #69839B",
"7X c #BFB3A4",
"8X c #C5A789",
"9X c #D9AD82",
"0X c #D4A883",
"qX c #DBB186",
"wX c #DCB48B",
"eX c #D4B18D",
"rX c #D4B493",
"tX c #DEBA94",
"yX c #DFBD99",
"uX c #E8B689",
"iX c #F1BC8D",
"pX c #E1BE9B",
"aX c #E1BB95",
"sX c #EEB788",
"dX c #E2C19D",
"fX c #F6C799",
"gX c #F3C28E",
"hX c #D0C3B3",
"jX c #E4C4A4",
"kX c #E5C9AC",
"lX c #E5C8A9",
"zX c #FACEA1",
"xX c #FFD8AB",
"cX c #E7CDB2",
"vX c #E8CFB5",
"bX c #E8D0B6",
"nX c #EAD2B8",
"mX c #FFDEB2",
"MX c #84B1D2",
/* pixels */
"                                                                                                                                ",
"                                                                                                                                ",
"                                                        H A B R 0.u.u.q.q.q.q.q.q.8.^ L Q H                                     ",
"                                                      r.r.` ` f.A.S.D.S.S.S.S.S./.S.f.` ` / /                                   ",
"                                              H / 7.i.g.F.^.(.8XeXrXrXrXrXrXrXrXrXeX8X(.S.9.^ T B K H                           ",
"                                              e.r.f.Z.^.#X,XaXlXbXnXnXbXbXbXnXnXbXbXlXaX-X/.M.` ` _ /                           ",
"                                          q.d.l.H.}.;XeXyXlXlXcXbXbXbXbXbXbXbXbXbXbXbXkXpXrX0X).J.f.7.R B                       ",
"                                        8.s.k.^.<XqXdXlXbXnXbXbXbXbXbXcXbXbXbXbXbXbXcXbXnXnXcXdX0X/.a._ Q T                     ",
"                                      B ( l..X9XdXlXkXcXbXbXvXvXcXcXbXbXvXvXvXvXvXvXvXvXbXbXvXkXpX>X(.f.( R B                   ",
"                                      ! 9.~.<XdXnXnXbXvXcXbXvXvXbXbXvXvXvXvXvXvXvXvXvXvXvXvXbXbXlXdX-X~.u.^ B                   ",
"                                      8.C.%XwXlXnXbXvXvXbXvXvXvXvXvXvXvXvXvXvXvXvXvXvXvXvXvXbXvXlXtX:X[.l.( L                   ",
"                                    9.d.~.0XdXkXvXbXvXvXvXvXvXvXvXbXcXbXbXvXvXvXvXvXvXvXvXvXbXvXkXdXqX=X!.p.R T                 ",
"                                  Q 8.z.OXyXcXbXvXvXvXvXcXbXbXbXvXvXvXbXcXbXvXvXvXvXvXvXvXvXvXvXcXkXjXwX$XC.8.R L               ",
"                                  L t.^.,XjXbXbXvXvXvXvXbXbXcXbXvXvXvXvXvXvXvXbXvXvXbXcXvXvXvXvXbXbXlXdX;X^.a._ B N             ",
"                                  L m.OXaXlXnXbXvXvXvXvXbXcXbXbXvXbXvXvXvXvXvXcXvXvXvXbXvXvXvXvXbXbXkXpX>X XZ.8.Q N             ",
"                                  ! N.;XpXjXkXcXvXvXvXvXbXcXbXcXbXcXvXvXvXvXvXbXvXvXvXvXvXbXvXvXbXbXkXtX9XXXQ.9.T N             ",
"                                  9.S.0XtXtXpXkXcXbXbXcXbXbXbXbXvXvXvXvXcXbXbXcXvXvXvXvXvXvXbXbXbXnXkXyX,X+XQ.9.L N             ",
"                                  a.F.$X9XqXtXkXbXbXbXbXbXcXcXbXvXvXvXvXbXcXbXbXvXvXvXvXvXvXvXbXcXkXjXtXqX XQ.9.L N             ",
"                                  u.k.[.=X9XtXkXbXbXbXcXbXcXbXbXvXvXbXvXbXcXbXbXvXvXvXvXvXbXbXbXkXpXtXtX,X+XQ.9.L b             ",
"                                  9.d.Q. X>XtXjXkXkXkXcXbXbXbXcXvXvXbXcXbXbXbXbXvXvXvXvXcXkXlXlXjXtXqX>X<X XQ.9.L L             ",
"                                  ~ 9.Q.+X>XtXtXtXtXdXjXbXbXbXbXvXvXvXvXbXbXbXbXbXbXbXvXlXyXtXtXtXwX>X+X.X{.Q.p.Q N             ",
"                                  n ^ k..X>XwXwXqXeXqXdXlXcXcXbXvXbXvXcXkXlXlXlXkXlXlXlXpXwXqXwXeX>X=X.X`.`.k._ b ,             ",
"                                  + v 9.^.:XwXwXwXeXwXwXaXjXcXbXbXbXbXkXpXtXtXtXtXtXtXtXwXwXwXwX,XoX{.'.Q.Q.q.b + o             ",
"                                  . : ( Z.OXqXqXwXwXwXwXwXpXlXkXkXkXkXjXwXwXwXwXwXwXwXeXwXwXqX>X=X{.'.'.Q.g.^ : . .             ",
"                                  . , ( k.[.+X>XwXwXwXwXwXwXtXtXtXyXtXtXwXwXwXeXwXwXwXwXwXwX>X+X{.'.'.'.Q.9.L % . .             ",
"                                  . : ^ s.x.[.=X,XwXwXwXwXwXwXqX,X;X-X-X-X-X$X$X<X>X>X>X>X>X+X'.`.'.`.F.g.) b $ . .             ",
"                                  . % N ( u.k.[.+X,XwXwXwXwXwX,X X!.Z.l.l.C.l.D.!..X X.X.X.X'.'.'.'.Q.p.~ Q b % . .             ",
"                                  . & b ! ( q.g.~.OX,X>X,X<X$X^.~.g.d.d.f.l.d.g.k.Q.Q.Q.`.'.'.'.`.x.a.~ L L N $ . .             ",
"                                  . $ b T R ! ~ 9.~. XXX X^.Z.p.) 9.Q.!.%XOX!.Q.k.g.d.g.x.'.'.'.x.p.~ L L L N % . .             ",
"                                  . + , b B N B T ) a.a.a.u.8.T L ~ ~.=XqXqX=X!.a.^ ( q.a.f.d.a.) Q N L N b , + . .             ",
"                                  . X o % b L L N , % % > b T z + W (.qXwXwXwX).' - L 9.R , % - , N L L m : o X . .             ",
"                                  . . . + v L T b % o o o % , + X 7 /.:X-X-X:X/.D X : L v o X o & v L L b + . . .               ",
"                                    . . @ v L G N v z x , - o . . , p.C.C.C.Z.p.< . X & : , z x b N B A b + . .                 ",
"                                      . $ x m M M M M M m * O O + W p.C.C.C.C.p.n + X X % b M M M M M N x $ .                   ",
"                                          r i y r y r i r ; ; x L f.(.-X-X-X-X(.` < * ; ; i i r y i r y y *                     ",
"                                          y c V V k k Z G Z Z 7.l.^.,XtXwXwXgX;XJ.` J J Z A Z k y i i y i                       ",
"                                          K J ,.3.1.U w.V.V.V.L.&X1X9XuXuXuXuXqX<X&XJ.j.V.j.i.E C J K Z K                       ",
"                                          e.g.U.W.5.6.x.|.XX*X1XiXiXsXuX1X1X1XsXiXiX1X*XXX|.x.<.1.0.r.y.r.e.                    ",
"                                      H y.V.'.3X3X|.K.].|.*X9XiXfXzXsX1X@X@X1XiXfXzXiX1X*XXXV.7.r.V.K.K.V.y.@.                  ",
"                                      H y.K.*XsXsX2XXX].L.XX1XsXfXfXfX1X+X@X1XfXxXxXzXsX2X|.B.e.y.K.|.|.K.n.' J                 ",
"                                      H y.K.*XfXzXiX<XJ.n.H.XX@X*XsXfXgX*X*XsXxXxXxXzXsX1XXXV.e.y.K.|.XX].y./ E 1.              ",
"                                    E 8.w.z.{.,XuX0XL.n.K e.j.j.j.L.0X*XK.H.&X0X0X0X0XL.J.A.n.K ' V.K.K.V.r.E <.2.2.            ",
"                                  l ,.4.5.6.w.y.n.M.n.F ] i S +.+.+.@.+.@.S K @.H @.K S G F ] 9 F ' r.r.e.7.<.P.E.P.,.          ",
"                                  k Y 4.P.4.3.<.7.7.! 0 5 = e d X.X.X.X.d a a s a a s e w 5 5 2 9 K E 7.0.3.4.T.T.v.c.c.        ",
"                                  k C ,.4.R.E.I.4.,.E 7 2 = e g X.X.X.X.X.X.X.X.f f d e e w = 2 7 T ,.5.Y.Y.Y.v.>.*.*.:.        ",
"                                  I U ,.2.I.R.P.4.,.1.D 2 4 t w s s s s s s s s s s w w w w = 2 7 A ,.2.P.Y.T.>.*.=.-.-.        ",
"                                  4.2.,.Y Y Y I I ,.U D 2 2 4 4 4 4 4 6 6 4 4 4 4 4 4 5 4 6 2 2 7 l C P U #.>.*.$.=.-.-.        ",
"                                  P.4.2.2.Y P l C C l D 9 9 [ [ .. .[ [ [ [  .[  . .| [ 9 8 8 8 7 j k V h O.%.&.&.=.-.          ",
"                                  I 3.R.E.P.2.,.P : & z G ` A._.8X8X).(.J.J.(.).8X8X).A.` B D D z l V o.O.%.&.=.;.;.            ",
"                                  C ,.I.R.P.2.,.P @ X z 7.k..X1XiXiX,X#X{.'.oX<XiXgX2X'.d.^ R T T l V O.$.$.&.=.-.              ",
"                                  G R I I I P P j O O x 9.k.'.XX+X.XH.l.g.g.l.Z.[.+XXX'.k.9.8.8.^ T M                           ",
"                                  / J E E E P j : & > R d.!..X XoX^.D.C.C.C.C./.^.+X#XoX^.D.l.g.9.! B                           ",
"                                  H y.j.K.H.9., $ j ^ d.Q. X:XwXyXwX:X-X-X;XeXrXyXyXpXyXwX;XoX!.d.~ L                           ",
"                                  / r.M.h.h.` > % T s.z.!.oX>XtXpXrX;X).-X0XyXcXnXnXbXkXpX9X#X{.k.8.!                           ",
"                                    x > % > < < N ( u.d.g.Q..XXX+X^.m.` f.^.;XpXcXbXlXtX,X X'.'.x.a.8.                          ",
"                                      . . . o z R ( 9.8.9.g.Q.x.k.9.Q T _ f.}.,XaXtXwX:X X'.'.'.k.8.R                           ",
"                                                  ! ! ! ~ 8.s.p.( ~ L B T 8.Z. X+XoX X{.{.].'.'.a.n $                           ",
"                                                    N n v L ' Q D n n , z B s.Q.{..XXXoXXX X{.Q.) $ .                           ",
"                                                      + + - 8 9 8 1 + o o > ^ k.(.:XaXhXaX0XOXZ.~ + .                           ",
"                                                        . # 3 3 1 1 X . . + D ` _.7XhXhX7X_.N.` m @ .                           ",
"                                                          X X # X X     . X 1 | 4XMXMXMX6X .7 - @                               ",
"                                                            . . .       . X # 9 4X5X5X4X .6 # . .                               ",
"                                                                        X O w p { ] ] ] { p ; O .                               ",
"                                                                        . O a g u q 3 6 u g e O .                               "
};
