/* XPM */
static char *tile0091697913298[] = {
/* columns rows colors chars-per-pixel */
"64 64 244 2 ",
"   c None",
".  c #010101",
"X  c #090607",
"o  c #130302",
"O  c #130D06",
"+  c #190805",
"@  c #1C1309",
"#  c #1C1207",
"$  c #120E1B",
"%  c #380B09",
"&  c #22160A",
"*  c #291A0A",
"=  c #34160C",
"-  c #330E1D",
";  c #2A1E14",
":  c #33230B",
">  c #352412",
",  c #3D2913",
"<  c #3B2615",
"1  c #2F200F",
"2  c #1C1C34",
"3  c #10172A",
"4  c #2C1529",
"5  c #251628",
"6  c #32182B",
"7  c #162134",
"8  c #272733",
"9  c #342C35",
"0  c #352E2F",
"q  c #47050A",
"w  c #540001",
"e  c #590205",
"r  c #481A0F",
"t  c #4B1B11",
"y  c #4B111E",
"u  c #511915",
"i  c #4B0F12",
"p  c #610000",
"a  c #65060D",
"s  c #6A0200",
"d  c #7A0000",
"f  c #750204",
"g  c #6B0B16",
"h  c #582809",
"j  c #5A3505",
"k  c #432C15",
"l  c #482B15",
"z  c #522915",
"x  c #4B3116",
"c  c #4C3319",
"v  c #47311B",
"b  c #533519",
"n  c #59331A",
"m  c #5C3D1D",
"M  c #55391B",
"N  c #4B2A05",
"B  c #653B01",
"V  c #662C1B",
"C  c #623F1B",
"Z  c #6C331E",
"A  c #6F2C11",
"S  c #421526",
"D  c #463625",
"F  c #503530",
"G  c #673726",
"H  c #753D2D",
"J  c #723E23",
"K  c #6F352A",
"L  c #5F401E",
"P  c #6D4402",
"I  c #63400F",
"U  c #744B03",
"Y  c #7A4A0A",
"T  c #62411E",
"R  c #6B451D",
"E  c #784910",
"W  c #5E4832",
"Q  c #654321",
"!  c #6A4621",
"~  c #6E4923",
"^  c #6A492D",
"/  c #734C24",
"(  c #7A4827",
")  c #7B532A",
"_  c #7B5636",
"`  c #754734",
"'  c #443C42",
"]  c #49454C",
"[  c #4D4C55",
"{  c #534249",
"}  c #830000",
"|  c #98040C",
" . c #B00C04",
".. c #8D2512",
"X. c #BA3003",
"o. c #80342A",
"O. c #93322B",
"+. c #CA0300",
"@. c #D60000",
"#. c #C81C01",
"$. c #EC0000",
"%. c #FD0000",
"&. c #F50000",
"*. c #E71101",
"=. c #D42F27",
"-. c #CF2102",
";. c #845304",
":. c #89590B",
">. c #8D5919",
",. c #8A4C0F",
"<. c #9A6A07",
"1. c #986612",
"2. c #8D6A07",
"3. c #A67A08",
"4. c #A87713",
"5. c #AE670B",
"6. c #844D28",
"7. c #835529",
"8. c #85592C",
"9. c #8C5C2C",
"0. c #865427",
"q. c #915D2A",
"w. c #9B5E2A",
"e. c #874D33",
"r. c #8D5235",
"t. c #885A36",
"y. c #94573A",
"u. c #96612D",
"i. c #8C6237",
"p. c #956434",
"a. c #9B6631",
"s. c #9E6A35",
"d. c #986839",
"f. c #A36C35",
"g. c #A86E3A",
"h. c #B66A3D",
"j. c #AD753C",
"k. c #A6703C",
"l. c #B5793E",
"z. c #B5763A",
"x. c #A24702",
"c. c #D15505",
"v. c #C96F06",
"b. c #8A5A45",
"n. c #8D6841",
"m. c #956843",
"M. c #977552",
"N. c #AC6C42",
"B. c #B16E42",
"V. c #A47342",
"C. c #A3754C",
"Z. c #A77A4D",
"A. c #AA7948",
"S. c #B97E42",
"D. c #B37946",
"F. c #A97D55",
"G. c #B77954",
"H. c #C17C4C",
"J. c #CD7F57",
"K. c #B4870A",
"L. c #B3870D",
"P. c #BF8C2C",
"I. c #C39A0C",
"U. c #D0A50F",
"Y. c #C69423",
"T. c #BB844C",
"R. c #BB8147",
"E. c #B48555",
"W. c #BC8A57",
"Q. c #A4825F",
"!. c #B38A68",
"~. c #BA926A",
"^. c #BB9676",
"/. c #AD8C6E",
"(. c #C38445",
"). c #CA8A4B",
"_. c #C88649",
"`. c #C38C53",
"'. c #CA8D52",
"]. c #C68453",
"[. c #D48D52",
"{. c #CC945A",
"}. c #CB9056",
"|. c #D3995E",
" X c #D89459",
".X c #D08E4C",
"XX c #C59363",
"oX c #CD9761",
"OX c #CB9968",
"+X c #D19A62",
"@X c #DD9B63",
"#X c #D39E69",
"$X c #D39562",
"%X c #C99E73",
"&X c #C39B72",
"*X c #D0916E",
"=X c #E19E67",
"-X c #E5967E",
";X c #D6A16B",
":X c #CDA175",
">X c #CEA57B",
",X c #C4A07A",
"<X c #D5A576",
"1X c #D3A67A",
"2X c #D6AA7C",
"3X c #D9AC7D",
"4X c #DCA575",
"5X c #E4A36C",
"6X c #E7AA77",
"7X c #E9B07E",
"8X c #DDA55F",
"9X c #C7A787",
"0X c #D9AD82",
"qX c #D4A883",
"wX c #DBB186",
"eX c #DCB48B",
"rX c #D2B18E",
"tX c #D4B493",
"yX c #DEBA94",
"uX c #DEBC9A",
"iX c #DDB790",
"pX c #E7AF81",
"aX c #EBB689",
"sX c #E9B789",
"dX c #F1BC8D",
"fX c #E1BE9B",
"gX c #E1BC95",
"hX c #F2BF90",
"jX c #D69C88",
"kX c #E1C09D",
"lX c #F6C799",
"zX c #F3C28E",
"xX c #E4C4A4",
"cX c #E5C7A9",
"vX c #E5C9AC",
"bX c #E8CBAD",
"nX c #FACEA1",
"mX c #FFD8AB",
"MX c #E7CDB2",
"NX c #E8CFB5",
"BX c #E8D0B6",
"VX c #EAD2B8",
"CX c #FFDEB2",
"ZX c #DEC0A1",
/* pixels */
"                                                                                                                                ",
"                                                                                                                                ",
"                                    H m m / q.u.q.u.q.9.q.q.u.0.R L G H                                                         ",
"                                  e.e.t._ n.C.Z.Z.Z.Z.Z.Z.A.Z.C.n._ ) ( (                                                       ",
"                          H ( 6.u.g.D.E.^.,XrXtXrXtXtXtXtXrXtXrX9X~.C.8./ C G G H                                               ",
"                          e.r.d.A.W.+X3XyXcXBXVXVXBXVXVXVXVXBXBXcXyX%XE.m._ _ ` (                                               ",
"                      q.a.k.G.{.:XeXkXcXbXMXBXBXBXBXBXBXVXBXBXBXbXvXkXtX9X^.E.i.) R m                                           ",
"                    9.a.j.W.<XwXkXvXBXBXBXNXNXBXBXBXBXBXBXBXBXBXNXNXBXBXbXfX:XE.d./ Q T                                         ",
"                  m ) j.}.wXxXcXvXNXBXBXNXNXNXNXNXNXNXNXNXNXNXNXNXNXBXBXNXvXuXqXW.d.) ! m                                       ",
"                  ! i.T.<XxXVXBXBXNXNXNXNXNXNXNXNXNXNXNXNXNXNXNXNXNXNXNXBXNXvXyX:XA.u.~ m                                       ",
"                  7.V.OXeXvXBXBXNXNXNXBXNXNXNXNXNXNXNXNXNXNXBXNXNXNXNXNXBXNXvXyX<X`.k./ m                                       ",
"                9.f.E.qXxXbXBXBXNXNXNXMXNXNXNXNXNXNXNXNXNXNXNXNXNXNXNXNXBXNXvXuXwX#XR.i.! T                                     ",
"              T 8.l.OXuXMXBXBXMXNXNXNXBXNXNXNXNXNXNXNXNXNXNXNXNXNXNXNXNXNXNXMXvXkXeXOXV.) R L                                   ",
"            M T i.`.3XcXVXBXBXBXNXNXNXNXNXNXNXNXNXNXNXNXNXNXNXNXNXNXNXNXNXNXBXBXbXfX>XE.u./ L                                   ",
"            b T i.:XgXvXBXBXNXNXNXNXNXNXNXNXNXNXNXNXBXNXNXNXNXNXNXNXNXNXNXNXBXBXvXyX2X{.j.) T                                   ",
"            C / M.9XfXcXbXMXNXNXNXNXNXNXNXNXNXNXNXNXNXNXNXNXNXNXNXNXNXNXNXNXBXBXvXyX3X+XR.8.L                                   ",
"            0.8.E.>XiXyXZXvXBXNXNXNXNXNXNXNXNXNXNXNXBXNXNXNXNXNXNXNXNXNXBXBXBXBXvXuX2X|.S.8.T                                   ",
"            q.a.E.:X2XwXyXvXBXBXNXNXNXNXNXNXNXNXNXNXNXNXNXNXNXNXNXNXNXBXBXBXMXvXxXyX3X|.S.8.L                                   ",
"            9.a.j.}.#X0XuXvXBXBXNXNXNXNXNXNXNXNXNXNXBXMXNXNXNXNXNXNXBXBXBXNXvXuXyXeX3X+XS.8.m                                   ",
"            0.9.f.R.oX3XyXxXvXvXvXMXNXNXNXNXNXNXNXNXNXNXNXNXNXNXBXNXvXvXvXvXZXyXwX3X<X{.S.8.Q                                   ",
"            T / p.R.|.0XeXyXyXyXuXcXNXNXNXNXNXNXBXBXBXBXBXNXBXBXBXMXcXyXyXyXyXeX2X+X}..XS.8.Q                                   ",
"            , x / j.{.2XeXeXwXeXiXZXvXMXNXBXNXBXBXMXvXvXvXvXvXvXvXcXuXeXwXeX0X2X:X'.(.(.j./ x                                   ",
"            X @ x u.W.>XiXeXeXwXeXiXyXcXNXVXBXBXBXvXuXiXyXyXiXyXyXyXeXeXeXeX2X+X'.).(.l.i.x @                                   ",
"            . . , 7.A.%X0XeXeXeXeXwXiXuXcXvXvXvXvXxXiXeXeXwXeXeXwXeXeXeXwX3X#X)._.).R.s./ : .                                   ",
"            . . , 0.j.`.;X2XeXeXwXeXeXiXyXyXuXyXgXyXeXeXeXeXeXeXeXeXiXwX<X{.}.).).).R.9.M * .                                   ",
"            . . < / a.l.`.;X3XwXeXeXeXeXwXwX2X<X:X&X%X:X%X:X1X1X2X2X3X<X;X).(.).(.D.s.) c @ .                                   ",
"            . X * m 7.a.D.`.OX2XeXeXeXeXwX<X|.T.Z.V.k.V.V.A.E.{.{.{.{.}.'.).).).D.9./ Q c @ .                                   ",
"            . . * M R ) 9.s.T.OX3X3X2X>X%XW.R.f.s.s.d.k.a.f.z.P.R.l.(._.).).R.l.d.~ m m M * X                                   ",
"            . . * M T Q ! / i.R.|.|.{.T.V.i.) i.j.W.OXXXW.R.j.f.s.f.l.)..X).j.9.! L m L c * .                                   ",
"            . . @ , M M m m Q 8.p.p.d.9.7.T c ) T.;X7X3X;XT.i./ ) q.p.d.d.d._ Q m m m c , @ .                                   ",
"            . . . # 1 b m m M < 1 1 : M T , & W ~.wXiXiX3X~.W : T 9.R > * 1 , M m L b * O X .                                   ",
"              . . . @ c L L c * O X O 1 , # X D !.:X:X:X>XQ.0 O : T x O X O 1 c L L x @ . . .                                   ",
"                . . & c T L M x k k k ; @ . . < i.A.V.V.V.t.> . O & > k k k x M C C x @ . .                                     ",
"                  . & l n n n n n n x = o X & M i.A.V.k.V.i.D O . o = z m n n n n n l @ .                                       ",
"                    = r r r t t t t i % = l J d.~.:X:X:X>X!._ < = % % t u t t t u t r                                           ",
"                      u u u u z h V V V Z 6.V.~.3XeXeXiXsX>XF.e.~ Z V V V h h h h z u                                           ",
"                      G K Z G A ,.w.N.B.B.].#X6XpXsXsXsXaXpX<XXXH.B.B.B.q.,.;.<.1.J Z                                           ",
"                    e.r.r.r.6.,.>.z.[. X=X6XdXdXsX7X6X6X7XaXdXdX6X=X X[.z.w.4.Y.P.f.e.                                          ",
"                  H y.B.H.H.B.e.6.B.[.=X6XhXnXlXaX6X@X@X6XdXnXlXhX7X=X[._.(..X8X|.'.B.r.H                                       ",
"                J ` y.H. X[.H.y.e.B.[.6XaXnXmXnXlX7X$X@X7XlXlXzXdX6X XJ.]. X5XdXdX=XH.y.H                                       ",
"              ,.E H y.]. X XH.y.e.B.$X5XaXnXmXCXmXdX=X=XdXlXaX5X=X XB.b.C.-XzXnXzX=XH.y.H                                       ",
"            <.<.>.( r.B.H.H.N.` H b.F.G.*X*XjXqXqX*XG.H.*X-XJ.h.h.h.e.H b.*XqXeX3X'.z.w.9.                                      ",
"          :.K.U.L.:.,.e.r.e.H F 8 9 ' G Z o.o.o.o.K A ..O.O.......A S 9 F b.b.m.m.w.1.4.L.                                      ",
"        U ;.K.U.I.3.1.q.6.6.G 0 2 2 4 q e e p p p p p s d } | } s w - 8 0 G 6.6.,.,.x.5.v.c.                                    ",
"        j B Y <.K.U.U.L.4.:.I 0 2 - q w p s f d f d f d } } } f s e - 2 0 E <.3.5.X. .#.-.*.%.                                  ",
"        P U Y ;.3.I.I.K.3.;.I 0 2 4 q i q e a a a a a a a a a a e q 5 2 D E 5.3.c.#.+.@.@.$.%.                                  ",
"        K.3.<.;.;.U U U B B j 8 2 2 5 5 5 4 4 4 4 4 6 6 4 4 5 4 5 5 2 2 D Y x.X.#.+.@.$.%.%.                                    ",
"        3.3.<.<.;.U B B j j N 6 8 8 8 9 ' ] [ [ [ ] ' ' ' [ [ [ ] ' 9 9 D j ..+.@.@.@.$.%.                                      ",
"        P U <.K.K.K.2.;.P j h x D D M _ C.^.9X9X^.!.F.F.!.^.9X9X^.C._ G < * s +.&.                                              ",
"          j ;.3.3.2.2.P j j j I R R / f.'.6XzXdX0X+X].].+X4XzXzX5X'.N.6.< o % +.%.                                              ",
"            P U j : : & * l T ) 8.7.9.k._. X|.`.D.g.f.g.k.R.}.|. X_.z.r.l X o                                                   ",
"              N * . . . @ x ~ 9.f.k.A.W.oX+XoX`.A.C.V.V.V.Z.W.oXoX}.R.f.! > @                                                   ",
"                          b / s.(.XX>XwXfXfXuXuXtXrX>X:X:X>XiXyXiX1XoXS.a.) R                                                   ",
"                          ~ ) j.).;XwXuXvXMXBXNXMXfXqX:X^.,XeXkXiX1XoX(.j.a.u.                                                  ",
"                          8.u.l.).'.$X2XuXcXMXMXkX1XE.d.i.i.E.OX+X{.D.g.a.u.u.                                                  ",
"                          ~ 8.j._._._.oX1XeXyXgX0X~.d./ L T i.j.l.S.f.9.7.9.7.                                                  ",
"                          @ x d._.)._.).}.{.oX$X{.A._ Q m L ~ 7.u.a.8.~ Q ! !                                                   ",
"                          . & ) (.}.{.+X+X+X}.[.(.a.m , k v v D ^ ^ L x x M                                                     ",
"                          . @ ~ A.XXjXyXfXsX0X{.j./ > O O @ 3 8 9 9 ; $ @                                                       ",
"                          . # b _ M./.jXjXjX*XG.t.c O . . . $ 3 3 3 $ .                                                         ",
"                              # ; 9 ' y.=.=.=.O.F 5 X .     X $ X X X                                                           ",
"                              . X $ S g |  .| g 6 $ X .       . . .                                                             ",
"                              . o % g y S S S y a q o .                                                                         ",
"                              . o e f S 7 7 7 S f p + .                                                                         "
};
