/* XPM */
static char *_1698412705[] = {
/* columns rows colors chars-per-pixel */
"64 64 65 1 ",
"  c None",
". c #592310",
"X c #5A2410",
"o c #5B2510",
"O c #5D2612",
"+ c #5D2712",
"@ c #66310E",
"# c #66320E",
"$ c #6F3C0D",
"% c #683310",
"& c #6D341E",
"* c #6E351E",
"= c #4B302F",
"- c #4C312E",
"; c #543A2B",
": c #553B2B",
"> c #593C29",
", c #462E30",
"< c #472F30",
"1 c #483030",
"2 c #6B3622",
"3 c #6F3620",
"4 c #6C3622",
"5 c #703620",
"6 c #703720",
"7 c #77401B",
"8 c #75411E",
"9 c #79421C",
"0 c #79421D",
"q c #594032",
"w c #5A4132",
"e c #664B2D",
"r c #B78C02",
"t c #B48C05",
"y c #B58D05",
"u c #B98D03",
"i c #B98E03",
"p c #B98D04",
"a c #BB9208",
"s c #C39900",
"d c #C89D02",
"f c #E8BB16",
"g c #E7BA1B",
"h c #EDBF19",
"j c #DBB73F",
"k c #DCB83B",
"l c #EDC01D",
"z c #EDC01E",
"x c #EFC11E",
"c c #EFC21E",
"v c #EDC73D",
"b c #EEC83D",
"n c #EFC83D",
"m c #FBD23C",
"M c #EDC841",
"N c #EEC941",
"B c #EFCA41",
"V c #EFCA42",
"C c #FBD340",
"Z c #FDD440",
"A c #FDD540",
"S c #FDD545",
"D c #FDD645",
"F c #FFD745",
"G c #FFD746",
/* pixels */
"                                                                ",
"                                                                ",
"                                                                ",
"                                                                ",
"                                                                ",
"                                                                ",
"                                                                ",
"                                                                ",
"                                                                ",
"                                                                ",
"                            lhllhhhhllll                        ",
"                            cccccccccclc                        ",
"                          hcmAAmAZmAAAAmcl                      ",
"                          hcAGGGGSGGGSGAch                      ",
"                          hcASSSGGFGGGGAch                      ",
"                          hcASSSSSASSSSmch                      ",
"                          hlnBBBBBBBBBBnlh                      ",
"                          hlvBMMMMMMMMMvll                      ",
"                          hlvMMMMMMMMMMvlh                      ",
"                          hlvMMMMMMMMMMvlh                      ",
"                          hlvMMMMMMMMMMvlh                      ",
"                          hlvMMBMMMMMMMvlh                      ",
"                          hhvBBBBMBBBBnnlh                      ",
"                          ggkjjjjjjjjjjjgf                      ",
"                          daeqqqqqqqwqqead                      ",
"                          st;,1<<,<<11<:ts                      ",
"                          st:<11<11111<:td                      ",
"                          st:<11<1111<<:ts                      ",
"                          st:111111111<:ps                      ",
"                          dt:<11111111<:ts                      ",
"                          st:<11111111<:ts                      ",
"                          st:<11111111<:ts                      ",
"                          st:111111111<:ts                      ",
"                          st:111111111<:ts                      ",
"                          st:,11111111<:td                      ",
"                          st:111111111<:ts                      ",
"                          st:111111111<:ts                      ",
"                          sp:111111111<:ts                      ",
"                          st:111111111<:td                      ",
"                          st>1-1------1>ts                      ",
"                          sp823244443228ps                      ",
"                          si956666666639ps                      ",
"                          si936666665639ps                      ",
"                          si936666665539is                      ",
"                          si966666666669is                      ",
"                          si7****6*****7ps                      ",
"                          sr%++++++++++%rs                      ",
"                          sr@XoXooooooX@rs                      ",
"                          sr#XXXoooo+XX#rs                      ",
"                          sr@XX+oooXXXX@rs                      ",
"                          sr@XXXXXXXXXX@rs                      ",
"                          sr$@########@$rs                      ",
"                            rrrrirrrrrrr                        ",
"                            ssssssssssss                        ",
"                                                                ",
"                                                                ",
"                                                                ",
"                                                                ",
"                                                                ",
"                                                                ",
"                                                                ",
"                                                                ",
"                                                                ",
"                                                                "
};
