/* XPM */
static char *_1698412705[] = {
/* columns rows colors chars-per-pixel */
"64 64 89 1 ",
"  c None",
". c #5B2510",
"X c #5E2812",
"o c #66320E",
"O c #6F3C0D",
"+ c #642C11",
"@ c #6B3311",
"# c #6D351E",
"$ c #763B1F",
"% c #783C1F",
"& c #4C312E",
"* c #54362E",
"= c #553B2B",
"- c #593B2B",
"; c #472F30",
": c #473030",
"> c #483030",
", c #553730",
"< c #563830",
"1 c #593A32",
"2 c #6E3621",
"3 c #613D2E",
"4 c #703720",
"5 c #753C21",
"6 c #793E22",
"7 c #76411D",
"8 c #7A431D",
"9 c #5A4132",
"0 c #7C4524",
"q c #644331",
"w c #684934",
"e c #924701",
"r c #954A03",
"t c #984C06",
"y c #954C0D",
"u c #9A4E08",
"i c #9C510C",
"p c #844E1C",
"a c #A4560C",
"s c #A6580E",
"d c #A85C17",
"f c #A35A1A",
"g c #AA5E19",
"h c #AF6016",
"j c #AC601B",
"k c #B06217",
"l c #B4651A",
"z c #824525",
"x c #844B23",
"c c #8A5527",
"v c #AD692E",
"b c #B76B26",
"n c #B46B2B",
"m c #BC6F2B",
"M c #BB712D",
"N c #C17329",
"B c #C7782E",
"V c #C8792E",
"C c #C17B3E",
"Z c #AD8003",
"A c #B78C02",
"S c #B98E03",
"D c #C49707",
"F c #C39900",
"G c #C99B0A",
"H c #DDAB1E",
"J c #DFB01A",
"K c #E8BB16",
"L c #E0B11A",
"P c #ECBD1A",
"I c #CD843D",
"U c #D68D3C",
"Y c #DB933E",
"T c #D0AA3C",
"R c #DCB63F",
"E c #DEB83E",
"W c #E1BA3E",
"Q c #EDC01C",
"! c #F1C422",
"~ c #EDC63D",
"^ c #EFC83D",
"/ c #C98241",
"( c #CD8941",
") c #D98C43",
"_ c #DB9343",
"` c #EBC241",
"' c #EEC941",
"] c #F1CB42",
"[ c #FDD544",
/* pixels */
"                                                                ",
"                                                                ",
"                                                                ",
"                                                                ",
"                                                                ",
"                                                                ",
"                                                                ",
"                                                                ",
"                                                                ",
"                                                                ",
"                      QPQQQPQPQPPPQQPPPPPPPQ                    ",
"                      QQQQQQQQQQPPPPPPPPPPPP                    ",
"                    QQ~~~^^~^~~~~~_YYYYU))_YPP                  ",
"                    PQ^'^''''''''`_))))))))UPP                  ",
"                    QQ^'[[[[''''``_))))))))YPP                  ",
"                    PQ'][[[['''''`_))))))))_PP                  ",
"                QPQPQQ^[[[]''''''`_)))))_))YPQQQQQ              ",
"                QQQQQ![[[[]'WEEWWW(////////IHLJJLJ              ",
"              PQ~^~^^[[[]''Ec000z011111111<1880x8pSF            ",
"              QQ~^''[[[['''E024422>;>>;;;;;:2$2248SF            ",
"              PQ~'''[[[]'''E044422&;>>>>>>:&222448SF            ",
"              QQ~'''[[]^'''E044422&;;;>>>>>&222228SF            ",
"              PQ~''''''''']W044442&;;;;:>>>&224247SF            ",
"              KP~`````ERRRETx66665-,<,=<>>>&22222$SF            ",
"              FGY____(w1999wnMMMMMMMMMMv,:>>&&&&:9AF            ",
"              FDU()_)/1;::;,MBVVVVVVBBBM<;>>>>>>:<AF            ",
"              FDU))))/1;::;1MBBBVVBBBBBM<;>>>>>>:=AF            ",
"              FDU))))/1;:;;,MVBBVVBBBBBM<;>>>>>>:=AF            ",
"              FDU))))/1;;;;,MBVBBBVVBVVM=;:>::::;=AF            ",
"              FDI//I(M31,113nNNMNNNMMMNn9>****&:&=AF            ",
"              FS80000znMMMMnitttttttttuujjjjjf5227AF            ",
"              FS8$2226MVBBBMueeeeeeeeeerlljllj6228SF            ",
"              FS024446mVBBVNteeeeeeeeeerkllllg%448SF            ",
"              FS%44446mVBBBNteeeeeeeeeetkllllk544%SF            ",
"              FS8#4446NVBBVNteeeeeeeeeerkllllk64#8SF            ",
"              FS824426mVBBVNteeeeeeeeeerkllllg52#%SF            ",
"              FS824446MVBBBNueeeeeeeeeetkllllgo.X@AF            ",
"              FS8#4446NVBBBNreeeeeeeeeerkllllg+..oAF            ",
"              SS844446MVVVVNteeeeeeeeeerkllllg+..oAF            ",
"              FS8####5nmmmmburrrrrrerretdggggf+..oAF            ",
"              FS@.XXXX++@++@gkkkkhaaaaau@+++++X..oAF            ",
"              FSo.........X+glllllsaaaai+........oAF            ",
"              FSo..........+glllllsaaaai+........oAF            ",
"              FSo.....X....+gllllksaaaai+........oAF            ",
"              FSo..........+glllllsaaaai+........oAF            ",
"              FS7ooOo+.....+dggggdiiiiiyX...oooo+OAF            ",
"                AASSSko.....+++++++X+++X...oZAAAAA              ",
"                FSFFFAo....................oAFFFFF              ",
"                    FAo....................oAF                  ",
"                    FAo..............X.....oAF                  ",
"                    FAo....................oAF                  ",
"                    FAOooooooooooooooooooooOAF                  ",
"                      AAAAAAAAAAAAAAAAAAAAAA                    ",
"                      FFFFFFFFFFFFFFFFFFFFFF                    ",
"                                                                ",
"                                                                ",
"                                                                ",
"                                                                ",
"                                                                ",
"                                                                ",
"                                                                ",
"                                                                ",
"                                                                ",
"                                                                "
};
