/* XPM */
static char * coin_xpm[] = {
"64 64 181 2",
"  	c None",
". 	c #FFFFFF",
"+ 	c #000000",
"@ 	c #000000",
"# 	c #000000",
"$ 	c #000000",
"% 	c #000000",
"& 	c #000000",
"* 	c #000000",
"= 	c #97742D",
"- 	c #5B451B",
"; 	c #000000",
"> 	c #000000",
", 	c #000000",
"' 	c #000000",
") 	c #000000",
"! 	c #96722D",
"~ 	c #403113",
"{ 	c #000000",
"] 	c #000000",
"^ 	c #2E230D",
"/ 	c #000000",
"( 	c #000000",
"_ 	c #181307",
": 	c #000000",
"< 	c #000000",
"[ 	c #5A451B",
"} 	c #161106",
"| 	c #000000",
"1 	c #000000",
"2 	c #3F3013",
"3 	c #201809",
"4 	c #000000",
"5 	c #000000",
"6 	c #2D220D",
"7 	c #000000",
"8 	c #000000",
"9 	c #171207",
"0 	c #151006",
"a 	c #000000",
"b 	c #9A752E",
"c 	c #F8BE4B",
"d 	c #FFC24D",
"e 	c #FFC24C",
"f 	c #FEC34D",
"g 	c #FFC34D",
"h 	c #FEC24D",
"i 	c #FEC34C",
"j 	c #FFC34C",
"k 	c #FEC24C",
"l 	c #775B24",
"m 	c #B18835",
"n 	c #E38D27",
"o 	c #E48D26",
"p 	c #C98A2E",
"q 	c #C9993C",
"r 	c #D97817",
"s 	c #D97616",
"t 	c #D97716",
"u 	c #D87615",
"v 	c #D97615",
"w 	c #D87716",
"x 	c #D97715",
"y 	c #D87616",
"z 	c #D87715",
"A 	c #ED9F33",
"B 	c #483715",
"C 	c #C99A3C",
"D 	c #F3BA49",
"E 	c #E08621",
"F 	c #F6B140",
"G 	c #F7B341",
"H 	c #EB9B30",
"I 	c #F3AC3C",
"J 	c #D8A541",
"K 	c #B18735",
"L 	c #DD7F1C",
"M 	c #FEC14B",
"N 	c #EA9A2F",
"O 	c #F0A638",
"P 	c #30250E",
"Q 	c #FABA46",
"R 	c #FFC554",
"S 	c #FFEDBD",
"T 	c #FEEDBD",
"U 	c #FEDE96",
"V 	c #FCBE49",
"W 	c #FDDA90",
"X 	c #FFCF6C",
"Y 	c #FEC655",
"Z 	c #FFF3CC",
"` 	c #FFF2CB",
" .	c #FEF2CC",
"..	c #FFF3CB",
"+.	c #FEF3CC",
"@.	c #FEF2CB",
"#.	c #FEF3CB",
"$.	c #FFE2A0",
"%.	c #FFE09C",
"&.	c #FFD070",
"*.	c #FFC655",
"=.	c #FEE2A0",
"-.	c #FEE09C",
";.	c #FED070",
">.	c #FFF2CC",
",.	c #F9BE4B",
"'.	c #FFEBB8",
").	c #FEC44F",
"!.	c #FFC44F",
"~.	c #F2AA3C",
"{.	c #EA992E",
"].	c #FFC34E",
"^.	c #FEE4A6",
"/.	c #FFF1C9",
"(.	c #FEF1C9",
"_.	c #FAC863",
":.	c #E48E26",
"<.	c #FEEBB7",
"[.	c #F1A839",
"}.	c #E9982E",
"|.	c #FFE5A8",
"1.	c #FFCC65",
"2.	c #181307",
"3.	c #FFEBB7",
"4.	c #FEE5A8",
"5.	c #FECC65",
"6.	c #FEC554",
"7.	c #FEC95D",
"8.	c #F2AA3B",
"9.	c #DB7C19",
"0.	c #EB9C34",
"a.	c #FFC451",
"b.	c #FED884",
"c.	c #FED988",
"d.	c #FFD884",
"e.	c #FFD988",
"f.	c #FFD47B",
"g.	c #FBCF7A",
"h.	c #F8B644",
"i.	c #FEC450",
"j.	c #FFC450",
"k.	c #FEDE95",
"l.	c #FFE29F",
"m.	c #FEE29F",
"n.	c #F2A93C",
"o.	c #FAB946",
"p.	c #EA992F",
"q.	c #FFD885",
"r.	c #FED885",
"s.	c #FED47C",
"t.	c #E08520",
"u.	c #765A23",
"v.	c #FEC451",
"w.	c #FBCF79",
"x.	c #FED377",
"y.	c #FEDC90",
"z.	c #FFDC90",
"A.	c #FEDA8A",
"B.	c #907236",
"C.	c #FFE19C",
"D.	c #FEE19C",
"E.	c #FEC34E",
"F.	c #FFD377",
"G.	c #FFD47C",
"H.	c #FEC85A",
"I.	c #FFD57C",
"J.	c #FED57C",
"K.	c #473615",
"L.	c #FECE6C",
"M.	c #FFE5A7",
"N.	c #FFDA8A",
"O.	c #FFC85A",
"P.	c #7B5E25",
"Q.	c #FFF1C8",
"R.	c #FEF1C8",
"S.	c #2F240E",
"T.	c #F9C762",
"U.	c #FFCB64",
"V.	c #FECB64",
"W.	c #171207",
"X.	c #FFFFFF",
"                                      + + + + + + + + + + + + + + + + + + + + +                                                 ",
"                                      + + + + + + + + + + + + + + + + + + + + +                                                 ",
"                                      + + + + + + + + + + + + + + + + + + + + +                                                 ",
"                                      P P P P P P P P P P P P P P P P P P P P P P                                               ",
"                        + + + + + + ! K m m m m m m m m m m m m m m m m m m m m ! P + + + + +                                   ",
"                      + + + + + + + K D ,.,.,.,.,.,.,.,.,.,.,.,.,.,.,.,.,.,.,.,.K 2 + + + + + +                                 ",
"                      + + + + + + + K D g h d d d g g h d g f h f f f f h h f g m 2 + + + + + +                                 ",
"                      P P P P P P ^ K D M M M M M M M M M M M M M M M M M M M M m B P P P P P P                                 ",
"                + + ^ = m m m m m m q 0.0.0.0.0.0.0.0.0.0.0.0.0.0.0.0.0.0.0.0.0.p m m m m m m b [ + +                           ",
"                + + P m c ,.,.,.,.,.O t.9.9.9.9.9.9.9.9.9.9.9.9.9.9.9.9.9.9.9.9.A c ,.,.,.,.,.J - + +                           ",
"                + + P m h f g h h h n.L t t s s s t s s t t t t t t t t t t t v A M d f h d g J - + +                           ",
"                2 2 B q h h h M V M [.t.9.9.9.9.9.9.9.9.9.9.9.9.9.9.9.9.9.9.9.9.A V M M k h g J u.2 2                           ",
"          + + P.q q q J f f V [.H 0.A O n.n.n.n.n.n.n.n.n.n.n.n.n.n.n.n.n.n.n.n.A 0.0.A o.h d D C q q ! ^ + +                   ",
"        + + + ! D ,.,.M g f o.:.r r H Q k M k M M k k M M M k k k M M M M M k k A L 9.t.F d h h ,.,.,.K P + +                   ",
"        + + + ! D d g h g g o.n v v H V g h d d d h g h h d f h f f f f h f h f A 9.t L F f h f h f f K P + +                   ",
"        + + + ! D d g M M M h.:.9.9.0.V d h R O.O.O.O.O.O.H.O.H.H.v.f d f f d h O L 9.E h.H.H.Y E.f g K P + +                   ",
"        + + + ! D d k I H H 0.O n.8.G M d 6.N.^.^.^.^.^.^.^.^.^.$.&.f g h f g g h.~.n.D W ^.^.z.7.j g K P + +                   ",
"        + + + ! D d M A 9.r n G k k k h f H.^./.(.(./.(.(.(.(.(.R.b.f f h h f f k k k 7.4.(.@.4.5.k f K P + +                   ",
"        + + + ! D g M 0.r v n G g g d d d H.^.Z Z +.Z Z +.+.+.+.Q.b.f h f h g f h h g 7.4.+.+.<.5.k g K P + +                   ",
"        2 ~ 2 b D M V A L 9.n h.g g f g f H.^.Z +.#.Q.Q.R.Q.R.R.T s.V M M h h h g h g 7.4.R.R.4.X Y H.m [ ~ ~                   ",
"  + + - m J J 0.p.N N A I 8.F V d d d g h H.^.Z Z T -.N.N.A.A.A.c.D N p.O V d f g f g R s.A.A.k.=.^.^.w.J J C P.+ +             ",
"+ + + - J k k ~.t.9.L [.k k k h d d g h f H.^.Z +.'.w.a.R 6.6.6.v.}.9.r :.o.h f g d d ].v.6.v.b.T @./.k.6.k D P.+ + +           ",
"+ + + - J g g I L s 9.[.f f g h d g f f f H.^.+.+.'.;.e h d g h V }.t v n o.g g g d d f f d M G.T +.Z U *.f D P.+ + +           ",
"+ + + - J g g I L t 9.[.h f !.*.O.O.O.H.H.U.|.+.Z '.;.k h d f h V }.L 9.}.,.O.H.R d g d d d M s.T +.Z U Y k D P.+ + +           ",
"+ + + - J g g I L s 9.[.d k 1.U M.^.^.^.^.4.S Z +.'.;.e d d f f k G F I T.-.M.^.d.R g f f h M s.T +.+.U Y f D P.+ + +           ",
"+ + + - J g g I L v 9.[.d j &.<.` (./.(.(.(...Z Z '.;.e h h f f g k k M g.'.@.@.U O.g f h f M s.T +.+.U *.f D P.+ + +           ",
"+ + + - J g g I L s 9.[.g j &.3.Z Z Z Z Z +.Z Z Z '.;.k h g f f g h g M f.T Z +.U *.d d h h M s.T +.Z U *.f D P.+ + +           ",
"+ + + - J g g I L s 9.[.g i &.<.Z Z (.R.Q.R.R.Q.R.<.;.k d f f f g f f e x.<.R.R.k.6.V V k h M s.T +.+.U *.f D P.+ + +           ",
"+ + + - J g g I L s 9.[.d e &.<.Z Z <.A.d.d.d.d.b.x.O.e h g f h h f g k 7.f.d.b.T.p.:.}.h.h M s.T +.+.U *.f D P.+ + +           ",
"+ + + - J g g I L t 9.[.d k &.3.Z Z 4.U.a.a.a.v.v.v.E.d h h d g d d g d ].a.a.v.O L r L F d M s.S Z +.U *.f D P.+ + +           ",
"+ + + - J g g I L t 9.[.d k &.3.Z +.^.7.f g d d d f f d h h g j g g g g d h d h A 9.t L F d M s.T +.Z U *.f D P.+ + +           ",
"+ + + - J g g I L s 9.[.d k &.<.Z Z ^.7.f h h h d h f h h h g h d h f d h h h h A 9.t L F d M s.T +.Z U *.f D P.+ + +           ",
"+ + + - J g g I L t 9.[.d e &.<.+.+.^.7.d h h h d h h d h h h h d h f g h h h f A 9.t L F h M s.T +.Z U *.f D P.+ + +           ",
"+ + + - J g g I L s 9.[.d k &.<.Z Z ^.7.g d h d d h d d h f g d g g g g h h d g O 9.t L F h M G.T +.Z U *.h D P.+ + +           ",
"+ + + - J g g I L t 9.[.g i &.3.Z Z ^.7.g h g d d h g d f f g f g h d d h h d g A 9.t L F d M G.T Z Z U Y f D P.+ + +           ",
"+ + + - J g g I L s 9.[.g j L.<.Q.Q.=.7.V V k d d h g d h d f h g M V V V V V V A 9.t L F h M s.T +.+.U Y h D P.+ + +           ",
"+ + + - J g g I L s 9.[.d d O.;.F.F.T.0.:.}.F d h h g h h f g f M A :.:.:.:.:.:.t.r t L F f M s.T +.+.U Y f D P.+ + +           ",
"+ + + - J g g I L t 9.[.g g ].j.a.a.~.L r L 8.d d d f h h g g h V }.r r r r r r r t t L F h M s.T +.Z U *.f D P.+ + +           ",
"+ + + - J g g ~.L s 9.[.d g g f g g n.L s 9.8.d h g f h h f f h V }.t t t t t t t t t L F f M s.T +.Z U *.f D P.+ + +           ",
"+ + + - J g g I L v 9.[.d g d h d g I E L E h.7.7.H.v.h d f f f V }.t t r L L L L L L E F h M s.T +.+.U Y f D P.+ + +           ",
"+ + + - J g g I L t 9.[.d g g d g d V h.G D W 3.3.$.L.k h h h h V }.t v E 8.G G G G G G V h M s.T +.Z U *.f D P.+ + +           ",
"+ + + - J g g I L t 9.[.d h g h g h h k k Y ^.` ..<.;.e h g g h V }.t v n h.h k k k k k f f M s.T +.+.U Y f D P.+ + +           ",
"+ + + - J g g I L t 9.[.d g g h d d f d f H.^.Z Z '.;.e d f f h V }.t v n o.g f g d g g h h M s.T +.Z U *.f D P.+ + +           ",
"+ + + - J D D O E L t.O V V V k d d d h h Y =.R.R.<.L.V V V V V Q }.t v n o.g f g d d !.O.7.7.b.'.R.Q.W c D D P.+ + +           ",
"        - - - b ~.G F A n n }.h.d g f f f ).5.&.;.T.0.n n n n n n L t v n o.f f g d g H.-.3.3.=.G.;.;.q u.- -                   ",
"        0 0 + ! D e M A r r n G g h g d h f ).!.j.h.n t r r r r r t t v n o.g f g d g 7.|.` #.<.L.E.!.K 2 0 0                   ",
"        + + + ! D h M 0.r v n G ].d f h h h d d g h.n v x t t t t t t v n o.f f d f f 7.4.+.+.<.5.k f K P + +                   ",
"        + + + ! D d M A L L n c 7.7.O.!.d f d d g h.n L L L L L L L L L }.o.g f Y 7.7.L.|.R.R.|.5.k f K P + +                   ",
"        + + + ! D d d V h.h.T.=.'.'.-.7.g f d d d M o.h.h.h.h.h.h.h.h.h.o.M g k N.3.'.<.r.;.;.5.v.f f K P + +                   ",
"        + + + ! D d g h k e ;.<.Z ..^.7.g h d d d g d k k e k k k k k k h h f i U R...R.J.).).!.f f f K P + +                   ",
"        + + + ! D h f h h i &.<.+.+.^.7.d g h h h h h h h d d d d h g g f g g i %.Q.Z Q.G.d h h h g d K P + +                   ",
"        + + + ! F D D ,.g e L.|.Q.Q.^.L.7.7.7.7.7.7.7.7.7.7.7.7.7.7.7.7.7.7.7.7.%.S Q.T f.h k ,.D D D K P + +                   ",
"                - - u.q h h R V.L.L.z.3.'.'.'.'.'.'.'.'.'.'.'.'.'.'.'.'.'.'.'.'.k.;.L.L.*.d g J P.- - [                         ",
"                0 0 P m h f g h E.k W R.#.#.#.#...#.#.#.#.#...#...#.#.#.#.#.#.#.U O.].].h h g J - + 0                           ",
"                + + P m k h d h h M W R.Z +.+.#.Z +.Z #.+.+.+.+.Z +.Z Z +.Z Z Z U *.d h h h g J - + +                           ",
"                + + P m D D D D D D r.T Q.Q.Q.Q.Q.Q.Q.Q.R.R.Q.R.Q.Q.Q.Q.Q.R.Q.Q.W c D D D D D J - + +                           ",
"                      [ - - - - - [ m T.L.5.1.5.1.5.L.1.5.1.L.1.L.L.L.L.1.L.1.L.q u.- - - - - [                                 ",
"                      + + + + + + + K D ].E.E.].].E.].E.h E.E.E.E.E.E.E.E.E.E.!.m 2 + + + + + +                                 ",
"                      + + + + + + + K D d h h d d d h h h h g h h f d h h h d g m 2 + + + + + +                                 ",
"                        + + + + + + K D D D D D D D D D D D D D D D D D D D D D b ^ + + + + + +                                 ",
"                                      - - [ [ - - - [ [ [ [ - [ - [ [ - [ - - - B                                               ",
"                                      + + + + + + + + + + + + + + + + + + + + +                                                 ",
"                                      + + + + + + + + + + + + + + + + + + + + +                                                 ",
"                                      + + + + + + + + + + + + + + + + + + + + +                                                 "};
