/* XPM */
static char * coin3_xpm[] = {
"64 64 35 1",
" 	c None",
".	c #FFFFFF",
"+	c #000000",
"@	c #000000",
"#	c #000000",
"$	c #000000",
"%	c #6F5521",
"&	c #9A752E",
"*	c #0E0A04",
"=	c #B88C37",
"-	c #FFC24D",
";	c #FFC34D",
">	c #FEC34D",
",	c #FEC24D",
"'	c #FEC24C",
")	c #FFC24C",
"!	c #FEC34C",
"~	c #171207",
"{	c #FFC34C",
"]	c #B38331",
"^	c #F8B644",
"/	c #171006",
"(	c #9C550F",
"_	c #D97715",
":	c #D97716",
"<	c #D97615",
"[	c #140B02",
"}	c #D87715",
"|	c #D97616",
"1	c #D87615",
"2	c #D87716",
"3	c #D87616",
"4	c #0E0701",
"5	c #010100",
"6	c #FFFFFF",
"                                                  ++++++++++++++",
"                                                 +++++++++++++++",
"                                                 +++++++++++++++",
"                                                 +++++++++++++++",
"                                                 +++~]]]]]]]%+++",
"                                                 +++~^-,>>;,&+++",
"                                                 +++~^>>>;>>&+++",
"                                                 +++~^;,-;;,&+++",
"                                                 +++~^;-;;;;&+++",
"                                                 +++~^;,;;;,&+++",
"                                                 +++~^-,-;;-&+++",
"                                                 +++~^;,;;;>&+++",
"                                                 +++~^;,;;;;&+++",
"                                                 +++~^-,;>;,&+++",
"                                                 +++~^>>>;>>&+++",
"                                                 +++~^>,;>>,&+++",
"                                                 +++~^;;;;;;&+++",
"                                                 +++~^;,>>;>&+++",
"                                                 +++~^;,>>;>&+++",
"                                                 +++~^;>>>>>&+++",
"                                                 +++~^;,;;;;&+++",
"                                                 +++~^;,;;;>&+++",
"                                                 +++~^;>;;;;&+++",
"                                                 +++~^-,>>;>&+++",
"                                                 +++~^;,;;>>&+++",
"                                                 +++~^;;;;>>&+++",
"                                                 +++~^-,>;;>&+++",
"                                                 +++~^,,,,,,&+++",
"                                                 +++~2::::::(+++",
"                                                 +++/1:_::::(+++",
"                                                 +++/1:::_::(+++",
"                                                 +++/1__:_:_(+++",
"                                                 +++/1:_:_:_(+++",
"                                                 +++/1::::::(+++",
"                                                 +++/1:_:_::(+++",
"                                                 +++/1__:_:_(+++",
"                                                 +++/1:_:_::(+++",
"                                                 +++/1:_::::(+++",
"                                                 +++/1::::::(+++",
"                                                 +++/1__:_:_(+++",
"                                                 +++/1__:_:_(+++",
"                                                 +++/1:_::::(+++",
"                                                 +++/1:_:_::(+++",
"                                                 +++/1:_:_::(+++",
"                                                 +++/1:_:_:_(+++",
"                                                 +++/1__:_:_(+++",
"                                                 +++/1:_:_::(+++",
"                                                 +++/1:_:_::(+++",
"                                                 +++/1:_:_::(+++",
"                                                 +++/1:_:_::(+++",
"                                                 +++/1:_:_:_(+++",
"                                                 +++/1::::::(+++",
"                                                 +++/1:_:_:_(+++",
"                                                 +++/1____:_(+++",
"                                                 +++/1:::_::(+++",
"                                                 +++/1:_:_::(+++",
"                                                 +++/1:_:_::(+++",
"                                                 +++/1:_:_::(+++",
"                                                 +++/1:_:_::(+++",
"                                                 +++/1111111%+++",
"                                                 +++5///////4+++",
"                                                 +++++++++++++++",
"                                                 +++++++++++++++",
"                                                 +++++++++++++++"};
