/* XPM */
static char * coin2_xpm[] = {
"64 64 130 2",
"  	c None",
". 	c #FFFFFF",
"+ 	c #000000",
"@ 	c #000000",
"# 	c #000000",
"$ 	c #000000",
"% 	c #000000",
"& 	c #000000",
"* 	c #000000",
"= 	c #836427",
"- 	c #8B6A2A",
"; 	c #000000",
"> 	c #000000",
", 	c #000000",
"' 	c #000000",
") 	c #000000",
"! 	c #93702C",
"~ 	c #A17B30",
"{ 	c #000000",
"] 	c #000000",
"^ 	c #000000",
"/ 	c #000000",
"( 	c #000000",
"_ 	c #000000",
": 	c #000000",
"< 	c #000000",
"[ 	c #3E3013",
"} 	c #371E05",
"| 	c #000000",
"1 	c #000000",
"2 	c #000000",
"3 	c #171106",
"4 	c #130A02",
"5 	c #000000",
"6 	c #000000",
"7 	c #9A752E",
"8 	c #C5973B",
"9 	c #FEC24C",
"0 	c #FFC34D",
"a 	c #FFC24D",
"b 	c #FFC34C",
"c 	c #FEC34C",
"d 	c #FEC24D",
"e 	c #FFC24C",
"f 	c #FEC34D",
"g 	c #D9A641",
"h 	c #E7942B",
"i 	c #E48D26",
"j 	c #FDC04B",
"k 	c #DE811D",
"l 	c #D97716",
"m 	c #D87716",
"n 	c #FDC04A",
"o 	c #D97715",
"p 	c #D97615",
"q 	c #D87615",
"r 	c #D97616",
"s 	c #D87616",
"t 	c #C99A3C",
"u 	c #DB8B27",
"v 	c #E08621",
"w 	c #F4AD3D",
"x 	c #F7B341",
"y 	c #FEE6AD",
"z 	c #FEE8B1",
"A 	c #FFE8B1",
"B 	c #FFE6AC",
"C 	c #F7BD4A",
"D 	c #AE8534",
"E 	c #E18822",
"F 	c #F9B845",
"G 	c #FFF1C7",
"H 	c #FFF3CC",
"I 	c #FEF3CC",
"J 	c #FEF0C5",
"K 	c #C2943A",
"L 	c #FEF2CC",
"M 	c #FEF1C7",
"N 	c #FEF3CB",
"O 	c #FFF0C5",
"P 	c #FFF3CB",
"Q 	c #F9DDA7",
"R 	c #FFEDBD",
"S 	c #FEEDBD",
"T 	c #FFF2CB",
"U 	c #F9E2B3",
"V 	c #FEF2CB",
"W 	c #D87715",
"X 	c #F9B948",
"Y 	c #FEC44F",
"Z 	c #FFC44F",
"` 	c #FFF2CC",
" .	c #F9BB4D",
"..	c #FFC655",
"+.	c #FEC655",
"@.	c #F9DBA2",
"#.	c #FEEBB7",
"$.	c #FFEBB7",
"%.	c #FEEFC4",
"&.	c #F8B644",
"*.	c #BD8B33",
"=.	c #FCECC2",
"-.	c #A55A10",
";.	c #EEA135",
">.	c #F1A839",
",.	c #FEF0C6",
"'.	c #FDEEC4",
").	c #F0A638",
"!.	c #473615",
"~.	c #D5A340",
"{.	c #FFE19C",
"].	c #FEE5A8",
"^.	c #FFE5A8",
"/.	c #E49C4C",
"(.	c #E39948",
"_.	c #E39746",
":.	c #C26A13",
"<.	c #3C2106",
"[.	c #FFECBB",
"}.	c #DA7B1D",
"|.	c #B96512",
"1.	c #FEECBB",
"2.	c #FECA61",
"3.	c #FECB64",
"4.	c #FFCB64",
"5.	c #DA7A19",
"6.	c #DA7918",
"7.	c #171207",
"8.	c #140B02",
"9.	c #FFFFFF",
"                                                                                  + + + + + + + + + + + + +                     ",
"                                                                                + + + + + + + + + + + + + + +                   ",
"                                                                                + + + + + + + + + + + + + + +                   ",
"                                                                                + + + + + + + + + + + + + + +                   ",
"                                                                          + + + ~ D D D D D D D D D D D D D ~ + + +             ",
"                                                                          + + + g f f f 0 a f d d f a f f 0 g + + +             ",
"                                                                          + + + g f f 0 0 f f f f f a f f f g + + +             ",
"                                                                          + + + g d d f f d 0 0 0 0 f a d a g + + +             ",
"                                                                          + + + g 0 0 X ;.;.;.x 0 0 0 0 0 0 g + + +             ",
"                                                                          + + + g a 0 F l l l ).0 0 a f a 0 g + + +             ",
"                                                                          + + + g a 0 F l l o ).d 0 d a 0 a g + + +             ",
"                                                                          + + + g 0 0 F l l l ).0 0 d 0 0 0 g + + +             ",
"                                                                  + + + - K K K h ;.;.;.>.>.>.3.^.^.].2.0 0 &.K K K = + + +     ",
"                                                                  + + + ~ 0 f 0 E l l E 9 a a {.H I N 4.d a d d a 0 7 + + +     ",
"                                                                  + + + ~ 0 f 0 E l l E 9 f f {.I I P 3.f f f f f 0 7 + + +     ",
"                                                                  + + + ~ 0 f 0 E l l E 9 d 0 {.I I P 3.f f f f f 0 7 + + +     ",
"                                                                  + + + ~ 0 0 0 E l l _.].^.^.[.H H P 4.0 0 0 0 0 0 7 + + +     ",
"                                                                  + + + ~ 0 f 0 E l l /.V H H H I H N 3.f f a d f 0 7 + + +     ",
"                                                                  + + + ~ 0 f 0 E l l /.V I I I H I P 3.0 0 a f f 0 7 + + +     ",
"                                                                  + + + ~ 0 f f E l l /.V I I I I I P 3.f f d f 0 0 7 + + +     ",
"                                                                  + + + ~ 0 f 0 E l l _.{.{.{.A H H P 4.f 0 0 f 0 0 7 + + +     ",
"                                                                  + + + ~ 0 f 0 E l l E 9 a f {.H H N 3.f f d f 0 0 7 + + +     ",
"                                                                  + + + ~ 0 f 0 E l l E 9 0 0 {.H H P 3.f 0 0 0 0 0 7 + + +     ",
"                                                                  + + + ~ 0 f 0 E l l E d 0 0 {.H H P 3.f 0 a d 0 0 7 + + +     ",
"                                                                  + + + ~ 0 f 0 E l l _.y A y S H H P 4.f f d f f 0 7 + + +     ",
"                                                                  + + + ~ 0 0 0 E l l /.V I H H H H N 4.0 0 0 f 0 0 7 + + +     ",
"                                                                  + + + ~ 0 f 0 E l l /.V H H I I H N 4.0 0 a a a 0 7 + + +     ",
"                                                                  + + + ~ 0 f 0 E l l /.V P N I I I P 3.d 9 d d d d 7 + + +     ",
"                                                                  + + + ~ 0 f 0 E l o h 3.3.4.B H I N /.h h h h h h = + + +     ",
"                                                                  + + + ~ 0 f 0 E l l E 9 d 0 {.H H V _.l l l l l l -.+ + +     ",
"                                                                  + + + ~ 0 0 0 E l l E 9 0 0 {.H H V _.l l l l l l -.+ + +     ",
"                                                                  + + + ~ 0 0 0 E l o E 9 a a {.H H V _.o o o o o l -.+ + +     ",
"                                                                  + + + ~ 0 d 0 E l l E 9 a f {.I H V _.o o o o l o -.+ + +     ",
"                                                                  + + + ~ 0 0 0 E l l E 9 0 0 {.H H V _.l l l l l l -.+ + +     ",
"                                                                  + + + ~ 0 f 0 E l l E 9 a 0 {.H H V _.l l l l l l -.+ + +     ",
"                                                                  + + + ~ 0 f 0 E l l E 9 9 9 {.I I V _.l o o l o l -.+ + +     ",
"                                                                  + + + ~ 0 f 0 E l l 5.i i i @.I I V _.l o l l l l -.+ + +     ",
"                                                                  + + + ~ 0 f 0 E l l l l l l @.H H V _.l l l l l l -.+ + +     ",
"                                                                  + + + ~ 0 0 0 E l l o l l l @.H H V _.l l l l l l -.+ + +     ",
"                                                                  + + + ~ 0 d 0 E l l l l l o @.H I V _.l o o l o o -.+ + +     ",
"                                                                  + + + ~ 0 f 0 E l l l o o l @.I H V _.l l o o o l -.+ + +     ",
"                                                                  + + + ~ 0 f 0 E l l l l l l @.H H V _.l l l l l l -.+ + +     ",
"                                                                  + + + ~ 0 f 0 E l l l l l o @.H H V _.l l o l l l -.+ + +     ",
"                                                                  + + + ~ 0 f 0 E l l l l l o @.H H V _.l o o l l l -.+ + +     ",
"                                                                  + + + ~ 0 f 0 E l l l o l o @.H H T _.o o o l l o -.+ + +     ",
"                                                                  + + + ~ 0 f 0 E l l l o l o @.H H V _.l l o o o l -.+ + +     ",
"                                                                  + + + ~ 0 f 0 E l l l l l l @.I H V _.l l o l l l -.+ + +     ",
"                                                                  + + + ~ 0 f 0 E 6.6.6.6.l 6.@.H H V _.l l l l l l -.+ + +     ",
"                                                                  + + + ~ 0 f f X F F F F F F @.I I V _.l l o l l l -.+ + +     ",
"                                                                  + + + ~ 0 f a f f f 0 0 f f {.I I V _.l l o l o l -.+ + +     ",
"                                                                  + + + ~ 0 f f d d d f f d 0 {.H H V _.l l l l l l -.+ + +     ",
"                                                                  + + + ~ j j j d 0 0 f Z Z Z {.V V M _.l l m q q q -.+ + +     ",
"                                                                        <.[ [ [ g a 0 3.S S R @.u u u }.l l :.} } }             ",
"                                                                          + + + g a 0 4.T H I @.l l o o o o |.+ + +             ",
"                                                                          + + + g 0 0 4.T H H @.l l l l l l |.+ + +             ",
"                                                                          + + + g 0 0 3.G T T @.l l l l l l |.+ + +             ",
"                                                                          + + + g a 0 Y ......).l l l l l o |.+ + +             ",
"                                                                          + + + g 0 f d f f f ;.o l l l l o |.+ + +             ",
"                                                                          + + + g d f 0 f d 0 ;.l l l l l l |.+ + +             ",
"                                                                          + + + g j j j j j j ;.q q q q q s |.+ + +             ",
"                                                                                } } } } } } } } 3 3 3 3 3 3 3                   ",
"                                                                                + + + + + + + + + + + + + + +                   ",
"                                                                                + + + + + + + + + + + + + + +                   ",
"                                                                                + + + + + + + + + + + + + + +                   "};
