/* XPM */
static char *_1698412705[] = {
/* columns rows colors chars-per-pixel */
"64 64 233 2 ",
"   c None",
".  c #592310",
"X  c #592410",
"o  c #5A2410",
"O  c #5B2510",
"+  c #5C2510",
"@  c #5C2610",
"#  c #5D2612",
"$  c #5D2712",
"%  c #65300E",
"&  c #66310E",
"*  c #66320E",
"=  c #6F3C0D",
"-  c #632B10",
";  c #652C11",
":  c #652D13",
">  c #662D13",
",  c #662E13",
"<  c #672E13",
"1  c #673210",
"2  c #6B331D",
"3  c #6E351E",
"4  c #6E351F",
"5  c #6F361E",
"6  c #713616",
"7  c #713A11",
"8  c #74391C",
"9  c #753A1E",
"0  c #763A1E",
"q  c #4B302F",
"w  c #4C302E",
"e  c #4C312E",
"r  c #543B2B",
"t  c #553B2B",
"y  c #593C29",
"u  c #59382E",
"i  c #462F30",
"p  c #472F30",
"a  c #483030",
"s  c #553730",
"d  c #563830",
"f  c #6B3622",
"g  c #6E3520",
"h  c #6F3620",
"j  c #6F3720",
"k  c #6C3622",
"l  c #6D3722",
"z  c #623E2F",
"x  c #703620",
"c  c #703720",
"v  c #713820",
"b  c #783D21",
"n  c #793D21",
"m  c #793E21",
"M  c #783D22",
"N  c #793E22",
"B  c #7A3E22",
"V  c #7B3F24",
"C  c #75411E",
"Z  c #78411C",
"A  c #78401D",
"S  c #78411D",
"D  c #79411D",
"F  c #79421C",
"G  c #79421D",
"H  c #7E411F",
"J  c #62422B",
"K  c #7B4023",
"L  c #7D4623",
"P  c #7B4024",
"I  c #7D4624",
"U  c #7E4724",
"Y  c #914600",
"T  c #914701",
"R  c #924701",
"E  c #944802",
"W  c #944902",
"Q  c #944903",
"!  c #974C05",
"~  c #974C06",
"^  c #984C06",
"/  c #984D07",
"(  c #9B500A",
")  c #9C500A",
"_  c #9D510B",
"`  c #9C510C",
"'  c #9E520D",
"]  c #9E530E",
"[  c #9F530E",
"{  c #804A1A",
"}  c #995010",
"|  c #9F5410",
" . c #A2540B",
".. c #A2550B",
"X. c #A4560C",
"o. c #A5560C",
"O. c #A5580E",
"+. c #A85A10",
"@. c #844725",
"#. c #834A20",
"$. c #864C25",
"%. c #884F27",
"&. c #B76B27",
"*. c #B86C27",
"=. c #BE6F26",
"-. c #B16728",
";. c #B56B2B",
":. c #B66C2A",
">. c #B16A2D",
",. c #B96D28",
"<. c #BB6F2B",
"1. c #BC7326",
"2. c #BC702B",
"3. c #BA7429",
"4. c #B9702E",
"5. c #B9702F",
"6. c #BA712E",
"7. c #BD712C",
"8. c #BE712C",
"9. c #BE712D",
"0. c #BF732D",
"q. c #C17229",
"w. c #C17329",
"e. c #C27329",
"r. c #C4752A",
"t. c #C4752B",
"y. c #C1742F",
"u. c #C4752C",
"i. c #C7772E",
"p. c #C67B29",
"a. c #C77C29",
"s. c #C7782E",
"d. c #C8782E",
"f. c #C8792E",
"g. c #C9792E",
"h. c #C8782F",
"j. c #C8792F",
"k. c #C97A30",
"l. c #C97B31",
"z. c #CA7B30",
"x. c #CA7F30",
"c. c #AD8003",
"v. c #AF8205",
"b. c #B78B02",
"n. c #B78C02",
"m. c #B58D05",
"M. c #B68E05",
"N. c #B88D02",
"B. c #B98D03",
"V. c #B98E03",
"C. c #BA8E03",
"Z. c #B98D04",
"A. c #BA8F04",
"S. c #BB8C0A",
"D. c #C19405",
"F. c #C39505",
"G. c #C39607",
"H. c #C49607",
"J. c #C49707",
"K. c #C59707",
"L. c #C19800",
"P. c #C29800",
"I. c #C29900",
"U. c #C39900",
"Y. c #C39A00",
"T. c #C49A00",
"R. c #C79C02",
"E. c #C99B0A",
"W. c #E8BB16",
"Q. c #E9BB1B",
"!. c #EDBF18",
"~. c #EDBF19",
"^. c #CD8332",
"/. c #CB8439",
"(. c #CC8538",
"). c #CD823F",
"_. c #CD833F",
"`. c #CE833F",
"'. c #CF843F",
"]. c #D48E36",
"[. c #D5873E",
"{. c #D18A3F",
"}. c #D68D3C",
"|. c #D78D3C",
" X c #D78E3C",
".X c #D9943C",
"XX c #DDB13C",
"oX c #DFB83D",
"OX c #E0B93E",
"+X c #E1B93E",
"@X c #EDC01D",
"#X c #EFC11D",
"$X c #F1C422",
"%X c #EDC639",
"&X c #EBC13D",
"*X c #EAC03F",
"=X c #EDC73D",
"-X c #EFC83D",
";X c #EFC93D",
":X c #CE8340",
">X c #D68941",
",X c #D78941",
"<X c #D78A41",
"1X c #D98C43",
"2X c #DA8C43",
"3X c #DA8D43",
"4X c #D98B44",
"5X c #D98C44",
"6X c #DA8D44",
"7X c #D99141",
"8X c #DB9243",
"9X c #DB9343",
"0X c #DC9343",
"qX c #E9C041",
"wX c #EBC141",
"eX c #EBC242",
"rX c #EDC841",
"tX c #EDC941",
"yX c #EEC941",
"uX c #EFC941",
"iX c #EECA41",
"pX c #EFCA41",
"aX c #EDC842",
"sX c #EFC942",
"dX c #EFCA42",
"fX c #F1CB42",
"gX c #FBD340",
"hX c #FDD541",
"jX c #FBD444",
"kX c #FDD545",
"lX c #FDD645",
"zX c #FED645",
"xX c #FFD745",
/* pixels */
"                                                                                                                                ",
"                                                                                                                                ",
"                                                                                                                                ",
"                                                                                                                                ",
"                                                                                                                                ",
"                                                                                                                                ",
"                                                                                                                                ",
"                                                                                                                                ",
"                                                                                                                                ",
"                                                                                                                                ",
"                                                        U.P.U.U.U.R.W.~.~.~.~.~.                                                ",
"                                                        J.G.J.D.G.E.Q.@X@X@X@X~.                                                ",
"                                                    U.G.]. X X X X.X&X=X=X=X=X%X@X~.                                            ",
"                                                    U.J. X4X4X4X4X8XwXiXiXiXaX=X@X~.                                            ",
"                                                    P.G. X<X1X1X4X9XwXiXjXjXfX=X@X~.                                            ",
"                                                    U.J. X1X1X3X4X9XwXiXjXjXfXfX@X~.                                            ",
"                                            U.U.U.U.U.J. X6X3X3X1X9XwXfXjXxXjXhX#X~.~.~.                                        ",
"                                            V.V.A.A.V.S./.:X`.`.`.{.wXiXjXxXxXhX$X#X@X@X                                        ",
"                                        U.V.{ S S S S S K P P P B %.OXaXiXfXjXxXhXgX;X%X@X~.                                    ",
"                                        U.V.S h h c c h h h h h g I oXiXiXfXjXjXxXjXiX=X@X~.                                    ",
"                                        U.V.S c v h v h v h v j h I OXaXaXaX-XfXjXxXfX-X@X~.                                    ",
"                                        U.V.S h h v h v h v h v h I OXiXaXaXaXiXjXjXiX-X@X~.                                    ",
"                                        U.M.S 5 v h j j j j j j h I OX-XaXaXiXiXiXiXaX=X@X~.                                    ",
"                                        U.M.K h k k k h m m m m m @.XXwXwXwXwXwXwXwXwX&XQ.Q.                                    ",
"                                        U.M.y q q w q u >.8.8.8.7.7.x.^.9X9X9X9X9X9X8X.XJ.R.                                    ",
"                                        P.M.r p a a i u 5.g.g.s.g.g.i.k.<X1X1X1X<X6X6X XJ.U.                                    ",
"                                        U.M.r p a a p s 5.g.s.s.s.s.s.k.<X1X1X1X<X6X3X XJ.P.                                    ",
"                                        U.M.r i a a p d 5.s.s.s.s.s.s.k.<X1X1X1X3X6X<X XJ.U.                                    ",
"                                        U.M.r i p p i s 5.g.s.s.s.i.s.j.<X1X1X1X3X3X6X XJ.P.                                    ",
"                                        U.M.J s d d s z :.w.e.e.w.w.w.i.[.<X<X>X'.:X:X/.J.U.                                    ",
"                                        U.D.3.5.5.5.5.:.( ^ ^ ^ ! ! ! _ i.k.g.y.@.P P #.A.U.                                    ",
"                                        U.D.a.s.g.g.g.w.^ Y Y R R Y Y ! 8.s.i.7.m h v 0 A.U.                                    ",
"                                        P.J.p.s.s.s.s.w.^ R R R R R R ^ e.s.s.7.B j h S A.U.                                    ",
"                                        P.D.p.s.s.s.s.w.^ R R R R R R ^ e.s.g.7.B j h C A.U.                                    ",
"                                        P.J.p.s.s.s.s.w.^ R R R R R R ^ w.i.g.7.B j v G V.U.                                    ",
"                                        P.F.p.i.s.s.g.e.^ R R R R R R ^ w.h.h.7.B j h G V.U.                                    ",
"                                        P.D.p.h.s.s.s.w.^ R R R Y E E ^ w.s.g.7.m j h S V.U.                                    ",
"                                        P.J.p.h.s.s.s.w.^ Y R R Y Y Y ^ w.s.h.7.m j h S V.U.                                    ",
"                                        P.D.a.s.g.g.j.w.^ Y Y Y E Y Y / w.g.g.7.m h v G V.U.                                    ",
"                                        U.D.1.8.,.<.<.;._ ^ ^ ^ Q Q E / ,.7.7.;.m j h S V.U.                                    ",
"                                        U.V.7 : : < : 6 *.e.e.1.+. . .' H m m m v c h S V.U.                                    ",
"                                        U.b.* . O . O : ,.g.g.t.+.X.X.' 9 h h j c c c S V.U.                                    ",
"                                        U.M.* . O O . < 8.g.s.e.+. .X. .9 c v h c c h S V.U.                                    ",
"                                        U.b.* O O + O : -.8.2.&.| ` | } 9 v h v c v v S V.U.                                    ",
"                                        U.b.* . . . + + : : < : - : 8 9 9 h v j h h c 0 A.U.                                    ",
"                                        U.b.= * * * * % + O O . o # 2 3 3 3 3 3 S S S { A.U.                                    ",
"                                            b.b.b.M.V.c.* . O O o o $ $ $ $ $ 1 v.V.V.V.                                        ",
"                                            U.U.U.U.U.b.* O O O o # o # o o o * M.U.U.U.                                        ",
"                                                    U.M.* . + O O O O O O + . * M.U.                                            ",
"                                                    U.b.* . O O O O O O O + . * b.U.                                            ",
"                                                    U.b.* . O . O . O . O . . % V.U.                                            ",
"                                                    U.V.= * * * * * * * * * * = b.U.                                            ",
"                                                        M.b.V.b.M.b.b.V.M.b.b.V.                                                ",
"                                                        U.U.U.U.U.U.U.U.U.U.U.U.                                                ",
"                                                                                                                                ",
"                                                                                                                                ",
"                                                                                                                                ",
"                                                                                                                                ",
"                                                                                                                                ",
"                                                                                                                                ",
"                                                                                                                                ",
"                                                                                                                                ",
"                                                                                                                                ",
"                                                                                                                                "
};
