/* XPM */
static char * coin1_xpm[] = {
"64 64 227 2",
"  	c None",
". 	c #FFFFFF",
"+ 	c #000000",
"@ 	c #000000",
"# 	c #000000",
"$ 	c #000000",
"% 	c #000000",
"& 	c #000000",
"* 	c #000000",
"= 	c #896829",
"- 	c #6F5521",
"; 	c #000000",
"> 	c #000000",
", 	c #000000",
"' 	c #8E6C2A",
") 	c #6C5320",
"! 	c #000000",
"~ 	c #000000",
"{ 	c #000000",
"] 	c #000000",
"^ 	c #8C6B2A",
"/ 	c #624B1D",
"( 	c #000000",
"_ 	c #000000",
": 	c #000000",
"< 	c #000000",
"[ 	c #8A6A29",
"} 	c #554119",
"| 	c #000000",
"1 	c #000000",
"2 	c #000000",
"3 	c #554119",
"4 	c #341C05",
"5 	c #000000",
"6 	c #000000",
"7 	c #3D2F12",
"8 	c #2C1804",
"9 	c #000000",
"0 	c #000000",
"a 	c #000000",
"b 	c #2C220D",
"c 	c #221203",
"d 	c #000000",
"e 	c #000000",
"f 	c #171107",
"g 	c #130A01",
"h 	c #000000",
"i 	c #000000",
"j 	c #9A752E",
"k 	c #D3A13F",
"l 	c #FEC24D",
"m 	c #FFC34D",
"n 	c #FEC34D",
"o 	c #FFC24D",
"p 	c #FFC24C",
"q 	c #FFC34C",
"r 	c #FEC34C",
"s 	c #9C772F",
"t 	c #FEC24C",
"u 	c #B18835",
"v 	c #DB8C29",
"w 	c #E48D26",
"x 	c #EC9D31",
"y 	c #E1AC44",
"z 	c #BB8F38",
"A 	c #DF841F",
"B 	c #D97716",
"C 	c #D87616",
"D 	c #D97715",
"E 	c #D87615",
"F 	c #D97616",
"G 	c #D87715",
"H 	c #D97615",
"I 	c #856528",
"J 	c #D87716",
"K 	c #C99A3C",
"L 	c #DA8B28",
"M 	c #E08621",
"N 	c #F3AB3C",
"O 	c #F7B341",
"P 	c #F9C262",
"Q 	c #FFE8B1",
"R 	c #FEE8B1",
"S 	c #FEDA8A",
"T 	c #E5AF45",
"U 	c #A47D31",
"V 	c #E38B24",
"W 	c #F8B543",
"X 	c #FFD172",
"Y 	c #FFF3CC",
"Z 	c #FEF3CC",
"` 	c #FEF2CC",
" .	c #FFE09B",
"..	c #6D5321",
"+.	c #FED172",
"@.	c #FEE09B",
"#.	c #FEF3CB",
"$.	c #FFF2CB",
"%.	c #FFF3CB",
"&.	c #FEEAB4",
"*.	c #FEEDBD",
"=.	c #FFEDBD",
"-.	c #FEEFC2",
";.	c #FEF2CB",
">.	c #FFEDBE",
",.	c #FFEFC2",
"'.	c #FEEDBE",
").	c #FFF2CC",
"!.	c #F9BE4B",
"~.	c #E59129",
"{.	c #D97817",
"].	c #F4AE3D",
"^.	c #FEC14B",
"/.	c #FEF2CA",
"(.	c #FFC44F",
"_.	c #FEC44F",
":.	c #FBBC49",
"<.	c #E18722",
"[.	c #FED57E",
"}.	c #FEF1C9",
"|.	c #FFF1C9",
"1.	c #FEDB8D",
"2.	c #FBC04B",
"3.	c #8C6B2A",
"4.	c #E69229",
"5.	c #F4AE3E",
"6.	c #FFF2CA",
"7.	c #FABA47",
"8.	c #E08620",
"9.	c #FFD57D",
"0.	c #FFDC8F",
"a.	c #554119",
"b.	c #FED57D",
"c.	c #FEDC8F",
"d.	c #F4B145",
"e.	c #FEC655",
"f.	c #FFC655",
"g.	c #FBBB47",
"h.	c #DB7C19",
"i.	c #E28B25",
"j.	c #FFC553",
"k.	c #F4D29B",
"l.	c #FECC66",
"m.	c #FEE4A6",
"n.	c #FFE4A6",
"o.	c #FFCC66",
"p.	c #FFECBA",
"q.	c #FEEBB7",
"r.	c #FFEBB7",
"s.	c #FFEAB5",
"t.	c #FECB62",
"u.	c #FDDB95",
"v.	c #F8B644",
"w.	c #FBCD78",
"x.	c #533D16",
"y.	c #F3AC3C",
"z.	c #E7A65C",
"A.	c #E9972D",
"B.	c #492807",
"C.	c #FFCB62",
"D.	c #F4C57B",
"E.	c #FFE29F",
"F.	c #FEE29F",
"G.	c #F4B24B",
"H.	c #F1A839",
"I.	c #FDC04B",
"J.	c #FDC04A",
"K.	c #EA9A2F",
"L.	c #FCBD48",
"M.	c #ED9F33",
"N.	c #E9982E",
"O.	c #FDD37E",
"P.	c #FED885",
"Q.	c #FFD885",
"R.	c #FFD784",
"S.	c #DC7D1A",
"T.	c #F1BB6B",
"U.	c #765A23",
"V.	c #C3872D",
"W.	c #EB9B30",
"X.	c #FBBC47",
"Y.	c #FED783",
"Z.	c #FED988",
"`.	c #FFD988",
" +	c #FED886",
".+	c #E8962C",
"++	c #FFCA60",
"@+	c #FEDC90",
"#+	c #FFDC90",
"$+	c #FFDB8D",
"%+	c #F5BB5D",
"&+	c #9E611A",
"*+	c #64370A",
"=+	c #FEC14C",
"-+	c #EC9E32",
";+	c #5D3309",
">+	c #F0A638",
",+	c #473615",
"'+	c #C68E33",
")+	c #F4AD3D",
"!+	c #FDDC96",
"~+	c #FFE5A8",
"{+	c #FEE5A8",
"]+	c #FFDF98",
"^+	c #FFD070",
"/+	c #FED070",
"(+	c #F4B653",
"_+	c #E38C25",
":+	c #935916",
"<+	c #3C2106",
"[+	c #FFEAB6",
"}+	c #F0A537",
"|+	c #713E0B",
"1+	c #FEEAB6",
"2+	c #2F240E",
"3+	c #DBAF55",
"4+	c #FECB64",
"5+	c #FFCB64",
"6+	c #F5B750",
"7+	c #E08520",
"8+	c #995A15",
"9+	c #281604",
"0+	c #85490D",
"a+	c #171207",
"b+	c #161005",
"c+	c #140B02",
"d+	c #FFFFFF",
"                                                        + + + + + + + + + + + + + + + + + + + + +                               ",
"                                                        + + + + + + + + + + + + + + + + + + + + +                               ",
"                                                        + + + + + + + + + + + + + + + + + + + + +                               ",
"                                                      2+2+2+2+2+2+2+2+2+2+2+2+2+2+2+2+2+2+2+2+2+2+                              ",
"                                                  + + ^ u u u u u u u u u u u u u u u u u u u u u = a++ +                       ",
"                                                + + + u G.!.!.!.!.!.!.!.!.!.!.!.!.!.!.!.!.!.!.!.!.U c + +                       ",
"                                                + + + u !.n l n n n n m n m n l n l n n l n l n l U c + +                       ",
"                                                2+7 b u 7.I.I.I.I.I.I.I.I.I.I.I.I.I.I.I.I.I.l m n u 7 <+7                       ",
"                                          + + / u z z v x M.M.M.M.-+M.M.-+-+-+-+-+M.M.M.-+H.I.m m k z z z } + +                 ",
"                                        + + + - T 2.2.}+S.h.h.h.h.h.h.h.h.h.h.h.h.h.h.h.{.~.J.m l 2.!.!.v./ + + +               ",
"                                        + + + - T m (.>+h.B D D F D B B B D B F D D B B D ~.J.l m n o l !./ + + +               ",
"                                        2+7 <+U.T I.=+}+S.S.S.S.h.S.S.S.S.h.h.S.S.S.S.S.h..+e.f.e.j.o l !.- 7 7 <+              ",
"                                  + + b+s z z '+.+x x M.H.H.H.H.H.H.H.H.H.H.H.H.H.H.H.H.H.%+@.n.F.9.(.l 2.K z z U b++ +         ",
"                                  + + c K !.!.d.A h.{.M.L.=+=+=+I.I.I.I.I.=+=+I.=+I.I.=+^.w.-.6./.u.j.l l !.!.2.k a++ +         ",
"                                  + + c K 2.l 7.A B E M.2.n l n l l l l n l n l n n n n t w.-.Z Z u.j.n n l n m y a++ +         ",
"                                  + + c K 2.l 7.A B E M.I.n m f.f.e.e.e.e.e.j.n l l l o t w.-.Z Y u.j.l l l n m y a++ +         ",
"                                  + + c K 2.l 7.A B E M.^.n (.u.m.n.m.n.n.n.Y.j.m n m m r w.,.Y Y u.j.n m m m m y a++ +         ",
"                                  + + c K 2.l v.A B E M.I.n j.&.|.|././././.@.e.o n l m r w.-.Z Z u.j.n l l m m y a++ +         ",
"                                  + + c K 2.l 7.A B E M.2.n j.1+#.Z Z Z Z Z @.e.m l n m r w.-.Z Z u.j.l m l m m y a++ +         ",
"                                  7 7 ,+K !.I.v.M S.h.M.I.n j.[+#.Y #.}.}.}.!+e.I.I.l n t w.'.}.}.u.++f.e._.m m y ,+7 7         ",
"                          + + + ' K k k v K.K.x H.y.y.v.t m j.1+#.Z -.u.1.$+T.-+K.W.7.n n ++ +$+S @.n.n.n.5+m m G.k k k ' + + + ",
"                          + + + s G.2.2.~.h.h.i.7.t =+t m n j.1+#.Z p.o.j.j.>+S.h.S.v.o n (.j.j._.F.|./.,./+n m l 2.2.=+s + + + ",
"                          + + + s G.m t ~.{.B <.7.n m n m m j.1+#.Y p.5+q m }+h.B h.v.o n m n m r  .|.Y |./+m m m n m (.s + + + ",
"                          + + + s G.o t ~.{.D i.6+++f.f.f.e.++r.#.Z p.5+t m >+A S.A 6+f.e.f.n m ^. .}.Z }./+m m m m m (.s + + + ",
"                          + + + s G.m t ~.{.H k k.R Q Q R Q Q }.Y Z p.5+q n 7.5.y.G.]+R R  .f.o ^.F./.Z |./+n m l m m (.s + + + ",
"                          + + + s G.m t ~.{.H z.q./.6./.6./.6.Z Y Z p.5+t n l =+=+e.s.|./.&.++p ^.F./.Z |./+m m m m n (.s + + + ",
"                          + + + s G.m t ~.{.H z.p.Y Z Z Z Z Y Z Z Z p.5+q n l l m e.q.%.Z [+++t ^. .}.Z |.^+m m m m n (.s + + + ",
"                          + + + s G.m t ~.{.H z.p.Y Z /.}.}.|.}.|.}.1+t.r m n l n e.R -.}.R e.J.L.@.}.Z }.^+n n t J.J.^.s + + + ",
"                          + + + s G.m t ~.{.H z.p.Z Z R  +Y.Y.Y.Y.Y.O.j.l o n l l _.w.Y.Y.w.x .+4.k.}.Z |./+n m v.A..+.+:++ + + ",
"                          + + + s G.m t ~.{.H z.p.Y Y  .e.j.j.j.j.j._.o l o l l o l _.j.j.v.A {.D k.|.Y |./+m m O S.{.h.0++ + + ",
"                          + + + s G.m t ~.{.H z.p.Y Y  .j.m m m o o n o m m l l m m n m l O S.B H k.|.Y |.^+m m d.S.B B 0++ + + ",
"                          + + + s G.o t ~.{.H z.p.Y Y @.j.l o m n o l o n o n l o l n o n O S.D H k.}.Z |.^+m l O S.D D 0++ + + ",
"                          + + + s G.o t ~.{.H z.p.Z Y @.j.m o l n l l o o l l l o l l o l O S.B H k.}.Z |.^+m l O S.B B 0++ + + ",
"                          + + + s G.m p ~.{.H z.p.Y Y  .j.m m m m m l m m m l l m m m m o O S.B H k.|.Z }.^+m m O S.B B 0++ + + ",
"                          + + + s G.o t ~.{.H z.p.Y Y @.j.l m n l l l o o o l l o o l o l O S.B H k.|.Y |.^+m o O S.B B 0++ + + ",
"                          + + + s G.m t ~.{.H z.&.}.}.!+l J.J.=+l o l l n n I.J.J.J.J.J.J.O S.D H k.}.Z }./+n o d.S.D D 0++ + + ",
"                          + + + s G.o t ~.{.D v /+b.9.%+4.~.~.v.l n l l n n N ~.~.~.~.~.~.i.{.B H k.}.Z }./+n m d.S.B B 0++ + + ",
"                          + + + s G.m t ~.{.D i.:._.j.>+S.{.h.W l m l o o m }+S.{.{.{.{.{.{.B B H k.|.Z |.^+m m O S.B B 0++ + + ",
"                          + + + s G.n t ~.{.B <.7.n (.>+h.B {.W l m m l o m }+h.B B B B B B B B H k.|.Z |.^+m m d.S.B B 0++ + + ",
"                          + + + s G.n t ~.{.B <.7.n (.>+A S.A 6+++++e.l l m }+h.B B S.S.S.S.S.S.D k.|.Z |./+m n d.S.D B 0++ + + ",
"                          + + + s G.n t ~.{.B <.7.n m 7.O O d.@.R &.m.++l m }+h.B {.H.O O O O O ].@.}.Z }./+m m O S.D D 0++ + + ",
"                          + + + s G.m t ~.{.B <.7.n n l t t _.&./.$.q.t.r m }+h.B h.W =+t t t =+J.F./.Y |./+m m O S.B B 0++ + + ",
"                          + + + s G.o t ~.{.B <.7.n n n n n j.1+#.Z p.C.r m }+h.B h.v.m n m n o ^.F.|.Z |./+m m O S.B B 0++ + + ",
"                          + + + s T 7.v.~.S.S.w v.J.J.I.n m j.R -.,.R e.L.J.M.h.B h.v.m n (.++++++ .,.,.>.l.2.J.y.C E E 0++ + + ",
"                                } ) ) - K d.O 5.~.i.i.H.=+n n l./+^+P .+i.i.A B B h.v.l t ^+{+[+&.@++./+/+-+i._+V.*+;+;+B.      ",
"                                  c+c+9+K 2.=+v.A {.H M.I.n m _._._.v.A B B B B B h.v.l r w.,.#.%.u.j._.=+i.{.{.&+b+g g         ",
"                                  + + c K 2.m 7.A B E M.I.n o n o m v.A B B B B B h.v.l r w.-.Z Y u.j.n I.i.B B &+g + +         ",
"                                  + + c K 2.l 7.A B E M.I.m m n m m v.<.S.S.S.S.S.A v.m r w.,.Z Y u.j.n I.i.B B &+g + +         ",
"                                  + + c K 2.o 7.A B E M.I.n m n l l I.v.v.v.v.v.v.v.I.n t w.-.Z Y u.j.l I.i.B B &+g + +         ",
"                                  + + c K 2.l v.A D E M.2.n l n n n n l l l l l l l n n t w.-.Z Z u.j.n I.i.B B &+g + +         ",
"                                  + + c K 2.n v.A B E M.I.n m n n l l m l o n l o l l m t w.-.Z Y u.j.l I.i.B B &+g + +         ",
"                                  + + c K G.v.d.M S.S.N ++++++++++++++++++++++++++++++++++O.=.,.,.1.l L.7.A E E &+g + +         ",
"                                        } / / I y v.W Z.[+p.p.p.q.p.q.p.p.p.q.q.p.q.q.p.p.~+X ^+^+G.w i.A |+B.B.B.              ",
"                                        g g + - T o J.!+|.#.%.%.#.#.#.%.%.%.#.#.%.#.#.%.#.s.++l (.M.h.B E ;+g + +               ",
"                                        + + + - T m J.!+|.Y Y Y Z Z Z Y Y Y Z Z Z Z Z Y Z [+++t n M.{.B E ;++ + +               ",
"                                        + + + - y v.v.1.'.,.,.-.-.-.-.,.,.,.-.-.,.,.-.,.-.R e.:.L.N.C E E ;++ + +               ",
"                                                } } x.z P ^+^+^+^+^+^+^+^+^+^+l.o.^+^+^+^+%+w 7+M &+;+B.B.                      ",
"                                                + + + u !._._._._._._._._._._.n _._._._._.W S.B B 0+c++ +                       ",
"                                                + + + u !.n n m l n l l l l l l l l l l l O S.B B 0+g + +                       ",
"                                                + + + u d.v.v.v.v.v.v.v.v.v.v.v.v.v.v.v.v.T {.E E 0+g + +                       ",
"                                                      x.} } } } } } } } } } } } } } } } } } B.B.B.B.                            ",
"                                                        + + + + + + + + + + + + + + + + + + + + +                               ",
"                                                        + + + + + + + + + + + + + + + + + + + + +                               ",
"                                                        + + + + + + + + + + + + + + + + + + + + +                               "};
