/* XPM */
static char *_1698412705[] = {
/* columns rows colors chars-per-pixel */
"64 64 206 2 ",
"   c None",
".  c #592310",
"X  c #5A2410",
"o  c #5A2510",
"O  c #5B2510",
"+  c #5C2610",
"@  c #5D2612",
"#  c #5D2712",
"$  c #5E2812",
"%  c #5F2913",
"&  c #632A0F",
"*  c #65300E",
"=  c #66310E",
"-  c #66320E",
";  c #6F3C0D",
":  c #622A10",
">  c #632A10",
",  c #632B10",
"<  c #642B11",
"1  c #652C11",
"2  c #652C12",
"3  c #673210",
"4  c #683310",
"5  c #6C331D",
"6  c #6D341E",
"7  c #6D351E",
"8  c #6E351E",
"9  c #6E351F",
"0  c #6F361E",
"q  c #743A1E",
"w  c #773C1F",
"e  c #783C1F",
"r  c #4B302E",
"t  c #4B302F",
"y  c #4C302E",
"u  c #4C312E",
"i  c #553B2B",
"p  c #593C29",
"a  c #59382E",
"s  c #5A392E",
"d  c #462E30",
"f  c #462F30",
"g  c #472F30",
"h  c #483030",
"j  c #553730",
"k  c #563830",
"l  c #573932",
"z  c #573A32",
"x  c #583A32",
"c  c #6B3622",
"v  c #6F3620",
"b  c #6F3720",
"n  c #6C3622",
"m  c #6D3722",
"M  c #6E3822",
"N  c #703620",
"B  c #703720",
"V  c #743C21",
"C  c #773C20",
"Z  c #763D23",
"A  c #793E21",
"S  c #7A3E21",
"D  c #783D22",
"F  c #793E22",
"G  c #7A3E22",
"H  c #7B3F24",
"J  c #77401B",
"K  c #75411E",
"L  c #78411C",
"P  c #78401D",
"I  c #78411D",
"U  c #79411D",
"Y  c #79421C",
"T  c #79421D",
"R  c #594032",
"E  c #5A4132",
"W  c #5C4030",
"Q  c #7B4023",
"!  c #7C4523",
"~  c #7D4623",
"^  c #7B4024",
"/  c #7E4724",
"(  c #634031",
")  c #684934",
"_  c #954C0D",
"`  c #9C500C",
"'  c #9C510C",
"]  c #9D510C",
"[  c #9E520E",
"{  c #804A1A",
"}  c #A4560C",
"|  c #A5560C",
" . c #A5570C",
".. c #A5570D",
"X. c #A6580E",
"o. c #A05410",
"O. c #A85A10",
"+. c #A95B11",
"@. c #A45A19",
"#. c #A95D18",
"$. c #AA5E19",
"%. c #AB5E19",
"&. c #AC601B",
"*. c #AD601B",
"=. c #AE621D",
"-. c #B26318",
";. c #B36419",
":. c #B4651A",
">. c #B5651A",
",. c #B5661A",
"<. c #B5661B",
"1. c #B6671C",
"2. c #B7671C",
"3. c #824525",
"4. c #834A20",
"5. c #884F27",
"6. c #B16A2D",
"7. c #B26B2D",
"8. c #BA6D29",
"9. c #B86E2C",
"0. c #B9702E",
"q. c #BA702E",
"w. c #BA712E",
"e. c #BD712D",
"r. c #BE712C",
"t. c #BE712D",
"y. c #C3742A",
"u. c #C4752A",
"i. c #C5762C",
"p. c #C6762C",
"a. c #C7782E",
"s. c #C8782E",
"d. c #C8792E",
"f. c #C9792E",
"g. c #C17B3E",
"h. c #AD8003",
"j. c #AF8205",
"k. c #B78C02",
"l. c #B58D05",
"z. c #B98D03",
"x. c #B98E03",
"c. c #BA8E03",
"v. c #B98D04",
"b. c #BA8F04",
"n. c #BB8C0A",
"m. c #C39607",
"M. c #C49607",
"N. c #C49707",
"B. c #C59707",
"V. c #C19800",
"C. c #C29800",
"Z. c #C29900",
"A. c #C39900",
"S. c #C39A00",
"D. c #C49A00",
"F. c #C79D07",
"G. c #C59708",
"H. c #C99C0E",
"J. c #CB8439",
"K. c #CC8538",
"L. c #CD823F",
"P. c #CE833F",
"I. c #D18A3F",
"U. c #D68D3C",
"Y. c #D78E3C",
"T. c #D9933C",
"R. c #D9943C",
"E. c #CFA93C",
"W. c #DBB73F",
"Q. c #DFB83D",
"!. c #DCB83F",
"~. c #DDB93F",
"^. c #E0B93E",
"/. c #E1B93E",
"(. c #E8C33A",
"). c #E9C33B",
"_. c #C98141",
"`. c #C98241",
"'. c #CA8241",
"]. c #CE8340",
"[. c #CD8A41",
"{. c #D98B43",
"}. c #D98C43",
"|. c #DA8C43",
" X c #DA8D43",
".X c #DB8D43",
"XX c #D98B44",
"oX c #DA8D44",
"OX c #DB9243",
"+X c #DB9343",
"@X c #DC9343",
"#X c #DD9843",
"$X c #E9C041",
"%X c #EAC140",
"&X c #EAC041",
"*X c #EBC141",
"=X c #EBC240",
"-X c #EBC241",
";X c #EDC741",
":X c #EDC841",
">X c #EDC941",
",X c #EEC941",
"<X c #EFC941",
"1X c #EFCA41",
"2X c #F1CB42",
"3X c #FCD444",
/* pixels */
"                                                                                                                                ",
"                                                                                                                                ",
"                                                                                                                                ",
"                                                                                                                                ",
"                                                                                                                                ",
"                                                                                                                                ",
"                                                                                                                                ",
"                                                                                                                                ",
"                                                                                                                                ",
"                                                                                                                                ",
"                                                        :X:X:X:X:X:X:X:X>X>X>X>X                                                ",
"                                                        :X:X:X:X:X:X*X*X*X*X*X*X                                                ",
"                                                    :X:X:X:X:X;X:X*X#XOX+X+XOXT.G.Z.                                            ",
"                                                    :X:X:X;X:X2X:X*XOX}.}.}.XXY.B.V.                                            ",
"                                                    :X:X:X2X3X3X1X*X+X}.}.}.}.Y.B.V.                                            ",
"                                                    :X:X:X2X3X3X1X*X+X}.}.}.}.Y.m.Z.                                            ",
"                                            :X:X:X:X:X2X3X3X2X2X:X*X@X}.}.}.oXY.B.Z.Z.Z.                                        ",
"                                            :X:X:X:X:X2X3X3X2X:X:X*XI.L.P.P.].J.n.z.z.b.                                        ",
"                                        :X:X:X:X:X2X3X3X2X2X).:X:X/.5.^ ^ ^ ^ Q L L L { z.A.                                    ",
"                                        :X:X:X:X:X:X3X3X:X:X:X:X:X/.~ 9 N B N N N N b L b.A.                                    ",
"                                        :X:X:X:X:X:X:X2X:X:X:X:X:XQ./ 0 B B B B B B N L z.A.                                    ",
"                                        :X:X:X:X:X:X:X:X:X:X:X:X:X/./ M B B B B B B B T z.A.                                    ",
"                                        :X:X:X:X:X:X:X:X:X2X:X:X:XQ./ 0 B B B B 0 M N L z.Z.                                    ",
"                                        ).).*X*X*X*X*X*X!.W.W.!.Q.E.~ N B B B B 9 9 9 L b.A.                                    ",
"                                        F.H.T.OXOXOX+X[.) R R R R E M b b B B 9 $ $ O 3 k.Z.                                    ",
"                                        V.B.Y.XX{.}.}.`.k g h g h u b N b N B 9 # O O 3 k.Z.                                    ",
"                                        V.B.Y.}.}.}.}.`.x g h h h u c b b b B 9 # O O - k.A.                                    ",
"                                        V.m.Y.}.}.}.}.`.x g h h h u b M b b q 9 # O O = k.Z.                                    ",
"                                        Z.B.Y.oX}..X}.`.x h g g g u b N b b N 9 # O O = z.A.                                    ",
"                                        Z.m.K.].P.P.P.g.( k k j j a V e w w w q $ O . = k.A.                                    ",
"                                        Z.b.4.H ^ ^ ^ 3.7.w.w.w.w.9.=.%.*.*.%.@., O O = k.Z.                                    ",
"                                        A.z.L N B N b A r.d.a.d.a.i.2.<.<.<.<.%.< O O = k.Z.                                    ",
"                                        V.b.L b N N b A r.s.a.a.a.i.1.:.:.:.<.#., # O - k.Z.                                    ",
"                                        A.b.L b N b b H r.s.a.a.a.i.1.:.:.:.<.#., O . - k.Z.                                    ",
"                                        A.b.J b B B b A r.s.a.a.a.i.1.:.:.:.<.#., # O = k.Z.                                    ",
"                                        C.v.K c n n c Z r.s.a.a.a.i.1.-.-.-.<.#., O . = k.Z.                                    ",
"                                        A.l.p t h u u s q.d.a.a.a.y.O.........[ , O . = z.A.                                    ",
"                                        Z.l.i t h h g x q.d.a.a.a.y.O.....} } [ , O O = k.Z.                                    ",
"                                        Z.l.i g u g g k 0.d.d.d.d.u.O...} } } ] , O o - k.Z.                                    ",
"                                        Z.l.p t u u y a 7.r.r.r.r.8.[ ] ] ] ] _ & o o = z.Z.                                    ",
"                                        A.b.w c b c c m H A A A A C 2 & & & & & # O X = k.S.                                    ",
"                                        A.b.L b B B b N b b N M N 9 $ O o o o O o o o = k.S.                                    ",
"                                        Z.b.L B B B B B b N B B 9 9 # O O O O O O O o = b.S.                                    ",
"                                        Z.b.L b B B B N b N B B B 9 # O O O O O O O o = b.S.                                    ",
"                                        A.z.L N B b b N b q B 0 B 9 # O O O O O o X o - l.b.                                    ",
"                                        A.z.{ L T T L L 9 9 9 9 9 9 # O O O O O = = - J x.S.                                    ",
"                                            b.b.z.z.z.j.= # # # # # o O O O o = ,.l.l.x.                                        ",
"                                            Z.Z.A.A.A.z.= . O O o o O O O O X = b.S.S.S.                                        ",
"                                                    A.z.= o o O O O O O o o o = z.A.                                            ",
"                                                    Z.k.= X o o O O O O O o X = k.Z.                                            ",
"                                                    Z.k.= X X o o o o o X X X = k.Z.                                            ",
"                                                    A.k.; = = = = = = = = = = ; z.Z.                                            ",
"                                                        z.k.z.k.z.z.k.k.z.k.k.z.                                                ",
"                                                        Z.Z.A.A.Z.Z.Z.Z.A.Z.Z.Z.                                                ",
"                                                                                                                                ",
"                                                                                                                                ",
"                                                                                                                                ",
"                                                                                                                                ",
"                                                                                                                                ",
"                                                                                                                                ",
"                                                                                                                                ",
"                                                                                                                                ",
"                                                                                                                                ",
"                                                                                                                                "
};
