/* XPM */
static char *collect1697626423[] = {
/* columns rows colors chars-per-pixel */
"64 64 243 2 ",
"   c None",
".  c #5E473E",
"X  c #754736",
"o  c #4A4A4A",
"O  c #464646",
"+  c #514744",
"@  c #823A14",
"#  c #A94500",
"$  c #B64F00",
"%  c #AA5203",
"&  c #BB5600",
"*  c #B15511",
"=  c #BE6402",
"-  c #955B3D",
";  c #804B37",
":  c #A15920",
">  c #96653D",
",  c #B97836",
"<  c #AE6634",
"1  c #CA5E01",
"2  c #C25F00",
"3  c #D25F09",
"4  c #CA6401",
"5  c #C56707",
"6  c #D46C01",
"7  c #D66805",
"8  c #D57402",
"9  c #DA7401",
"0  c #D67A01",
"q  c #DC7C02",
"w  c #D97608",
"e  c #C9751B",
"r  c #CA7617",
"t  c #D87815",
"y  c #CE6F10",
"u  c #FF6B03",
"i  c #E37E05",
"p  c #FD7B01",
"a  c #F77C14",
"s  c #CA7724",
"d  c #C36C2D",
"f  c #E07920",
"g  c #885941",
"h  c #955D42",
"j  c #9A6345",
"k  c #867E52",
"l  c #A66B47",
"z  c #AB734B",
"x  c #B57A49",
"c  c #AC8F34",
"v  c #DD8303",
"b  c #DC8B0C",
"n  c #DB8419",
"m  c #E38403",
"M  c #E58B05",
"N  c #E2850B",
"B  c #EB8809",
"V  c #FE8402",
"C  c #FE8A03",
"Z  c #F98B0D",
"A  c #EA9103",
"S  c #E5930D",
"D  c #EB930B",
"F  c #ED9C0C",
"G  c #EA9704",
"H  c #FE9204",
"J  c #FE9903",
"K  c #F59B0B",
"L  c #F9970B",
"P  c #E78A16",
"I  c #FB8C14",
"U  c #EC9C1B",
"Y  c #EB9615",
"T  c #FF9412",
"R  c #FF9C1B",
"E  c #F69916",
"W  c #EDA20D",
"Q  c #FDA302",
"!  c #F3A40B",
"~  c #F9A60B",
"^  c #FEBB04",
"/  c #FEB50C",
"(  c #FEB705",
")  c #ECA41A",
"_  c #F3A413",
"`  c #F6AA12",
"'  c #FBAC15",
"]  c #FFA41B",
"[  c #F5AB1D",
"{  c #FDAC1A",
"}  c #F5A21A",
"|  c #FDB31D",
" . c #FEBA1C",
".. c #FAB217",
"X. c #CA842D",
"o. c #D88727",
"O. c #DD952A",
"+. c #CA8434",
"@. c #DA9838",
"#. c #D38531",
"$. c #E48D24",
"%. c #FE8C23",
"&. c #E99928",
"*. c #F99C27",
"=. c #E39C3B",
"-. c #EC9C32",
";. c #FE9A34",
":. c #D6B928",
">. c #C3AD30",
",. c #D2B128",
"<. c #EBA22A",
"1. c #FAA423",
"2. c #F4AB23",
"3. c #FEAC23",
"4. c #FEAC2C",
"5. c #F5A729",
"6. c #FDB423",
"7. c #FFBB24",
"8. c #FDB42A",
"9. c #FFBB2B",
"0. c #F6B828",
"q. c #E9A738",
"w. c #F5AC32",
"e. c #F8AA36",
"r. c #EAB33B",
"t. c #F5B433",
"y. c #FBB432",
"u. c #FDBB34",
"i. c #FDBB3B",
"p. c #F6B739",
"a. c #FEC30A",
"s. c #FECB07",
"d. c #FED708",
"f. c #FFC51E",
"g. c #FFC713",
"h. c #FED516",
"j. c #EBC71A",
"k. c #FEE30C",
"l. c #FFED09",
"z. c #FCE71A",
"x. c #FFFA15",
"c. c #FFC325",
"v. c #FFC42C",
"b. c #FFCC2D",
"n. c #FDCB26",
"m. c #FEDD2B",
"M. c #FCD526",
"N. c #FEC433",
"B. c #FFCB34",
"V. c #FEC43C",
"C. c #FFCB3D",
"Z. c #FFD234",
"A. c #FFD33A",
"S. c #FFDC3C",
"D. c #FFDC35",
"F. c #E2CF27",
"G. c #FFE928",
"H. c #FFE33C",
"J. c #FFE739",
"K. c #FFF236",
"L. c #BF8548",
"P. c #BC8556",
"I. c #B2A667",
"U. c #C98C49",
"Y. c #CC9A4B",
"T. c #D49B4A",
"R. c #CB965C",
"E. c #D19851",
"W. c #D08F41",
"Q. c #FE9C4B",
"!. c #D9A559",
"~. c #D9A950",
"^. c #E3AA4C",
"/. c #E6A746",
"(. c #EDB34D",
"). c #E7B64B",
"_. c #FEBC43",
"`. c #F2B54D",
"'. c #F3BA4C",
"]. c #F8B743",
"[. c #E9B759",
"{. c #F7BC54",
"}. c #F0AA54",
"|. c #CC9863",
" X c #D9A965",
".X c #D1AE6B",
"XX c #EBB662",
"oX c #E3BB77",
"OX c #CEC15C",
"+X c #E4C949",
"@X c #FEC443",
"#X c #FECB44",
"$X c #FEC54B",
"%X c #FFCD4B",
"&X c #F1C04F",
"*X c #FFD345",
"=X c #FFD34C",
"-X c #FFDA4D",
";X c #FEDD40",
":X c #EFC356",
">X c #FDC453",
",X c #FFCC53",
"<X c #F8C959",
"1X c #FFD454",
"2X c #FFDA53",
"3X c #FFD45A",
"4X c #FEDB5C",
"5X c #F6D357",
"6X c #FFE442",
"7X c #FFE949",
"8X c #FFF649",
"9X c #FEE352",
"0X c #FEE45C",
"qX c #FEEC5A",
"wX c #FFF35C",
"eX c #FFF956",
"rX c #FECD62",
"tX c #F9CA67",
"yX c #FED564",
"uX c #FFDB63",
"iX c #FFDA6B",
"pX c #FAD569",
"aX c #FFDA73",
"sX c #FDD577",
"dX c #EEC376",
"fX c #FEE463",
"gX c #FFEA65",
"hX c #FFE76B",
"jX c #FFF869",
"kX c #FFEA7C",
"lX c #FFE575",
"zX c #FFF374",
"xX c #FFF97F",
"cX c #F2CD88",
"vX c #FFE587",
"bX c #FFF486",
"nX c #FFF68F",
"mX c #FCE895",
"MX c #FFF990",
"NX c #F1DEA3",
"BX c #FDF3A6",
"VX c #FFF8B5",
"CX c #F9ECB1",
/* pixels */
"                                                                                                                                ",
"                                                                                                                                ",
"                                                                                                                                ",
"                                                                                                                                ",
"                                                                                                                                ",
"                                                                                                                                ",
"                                                                                                                                ",
"                                                                                                                                ",
"                                                      7.7XM./ G       ! ~ c.B.F                                                 ",
"                                                      Y fXqXc.F 8   m W ..Z.#Xb 9   ' b.c.                                      ",
"                                                u.<.  6 e.zXA.! 8 1 9 F 7.*Xy.9 9 A f.Z.` !                                     ",
"                                                fXp.t 4 6 <X2X' q 1 6 S 6.%XU 7 q F B.8.A                                       ",
"                                                  pX&.4 1 $.,Xy.M 1 4 S { i.w 6 m | { q $.                                      ",
"                                                    '.n 4 4 w.@XF 6 7 N { &.6 9 F } 9 n @X                                      ",
"                                                      <.9 1 w u.2.v 7 v 2.N 6 N Y i i p.                                        ",
"                                                        U 9 6 &.w.<.$.q.q.q.=.$.o.o.1.                                          ",
"                                                        (.`./.^.XX^.^./.^././.W.T.#.                                            ",
"                                                      tX=./.#.X.W.+.+.+.s s s = 2 4 8                                           ",
"                                                    tX) P T.6 9 0 v q v v w q w 8 9 q m                                         ",
"                                                  tXu.m &.=.i B F _ D ! G m K D 8 9 q m L                                       ",
"                            4X@XV.*X=X            {.b m Y ~.N Y 6.' K ' _ m K | Y q N S A ..                                    ",
"                          gX] T ] u.>X7.V.=X    :XP q K L [.P ) 8.| ) 6.7.M G 7.y.P m U } ~ f.                                  ",
"                          wX1X8.9.V.A.A.A.A.9XwX:Xi P ] 3.[.n 8.6.7.5.i.C.U G 7.V.p.i Z t.1. .                                  ",
"                          G.bX*Xv.A.S.6XH.6X9XA.<XP U 3.8.(.o.u.9.u.8.@X=Xp.Y | V.1X&.B ] $X' n.                                ",
"                          z.f.iX#X{ 8.6.c.b.b.7.%Xq.5.y.V.(.o.#XN.V.u.@X3XXXw.{ C.3X>XB T _.@X .M.                              ",
"                            Q V _.aXcX6.{  .c.c.V.`.y.@X=X'.O.-X#X@X$X>XaX.X[.].,X,XuX5.B 5.iX8.n.                              ",
"                                J G.jXfX3XyXuX0XfX<._.,X=X:XO.9X,XtX X X~.P.U.@.T.XXyX%XB I ,X>X{ n.                            ",
"                                    l.( Q ( s.k.B.y.$X1X5X).q.pX X^./.{.3X XE.<.u.{.3X3X1.B _.aX3.c.                            ",
"                                        U q q.`.p._.,X3X4X(.[.Y.>X,X(.[.3X~.P.t.u.>X>X3Xy.B e.aX_.{                             ",
"                                      p.t t `.'.e.>X3XyX<X).~..XdXdX X XdXR.L.`.u.{.{.3X@XB *.aXrXE v.                          ",
"                                      $.7 -.$X].w.>XyXbXuX4X9X).Y.E.U.x U.z j R.E.XXrX>X%XE P sXvXI 6.                          ",
"                                    p.w y Q.&Xr.w.>XyXmXzXfX9X-X5X,X`.E.V.Y.z @.@.U.R.XX,X1.N sXmX*.)                           ",
"                                    w.3 t /.'.&.-.:XaXBXzXgXqX2X3X%X}.U.i.E.z q.t.'.|.U.%X4.N tXmXe.I                           ",
"                                    p.q.q.:X).$.$.).pXVXzXgX9X:XoXsXXXU.rX|.l  X XP.l q.@X4.i {.vXe.].=X                        ",
"                            =XV.u.V.9.$X=XlXfX0X0X5X5XCXbXgX9X).l l j h l h h l l < @.t.@X4.&.#X#X9.B.H.Z.v.3X                  ",
"                          %XT R | V.S.7X7X6XZ. .1XB.V.NXBXgX9XA.Y.> > - < h h +.O.) 8.t._.#XN.7.9.S.7X0XB.c.c.lX                ",
"                          1X4.u.B.S.S.A.b.b.b.c.V.%Xc.pXNXfX5XA.=X%Xq.x 8.x l w.2._ 0.p.@X] 6.v.H.6XZ.b.c.c.uXJ.                ",
"                    *XC.A.jXkXB.9.3.{ 6...| 7.*XgXg.C.fXcXfX=XZ.*X#X8.x 6.+., 8.[ W [ #XT T u.A.Z.7.| | 7.uX6Xl.                ",
"                u.3.9.9.7.z.7XaXlX3XaXaX4XyXvX-XG.4X9Xm.@.+X5XZ.C.@X8.) | 9.6.0.[ G ) 5X,X#XB.8.3.]._.4XrX7.s.                  ",
"              @XT R 8.Z.H.h.a.H I Q qXwX .J / ( ! ( h.0XX.=.r.N.N.V.9.[ | | 6.{ ! A S c.MXBXiX3X4XnXxX .Q                       ",
"              lX>XC.B.b.7.L C g.G.A.h./ J d.%X] ' B.6XM.e s q.2.0.u.8.[ ........W M M F b.G.K V H h.qX                          ",
"              8XVXlXV.] *.a u V.H.~ R  .Z.8X9X,X].{.a.m.r e X.O.U 2.2.! ` ~ ` ` F v v S v 0 b m 6 y }.                          ",
"              qXm.e.>X1XnX7X/ h.jXvXQ.Z ( x.d.C I @XV.A.q.r r n n P D D F ! ! _ A 0 0 S v 0 b 0 5 -.                            ",
"              eXvX_.C J G.k.p @XeXV.>X1XuXkX9X .C.I R ] [ V.O.r r t w 9 v G F W 0 6 8 b 0 5 0 5 o.                              ",
"              K.m.rX4X=XiXZ.a.M.MXvX;.C ^ x.s.C 9XR I ] %X3.4.V.r.r & 5 4 v v b 4 4 4 0 = 4 = <                                 ",
"              jXvX1.p J G.l.V V.G.1XiX4X2XqXA.h.hX ./ J.uXR R 6.9.N.@.$ $ & 5 $ $ $ $ % % : X                                   ",
"              z.H.yX3X=XS.m.g.Z.xXC.Q.I a.x.s.~ 9XR H x.bXB.N.v.v.7.6.r.* $ % # # # @ X . O                                     ",
"                :.Z V J l.l.V 9.K.lXlX=XB.J.f./ T B.u g.3X3X9.A.6X6XS.Z.+XX X ; X + o O                                         ",
"                    - , >.>.< +XjX$X;.;.B.8XJ.H u { v.%.C 3XV.' 7.Z.H.6X7XOXo o o                                               ",
"                              :.8XvXpX@Xc.z.f.~ / a.jXyXV C 1X#X' | b.B.B.+Xc                                                   ",
"                                F./ I e.=XeXwX8.p ~ h.L a.s.l.8XfX6. .c.n.6..X                                                  ",
"                                    s f ) z.j.o.d g > P p Q d.k.7.,XyX*XZ.=XI.                                                  ",
"                                                        , ,.:.c X.! ( S.qX+X                                                    ",
"                                                                    c :.>.                                                      ",
"                                                                                                                                ",
"                                                                                                                                ",
"                                                                                                                                ",
"                                                                                                                                ",
"                                                                                                                                ",
"                                                                                                                                ",
"                                                                                                                                ",
"                                                                                                                                ",
"                                                                                                                                ",
"                                                                                                                                "
};
