/* XPM */
static char *b70bd7bd59cd4818cce3aa058ead1180dlAUb1WYSjCHR6n2[] = {
/* columns rows colors chars-per-pixel */
"64 64 131 2 ",
"   c None",
".  c #160C1E",
"X  c #190E1F",
"o  c #3F111F",
"O  c #1D281C",
"+  c #27251A",
"@  c #2D2E16",
"#  c #3C2C19",
"$  c #213813",
"%  c #283818",
"&  c #170F20",
"*  c #190F20",
"=  c #171020",
"-  c #1B1121",
";  c #231020",
":  c #2B1121",
">  c #221B2A",
",  c #341221",
"<  c #3B1321",
"1  c #252528",
"2  c #2B222F",
"3  c #39232D",
"4  c #2C2834",
"5  c #31283C",
"6  c #39323B",
"7  c #3E3E3F",
"8  c #68181F",
"9  c #4C2C1E",
"0  c #431422",
"q  c #4B1422",
"w  c #451C29",
"e  c #481E2E",
"r  c #531522",
"t  c #5B1622",
"y  c #5D1D22",
"u  c #641723",
"i  c #6B1722",
"p  c #661D27",
"a  c #6D1823",
"s  c #621E2B",
"d  c #6C1D29",
"f  c #701823",
"g  c #552220",
"h  c #57202A",
"j  c #5D262D",
"k  c #4F2E34",
"l  c #5E2332",
"z  c #532F34",
"x  c #4F3035",
"c  c #632123",
"v  c #74222D",
"b  c #652D3D",
"n  c #792833",
"m  c #194D18",
"M  c #175216",
"N  c #1D5E15",
"B  c #267215",
"V  c #2D751B",
"C  c #3F7F14",
"Z  c #2B4A27",
"A  c #33492E",
"S  c #3B5731",
"D  c #395831",
"F  c #267421",
"G  c #407F14",
"H  c #41573E",
"J  c #436F35",
"K  c #497B3F",
"L  c #467A3D",
"P  c #3F3644",
"I  c #40364C",
"U  c #5E3743",
"Y  c #6D3843",
"T  c #7E3741",
"R  c #743B48",
"E  c #4B424F",
"W  c #5C5041",
"Q  c #4E4652",
"!  c #655D68",
"~  c #706878",
"^  c #84242F",
"/  c #862531",
"(  c #8E2935",
")  c #942C38",
"_  c #A1323F",
"`  c #C2370F",
"'  c #C23810",
"]  c #C54511",
"[  c #C74B12",
"{  c #C85113",
"}  c #CC6614",
"|  c #CD6817",
" . c #CF7317",
".. c #D17A17",
"X. c #8F3544",
"o. c #873444",
"O. c #A63F4E",
"+. c #A53541",
"@. c #A9404E",
"#. c #B4414F",
"$. c #AE4250",
"%. c #9F6C72",
"&. c #C24857",
"*. c #CA4957",
"=. c #CB4C5A",
"-. c #D54E5C",
";. c #D57B59",
":. c #D67E68",
">. c #74A711",
",. c #598A4A",
"<. c #5E924E",
"1. c #688262",
"2. c #D78E39",
"3. c #DEA16C",
"4. c #8F8890",
"5. c #99939A",
"6. c #AE8F96",
"7. c #B79398",
"8. c #B6A6AB",
"9. c #B6A5B0",
"0. c #CDB9BC",
"q. c #C7C7CA",
"w. c #CDC3C8",
"e. c #D8CCCF",
"r. c #D8CED1",
"t. c #E2DBDC",
"y. c #F0E2C1",
"u. c #E9E3E4",
"i. c #EFECEB",
"p. c #E4E3E1",
"a. c #F1EEEE",
/* pixels */
"                                                                                                                                ",
"                                                                                                                                ",
"                                                                                                                                ",
"                                                                                                                                ",
"                                                                                                                                ",
"                                                                                                                                ",
"                                                                                                                                ",
"                                                                                                                                ",
"                                                                                                                                ",
"                                                                                                                                ",
"                                                      a a a a a a a                                                             ",
"                                                    ( i a a q , : 0 a                                                           ",
"                                                  _ a a a a i u : * 0 i                                                         ",
"                                                #.t a a a t u a u : : u a                                                       ",
"                                                O.< a a a q : u u : 3 z a                                                       ",
"                                                @.; q i t ; * r , . 4 7 p                                                       ",
"                                                @.- * ; - * * t t ; - 6 p                                                       ",
"                                                $.X . . . . * t f q & 2                                                         ",
"                                              =.l Q 5.P 4.! . , i u : .                                                         ",
"                                              &.; 4 Q 2 E 6 X * < a < & *                                                       ",
"                              [               &.: . . X . . * & : a < & *                                                       ",
"                              ..              =.0 * * * * * * * 0 u : & &                                                       ",
"                            } ]             -.+.t * * * * * * 0 a q & 0 0 *                                                     ",
"                            [ } ]           o.^ i 0 * * * * 0 a a 0 * t a t                                                     ",
"                            ] 2. .`       X.; r a a < & * 0 a a q ; r a a a a                                                   ",
"                            | y.3.'     *.) q ; q f < : : a a i * < t u a a a a                                                 ",
"                            { ;.:.    - l i a q ; r < r q q a 0 ; t < , i a a a                                                 ",
"                                    ; * X 0 a a t q ; t t < q ; t f < * u u u a a                                               ",
"                            0.u.q.R / u t < u a a a , t t < i u a a t ; * : , r a                                               ",
"                            0.u.i.6.b d a q q f a a q u t < a a f u : , , : t q i a                                             ",
"                              e.w.~ 5 s f q q q i a a a u t a i 0 : , i i , q f a a                                             ",
"                                  w . t f q q < u i i a a a u o r t i a f q q a a u                                             ",
"                                  q * t a i i r , q q a a v U Y T s u a a i i a q ;                                             ",
"                                  q * t a a a : : q q a n 7.r.e.9.I q a a a a q * *                                             ",
"                                  q * t u q a , 0 : q 8 W t.a.p.1.H q a a a q * * *                                             ",
"                                  q < i r < a < r , u y % %.0.8.A J q a a r * * *                                               ",
"                                  q q i ; , u i a q : , @ c e > A D q f a 0 & * *                                               ",
"                                  < q i ; & q a t q q t y # + A S = q a 0 * * *                                                 ",
"                                    0 t ; * : , , q q , u y $ Z - : u 0 * * * *                                                 ",
"                                    < r ; * * ; t u u , u 9 M L 1 < a : * * * *                                                 ",
"                                    0 t r * < u a a u < g N B F ,., < * * * *                                                   ",
"                                        t * * 0 i f < t g C >.V <.- * * * * *                                                   ",
"                                        u   * - u t ; t g G >.V <.- * * * * *                                                   ",
"                                        a   * ; i q * , g N B F ,.- *   * * *                                                   ",
"                                              ; i q < : r O m K 1 * *     * *                                                   ",
"                                              * r q : : r < < = * * *       *                                                   ",
"                                              & : q q , r < < & * * *       *                                                   ",
"                                                : u u , r < < &   * *       *                                                   ",
"                                                  , u , h k < &                                                                 ",
"                                                  & q , y j w -           *                                                     ",
"                                                    : : u a x >           *                                                     ",
"                                                    & *     p                                                                   ",
"                                                            a                                                                   ",
"                                                                                                                                ",
"                                                                                                                                ",
"                                                                                                                                ",
"                                                                                                                                ",
"                                                                                                                                ",
"                                                                                                                                ",
"                                                                                                                                ",
"                                                                                                                                ",
"                                                                                                                                ",
"                                                                                                                                ",
"                                                                                                                                "
};
