/* XPM */
static char *_5407bdafb3e4821e882494344eccbddXgds7qMTwxyjfuO7[] = {
/* columns rows colors chars-per-pixel */
"64 64 135 2 ",
"   c None",
".  c #150D1F",
"X  c #190D1F",
"o  c #17141F",
"O  c #210F1F",
"+  c #3C0F1E",
"@  c #2E1B1F",
"#  c #38171F",
"$  c #1A3414",
"%  c #3F281A",
"&  c #273417",
"*  c #313F1A",
"=  c #170F20",
"-  c #190F20",
";  c #1D1121",
":  c #1D1927",
">  c #250F20",
",  c #231020",
"<  c #2C1121",
"1  c #211728",
"2  c #251D2C",
"3  c #341221",
"4  c #3B1321",
"5  c #371A2A",
"6  c #38192A",
"7  c #2A3429",
"8  c #2B2432",
"9  c #352830",
"0  c #383238",
"q  c #383D37",
"w  c #53151F",
"e  c #4E241D",
"r  c #45281B",
"t  c #431422",
"y  c #4B1422",
"u  c #4C1826",
"i  c #451D2C",
"p  c #531522",
"a  c #5A1622",
"s  c #531C23",
"d  c #5E1A25",
"f  c #641723",
"g  c #6B1722",
"h  c #641A22",
"j  c #6D1823",
"k  c #6A1F2B",
"l  c #701823",
"z  c #7A1E29",
"x  c #572320",
"c  c #59212A",
"v  c #4A2930",
"b  c #5E2737",
"n  c #562A31",
"m  c #522A3B",
"M  c #4B3639",
"N  c #523035",
"B  c #6F202C",
"V  c #7D202C",
"C  c #602737",
"Z  c #6E2B3B",
"A  c #722C3B",
"S  c #124717",
"D  c #0E5D16",
"F  c #116215",
"G  c #2B741B",
"H  c #297018",
"J  c #367814",
"K  c #2B442A",
"L  c #3B4D33",
"P  c #354A33",
"I  c #3B662F",
"U  c #3F6033",
"Y  c #436B37",
"T  c #44663C",
"R  c #3E3C4B",
"E  c #463D4B",
"W  c #7D3D43",
"Q  c #6F3E51",
"!  c #554D59",
"~  c #5A5061",
"^  c #776B75",
"/  c #872631",
"(  c #912B37",
")  c #982E3A",
"_  c #922C38",
"`  c #9C313D",
"'  c #C2370F",
"]  c #C23510",
"[  c #C33812",
"{  c #CA5819",
"}  c #CD6A15",
"|  c #D17A17",
" . c #D07124",
".. c #863F48",
"X. c #973A4A",
"o. c #A13947",
"O. c #854049",
"+. c #93525E",
"@. c #AA404F",
"#. c #BF404D",
"$. c #BB4452",
"%. c #986B75",
"&. c #C14351",
"*. c #C24857",
"=. c #C84855",
"-. c #CC4B59",
";. c #D16E50",
":. c #388431",
">. c #488614",
",. c #5F9812",
"<. c #79AA10",
"1. c #428939",
"2. c #5F944E",
"3. c #60954F",
"4. c #D4832D",
"5. c #DCA349",
"6. c #927881",
"7. c #9E7880",
"8. c #A49FA5",
"9. c #ACA6A8",
"0. c #B1ACB1",
"q. c #BFB4B8",
"w. c #E2AD85",
"e. c #C2A3AB",
"r. c #CEB6B9",
"t. c #C7B6BB",
"y. c #EDD5B7",
"u. c #D7C8CB",
"i. c #DBD7D6",
"p. c #E2D7D8",
"a. c #E7DFDF",
"s. c #EAE5E5",
"d. c #ECE7E8",
"f. c #EDE8E8",
"g. c #F0EDED",
/* pixels */
"                                                                                                                                ",
"                                                                                                                                ",
"                                                                                                                                ",
"                                                                                                                                ",
"                                                                                                                                ",
"                                                                                                                                ",
"                                                                                                                                ",
"                                                                                                                                ",
"                                                                                                                                ",
"                                                                                                                                ",
"                                                        $.j j j j                                                               ",
"                                                    -.=./ j g f f g                                                             ",
"                                                    ( l j j y < ; 3 g                                                           ",
"                                                  &.V g j j j g 3 = 3 f                                                         ",
"                                                $.X.` g j a a j g 3 3 f j                                                       ",
"                                                o.C ` j j t , d a > 9 M j                                                       ",
"                                                @.; A B y - - a 3 . 8 q h                                                       ",
"                                                @.; - - - - - a f < ; 0 h                                                       ",
"                                }               @.; ; ; ; ; - a l y = 2                                                         ",
"                                              -.i ! 0.E 8.^ . < f f 3 .                                                         ",
"                                              *.< 1 8 : 8 2 - = 3 j 4 = -                                                       ",
"                                              *.< - - - - - - = < j 4 = -                                                       ",
"                              '               -.u - - - - - - - y j 4 = -                                                       ",
"                              }  .          -.) d - - - - - - y l a ; ; ; =                                                     ",
"                            | 5.w.[         Z _ j y , - - - y j j t = a a <                                                     ",
"                            { y.4.'       @.5 Z l j 4 = ; y j g t - < f j j j                                                   ",
"                            ] ;.{     6 -.&.k O t j 4 4 3 j j f - < f j j j j j                                                 ",
"                                    . - b o.g a , y 4 a p t g 3 < f y a j j j j                                                 ",
"                                    i 3 , t l j g p , a a 4 y < f l 4 , g l j j j                                               ",
"                            p.d.q.+.#.z f t f j j j 4 a a 4 j j j j p , t y y f j                                               ",
"                            r.a.g.e.Q k l y y j j j a f a 4 j j j j y , = < y t g                                               ",
"                              u.t.~ 2 d l y y t f j j j g f j j f y , y y , a f g j                                             ",
"                                  y . a l p p t a f f j j j j a 3 < y j j t y l j j                                             ",
"                                  y - a j j j y 3 y y j j g w + f g j j j a a j f y                                             ",
"                                  y - a f y j < < y y j g O.6.7.%.m a j j j j g 3 =                                             ",
"                                  y - d a 4 j 3 y , y g W u.d.s.9.R y j j j g 3 - -                                             ",
"                                  y t j y 4 j t a 4 a w L r.f.i.T Y y j j f 3 - -                                               ",
"                                  y y g ; < f j l y < # & ..6.^ q Y y j l y = - -                                               ",
"                                  3 y g , = y g y y y y % e + o U 7 y l f < - - -                                               ",
"                                    t a , - , < 3 y y 3 f r $ I 7 X y f < - - -                                                 ",
"                                    4 p < - , 3 f g g 3 f h & K = 4 j 3 = - - -                                                 ",
"                                    t a a - 3 g j j a t h * D 1.L 4 a , - - - -                                                 ",
"                                        f - - 3 g j 4 a x H >.H 2.< , - - - -                                                   ",
"                                        j   - ; g p ; a x >.<.G 2.; - - - - -                                                   ",
"                                        j     , g y , < e J ,.G 3.; - - - - -                                                   ",
"                                              , g y 3 < s S F :.T ; -   - - -                                                   ",
"                                              - t y 3 < p @ & P ; - -     - -                                                   ",
"                                              = < y y 3 p 4 4 . - - -       -                                                   ",
"                                                < f g 3 p 4 4 = - - -       -                                                   ",
"                                                  < f 3 s i 4 =             -                                                   ",
"                                                  = y 3 c N 4 =                                                                 ",
"                                                    , , d h v :           -                                                     ",
"                                                    = - 3 g n 2           -                                                     ",
"                                                            j                                                                   ",
"                                                                                                                                ",
"                                                                                                                                ",
"                                                                                                                                ",
"                                                                                                                                ",
"                                                                                                                                ",
"                                                                                                                                ",
"                                                                                                                                ",
"                                                                                                                                ",
"                                                                                                                                ",
"                                                                                                                                "
};
