/* XPM */
static char *_23b3ee1b70641e2cc0787aeb1c69513vKcj4OFEF2iKkaRd[] = {
/* columns rows colors chars-per-pixel */
"64 64 121 2 ",
"   c None",
".  c #160C1E",
"X  c #1B0E1F",
"o  c #3B0E1D",
"O  c #1F2E17",
"+  c #26211E",
"@  c #362C18",
"#  c #3F2B19",
"$  c #263815",
"%  c #253314",
"&  c #3E351C",
"*  c #160F20",
"=  c #190F20",
"-  c #1D1121",
";  c #1F1924",
":  c #231020",
">  c #2C1121",
",  c #211C29",
"<  c #341221",
"1  c #3C1321",
"2  c #2B222F",
"3  c #39232D",
"4  c #2D372E",
"5  c #2E2534",
"6  c #2A2B33",
"7  c #31283C",
"8  c #39323B",
"9  c #3E3E3F",
"0  c #5E131F",
"q  c #68191F",
"w  c #57221E",
"e  c #431321",
"r  c #4B1422",
"t  c #421926",
"y  c #461928",
"u  c #531522",
"i  c #5A1622",
"p  c #511922",
"a  c #5F1B26",
"s  c #591C2A",
"d  c #631723",
"f  c #6B1622",
"g  c #621A22",
"h  c #6D1823",
"j  c #601C29",
"k  c #6C1D29",
"l  c #711823",
"z  c #751E29",
"x  c #47242D",
"c  c #542220",
"v  c #58212A",
"b  c #522F34",
"n  c #5B2533",
"m  c #503035",
"M  c #63212A",
"N  c #652D3D",
"B  c #7D2E3A",
"V  c #7C323C",
"C  c #155216",
"Z  c #105916",
"A  c #22401A",
"S  c #186815",
"D  c #246715",
"F  c #23701D",
"G  c #2D751B",
"H  c #3B7D14",
"J  c #284127",
"K  c #32472D",
"L  c #385D2E",
"P  c #334130",
"I  c #3A5531",
"U  c #2D7C29",
"Y  c #4D503A",
"T  c #446F36",
"R  c #41623A",
"E  c #3F3644",
"W  c #3E384C",
"Q  c #743A47",
"!  c #4B424F",
"~  c #4E4552",
"^  c #527A45",
"/  c #51744B",
"(  c #655D68",
")  c #755660",
"_  c #706878",
"`  c #862531",
"'  c #882631",
"]  c #902C39",
"[  c #99303C",
"{  c #C2380B",
"}  c #C74C12",
"|  c #CA5913",
" . c #8A505A",
".. c #92525B",
"X. c #855660",
"o. c #D34D5B",
"O. c #418014",
"+. c #6DA211",
"@. c #78A910",
"#. c #48873D",
"$. c #5E924D",
"%. c #D48B1D",
"&. c #D5873A",
"*. c #D89834",
"=. c #8F8890",
"-. c #9A8991",
";. c #99939A",
":. c #AE8F96",
">. c #B09BA0",
",. c #B5A9AD",
"<. c #B5A9B1",
"1. c #CAB1B5",
"2. c #CFB8BA",
"3. c #ECD3AD",
"4. c #CDC3C8",
"5. c #D8CCCE",
"6. c #D9CED0",
"7. c #E4DDDE",
"8. c #E8E0E1",
"9. c #EFEBEB",
"0. c #F1EDED",
/* pixels */
"                                                                                                                                ",
"                                                                                                                                ",
"                                                                                                                                ",
"                                                                                                                                ",
"                                                                                                                                ",
"                                                                                                                                ",
"                                                                                                                                ",
"                                                                                                                                ",
"                                                                                                                                ",
"                                                                                                                                ",
"                                                      h h h h h h h                                                             ",
"                                                    h h h h r < > e h                                                           ",
"                                                  h h h h h f d > = e f                                                         ",
"                                                d i h h h i d h d > > d h                                                       ",
"                                                u 1 h h h r > d d > 3 b h                                                       ",
"                                                i : r f i : = u < . 6 9 k                                                       ",
"                                                i = = : - = = i i : - 8 k                                                       ",
"                              |                 g . . . . . = i l r * 2                                                         ",
"                                              ] 1 ~ ;.E =.( . < f d > .                                                         ",
"                                              d X 5 ~ 2 ! 8 . = 1 h 1 * =                                                       ",
"                                              d - . . . . . = * > h 1 = =                                                       ",
"                                              z < = = = = = = = e l 1 * =                                                       ",
"                                            o.' i = = = = = = e h i : = = =                                                     ",
"                              {             s z f e = = = = e h h e * r r :                                                     ",
"                            } &.          B X r h h 1 * = e h h r = : d h d d                                                   ",
"                            %.3.*.      [ h r : r l 1 > > h h f - : i h h h h                                                   ",
"                                      = e h h r : u 1 u r r h e : i u d h h h h                                                 ",
"                                    : : - e h h i r : i i 1 r : i l 1 > f h h h h                                               ",
"                            2.7.,.Q ` d i 1 d h h h < i i 1 f d h h e : u i i f h                                               ",
"                            2.8.9.:.N k h r r l h h r d i 1 h h h h i : * > 1 r f                                               ",
"                              5.4._ 7 j l r r r f h h h d i h h h i : e e : i u f h                                             ",
"                                  y . i l r r < d h h h h h h d < > e h h 1 r l h h                                             ",
"                                  r = i l u u 1 < d d h h h 0 o 0 d h h h u u h f i                                             ",
"                                  r = i d i h r < r r h f B ) X. .n i h h h h h e =                                             ",
"                                  r = i i 1 h > > r r h V 1.7.7.<.W r h h h h e = =                                             ",
"                                  r 1 f u 1 h < r : r q Y 6.0.7./ R r h h h e = = =                                             ",
"                                  r r f : 1 h e i 1 i p % ..>.-.P T r h l u = = =                                               ",
"                                  1 r f - > d h l r > 1 @ w 1 - I K r l f < = = =                                               ",
"                                    e i : * r f r r r r g # O L K * r f < = = =                                                 ",
"                                    1 u : = : > < r r < d g $ J = < d 1 = = = =                                                 ",
"                                    e i u = : < d f f < g & Z #.4 1 d : = = = =                                                 ",
"                                        d = < f h h i e c D H F $.> > = = = =                                                   ",
"                                        l   = < f h 1 i c O.@.G $.- = = = = =                                                   ",
"                                            = - f u - u c H +.G $.- = = = = =                                                   ",
"                                              : f r : > c C S U ^ - =   = = =                                                   ",
"                                              : f r < > u + A R ; = =     = =                                                   ",
"                                              = e r < > u 1 1 . = = =       =                                                   ",
"                                              * > r r < u 1 1 * = = =       =                                                   ",
"                                                > d f < p t 1 *             =                                                   ",
"                                                  > d < v m 1 *                                                                 ",
"                                                  * r < a M x ;           =                                                     ",
"                                                    : - 1 h b ,           =                                                     ",
"                                                    * =     h                                                                   ",
"                                                            h                                                                   ",
"                                                                                                                                ",
"                                                                                                                                ",
"                                                                                                                                ",
"                                                                                                                                ",
"                                                                                                                                ",
"                                                                                                                                ",
"                                                                                                                                ",
"                                                                                                                                ",
"                                                                                                                                ",
"                                                                                                                                "
};
