/* XPM */
static char *_c9d4da9b2fb4fe98c8716e9ac4c7afcCMFMh8q9DrXesGoj[] = {
/* columns rows colors chars-per-pixel */
"64 64 232 2 ",
"   c None",
".  c #150B1D",
"X  c #150B1F",
"o  c #160E1F",
"O  c #190D1F",
"+  c #180E1F",
"@  c #17141F",
"#  c #2A0D1D",
"$  c #380E1E",
"%  c #3F0F1E",
"&  c #2E1B1F",
"*  c #1A3414",
"=  c #3C2719",
"-  c #273B16",
";  c #2B311D",
":  c #313F1A",
">  c #140E20",
",  c #150F20",
"<  c #170E20",
"1  c #160F20",
"2  c #170F20",
"3  c #180E20",
"4  c #180F20",
"5  c #190F20",
"6  c #1A0F20",
"7  c #1B0F20",
"8  c #1C0F20",
"9  c #1D0F20",
"0  c #1E0F20",
"q  c #1F0F20",
"w  c #171021",
"e  c #191020",
"r  c #191121",
"t  c #1A1020",
"y  c #1A1021",
"u  c #1B1021",
"i  c #1A1121",
"p  c #191122",
"a  c #1B1122",
"s  c #1E1020",
"d  c #1F1020",
"f  c #1C1322",
"g  c #1F1526",
"h  c #1F1726",
"j  c #1D1927",
"k  c #200F20",
"l  c #250F20",
"z  c #260F21",
"x  c #201020",
"c  c #211020",
"v  c #221020",
"b  c #231020",
"n  c #241020",
"m  c #251020",
"M  c #261020",
"N  c #271121",
"B  c #281121",
"V  c #291121",
"C  c #2A1121",
"Z  c #2B1121",
"A  c #291221",
"S  c #2C1121",
"D  c #2D1121",
"F  c #2E1121",
"G  c #2F1121",
"H  c #211828",
"J  c #241C29",
"K  c #251C2C",
"L  c #301121",
"P  c #311121",
"I  c #301221",
"U  c #311221",
"Y  c #321221",
"T  c #331221",
"R  c #361121",
"E  c #341221",
"W  c #351221",
"Q  c #361221",
"!  c #371221",
"~  c #381221",
"^  c #391221",
"/  c #3A1321",
"(  c #3B1321",
")  c #3C1221",
"_  c #3D1221",
"`  c #3C1321",
"'  c #3D1321",
"]  c #3F1221",
"[  c #3E1321",
"{  c #3F1321",
"}  c #3E1122",
"|  c #27242E",
" . c #29262F",
".. c #2A3329",
"X. c #293529",
"o. c #2C2332",
"O. c #2E2434",
"+. c #352730",
"@. c #333D30",
"#. c #43171E",
"$. c #55121E",
"%. c #67191F",
"&. c #4A2218",
"*. c #4E211F",
"=. c #4F221F",
"-. c #4E231F",
";. c #45281B",
":. c #401321",
">. c #421321",
",. c #431321",
"<. c #431422",
"1. c #441422",
"2. c #451422",
"3. c #461422",
"4. c #471422",
"5. c #491121",
"6. c #491220",
"7. c #4A1321",
"8. c #481422",
"9. c #491422",
"0. c #4A1422",
"q. c #4B1422",
"w. c #4C1422",
"e. c #4D1522",
"r. c #4E1522",
"t. c #4F1522",
"y. c #451F29",
"u. c #501522",
"i. c #511522",
"p. c #531422",
"a. c #521522",
"s. c #541522",
"d. c #551522",
"f. c #561622",
"g. c #571622",
"h. c #581521",
"j. c #581622",
"k. c #591622",
"l. c #5A1622",
"z. c #5B1622",
"x. c #5C1622",
"c. c #5D1622",
"v. c #5E1622",
"b. c #5F1622",
"n. c #5F1723",
"m. c #531D21",
"M. c #551A25",
"N. c #5E1B22",
"B. c #5E1924",
"V. c #601723",
"C. c #611723",
"Z. c #621723",
"A. c #631723",
"S. c #661420",
"D. c #641723",
"F. c #651723",
"G. c #661723",
"H. c #671723",
"J. c #681623",
"K. c #681723",
"L. c #6C1621",
"P. c #6D1621",
"I. c #6D1722",
"U. c #6E1722",
"Y. c #641822",
"T. c #651D22",
"R. c #681823",
"E. c #691823",
"W. c #6B1823",
"Q. c #6C1823",
"!. c #6D1823",
"~. c #6E1823",
"^. c #6F1823",
"/. c #681C26",
"(. c #701823",
"). c #711823",
"_. c #5A212A",
"`. c #4A2930",
"'. c #562A31",
"]. c #522A3B",
"[. c #523035",
"{. c #602029",
"}. c #66212A",
"|. c #124717",
" X c #0E5D16",
".X c #116215",
"XX c #2C7014",
"oX c #25701B",
"OX c #28721B",
"+X c #2E761B",
"@X c #367814",
"#X c #2B442A",
"$X c #314929",
"%X c #354A33",
"&X c #394D36",
"*X c #3B662F",
"=X c #3F6033",
"-X c #44563A",
";X c #426837",
":X c #436E36",
">X c #40673A",
",X c #47653E",
"<X c #3E3C4B",
"1X c #463D4B",
"2X c #7C3C42",
"3X c #554D59",
"4X c #736C76",
"5X c #7A6974",
"6X c #854049",
"7X c #986B75",
"8X c #92767E",
"9X c #A6777E",
"0X c #388431",
"qX c #428114",
"wX c #4D8B13",
"eX c #5F9812",
"rX c #79AA10",
"tX c #428939",
"yX c #5E924D",
"uX c #5F954E",
"iX c #60954F",
"pX c #917881",
"aX c #9E7880",
"sX c #A49FA5",
"dX c #ACA6A8",
"fX c #B1ACB1",
"gX c #D9CACC",
"hX c #D9D0D2",
"jX c #DBD7D6",
"kX c #E8E3E4",
"lX c #EDE7E7",
"zX c #ECE7E8",
/* pixels */
"                                                                                                                                ",
"                                                                                                                                ",
"                                                                                                                                ",
"                                                                                                                                ",
"                                                                                                                                ",
"                                                                                                                                ",
"                                                                                                                                ",
"                                                                                                                                ",
"                                                                                                                                ",
"                                                                                                                                ",
"                                                        !.!.!.!.!.                                                              ",
"                                                    !.!.!.!.K.F.F.E.                                                            ",
"                                                    !.!.!.!.0.G d ! K.                                                          ",
"                                                  !.!.!.!.!.!.E.! 2 ! F.                                                        ",
"                                                V.u.!.!.!.j.g.!.K.! ! F.                                                        ",
"                                                g.! !.!.!.3.v n.j.z +.}.                                                        ",
"                                                j.7 <.n.r.0 7 g.U o  .{.                                                        ",
"                                                j.7 7 7 7 7 7 j.F.G 7 j.                                                        ",
"                                                j.u u u u u 7 j.(.r.7 U                                                         ",
"                                              F.# 3XfX1XsX4X. G F.F.U 2                                                         ",
"                                              F.0 H O.g o.K 7 2 U !.( 2 7                                                       ",
"                                              F.d 7 2 7 7 7 7 2 B !.( 2 7                                                       ",
"                                              E.<.7 7 7 7 7 7 0 r.!.( 2 7                                                       ",
"                                            !.!.n.0 2 7 7 7 0 r.(.g.d 7 d m                                                     ",
"                                            u.E.!.r.d 7 7 0 r.!.!.>.2 G V.E.                                                    ",
"                                          r.m >.!.!.( 2 d r.!.E.<.7 G V.!.!.!.                                                  ",
"                                          !.j.m >.!.( ( U !.!.F.0 G V.!.!.!.!.!.                                                ",
"                                        !.!.!.j.m 0.( j.u.3.E.! G F.0.n.!.!.!.!.                                                ",
"                                        !.!.!.!.E.0.7 j.j.` r.G V.(.( 0.!.!.!.!.!.                                              ",
"                                      !.!.n.n.!.F.3.( V.j.( !.!.!.(.` 7 3.0.0.F.!.                                              ",
"                                    !.!.!.0.0.!.F.j.(.!.j.` !.!.!.j.m 7 2 B 0.>.E.                                              ",
"                                    !.!.!.0.0.>.K.!.!.!.E.V.!.!.j.v 0 r.r.m g.V.E.!.                                            ",
"                                    !.!.!.0.3.U j.!.!.!.!.!.!.j.U B r.!.!.3.0.(.!.!.                                            ",
"                                    !.!.!.j.j.3.G n.n.!.!.U.$.% F.U.!.!.!.j.j.!.F.r.                                            ",
"                                    !.!.V.` ` ( U 0.0.!.U.6XpXaX7X].j.!.!.!.!.E.! 2                                             ",
"                                    !.V.` u.u.v U 3.0.U.2XgXzXkXdX<X6.!.!.!.E.! 7 7                                             ",
"                                    !.3.<.B ! ! u.m g.%.-XhXlXjX>X;X6.!.!.F.! 7 7                                               ",
"                                    !.r.v r.!.g.g.` j.#.$X9X8X5X@.:X6.!.(.r.2 7 7                                               ",
"                                      m r.!.!.G G ` ( u = &.$ @ =XX.6.(.V.G 7 7 7                                               ",
"                                      u.!.!.!.U 2 ` ` 0 Y.;.* *X..O r.F.B 7 7 7                                                 ",
"                                      r.!.!.V.n.0 ! >.v K.T.- #X2 ( !.U 2 7 7 7                                                 ",
"                                      v u.V.G g.( 2 0.! N.:  XtX&X` j.v 2 7 7 7                                                 ",
"                                          n.G j.n.7 0.! =.XXwXoXuXB m 2 7 7 7                                                   ",
"                                          (.` j.n.0 m z =.qXrX+XyXu 2 7 7 7 7                                                   ",
"                                          !.` j.j.U U 0 =.@XeXOXiXu 7 7 7 7 7                                                   ",
"                                            U >.j.B B k m.|..X0X,Xu 7   7 7 7                                                   ",
"                                            2 v u.` ` d u.& ; %Xd 7     7 7                                                     ",
"                                              v n.F.( d u.` ` . O 7     7 7                                                     ",
"                                                G F.( d u.` ` w g 7     7                                                       ",
"                                                2 ` ` 0 M.y.` u |     7 7                                                       ",
"                                                  B m k _.[.` 2     7 7                                                         ",
"                                                    7 d B./.`.j     7                                                           ",
"                                                      7 U U.'.J                                                                 ",
"                                                            !.                                                                  ",
"                                                                                                                                ",
"                                                                                                                                ",
"                                                                                                                                ",
"                                                                                                                                ",
"                                                                                                                                ",
"                                                                                                                                ",
"                                                                                                                                ",
"                                                                                                                                ",
"                                                                                                                                ",
"                                                                                                                                "
};
