/* XPM */
static char *_fad860fc4844f22eb14134c16b87cf78DtP1UB2DUssJWCm[] = {
/* columns rows colors chars-per-pixel */
"64 64 237 2 ",
"   c None",
".  c #140A1B",
"X  c #160B1D",
"o  c #160C1D",
"O  c #170D1E",
"+  c #170D1F",
"@  c #160E1F",
"#  c #170E1F",
"$  c #180D1E",
"%  c #180E1F",
"&  c #1E0E1F",
"*  c #14121D",
"=  c #17141F",
"-  c #17191E",
";  c #220D1D",
":  c #290D1D",
">  c #350F1E",
",  c #380E1E",
"<  c #3A0F1E",
"1  c #0E3915",
"2  c #163414",
"3  c #3C2719",
"4  c #33321D",
"5  c #303F1A",
"6  c #130E20",
"7  c #170D20",
"8  c #150F20",
"9  c #170E20",
"0  c #160F20",
"q  c #170F20",
"w  c #180F20",
"e  c #190F20",
"r  c #1A0F20",
"t  c #1B0F20",
"y  c #1C0F20",
"u  c #1D0F20",
"i  c #1F0F20",
"p  c #191121",
"a  c #1A1020",
"s  c #1B1120",
"d  c #1A1121",
"f  c #1A1122",
"g  c #1B1322",
"h  c #1E1020",
"j  c #1F1020",
"k  c #1F1A27",
"l  c #200F20",
"z  c #2D0D20",
"x  c #320F20",
"c  c #201020",
"v  c #211020",
"b  c #221020",
"n  c #231020",
"m  c #241020",
"M  c #251020",
"N  c #261020",
"B  c #281020",
"V  c #281121",
"C  c #291121",
"Z  c #2A1021",
"A  c #2A1121",
"S  c #2B1121",
"D  c #2C1121",
"F  c #2D1121",
"G  c #2F1020",
"H  c #2E1121",
"J  c #2F1121",
"K  c #2D1221",
"L  c #2F1221",
"P  c #221829",
"I  c #301121",
"U  c #311221",
"Y  c #321221",
"T  c #331221",
"R  c #351221",
"E  c #361221",
"W  c #371221",
"Q  c #381221",
"!  c #391221",
"~  c #3A1221",
"^  c #3A1321",
"/  c #3B1321",
"(  c #3C1321",
")  c #3D1321",
"_  c #3E1321",
"`  c #3F1321",
"'  c #29202F",
"]  c #283329",
"[  c #293529",
"{  c #2E2534",
"}  c #2D273A",
"|  c #333D30",
" . c #39303E",
".. c #48111E",
"X. c #52171E",
"o. c #4B2218",
"O. c #4E211F",
"+. c #4F221F",
"@. c #4E231F",
"#. c #42281A",
"$. c #401321",
"%. c #411321",
"&. c #421321",
"*. c #431321",
"=. c #431422",
"-. c #441422",
";. c #461422",
":. c #471422",
">. c #491121",
",. c #491321",
"<. c #4A1320",
"1. c #4A1321",
"2. c #4B1321",
"3. c #4C1222",
"4. c #481422",
"5. c #491422",
"6. c #4A1422",
"7. c #4B1422",
"8. c #4C1422",
"9. c #4E1522",
"0. c #4F1522",
"q. c #4C1A21",
"w. c #4D1925",
"e. c #501522",
"r. c #511522",
"t. c #521522",
"y. c #531522",
"u. c #541422",
"i. c #541522",
"p. c #551522",
"a. c #561522",
"s. c #561622",
"d. c #571622",
"f. c #581622",
"g. c #591622",
"h. c #5A1622",
"j. c #5B1622",
"k. c #5B1623",
"l. c #5E1420",
"z. c #5F1521",
"x. c #5C1622",
"c. c #5D1622",
"v. c #5F1622",
"b. c #521D21",
"n. c #551824",
"m. c #5E1B22",
"M. c #601723",
"N. c #611723",
"B. c #631622",
"V. c #621723",
"C. c #631723",
"Z. c #641723",
"A. c #651723",
"S. c #661723",
"D. c #671723",
"F. c #691620",
"G. c #691623",
"H. c #681723",
"J. c #6E1621",
"K. c #641822",
"L. c #671823",
"P. c #621924",
"I. c #621A25",
"U. c #611A26",
"Y. c #681823",
"T. c #691823",
"R. c #6A1823",
"E. c #6B1823",
"W. c #6C1823",
"Q. c #6D1823",
"!. c #6E1823",
"~. c #6F1823",
"^. c #681B25",
"/. c #631F29",
"(. c #701823",
"). c #711823",
"_. c #5B2029",
"`. c #57282F",
"'. c #58282F",
"]. c #4C3237",
"[. c #134717",
"{. c #0D5D16",
"}. c #106215",
"|. c #2C7014",
" X c #25701B",
".X c #28721B",
"XX c #2E761B",
"oX c #367814",
"OX c #2C442A",
"+X c #2D4829",
"@X c #3A4D36",
"#X c #3B662F",
"$X c #3F6033",
"%X c #434B33",
"&X c #42563A",
"*X c #426837",
"=X c #436E36",
"-X c #40673A",
";X c #47653E",
":X c #3F3644",
">X c #413C4B",
",X c #7D3C42",
"<X c #763E49",
"1X c #384142",
"2X c #4B424F",
"3X c #53424F",
"4X c #4C4350",
"5X c #4F4753",
"6X c #564956",
"7X c #594B58",
"8X c #655D68",
"9X c #736874",
"0X c #7A6974",
"qX c #8D5A63",
"wX c #956169",
"eX c #82757F",
"rX c #92767E",
"tX c #A6777E",
"yX c #378431",
"uX c #428114",
"iX c #4D8B13",
"pX c #5F9812",
"aX c #79AA10",
"sX c #428939",
"dX c #5E924D",
"fX c #60954E",
"gX c #60954F",
"hX c #827780",
"jX c #8F8890",
"kX c #99939A",
"lX c #AFA6A9",
"zX c #DACACC",
"xX c #D9D0D2",
"cX c #DBD7D6",
"vX c #EAE3E4",
"bX c #EDE7E7",
"nX c #EDE7E8",
/* pixels */
"                                                                                                                                ",
"                                                                                                                                ",
"                                                                                                                                ",
"                                                                                                                                ",
"                                                                                                                                ",
"                                                                                                                                ",
"                                                                                                                                ",
"                                                                                                                                ",
"                                                                                                                                ",
"                                                                                                                                ",
"                                                      Q.Q.Q.Q.Q.Q.Q.                                                            ",
"                                                    Q.Q.Q.Q.6.I S :.Q.                                                          ",
"                                                  Q.Q.Q.Q.Q.T.M.S w =.T.                                                        ",
"                                                Z.h.Q.Q.Q.v.M.Q.M.F w M.Q.                                                      ",
"                                                a.^ Q.Q.Q.6.S Z.Z.F     Q.                                                      ",
"                                                h.c 0.T.h.M w a.I 0     Q.                                                      ",
"                                                h.w y c h w w h.h.M w   (.                                                      ",
"                                                h.$ . + . + w v.(.6.0 w                                                         ",
"                                              T.> 4XkX:XjX8X+ W T.M.F w                                                         ",
"                                              Z.& { 5X' 2X .$ w ^ Q.( 0 w                                                       ",
"                                              Z.h + X $ + + w 0 S Q.^ 0 w                                                       ",
"                                              T.^ w w w w w w w &.(.( 0 w                                                       ",
"                                          0 a.(.v.w w w w w w =.Q.h.M w w                                                       ",
"                                        T.&.M M.Q.=.w w w w =.Q.Q.:.0 c h.Q.                                                    ",
"                                        Q.Q.W 6.Q.Q.^ 0 w &.Q.Q.0.y c h.Q.Q.                                                    ",
"                                      Q.Q.Q.0.c 0.(.^ F F Q.Q.H.h M h.Q.Q.Q.Q.                                                  ",
"                                      Q.Q.Q.Q.0.c r.( a.6.0.Q.&.M h.r.M.Q.Q.Q.                                                  ",
"                                    Q.Q.v.:.Q.Q.v.6.c h.h.^ 0.M h.(.^ r.Q.Q.Q.Q.                                                ",
"                                    Q.Q.Q.:.0.Q.Q.Q.W h.v.( M.Z.Q.(.( c a.h.h.T.                                                ",
"                                  0.Q.Q.(.6.6.(.Q.Q.0.M.Q.a.h.Q.Q.M.F w ^ ( ^ 6.T.                                              ",
"                                  Q.Q.Q.M.S 6.0.H.Q.Q.Q.Q.Q.Q.Q.M.F w y ^ r.(.a.T.                                              ",
"                                I Q.T.^ F w 6.I M.Q.T.T.Q.Q.Q.M.I y &.v.6.c r.(.Q.                                              ",
"                                ( Q.( S r.=.r.^ I Q.( h.Q.Q.M.&.M.T.Q.Q.Q.:.6.(.Q.                                              ",
"                                r.Q.0.h.c F M.0.F Q.^ h.Q.v.: , ..1.M.Q.Q.h.h.Q.0.                                              ",
"                                h 0.Q.:.w w F h S Q.( h.J.<XhXeX9X} 1.Q.Q.Q.Q.&.w                                               ",
"                                0 ^ T.S + 7X3X; 6.F 6.H.,XzXnXvXlX>X1.Q.Q.Q.&.w w                                               ",
"                                  ( &.f 6XwXI.M.h.^ M.X.&XxXbXcX-X*X1.Q.(.r.w w w                                               ",
"                                  F F P qXI.&.M.h.( ( * +XtXrX0X| =X1.(.T.W w w w                                               ",
"                                    w &.v.&.M.Q.h.( ( f 3 o., = $X[ 1.T.W w w w w                                               ",
"                                    w S W M.T.( M ^ ( l K.#.2 #X] x K.^ w w w w w                                               ",
"                                      0 F Z.W &.S w 6.I H.q.1 OX0 ( Z.M w w w w w                                               ",
"                                        M :.^ S r.w 0.W m.5 {.sX@XF F w w w w w w                                               ",
"                                        6 ^ (.W r.w F S +.|.iX XfXf w w w w w w w                                               ",
"                                          ( T.M.h.W I y +.uXaXXXdXf w w w w w w w                                               ",
"                                          W ^ 0.Q.r.c l +.oXpX.XfXf w w   w w w                                                 ",
"                                          w w c Z.Q.^ y b.[.}.yX;Xf w w   w w w                                                 ",
"                                            w c Z.Q.^ h a.- 4 %Xf w w w     w w                                                 ",
"                                          w   w W T.^ h a.0 3.z 0 w   w     w w                                                 ",
"                                              w 0 &.( y n.k w.F             w w                                                 ",
"                                              w   F F y _.1X'.F             w                                                   ",
"                                                w w w l I.].`.F           w w                                                   ",
"                                                    w w ^ ^./.a.S       w w                                                     ",
"                                                                M.                                                              ",
"                                                                                                                                ",
"                                                                                                                                ",
"                                                                                                                                ",
"                                                                                                                                ",
"                                                                                                                                ",
"                                                                                                                                ",
"                                                                                                                                ",
"                                                                                                                                ",
"                                                                                                                                ",
"                                                                                                                                ",
"                                                                                                                                "
};
