/* XPM */
static char *ac1fc90f956241f08cdf630ce6f64143zD6gLsV8uiU7rdCv[] = {
/* columns rows colors chars-per-pixel */
"64 64 99 2 ",
"   c None",
".  c #140B1C",
"X  c #180D1F",
"o  c #220F1F",
"O  c #3B0F1D",
"+  c #2B101F",
"@  c #281A1F",
"#  c #1B3C1D",
"$  c #252C16",
"%  c #2E2819",
"&  c #253B19",
"*  c #323217",
"=  c #170F20",
"-  c #190F20",
";  c #1D1121",
":  c #231020",
">  c #2C1121",
",  c #221E26",
"<  c #341221",
"1  c #3C1321",
"2  c #27232E",
"3  c #29292A",
"4  c #3F3B25",
"5  c #2B2232",
"6  c #2C2B33",
"7  c #332433",
"8  c #392233",
"9  c #302739",
"0  c #3C3338",
"q  c #373D3F",
"w  c #3C3B3B",
"e  c #56121E",
"r  c #60131F",
"t  c #4F271D",
"y  c #46291B",
"u  c #4D2D1E",
"i  c #431422",
"p  c #4B1422",
"a  c #4F1B29",
"s  c #541522",
"d  c #5B1622",
"f  c #521A24",
"g  c #5B1B26",
"h  c #511D28",
"j  c #641723",
"k  c #6A1723",
"l  c #611A27",
"z  c #6D1823",
"x  c #701823",
"c  c #5B292F",
"v  c #5A2A30",
"b  c #4A3237",
"n  c #68212D",
"m  c #73212C",
"M  c #1B4817",
"N  c #115215",
"B  c #235A16",
"V  c #176715",
"C  c #206B16",
"Z  c #306615",
"A  c #336815",
"S  c #337514",
"D  c #234522",
"F  c #33462D",
"G  c #2F5229",
"H  c #394B35",
"J  c #395631",
"K  c #247421",
"L  c #396135",
"P  c #49723E",
"I  c #497F38",
"U  c #3E3644",
"Y  c #4B3A47",
"T  c #5E515D",
"R  c #544C60",
"E  c #5F5763",
"W  c #615A65",
"Q  c #647E61",
"!  c #6F6872",
"~  c #756173",
"^  c #766F78",
"/  c #3B8014",
"(  c #3D8236",
")  c #71A812",
"_  c #7DB011",
"`  c #558946",
"'  c #5C9E4C",
"]  c #8C8089",
"[  c #AA8E8F",
"{  c #A5959B",
"}  c #B3989D",
"|  c #BD9BA0",
" . c #C9BBC0",
".. c #CCC7C6",
"X. c #DBD0D3",
"o. c #DCD1D4",
"O. c #E4DBDD",
"+. c #EEEAEA",
"@. c #EFECEC",
/* pixels */
"                                                                                                                                ",
"                                                                                                                                ",
"                                                                                                                                ",
"                                                                                                                                ",
"                                                                                                                                ",
"                                                                                                                                ",
"                                                                                                                                ",
"                                                                                                                                ",
"                                                                                                                                ",
"                                                    z z z z z z z                                                               ",
"                                                  z z z z d 1 1 i z                                                             ",
"                                                z z z z z j s > - i k                                                           ",
"                                              k j z z z k j x j > - s z                                                         ",
"                                              j < z z z d > j z i -                                                             ",
"                                              j : p z k < = p i - -                                                             ",
"                                              j : ; > > - = p d : -                                                             ",
"                                              j o . X . . = p x s - -                                                           ",
"                                            z p 7 ^ U E W ; < k j > -                                                           ",
"                                            z + 5 ^ U E W ; - < z p = -                                                         ",
"                                            z > X . X . . - - - k p = -                                                         ",
"                                            j 1 - - - - - - - > k p = -                                                         ",
"                                          > p k ; - - - - = > j k < - = =                                                       ",
"                                      > k p p z i - - - - > j x d - - i p                                                       ",
"                                      d z p : d z i = - > j z j > - i z z                                                       ",
"                                    > d z z i : d p : : j z z < - i z z z z                                                     ",
"                                    d z z z z i > p p p s z d : i d d z z z                                                     ",
"                                  = p z z z z z p > > d < d : i z p p z z z z                                                   ",
"                                  - > < j z z z k d d 1 i 1 s k x p : d j k z z                                                 ",
"                              - > i j j i z z z z z z j i p s z z i = ; < i j z                                                 ",
"                              : j z z z z z d j z z z z z z z z i - > : p p p x                                                 ",
"                              p k d 1 1 i z 1 s z z z z z z z i - > j p > d d z                                                 ",
"                              z k l f f < k 1 > k z z z z z p s d j z z s p z z j                                               ",
"                              j 8 ~ ~ ~ a p k < j x z z k O O e d j z z z k z d :                                               ",
"                              r Y X.o.] > d z < d p d z n T T T 9 1 z z z z d : -                                               ",
"                              j 7 ! ! 5 X 1 z s 1 p d m | O.O. .R 1 z z z d : - -                                               ",
"                              j o . . X > j k < > z j 4 ..@.+.Q P 1 z z j : - -                                                 ",
"                              z s - - > j k < = > p ; # [ } { w I 1 z z p - - -                                                 ",
"                                d - > p p < > 1 < p = % t p - F J 1 x p - - - -                                                 ",
"                                d - p < i < p k < p - d y $ G J : d s - - - - -                                                 ",
"                                d - p < j p p 1 ; i < d z * D ; > z < = - - -                                                   ",
"                                  i 6 2 < s s j > k 1 s u N ( H > i - - - - -                                                   ",
"                                  p 6 q > d d j < j > f B / C ' , - - - - -                                                     ",
"                                  p 6 q < p p j < p = f A _ S ' , - - - - -                                                     ",
"                                    g 0 > i i j < p - f Z ) S ' , - - - - -                                                     ",
"                                      ; ; - ; s < p - f M V K ` , -   - - -                                                     ",
"                                      -   - - s p p - s @ & L 3 X - -   - - -                                                   ",
"                                          - - < z p - s < p . - -         - - -                                                 ",
"                                            - - 1 p - s 1 p =   -           - - -                                               ",
"                                            -   > 1 - f b p =                   - -                                             ",
"                                                - - - d c h ;                     -                                             ",
"                                                    - < z v 2                                                                   ",
"                                                          k h                                                                   ",
"                                                          z                                                                     ",
"                                                                                                                                ",
"                                                                                                                                ",
"                                                                                                                                ",
"                                                                                                                                ",
"                                                                                                                                ",
"                                                                                                                                ",
"                                                                                                                                ",
"                                                                                                                                ",
"                                                                                                                                ",
"                                                                                                                                ",
"                                                                                                                                "
};
