/* XPM */
static char *_6bf2b641cd745e9d3c202b25aef9222uZPCiFO7DzNn7Y38[] = {
/* columns rows colors chars-per-pixel */
"64 64 116 2 ",
"   c None",
".  c #160C1E",
"X  c #1A0E1F",
"o  c #200F1F",
"O  c #350F1E",
"+  c #3B0E1D",
"@  c #1F2E17",
"#  c #26211E",
"$  c #362C18",
"%  c #3F2B19",
"&  c #253314",
"*  c #263815",
"=  c #3E351C",
"-  c #160F20",
";  c #190F20",
":  c #1C1121",
">  c #1F1924",
",  c #231020",
"<  c #2C1121",
"1  c #211C29",
"2  c #341221",
"3  c #3B1321",
"4  c #261D30",
"5  c #2B222F",
"6  c #39232D",
"7  c #2D372E",
"8  c #2E2534",
"9  c #2A2B33",
"0  c #39323B",
"q  c #3E3E3F",
"w  c #5E131F",
"e  c #68191F",
"r  c #57221E",
"t  c #431321",
"y  c #4B1422",
"u  c #421926",
"i  c #431D2A",
"p  c #531522",
"a  c #5A1622",
"s  c #511922",
"d  c #5F1B26",
"f  c #641723",
"g  c #6B1622",
"h  c #631B23",
"j  c #6D1823",
"k  c #6B1F2C",
"l  c #701823",
"z  c #47242D",
"x  c #4E262E",
"c  c #542220",
"v  c #58212A",
"b  c #5B2533",
"n  c #522F34",
"m  c #493438",
"M  c #503035",
"N  c #63212A",
"B  c #692230",
"V  c #7B2F39",
"C  c #7C323C",
"Z  c #155216",
"A  c #105916",
"S  c #22401A",
"D  c #186815",
"F  c #246715",
"G  c #23701D",
"H  c #2D751B",
"J  c #3B7D14",
"K  c #284127",
"L  c #32472D",
"P  c #385D2E",
"I  c #334130",
"U  c #3A5531",
"Y  c #2D7C29",
"T  c #4D503A",
"R  c #446F36",
"E  c #41623A",
"W  c #3F3644",
"Q  c #3D3E40",
"!  c #3E384C",
"~  c #5F3548",
"^  c #4B424F",
"/  c #4E4552",
"(  c #527A45",
")  c #51744B",
"_  c #5C5062",
"`  c #655D68",
"'  c #755660",
"]  c #862531",
"[  c #922C38",
"{  c #85313F",
"}  c #C8560E",
"|  c #8A505A",
" . c #92535B",
".. c #855660",
"X. c #CA4957",
"o. c #418014",
"O. c #6DA211",
"+. c #78A910",
"@. c #48873D",
"#. c #5E924D",
"$. c #8F8890",
"%. c #9A8991",
"&. c #99939A",
"*. c #AE979F",
"=. c #B09BA0",
"-. c #B5A9B1",
";. c #CAB1B5",
":. c #C1B3BA",
">. c #CFB8BA",
",. c #E9CC9D",
"<. c #D4C5C9",
"1. c #D9CED0",
"2. c #E0D4D4",
"3. c #E3DDDD",
"4. c #E7DFE0",
"5. c #F1EDED",
/* pixels */
"                                                                                                                                ",
"                                                                                                                                ",
"                                                                                                                                ",
"                                                                                                                                ",
"                                                                                                                                ",
"                                                                                                                                ",
"                                                                                                                                ",
"                                                                                                                                ",
"                                                                                                                                ",
"                                                                                                                                ",
"                                                      j j j j j j j                                                             ",
"                                                    j j j j y 2 < t j                                                           ",
"                                                  j j j j j g f < ; t g                                                         ",
"                                                f a j j j a f j f < < f j                                                       ",
"                                                p 3 j j j y < f f < 6 n j                                                       ",
"                                                a , y g a , ; p 2 . 9 q h                                                       ",
"                                                a ; ; , : ; ; a a , : 0 h                                                       ",
"                                                a . . . . . ; a l y - 5                                                         ",
"                                              g O / &.W $.` . 2 g f < .                                                         ",
"                                              f X 8 / 5 ^ 0 . ; 3 j 3 - ;                                                       ",
"                                              f : . . . . . ; - < j 3 ; ;                                                       ",
"                                              g 3 ; ; ; ; ; ; ; t l 3 - ;                                                       ",
"                                              j a ; ; ; ; ; ; t j a , ; ; ;                                                     ",
"                                            f j g t ; ; ; ; t j j t - y y ,                                                     ",
"                                            2 y j j 3 - ; t j j y ; , f j f f                                                   ",
"                              }           { B o y l 3 < < j j g : , a j j j j                                                   ",
"                              ,.      . 2 ] g y , p 3 p y y j t , a p f j j j j                                                 ",
"                                    X.i X t j j a y , a a 3 y , a l 3 < g j j j j                                               ",
"                                    [ g a , y j j j t p p 3 g f j j t , p a a g j                                               ",
"                            >.3.2. .g j j y y j j j j y p 3 j j j j a , - < 3 y g                                               ",
"                            >.4.5.*.~ k l y y j j j j j f a j j j a , t t , a p g j                                             ",
"                              <.:._ 4 d l y y t f j j j j j j f 2 < t j j 3 y l j j                                             ",
"                                  y . a j j g 3 a f f j j g w + w f j j j p p j g a                                             ",
"                                  y ; a f a j y 2 y y j g V ' ..| b a j j j j j t ;                                             ",
"                                  y ; a a 3 j < < y y g C ;.3.3.-.! y j j j j t ; ;                                             ",
"                                  y ; a a 3 j 2 y , y e T 1.5.3.) E y j j j t ; ; ;                                             ",
"                                  y t j y 3 j t a 3 a s &  .=.%.I R y j l p ; ; ;                                               ",
"                                  y y g : < f j l y < 3 $ r 3 : U L y l g 2 ; ; ;                                               ",
"                                  2 y g , - y g y y y y h % @ P L - y g 2 ; ; ;                                                 ",
"                                    t p , ; , < 2 y y 2 f h * K ; 2 f 3 ; ; ; ;                                                 ",
"                                    3 p < ; , 2 f g g 2 h = A @.7 3 f , ; ; ; ;                                                 ",
"                                    i x h ; 2 g j j a t c F J G #.< < ; ; ; ;                                                   ",
"                                    M Q h   ; 2 g j 3 a c o.+.H #.: ; ; ; ; ;                                                   ",
"                                    h m h   ; : g p : p c J O.H #.: ; ; ; ; ;                                                   ",
"                                j     h       , g y , < c Z D Y ( : ;   ; ; ;                                                   ",
"                                              , g y 2 < p # S E > ; ;     ; ;                                                   ",
"                                              ; t y 2 < p 3 3 . ; ; ;       ;                                                   ",
"                                              - < y y 2 p 3 3 - ; ; ;       ;                                                   ",
"                                                < f g 2 s u 3 -             ;                                                   ",
"                                                  < f 2 v M 3 -                                                                 ",
"                                                  - y 2 d N z >           ;                                                     ",
"                                                    , : 3 g n 1           ;                                                     ",
"                                                    - ;     j                                                                   ",
"                                                            j                                                                   ",
"                                                                                                                                ",
"                                                                                                                                ",
"                                                                                                                                ",
"                                                                                                                                ",
"                                                                                                                                ",
"                                                                                                                                ",
"                                                                                                                                ",
"                                                                                                                                ",
"                                                                                                                                ",
"                                                                                                                                "
};
