/* XPM */
static char *_7d0b7a234064fa2af98c2cc969a345bYiqyI3xcpW2WgfpC[] = {
/* columns rows colors chars-per-pixel */
"64 64 114 2 ",
"   c None",
".  c #160C1E",
"X  c #1A0E1F",
"o  c #19121F",
"O  c #350F1E",
"+  c #3B0E1D",
"@  c #1F2E17",
"#  c #26211E",
"$  c #332C18",
"%  c #3F2B19",
"&  c #253314",
"*  c #263815",
"=  c #3E351C",
"-  c #160F20",
";  c #190F20",
":  c #1D1121",
">  c #1F1924",
",  c #200F20",
"<  c #231020",
"1  c #2C1121",
"2  c #211C29",
"3  c #341221",
"4  c #3C1321",
"5  c #2B222F",
"6  c #39232D",
"7  c #2D372E",
"8  c #2E2534",
"9  c #2A2B33",
"0  c #31283C",
"q  c #39323B",
"w  c #3E3E3F",
"e  c #5E131F",
"r  c #68191F",
"t  c #4E221F",
"y  c #57221E",
"u  c #431321",
"i  c #4B1422",
"p  c #421926",
"a  c #461928",
"s  c #531522",
"d  c #5B1622",
"f  c #531922",
"g  c #5F1A21",
"h  c #641723",
"j  c #6B1622",
"k  c #621B23",
"l  c #6D1823",
"z  c #601C29",
"x  c #6C1D29",
"c  c #701823",
"v  c #47242D",
"b  c #522020",
"n  c #59212A",
"m  c #5B2533",
"M  c #522F34",
"N  c #503035",
"B  c #63212A",
"V  c #612433",
"C  c #652D3D",
"Z  c #7B2F39",
"A  c #7C323C",
"S  c #155216",
"D  c #105916",
"F  c #22401A",
"G  c #186815",
"H  c #246715",
"J  c #23701D",
"K  c #2D751B",
"L  c #3B7D14",
"P  c #284127",
"I  c #32472D",
"U  c #385D2E",
"Y  c #334130",
"T  c #3A5531",
"R  c #2D7C29",
"E  c #4D503A",
"W  c #446F36",
"Q  c #41623A",
"!  c #3F3644",
"~  c #3E384C",
"^  c #743A47",
"/  c #4B424F",
"(  c #4E4552",
")  c #527A45",
"_  c #51744B",
"`  c #655D68",
"'  c #755660",
"]  c #706878",
"[  c #862531",
"{  c #8C2935",
"}  c #8A505A",
"|  c #92525B",
" . c #855660",
".. c #418014",
"X. c #6DA211",
"o. c #78A910",
"O. c #48873D",
"+. c #5E924D",
"@. c #8F8890",
"#. c #9A8991",
"$. c #99939A",
"%. c #AE8F96",
"&. c #B09BA0",
"*. c #B5A9AD",
"=. c #B5A9B1",
"-. c #CAB1B5",
";. c #CFB8BA",
":. c #CDC3C8",
">. c #D8CCCE",
",. c #D9CED0",
"<. c #E4DDDE",
"1. c #E8E0E1",
"2. c #EFEBEB",
"3. c #F1EDED",
/* pixels */
"                                                                                                                                ",
"                                                                                                                                ",
"                                                                                                                                ",
"                                                                                                                                ",
"                                                                                                                                ",
"                                                                                                                                ",
"                                                                                                                                ",
"                                                                                                                                ",
"                                                                                                                                ",
"                                                                                                                                ",
"                                                      l l l l l l l                                                             ",
"                                                    l l l l i 3 1 u l                                                           ",
"                                                  l l l l l j h 1 ; u j                                                         ",
"                                                h d l l l g h l h 1 1 h l                                                       ",
"                                                s 4 l l l i 1 h h 1 6 M l                                                       ",
"                                                d < i j d < ; s 3 . 9 w x                                                       ",
"                                                d ; ; < : ; ; d d < : q x                                                       ",
"                                                d . . . . . ; g c i - 5                                                         ",
"                                              j O ( $.! @.` . 3 j h 1 .                                                         ",
"                                              h X 8 ( 5 / q . ; 4 l 4 - ;                                                       ",
"                                              h : . . . . . ; - 1 l 4 - ;                                                       ",
"                                              j 4 ; ; ; ; ; ; ; u c 4 - ;                                                       ",
"                                            l l g ; ; ; ; ; ; u l d < ; ; ;                                                     ",
"                                            i l j u ; ; ; ; u l l u - i i <                                                     ",
"                                          s < i l l 4 - ; u l l i ; < g l h h                                                   ",
"                                        { l i < i c 4 1 1 l l j : < d l l l l                                                   ",
"                                      : V l l i < s 4 s i i l u < d s h l l l l                                                 ",
"                                    < ; X u l l g i < 3 s 4 i < d c 4 1 j l l l l                                               ",
"                            ;.<.*.^ [ h d 4 h l l j h g 3 s u h l l u < s d d j l                                               ",
"                            ;.1.2.%.C x l i i c l l l j i l s h l l d < - 1 4 i j                                               ",
"                              >.:.] 0 z c i i i j l l l l l l l l d < u u < d s j l                                             ",
"                                  a . d c i i 3 h l l l l l l h 3 1 u l l 4 i c l l                                             ",
"                                  i ; d c s s 4 3 h h l l l e + e h l l l s s l j d                                             ",
"                                  i ; d h d l i 3 i i l j Z '  .} m g l l l l l u ;                                             ",
"                                  i ; g d 4 l 1 1 i i l A -.<.<.=.~ i l l l l u ; ;                                             ",
"                                  i ; d s 4 l 3 i < i r E ,.3.<._ Q i l l l u ; ; ;                                             ",
"                                  i ; s < 4 c g s 4 h f & | &.#.Y W i l c s ; ; ;                                               ",
"                                  4 ; s < 1 i 1 s 4 4 o $ y 4 : T I i c j 3 ; ; ;                                               ",
"                                    1 s < ; ; u h d 4 ; g % @ U I - i j 3 ; ; ;                                                 ",
"                                    4 s < 3 d j l l 4 : j k * P ; 3 h 4 ; ; ; ;                                                 ",
"                                    u d s ; u j c i u 3 k = D O.7 4 h < ; ; ; ;                                                 ",
"                                        h ; ; d j 3 i 3 t H L J +.1 1 ; ; ; ;                                                   ",
"                                  l         ; g d ; 1 1 t ..o.K +.: ; ; ; ; ;                                                   ",
"                                            ; d d 3 3 ; t L X.K +.: ; ; ; ; ;                                                   ",
"                                            ; i d < < , b S G R ) : ;   ; ; ;                                                   ",
"                                            ; < s 4 4 : s # F Q > ; ;     ; ;                                                   ",
"                                              < g d 4 : s 4 4 . ; ; ;       ;                                                   ",
"                                                4 l 4 : s 4 4 - ; ; ;       ;                                                   ",
"                                                - u 4 ; f p 4 -             ;                                                   ",
"                                                  1 1 ; n N 4 -                                                                 ",
"                                                  ; ; , k B v >           ;                                                     ",
"                                                      ; 4 l M 2           ;                                                     ",
"                                                            l                                                                   ",
"                                                            l                                                                   ",
"                                                                                                                                ",
"                                                                                                                                ",
"                                                                                                                                ",
"                                                                                                                                ",
"                                                                                                                                ",
"                                                                                                                                ",
"                                                                                                                                ",
"                                                                                                                                ",
"                                                                                                                                ",
"                                                                                                                                "
};
