/* XPM */
static char *exit1697626423[] = {
/* columns rows colors chars-per-pixel */
"64 64 106 2 ",
"   c None",
".  c #5F8C8F",
"X  c #5C9194",
"o  c #5A969A",
"O  c #5D989D",
"+  c #629396",
"@  c #689697",
"#  c #669699",
"$  c #659A9E",
"%  c #6C9C9F",
"&  c #719E9F",
"*  c #6D9EA2",
"=  c #5BA1A4",
"-  c #65A3A6",
";  c #6BA2A5",
":  c #66A6AA",
">  c #65A9AC",
",  c #69ADAF",
"<  c #72A2A6",
"1  c #78A4A7",
"2  c #75A6A9",
"3  c #78A7AA",
"4  c #75A9AD",
"5  c #7AAAAD",
"6  c #6FAEB1",
"7  c #72ACB0",
"8  c #7CAEB1",
"9  c #7DB2B6",
"0  c #77B6B9",
"q  c #7FBBBD",
"w  c #78C0C3",
"e  c #85AAAD",
"r  c #80AFB2",
"t  c #82B2B5",
"y  c #8DB0B2",
"u  c #82B6B9",
"i  c #88B4B8",
"p  c #85BBBD",
"a  c #8CBBBE",
"s  c #95BCBD",
"d  c #9CBCBD",
"f  c #A0BFBF",
"g  c #A0C0BF",
"h  c #86BEC1",
"j  c #8DBEC0",
"k  c #92BEC1",
"l  c #9FBFC1",
"z  c #81C4C7",
"x  c #8DC2C4",
"c  c #8FCBCD",
"v  c #94C2C5",
"b  c #9DC2C4",
"n  c #95C6C9",
"m  c #9AC6C9",
"M  c #94C9CB",
"N  c #9CCBCD",
"B  c #9DCED0",
"V  c #9DD3D5",
"C  c #A2C5C5",
"Z  c #A9C5C3",
"A  c #A2C6C9",
"S  c #A3CACC",
"D  c #AECACC",
"F  c #B1CECF",
"G  c #A3CDD1",
"H  c #AACDD0",
"J  c #A5D1D3",
"K  c #ABD4D6",
"L  c #ADD7D9",
"P  c #B6D1D3",
"I  c #BAD4D6",
"U  c #B4D7D8",
"Y  c #BAD7D9",
"T  c #B3DADC",
"R  c #BBDBDD",
"E  c #BCDEE1",
"W  c #BFE1E4",
"Q  c #C1D4D2",
"!  c #C3DCDE",
"~  c #CCDDDD",
"^  c #D2DFDE",
"/  c #C1DFE1",
"(  c #C9DFE1",
")  c #C4E2E4",
"_  c #CCE3E5",
"`  c #CAE7E9",
"'  c #C7E9EC",
"]  c #CEEAEC",
"[  c #D1E4E5",
"{  c #DCE6E6",
"}  c #D2E7E8",
"|  c #D8E6E8",
" . c #D4EAEC",
".. c #DBEBEC",
"X. c #DCEFF1",
"o. c #DFF1F2",
"O. c #E2ECED",
"+. c #E1EFF0",
"@. c #E4F2F3",
"#. c #EAF4F5",
"$. c #EEF7F8",
"%. c #EEF8F9",
"&. c #F3F7F7",
"*. c #F0F7F8",
"=. c #F4FAFB",
"-. c #FDFEFE",
/* pixels */
"                                                                                                                                ",
"                                                                                                                                ",
"                                                                                                                                ",
"                                                                                                                                ",
"                                                                                                                                ",
"                                                                                                                                ",
"                                                                                                                                ",
"                                                                                * *                                             ",
"                                                                                    1                                           ",
"                                                                                      2 1                                       ",
"                                                                                        3 2 <                                   ",
"                                                                                        * 5 2 d                                 ",
"                                                                                          < 9 2                                 ",
"                                                                                          $ 4 r 1                               ",
"                                                                                          o * 8 5 e                             ",
"                                              a j a                                           4 t 5                             ",
"                                          a v m m G k j                                       < u t <                           ",
"                                        j m N G J J N m j                                     * 9 p 3                           ",
"                                      a m L / ) ) E K B m                                     : d p 9                           ",
"                                    p S Y } +.#.#.@.) J m j                                     9 p h <                         ",
"                                  t C I } #.=.=.-.-.@.W K v                                     4 j x 4                         ",
"                                4 k P _ @.=.-.-.-.-.=.) G v                                     2 x M 9                         ",
"                                9 C ! ..=.-.-.-.-.-.%.) H v                                     1 x M 9 y                       ",
"                              ; j P | #.-.-.-.-.-.=.@.) G v                                     < x N p <                       ",
"                              8 ! #.=.-.-.-.-.-.-.-.X.T G k                                     3 x J p <                       ",
"                            q ! O.&.=.-.-.-.-.-.-.-.] J N a                                     8 M J p <                       ",
"                          ; m ~ @.+.&.*.#.#.$.-.-.&. .B v                                     4 x x L p <                       ",
"                          8 ^ { [ X.X...| ..#.=.=.+.) m a                                 = , 4 i M T u <                       ",
"                        + f ^ _ / ] ` _ { #.$.=.*...m k                           :         @ 3 D J T 9 *                       ",
"                        3 Q K K ]  .} ..#.#.#.X.L k b                                       < 9 v T K 9 *                       ",
"                      . f Z n R +...+.+. .` / h a                                           8 a m ) N 5                         ",
"                      % g a N  .$.X.E / q V 7                                             < u S T ) x 2                         ",
"                      1 s h ) *. .Y p 4 * z                                             ; C a R  .R u 3                         ",
"                      ; S B  .+.J p 2     n                                     w       5 i m ) +.K 5 #                         ",
"                      ; b R @.) v r *     C                                   6 c ; ; 4 a m E @. .S <                           ",
"                        u [ +.K j l                               k m v N K ) ` B R M U U } #.] J b ;                           ",
"                        9 R O.U a 2         -                 k v S ..#.=.=.#.@.#.o.X.+.@.=.| K v b +                           ",
"                      2 9 T ) G k *                         j m G ) #.=.-.#.#.@.O.| .. .@.) N a s t                             ",
"                      * 9 K E v t 2                       j m G T @.-.-.=.#.O.| _ _ ] ' ` J v C g @                             ",
"                        4 J R n t %                       k G L ] =.-.-.=.*.@.@.X.X.] W ( F Q Z &                               ",
"                        5 n W n D % >                   a m J ' #.=.-.-.-.-.-.=.=.#...} { ^ g %                                 ",
"                        2 j R n r 0 X                   C G E X.=.-.-.-.-.-.-.-.=.&.O.O.I J @                                   ",
"                        ; u K N x ;                     v K / %.-.-.-.-.-.-.-.-.=.&.O.! M 4                                     ",
"                          8 N J x 1                     k G E @.-.-.-.-.-.*.#.{ ~ P k 2                                         ",
"                          2 h J n 3                     k B L  .%.=.=.=.*.+.[ ! S a 2                                           ",
"                          * 9 B M 8                     k m G E  .@.+.+...( I A i s                                             ",
"                            2 n n j <                     k S J L E / / Y H v u                                                 ",
"                            2 9 M x 8                     j k G N B N m v h                                                     ",
"                              2 h x p 2                       j k v v a                                                         ",
"                                4 h p b ;                                                                                       ",
"                                  8 j u 2                                                                                       ",
"                                  * 5 p 9 2                                                                                     ",
"                                    * 5 t 9 * O                                                                                 ",
"                                      e 2 t 8 4 #                                                                               ",
"                                          < 5 8 7                                                                               ",
"                                              < 5 5 2                                                                           ",
"                                                * * 2 2 2 *                                                                     ",
"                                                            * * %                                                               ",
"                                                                                                                                ",
"                                                                                                                                ",
"                                                                                                                                ",
"                                                                                                                                ",
"                                                                                                                                ",
"                                                                                                                                "
};
