/* XPM */
static char *floor21697626423[] = {
/* columns rows colors chars-per-pixel */
"64 64 22 1 ",
"  c #1E0807",
". c #250B0A",
"X c #2A0E0C",
"o c #2E100E",
"O c #30120F",
"+ c #2F1210",
"@ c #341412",
"# c #381714",
"$ c #371815",
"% c #3B1916",
"& c #3E1B19",
"* c #421E1B",
"= c #45201D",
"- c #48221F",
"; c #472320",
": c #4D2522",
"> c #4F2825",
", c #502724",
"< c #512926",
"1 c #552D29",
"2 c #582F2B",
"3 c #5B322E",
/* pixels */
"%&O&1;O%:-,*@@#-=::<1#*=-:<333::1:%@&%X:1*O*---*OO**-::<,#==::13",
"##X%**o#-:*O%*%->:,1:*::::333331@@.@##X**#o*:-*O***:,,,1=;::-<33",
".X#:,:*@X#O%*-**%%%#X::::::322:*&;*&XX*:,:*oO@@**:**%%%O%:::::<3",
"* &:,,-%.#*-,:-,&%:*+1332:#*:-*2<<**#.*::,*O.**-,:=-#*:#%233<:#:",
"#.X#*-%o.O*,,,:<&;>:*=233;@@#@@,2,*&+.O&**#X.#-,:,,,%,,,*:332%#@",
".X.@##%%%O%*:12:@&>-:.&-;#@&@@#,<2*X.X.@###*#O*=,12=O*,-*.*:=#@%",
"@X-:**%****=*%%%o@==*o.X#XX%*#:2-*#@@O::*********#%#X#-*&..o@X@%",
"@%::,;**=****#,3-.o#$XoO#%O@@*232<2-O*,::=*=***=*#<3#.@##.X#%#o@",
".o11-*====*==@%*$#><>ooo#@Xoo%<3331%.#2<:&*==*==*o%=@&<<=XX@#@XX",
".o#2,<--=**=*OXo>3333>$OooXooO##&#@. @*<,::-****%#.+23333*#@XoXo",
"oOO#11--*===@*X*13332:&*@o-3>>%X.X@@@@@*2<:**-=*#&+;23332**&@@<3",
"=*%O=3<=--,,=*o-13332>>:$:32131=X*;**%#@:3:-;:::=*$:2333<<::@123",
"#**#o%==-,1,*#O%1333333-$->3332-+;**&**%#&==::1-&@O*3333332*o:<3",
"%&==*##&*1,%OOOO&133333-oO=2331=2;**&&**%@%&-1:#Ooo#=133332&X@:2",
"*-:::%=>#OOO%*@OO&-><<-Oooo#--*-2**&*;,::#::#@OO%%OO@&::1<*@XX+&",
"*-<<:#<3=XX--:**&<=#%Oooo&&%@O=23<***,,1*&13$.o:,-***<&##@@X+**#",
"*-<<%oo&@X*,<,:***<3:..X&==---:313<;*,1;#.#%OX:<<::**=13*..O*===",
"-13&OooooX:331,;*-,3*%X.@==-:::<333::22#@X@XOX133,:-==13&#..%=--",
"23=#%-:=@o#,2,::::***:*%#@=::-=2333:23*o*::*@X*<1:,:--**=-*&O%=<",
"##o$33>:*<1*,:,,:::;<<:=#XX#*Oo@22:#@#+:31,,*2>*,:,<=<*<<:-=#.o%",
"...@1::<<33%%=;<=oO<33<:o.X@%O..X@@o...*1::1133O*=-<%oO3311=X.X#",
"+X..#:<3333*X#o.#O#=333%..O%-1%X=;*@oX..&:13333#X#O.%O#-333O..O*",
"@*::&#:<32:##o.@*&*#**%XXX.o=-:O2:#@@;::@&:232*#OX.#***#=&#oO.oO",
"*::::+o@OO%=*#o@==**@.+%====##O.o%@#*::::.@@@O&-%#X*=***o.O%===%",
":;:,:X.O@*1,:#..&==##*====*****@..*:,*,,-.X@@:1:-O.o===#%*===*=*",
";;,<##:,%*3:&##.oOO#-:==**==****@o*:*:,:#%::#>3-$@o.o#O#-:==**==",
"%;1#%:,33-.#*:==#o#-:>>-=**=**=***@##<:@*:231%.#-<==Oo%><:-==***",
"#oo.#:;23;o-<1::>=#>>1>::=****=-#O**@Oo.*-:33&O:11->>%=><2<,,***",
":%%#X*,,=&O;23<3<&O-333>1-===*#@@@1:-%#@#=:,*%@>33<3-%#-332-1=*=",
"<*##XXXXO#O@*,13<o.o<332,#21,O#-3:<2:*#@XXoX@@O@->33=o.$2332-*2,",
",&O**#..o@#XX@%*$oo.o=-=%%,-=@-:::#:;#@**@..o@@.oO%=ooo.@--*#*,=",
"..*,,,-@O%##.....O#oX-;-=#=OoO--;:@X..::,;*X#%%@....oOOo%---*#*O",
".X:33<-*X@#XO**.@@#@:31:;*;%oo****%#.@132,**X@#X#*#X@@@@<3<;*==#",
"##3333;1#...=-*,%@@.$:<*:22$.o%&%*;*o*3332<1X..@=-*:#@o.*,<=,3<.",
";#,331:<#;-X*::3:X...X##:<&X.:21<:::&&133<,,%-*X;:<3-....X#*::%.",
"=@%*23:*#*-:o*-*&%<2#..@%%..X:3331<:*@%:22:@%*,*@;:*%*11oX.@%#.X",
"##O:31*#=-,-OO#*&;;,<@@*;,*:::,132<*@#@131%*-:,*@X#%*-:,-@%=::*:",
"%%o@=%+%:;:##%#-:::12%:**:23332:*$+#%%X%*#o*,*,@#&*:::,2>=-==<33",
"@@X;::@O*-##*=**::::@;::::23333,#*@X@@@;:*O@*-@#***-:::;$::::<33",
"X.*:::=#.O#&--==#@&@o,11<:*121=*;:**X.-:,:-o.@#*-:**@#%X%<1<::;1",
"*.#*::*#.@*:::-,&*,;@,333:##*&%22:*=@.%*,:*@.**:::::#::*%3333=@%",
"X.XX###XXo=:,,,1&*:,:@<31%@#@@@:2:;@XXX@##@XXO-:,,<<#;,:&#33>##%",
"XX@&&&&**##*-<<*X%:*;.o%&#X&#@*,:,&XXX#&%*%**#**:<>%X*:;&.@%%@@#",
"@#;,:******=*#*<&o&**+.X##X#%*12<;:*@%:,********&#;:@o*&%..+#@O#",
"@#,,:***==*=*#;<;X@#@.X@%#X+@%33213;o*::,****-***@:2#X@$@.X#%@XO",
".X,2:**;***=*@@@&*332%X@@@.X.#-111;o.O11:*;--****@+@*>33<@X@@@.X",
".XO-<<<:-***#%X+233321%#+o@:*&XXXX. .O#:1:,*****#%.%33333;%@oo&:",
"%#@@12,***::**+:,233<**:$#23<2:@.@=;&@@%22-**,:-&&#:<333:&:=@&23",
"***@%1<*:,,:;*X*1333331:#>21332:@-****&o*1:=,:,:*&@-333333<-O213",
"%%**@O&*;11;%@O#:333333-#%-3331-=-**%&*&O#**:11*%XO%1333333=o*<3",
"%*--:$@%#**oO@@@#=13331&oo%>22:%2*=&%*::-###%=*OOO@@%:3333>#.o*:",
"*::,:%<2*OX#**#@#%*%===O.@oo###22;&&=:::-%13#X.&=*@#@&&&==&o.#.#",
"*-:1;@=1*.#:,,-**<--&X.oO==**#-322:*=::1&#:<$.&:,:-**<:=#..o%==%",
"*:2=$..oXo:22<,***13-o.o%===<--<232;*11&# .oXo122,;=**13=XXo===-",
":32*O%&%@o*23<,:-:=3&=O.O==>--<2333,131%O%&#@X:33,:::*11%=.oO*-<",
"1<%@:<::%&*;1,:,-<-%---=$O#=-*%<332;<>@%<<>=$&*><::,-,&*--==#o*=",
"oX.$31::*23&=:,2-*&<11>-#..@#XX.--*OX..:3<>--31%-,<2=*%13<:=O..O",
"...X;::2333%@%&$OOO1333-X.o%**X.X#@X...@:>>3333OO%%#OOO2332*..@*",
"@@##@*<3322&oo.X%%#%111o..o#*2-X<:*@O###o-13331#OO.o*#@*11<o..O%",
"@;,,;@&*:;%&%@X@=***#Ooo%###%**X;-#@%:::*@*---$&#OX%*=*%@OoO%###",
":,:,,@X@##*::#o+==**OO***=***&#.XX#*::,:-.oOO&-<=@o%*=**OO*====&",
":*:,*+@%@*3,=#..%**O*-===*******XX;::*,:=o##O<3-=O..***O=====**=",
"*:1:%*,2:*;***&@.XO*-,-=**==***&#%%=*<1*&=<2--=&*=%O.OO=-,-==*=*",
"O%&o%=:33<X*;:;;-&#:,,,,-=****-;&#o@@&&X==133=X=-,---#=::,<--***"
};
