/* XPM */
static char *front11697913299[] = {
/* columns rows colors chars-per-pixel */
"64 64 239 2 ",
"   c None",
".  c #010101",
"X  c #0A0502",
"o  c #0E0904",
"O  c #020409",
"+  c #130C05",
"@  c #150603",
"#  c #1A1104",
"$  c #1C1309",
"%  c #110C16",
"&  c #0E111F",
"*  c #2C0309",
"=  c #350201",
"-  c #22160B",
";  c #261A0C",
":  c #2B1C0D",
">  c #241703",
",  c #331809",
"<  c #2C1E11",
"1  c #3B101C",
"2  c #33210F",
"3  c #322703",
"4  c #332212",
"5  c #3A2612",
"6  c #3F2914",
"7  c #2F2011",
"8  c #1A1727",
"9  c #2F1424",
"0  c #352C25",
"q  c #3A3732",
"w  c #4D0208",
"e  c #5A1209",
"r  c #4A0811",
"t  c #491212",
"y  c #640102",
"u  c #6B0403",
"i  c #7D0000",
"p  c #780B00",
"a  c #681806",
"s  c #7D180E",
"d  c #472802",
"f  c #533205",
"g  c #573305",
"h  c #442D15",
"j  c #482E17",
"k  c #4B3117",
"l  c #4D3319",
"z  c #463019",
"x  c #52361A",
"c  c #55391C",
"v  c #5C3D1C",
"b  c #563714",
"n  c #5F2200",
"m  c #642300",
"M  c #712300",
"N  c #623A03",
"B  c #613F1E",
"V  c #773A1A",
"C  c #493723",
"Z  c #5C3F22",
"A  c #563D23",
"S  c #49383A",
"D  c #743523",
"F  c #6C392E",
"G  c #57440E",
"H  c #684103",
"J  c #754B03",
"K  c #7C5605",
"L  c #62411F",
"P  c #6B431B",
"I  c #754A17",
"U  c #7A5A1A",
"Y  c #4D453C",
"T  c #5A4935",
"R  c #644323",
"E  c #6A4521",
"W  c #6D4923",
"Q  c #65472A",
"!  c #734C24",
"~  c #774F27",
"^  c #7C5127",
"/  c #77512A",
"(  c #7C542B",
")  c #644E35",
"_  c #7C5934",
"`  c #775738",
"'  c #6E5133",
"]  c #323F45",
"[  c #3C4344",
"{  c #4E4749",
"}  c #6A5946",
"|  c #6B5C4C",
" . c #71624F",
".. c #820100",
"X. c #810B00",
"o. c #930100",
"O. c #9C0400",
"+. c #831106",
"@. c #961A10",
"#. c #A90600",
"$. c #B70200",
"%. c #BC1702",
"&. c #952417",
"*. c #923126",
"=. c #A12C21",
"-. c #DA0000",
";. c #C31C05",
":. c #FE0000",
">. c #F40000",
",. c #F51004",
"<. c #CE240B",
"1. c #EB2E07",
"2. c #855705",
"3. c #9C5112",
"4. c #B1570F",
"5. c #9A6B06",
"6. c #957408",
"7. c #A77A08",
"8. c #A87212",
"9. c #81552A",
"0. c #865A2D",
"q. c #8B5C2D",
"w. c #835627",
"e. c #915E2A",
"r. c #8C5E32",
"t. c #835B34",
"y. c #935A31",
"u. c #8E4D30",
"i. c #AF4C23",
"p. c #95622F",
"a. c #9A652B",
"s. c #8D6236",
"d. c #946333",
"f. c #9A6632",
"g. c #9E6A35",
"h. c #96683A",
"j. c #9B693A",
"k. c #A46C35",
"l. c #A36F3B",
"z. c #AB733B",
"x. c #A6743D",
"c. c #B2773C",
"v. c #BB673D",
"b. c #D3720D",
"n. c #C67237",
"m. c #FD5707",
"M. c #88694A",
"N. c #97724B",
"B. c #896C4F",
"V. c #AB7743",
"C. c #AD7944",
"Z. c #A77A4E",
"A. c #A77649",
"S. c #B37B43",
"D. c #B97F44",
"F. c #B47D49",
"G. c #A97E53",
"H. c #B66C42",
"J. c #C5734A",
"K. c #B48709",
"L. c #B48E0F",
"P. c #C59B0C",
"I. c #C39F18",
"U. c #EB920C",
"Y. c #D4A90D",
"T. c #CBA311",
"R. c #E0B70F",
"E. c #BE8144",
"W. c #BB834B",
"Q. c #B7824C",
"!. c #B58453",
"~. c #B4895D",
"^. c #BD8957",
"/. c #A88058",
"(. c #9D866F",
"). c #A98967",
"_. c #B78A62",
"`. c #BB9369",
"'. c #B7997B",
"]. c #AA8F74",
"[. c #C1864A",
"{. c #C6894C",
"}. c #C48C55",
"|. c #C68E56",
" X c #CB9156",
".X c #CB945D",
"XX c #C6925E",
"oX c #D39359",
"OX c #D98E68",
"+X c #CA9B6B",
"@X c #C79664",
"#X c #D29B64",
"$X c #D39B66",
"%X c #C79D73",
"&X c #D99A75",
"*X c #CF8561",
"=X c #CBA37A",
"-X c #D4A473",
";X c #D4A57B",
":X c #D6AA7D",
">X c #DAAC7C",
",X c #DBA875",
"<X c #D7A36E",
"1X c #E2A873",
"2X c #A69582",
"3X c #B39B83",
"4X c #B9A28A",
"5X c #BEA994",
"6X c #D4AC84",
"7X c #D9AE81",
"8X c #D3AC8A",
"9X c #DCB187",
"0X c #DBB48B",
"qX c #D6B08A",
"wX c #C5AC93",
"eX c #CFB294",
"rX c #D4B494",
"tX c #DBB691",
"yX c #DEBA94",
"uX c #DFBC99",
"iX c #D6B99A",
"pX c #C8AA8A",
"aX c #E5B688",
"sX c #E3BC94",
"dX c #E1BE9A",
"fX c #D2BDA8",
"gX c #DFC09F",
"hX c #E4C09C",
"jX c #F3C89A",
"kX c #DCC3A8",
"lX c #E4C4A4",
"zX c #E3C7A8",
"xX c #E5C9AC",
"cX c #E9CBAC",
"vX c #FAD3A6",
"bX c #E7CDB2",
"nX c #E8CFB5",
"mX c #E9D0B6",
"MX c #EAD2B9",
/* pixels */
"                                                ] [ T r.e.e.e.e.e.e.e.a.w.) { [                                                 ",
"                                                 . . .Z.Z.Z.Z.Z.Z.Z.Z.Z.Z. .| |                                                 ",
"                                        q.p.c.{._.'.pXrXrXrXrXrXeXrXrXrXrX4X]./.s.' [ [                                         ",
"                                        x.C.^.@X>XsXzXnXMXMXmXMXmXmXmXmXbXzXtX=X/.B. .|                                         ",
"                                e.g.c.}.@X=XqXuXlXcXxXmXMXmXmXmXmXmXmXmXmXbXxXgXrXpX'.).j.^ L v                                 ",
"                              _ f.z.|.<X9XgXxXmXmXmXnXmXmXmXnXnXmXmXmXbXbXmXMXMXMXcXhX-X!.h.^ L L                               ",
"                            [ } z.XX6XhXzXxXbXmXmXmXnXnXnXnXnXnXmXbXmXmXmXbXbXMXMXmXxXgX=X_.h.^ P v                             ",
"                            T  .!.-XlXMXmXmXnXnXmXbXnXnXnXnXnXnXmXmXmXbXmXmXmXbXbXMXbXxXuX-XQ.p.W v                             ",
"                            _ N.+X0XzXmXmXmXnXnXnXnXnXnXnXnXnXnXmXmXbXmXnXnXnXnXnXnXnXzXyX:X}.x./ v                             ",
"                          t.k.!.6XgXbXnXnXmXnXnXnXnXnXnXnXnXnXnXbXmXnXmXnXnXnXnXnXnXnXzXyX>X#XQ.r.E L                           ",
"                        { _ c.@XuXbXmXbXnXnXnXnXnXnXnXnXnXnXnXnXnXnXnXnXnXnXnXnXnXMXnXzXyX9X>X+XA.^ W v                         ",
"                      Y Y  .^.>XlXMXmXmXnXnXnXnXnXnXnXnXnXnXnXnXnXnXnXnXnXnXnXnXnXnXnXzXyX0X0X:X!.f.! v v                       ",
"                      C Q M.%XtXxXMXmXmXnXnXnXnXnXnXnXnXnXnXnXnXmXbXnXnXnXnXnXnXnXnXmXzXtX0X0X6X.Xz.w.L c                       ",
"                        W N.=XhXzXbXbXmXnXnXnXnXnXnXnXnXnXnXmXnXnXmXnXnXnXnXnXnXnXnXxXlX0X0X0X>X#XD.0.L                         ",
"                        q./.:XyXtXhXbXnXnXnXnXnXnXnXnXnXnXnXnXnXnXnXmXnXnXmXnXMXnXzXuX0X0X0XtX>X#XD.0.R                         ",
"                        p.Q.%X:X:X0XkXnXnXnXbXxXzXzXbXnXmXnXnXnXnXnXnXmXnXxXxXxXzXgXtXqX0X0X>X-X.XE.0.v                         ",
"                        f.z.|. X X-XhXmXmXxXlXyXtXsXlXxXmXmXnXnXbXmXmXmXbXlXsXtXyXtX0X0XqX>X#X X{.c.q.L                         ",
"                        q.k.E.{. X-XhXmXMXbXgXyX0X0XhXzXbXmXnXnXmXmXbXlXhXtX0XtX0XyXyXyXtX>X#X X XE.q.R                         ",
"                        W d.D.oX<X0XzXmXmXmXbXzXuX0X0XyXlXbXmXnXmXmXzX6X$X:X0XuXxXxXxXhXtX9X6X-X.XE.q.R                         ",
"                        k ! z.|.-X0XxXMXMXmXmXxXsX:X=X-X6XgXbXmXmXbXuX@XE..X:XsXcXbXbXlXyX9X>X<X.Xz.! k                         ",
"                        $ k d.c.|.-XlXMXMXMXcXsX,X.XQ.V._.6XhXbXxXlX6X!.l.S..X,XsXhXhXyXtX9X$X}.c.d.l $                         ",
"                        . 2 ! f.c.}.=XwX4X3X].)./.x.k.g.!.=XhXlXzXuX=X!.k.k.c./.).).).).`.`.^.c.f.! 2 .                         ",
"                        . ; v w.d.j.s.} S q 0 6 L / d.c..X:X0XuXyXtX>XXXc.d.~ A 0 0 6 C ' s.f.p.^ v : X                         ",
"                      . . - l ! q.^ b 2 o . . . $ z ( E.#X>X0X0X0X0X>X#XE.w.z $ . . O o , c w.w.! l - . .                       ",
"                      . . ; l ! q.I 4 X . . . . . $ R S.oX9X0X9X0X0X>X#XS.R $ . . . . . X 2 ! q.! x ; . .                       ",
"                        . : c ^ p.^ 5 o . . . . . X A !.<X9X0X0X0X0X>X<X!.L X . . . . . o 5 ( p.^ c : .                         ",
"                          h v ( z.g.R 2 + . . . . O T +X9X9X0X9X9X0X9XaX`.) O . . . . + 4 R g.z.( v h                           ",
"                            z / S.S.0.x $ . . . . $ } =XsXyXyXuXuXtXyXsX=X} $ . . . . - x 0.S.S.~ k                             ",
"                            $ x z.E.g.P - . . . # z M.=XhXzXxXzXxXxXzXhXpXM.z $ . . . - P g.E.V.c $                             ",
"                            . 5 d.C.z.q.c 7 - : k / /.qXcXmXMXMXmXMXbXzX6X/.^ k : - 4 c r.z.z.r.4 .                             ",
"                            . - v r.c.S.x.d.^ ! q.C.+XgXbXMXMXMXMXMXmXmXgX+Xc.q.! ^ d.z.S.z.d.v - .                             ",
"                          X + : z ~ l.E.[.E.z.z.E..X9XxXfX4XwXkXkX5X4XkXxX9X.XQ.z.c.c.[.[.l.~ z : + X                           ",
"                        . $ 5 k x E d.k.k.z.c.[..X:XhXxX].{ | wX5X| Y ].bXhX>X@XW.c.z.z.k.q.W x j h # .                         ",
"                      7 4 c ' _ / ^ ( ^ ! ! d.S.+X9XhXgX(.Y } 4X4X| Y (.iXhX9X+XS.p.! ! ^ w.^ / _ ' l 4 4                       ",
"                    L / h.Z.`._.S.f.^ v 2 : x ( ~.6X>X$X'.3X'.%X+X'.3X+X#X,X6X~._ x : 2 b / f.F.~.`.G.d.! v                     ",
"                  W ( l..X,XyXaX-X!.( k - # : C N.=X.Xc.`.qX:X!.!.6XtX`.S.`.-XN.c ; # - l ( !.<XaXtX>X.XA.( !                   ",
"                W d.C.XX>XsXzXbXlX=X` c k 5 > ; / ^.V.( h.}.!.s.s.!.XXh.( A.^._ ; $ 5 k c t.'.zXbXcXsX>XXXS.r.W                 ",
"              5 x ( A.}.=X6XsXuXrX].` v L v $ + L x.g.( h.^.Q.0.t.Q.W.h.( g.l.L + > v R v ` ].eXuXsX6X%X}.V.( x h               ",
"              + # k / h.V.^.#X~.B.` Q R ^ W : o z p.x.c.^.-X+X!.Q.+X-X^.z.z.p.k o : ! ^ R Q ` N.~.#X^.V.s./ k - o               ",
"              $ ; h x B E 9.q.^ x j L ! p.d.Q C Q f.l.c.^.`._.Q.Q._.`.!.c.z.g.Q 0 Q p.p.^ v j l / d.^ W B A 5 $ +               ",
"              ! P R c 5 - - : - + : E y.c.W._.).^.F.g.( / _ _ / / _ _ / ( g.Q.^.).~.W.c.d.E < @ - : - - 5 x x k h               ",
"              i.i.e.U G 3 > # > : h B / s.Z._._.!.x.w.L b b b b b b b b L ( x.!._._.A.s./ Z j < # # > 3 G U U L                 ",
"              ,.1.b.T.L.6.2.H I h._ 6 < 0 S F D D I H g f f f f f f f f g H V V D F S 0 < h t.h.I H K 6.L.T.T.                  ",
"              :.,.m.U.U.b.5.3.4.n.i.< O & 9 r y u m M M m m n n n n m m M M a a y r 9 & . < y.n.8.8.K.Y.Y.T.L.                  ",
"              :.:.,.1.1.<.;.%.;.<.@.* X * r y i o.#.#.#.#.+.i +.p p p O.#.%.#.o.i y w * X - H 8.7.P.Y.R.K.2.H g                 ",
"                :.:.:.,.-.-.-.-.-.O.= X * w y i O.$.-.#.O...u u u u i #.$.$.$.O.i y w * X # f 2.5.K.P.T.7.J N N N               ",
"                  :.:.:.>.>.>.:.>.$.= O 8 9 r y i o.o.o...y w 1 9 r i i o.o.o.i y r 9 8 O # d N H J 2.8.7.7.2.2.J               ",
"                    :.:.:.:.:.:.:.#.= O & 8 1 a s &.&.*.*.*.F { { F *.*.=.&.&.s e 1 8 & O @ d N H J 2.5.7.K.5.2.J               ",
"                                    @ . O % 1 D y.v.J.*XOX7X8XwXwX8X7X&X*XJ.J.u.F t % . . # g 2.5.K.P.Y.L.5.J N N               ",
"                                    . . X > j u.H.#X1XaXsXvXvXvXvXvXjXsXaX1XoXC.9.k - X . # f J 5.K.P.P.L.a.I d d               ",
"                                        5 l W r.F.;XaXaXsXsXsXsXsXsXsXsXaXaX;X!.y.E k 5     + , f J J 2.c.XXt.7 X               ",
"                                        ! ( d.A.%XtXdXyXyXsXdXyXsXsXyXyXsXsX0X%XA.s.( (     X X > d g I W.&XB.% .               ",
"                                    p.f.z.S.^.=XtXzXxXxXxXxXxXxXxXbXxXxXzXxXzXrX=X^.F.z.f.q.    . - E H.oXoX_ $ .               ",
"                                    e.g.E.#X7XdXxXnXMXmXkXiXtXdXhXrXiXzXMXMXnXzXdX>X@XE.k.p.      $ Q j.H.l.Z $                 ",
"                                    p.l._.9XhXxXbXnXMXnXeX~.F.@X@XG.G.rXnXMXnXnXxXhX9XXXl.e.        < 4 7 7 <                   ",
"                                    w.h.^.9XdXxXbXnXnXxXpXV.f.d.f.f.H.pXzXmXnXnXxXdX9X^.h.w.          . . .                     ",
"                                    E ( F.@X>XdXzXbXxXdX-X}.q.l k y.[.;XuXxXbXxXdX>X#XC.( E                                     ",
"                                    5 v q.F.@X>XuXlXuX>X#X{.9.- - 9.[.#X:XuXlXuX:X.XS.q.A h                                     ",
"                                    + < c 0.V..X>X0X>X.X[.z.W $ $ W z.[..X>X0X:X.XV.0.c ; +                                     ",
"                                    . o : c d.{.>XaX,X Xz./ k $ $ x ^ z. X>XaX,X|.d.c : X .                                     ",
"                                        X 7 9.oXaXjXaXoXs.5 $     $ 5 r.oXaXjXaXoX9.7 X                                         ",
"                                        . + D H.OX1XOXJ.D @ .     . $ D J.OX1XOXH.B @ .                                         ",
"                                        . X e &.=.=.=.&.e @ .     . @ e &.=.=.=.&.e @ .                                         ",
"                                        $ , a +.+.+.+.+.e , :     : , e +...i o.i w @ .                                         "
};
