/* XPM */
static char *tile0021697913299[] = {
/* columns rows colors chars-per-pixel */
"64 64 239 2 ",
"   c None",
".  c #010100",
"X  c #0B0402",
"o  c #0D0804",
"O  c #010108",
"+  c #130C05",
"@  c #180606",
"#  c #1A1106",
"$  c #1D130A",
"%  c #0F0C18",
"&  c #2D0503",
"*  c #22160B",
"=  c #24190C",
"-  c #2A1C0D",
";  c #221802",
":  c #291A13",
">  c #341011",
",  c #32210F",
"<  c #372803",
"1  c #332211",
"2  c #3B2712",
"3  c #3D2913",
"4  c #2F2702",
"5  c #271625",
"6  c #311425",
"7  c #352C24",
"8  c #322E30",
"9  c #191728",
"0  c #480408",
"q  c #560409",
"w  c #4C0F11",
"e  c #640102",
"r  c #6A0605",
"t  c #7D0000",
"y  c #770803",
"u  c #6B1A06",
"i  c #741512",
"p  c #492B04",
"a  c #5A2704",
"s  c #533105",
"d  c #5C3704",
"f  c #442D15",
"g  c #482F15",
"h  c #492C18",
"j  c #4A3116",
"k  c #4D3319",
"l  c #52361A",
"z  c #55391B",
"x  c #5B3C1D",
"c  c #583914",
"v  c #4E2E12",
"b  c #652300",
"n  c #712300",
"m  c #643E09",
"M  c #623B18",
"N  c #773B1A",
"B  c #4B1725",
"V  c #493624",
"C  c #573923",
"Z  c #503531",
"A  c #67352B",
"S  c #74342B",
"D  c #5D401E",
"F  c #6C4407",
"G  c #64421F",
"H  c #6E4313",
"J  c #765207",
"K  c #5E4226",
"L  c #4D453B",
"P  c #564A3A",
"I  c #634222",
"U  c #6A4622",
"Y  c #6D4924",
"T  c #69492A",
"R  c #744D25",
"E  c #774B27",
"W  c #7C5126",
"Q  c #76522C",
"!  c #7C532A",
"~  c #775027",
"^  c #684C34",
"/  c #6B533B",
"(  c #7B5835",
")  c #775736",
"_  c #7D4D32",
"`  c #3B4244",
"'  c #424544",
"]  c #554949",
"[  c #66594A",
"{  c #6B5D4D",
"}  c #6B6255",
"|  c #7A664E",
" . c #820000",
".. c #810B00",
"X. c #930100",
"o. c #9D0602",
"O. c #8E1B11",
"+. c #A90600",
"@. c #BC0000",
"#. c #B40600",
"$. c #982518",
"%. c #882915",
"&. c #893326",
"*. c #A03303",
"=. c #C90304",
"-. c #D60402",
";. c #C81505",
":. c #ED0000",
">. c #FF0000",
",. c #F70000",
"<. c #D42E05",
"1. c #835706",
"2. c #845616",
"3. c #9A6807",
"4. c #916E07",
"5. c #A57608",
"6. c #AA7C0F",
"7. c #82562A",
"8. c #8A5B2D",
"9. c #855829",
"0. c #915D29",
"q. c #875D32",
"w. c #8C5030",
"e. c #94622F",
"r. c #986428",
"t. c #8E6133",
"y. c #86623D",
"u. c #936332",
"i. c #9A6632",
"p. c #9D6934",
"a. c #96683B",
"s. c #8D6126",
"d. c #A36C35",
"f. c #A36D3B",
"g. c #AB733B",
"h. c #A7713A",
"j. c #B1763C",
"k. c #B3793E",
"l. c #B07337",
"z. c #B9653C",
"x. c #A8542A",
"c. c #D47425",
"v. c #8C6B48",
"b. c #956E46",
"n. c #9A744D",
"m. c #846C51",
"M. c #A57442",
"N. c #AB7742",
"B. c #AC7945",
"V. c #A77A4D",
"C. c #A7794D",
"Z. c #B37B43",
"A. c #BA7F44",
"S. c #B47C49",
"D. c #A97E53",
"F. c #AC6F40",
"G. c #C97449",
"H. c #AB870A",
"J. c #B68C0F",
"K. c #B6812A",
"L. c #CA940F",
"P. c #D3A70D",
"I. c #CFA316",
"U. c #BD8145",
"Y. c #B5814D",
"T. c #BB834B",
"R. c #AB8257",
"E. c #B58453",
"W. c #BA8652",
"Q. c #BE8954",
"!. c #B5895C",
"~. c #B98A5C",
"^. c #9C8A76",
"/. c #A88866",
"(. c #BB8C63",
"). c #B58961",
"_. c #BB9269",
"`. c #B89A79",
"'. c #A78E74",
"]. c #C58649",
"[. c #C48C53",
"{. c #C38E58",
"}. c #CC9156",
"|. c #CC945B",
" X c #C7925C",
".X c #D1975C",
"XX c #D38E50",
"oX c #CA9B6C",
"OX c #C99765",
"+X c #D39C64",
"@X c #D39E6A",
"#X c #CB9E71",
"$X c #C29A72",
"%X c #D28C69",
"&X c #D5A26E",
"*X c #C9A27A",
"=X c #D4A473",
"-X c #D3A47C",
";X c #D6A97C",
":X c #DAAB7C",
">X c #D8A572",
",X c #E6AF7F",
"<X c #B59C82",
"1X c #AA9885",
"2X c #BAA28B",
"3X c #BDA894",
"4X c #C7A785",
"5X c #D4AC83",
"6X c #D9AE81",
"7X c #D2AC89",
"8X c #DBB186",
"9X c #DCB48B",
"0X c #D6B089",
"qX c #C7AD93",
"wX c #CFB294",
"eX c #D3B393",
"rX c #DEBA94",
"tX c #DEBD9B",
"yX c #DDB791",
"uX c #E0B589",
"iX c #E1BB94",
"pX c #E1BE9A",
"aX c #ECBC91",
"sX c #D2BDA8",
"dX c #E4C09C",
"fX c #E8C299",
"gX c #F3C89D",
"hX c #DDC3A9",
"jX c #E4C4A3",
"kX c #E4C7A8",
"lX c #E6C9AC",
"zX c #EACBAC",
"xX c #E9C7A6",
"cX c #FBD6AA",
"vX c #E7CDB1",
"bX c #E8CFB5",
"nX c #E9D0B6",
"mX c #EAD2B9",
"MX c #F9D3AA",
/* pixels */
"                                                                                                                                ",
"                                                                                                                                ",
"                                                            L P 9.0.0.8.0.0.0.0.r.9.^ `                                         ",
"                                                          } } m.C.V.V.V.C.V.V.V.R.n.| { {                                       ",
"                                                    e.l.].(.`.2XeXeXeXeXeXeXeXeXeXeX4X`.R.u.^ ' `                               ",
"                                                  N.N.Q.+X:XiXkXnXmXmXnXnXmXmXmXmXnXkXrX*XR.v.} {                               ",
"                                          0.i.k.[.OX*X0XtXkXkXvXnXnXnXnXnXnXnXnXnXnXnXlXtXeX4X`./.f.( P `                       ",
"                                        9.i.N.[.@X8XiXzXbXmXbXbXbXnXbXbXnXnXnXnXbXbXbXnXmXmXzXtX-XR.y./ ] L                     ",
"                                      x W g.[.5XdXhXlXbXbXmXbXbXbXbXbXbXbXbXbXbXbXbXbXbXnXnXbXvXtX;X!.b./ P '                   ",
"                                      U q.T.>XjXmXnXmXbXbXbXbXbXbXbXbXbXbXbXbXbXbXbXbXbXbXbXnXnXkXdX*XY.t./ '                   ",
"                                      9.a.OX9XkXmXmXbXbXbXbXbXbXbXbXbXvXbXbXbXbXbXbXbXbXbXbXbXnXkXrX>X}.M.[ `                   ",
"                                    9.p.W.5XjXlXbXbXbXbXbXbXbXbXbXbXnXnXbXbXbXbXbXbXbXbXbXbXnXbXkXrX:X&XT.| P L                 ",
"                                  G 9.j.OXtXvXbXbXbXbXbXbXbXbXbXbXbXbXbXbXbXbXbXbXbXbXbXbXbXnXbXkXrX8X:X#Xn.! U D               ",
"                                  x q.Q.:XhXnXnXbXbXbXbXbXbXbXbXbXbXbXbXbXbXbXbXbXbXbXbXbXbXnXbXkXrX9XyX;X!.i.~ D D             ",
"                                  K y.#XiXkXbXbXbXbXbXbXbXbXbXbXbXbXbXbXbXbXbXbXbXbXbXbXbXbXmXbXkXrX9X9X;X|.j.7.I z             ",
"                                  Y n.*XiXkXvXbXbXbXbXbXbXmXbXbXbXbXbXbXbXbXbXbXbXbXbXbXmXbXvXlXjXyX9X9X6X+XU.8.G z             ",
"                                  8.V.5XyXyXdXlXbXbXbXbXbXbXmXbXbXbXbXbXbXbXbXbXbXbXmXbXmXbXkXdXyX9X9X9X:X&XU.8.D z             ",
"                                  u.S.#X;X;X0XkXbXmXbXvXlXkXkXlXbXbXbXbXbXbXbXbXbXbXvXlXkXlXdX9X8X9X9X;X&X.XU.9.G z             ",
"                                  e.g.[.}.}.&XtXbXmXvXjXrXrXtXjXvXmXbXbXbXbXbXbXmXbXkXrXrXrXyX0X9X9X;XoX}.].U.q.D z             ",
"                                  8.d.U.].}.=XdXbXbXvXjXrX9X0XtXkXvXbXmXbXbXbXvXkXtXyX0XyXyXrXrXrXyX;X+X}.}.U.8.G z             ",
"                                  Y e.U.|.&X9XkXmXmXbXzXkXtX9X9XtXhXzXbXbXbXmXkX6XoX>X9XpXxXlXlXjXyX8X;X=X.XU.q.G x             ",
"                                  f R g.}.=X9XkXmXmXmXnXkXrX6X=X*X;XhXzXvXbXbXtXOXU. X;XiXkXvXzXjXyX9X6X=X Xj.~ j 3             ",
"                                  # j 8.Z.[.>XjXmXmXnXxXiX:X.XT.B.!.5XdXzXvXjX5XW.d.Z.|.;XiXdXpXiXyX:X&X[.k.e.l $ o             ",
"                                  . , R i.g.Q.*XqX2X<X'./.R.N.f.p.Y.*XtXkXkXrX;XE.f.d.g.V././.'./.`.OXT.k.p.R , . .             ",
"                                  . - x W r.p.y.) L 7 7 7 C W r.k. X;XyXrXyXyX;X|.Z.r.Q C 7 7 1 V ^ y.i.u.7.x = . .             ",
"                                  . * k R 9.! x 1 o . . . $ f ! U.+X;X9X9X9X9X6X+XU.7.g * . . . + , c W 8.R l = . .             ",
"                                  . * k R 8.R , o . . . . . # G k.+X:X9X9X0X9X6X+XA.U $ . . . . . o , Y 8.R z = . .             ",
"                                  . - z W u.W 2 o . . . . . . C Y.&X8X9X9X9X9X8X>XE.K X . . . . . o , W e.W z - o               ",
"                                    3 C 7.g.f.I 1 + . . . . . P _.8X9X9X0X9X9X8XuX$X^ X . . . . + , I p.g.7.x f                 ",
"                                      g Y Z.Z.8.z * . . . . # [ *XiXrXrXiXrXrXyXiX*X[ = . . . . $ l 9.Z.Z.Q g                   ",
"                                      # z h.T.p.Y = . . . # g v.*XdXkXkXzXkXzXkXdX4Xv.k # . . . = G p.U.N.z #                   ",
"                                      . 1 t.j.g.8.x 1 * - g Q D.0XkXnXmXbXnXmXbXxXeXR.W k - = : z 8.h.k.t.3 .                   ",
"                                      . * x q.g.A.h.u.! R 8.N.oXpXnXmXmXbXmXmXmXnXjX$XN.0.E W u.h.Z.g.t.D - .                   ",
"                                    X + - k R h.U.].U.l.h.A.|.8XhXhX3X3XhXhX3X3XsXlXuX|.U.h.g.U.].].h.R j - + X                 ",
"                                  . # 2 j l U 8.d.d.f.k.].|.;XpXzX1XL [ 3XqX} L ^.lXdX:X|.].k.h.d.d.e.Y l j f $ .               ",
"                                1 1 V Q ( ! R 7.7.R R e.Z.OX8XpXtX^.L [ <X2X[ L ^.tXdX0XoXS.r.R R W 7.E ~ ( Q V 1 1             ",
"                              D R t.V._.(.Z.p.W x , - k ( ).5X:X&X$X<X<X#XoX`.<X_.@X:X5X).q.l - , x ! i.B.(._.V.u.Q D           ",
"                            ~ ! M.|.:X9XuX>XW.( g = # - k b.#XOXZ.(.9X5XW.E.5XyXOXZ.OX#Xn.z - + * j ! E.>XuXiX:X|.M.7.Y         ",
"                            h.g.{.;XiXkXbXxX<Xv.c g 2 ; = ) Q.N.! a.{.W.q.q.E.{.b.7.M.Q.) = * 2 j c ( `.xXzXkXiX:X XZ.t.Y       ",
"                            g.Y.~.=X0XiXtXeX'.) M G x * o x h.d.! a.T.Y.q.q.S.Q.a.! p.g.I o $ x G x ) '.wXtXdX0X=X(.N.7.l f     ",
"                            Y ~ t.M.Q.|.~.b.) K A 7.R : o j e.h.j.Q.=XoXY.Y.oX=X[.j.h.u.k o - Y W G I / v.!..X{.M.u.Q k * o     ",
"                            D D D U 7.t.! l g C E e.r.I V T i.h.j.E._._.S.S.(._.!.j.g.i.T Z K u.i.W D g k Q t.! U G z 2 $ +     ",
"                            K D 2 = = - $ + - I e.F.S.)./.!.A.p.! Q ( ( Q Q ( ( ! W p.U.)./.).S.j.i.Y , + $ = $ $ 2 l k j f     ",
"                            &.%.u & & & - 4 s W t.b.C.D.(.W.g.7.G k c c c c c c c D ! h.S.%XD.C.a.W D p 4 4 4 4 4 v D H x D     ",
"                            -.-.=.=.+.o.*.6.J.0.A L ' A S H G F d s s s s s s s s s F H N S A ' 8 : 3 J 4.J.J.H.3.1.J m d s     ",
"                              >.>.>.:.-.<.L.c.x.S B 6 0 e r u n n b u a u a a b b n n n r q 0 6 % O 4 1.L.P.P.P.J.6.5.J d s     ",
"                                >.>.:.-.-.<.<.;.o.i q q t X.+.#.+.o.y y y y y ..o.+.#.+.o.t e 0 & X # F 3.5.3.3.3.J.I.5.F p     ",
"                                  >.:.=.=.=.=.:.@.y q e t o.#.=.@.+...y e r r  .o.@.@.#.o.t r q & o # p m 1.3.3.5.L.I.6.F a     ",
"                                              ,.=.i 6 w e  .X.X.X. .r q 6 6 q e  .X.o.o.t r w 6 5     + < J J.P.P.J.r.w.N S     ",
"                                              >.=.B 9 6 w i O.$.$.&.&.S ] ] A &.&.$.$.$.n q B 5 8     O ; J H.P.I.l.w.T C C     ",
"                                                  @ % 9 Z ) z.G.%X%X5X7XwXwXeX5X%X%XG.z.w.M k V V         d F 2.r.g.F._ 1 +     ",
"                                                  + $ Z } /.&X,XaXgXMXMXMXMXcXcXgXaXuX@XD.q.Q W R           a v C w.a.S $       ",
"                                              a s f C m.`.wXpXxXvXxXfXaXiXgXzXmXmXzXxXpX0X`.~.Z.a.R x         * # : 1 :         ",
"                                              < p v T R.;XdXkXvXlXtX5X#X-X5XpXlXbXbXmXbXkXpX:X}.f.R x           . . O           ",
"                                              + $ 3 Y M.|.:XrXjXrX*XD.Z.].@X6XpXlXbXmXbXnXzX9X|.f.R x                           ",
"                                              . + 3 G r.U.|.=X:X;X(.t.0.h.].=XiXdXlXbXmXnXlX6X[.i.R z                           ",
"                                                  k G 7.d.U.}..X}.N.~ R s.B.#X9XrXtXkXbXzXpX#XN.8.U x                           ",
"                                                    G R 9.a.g.k.g.u.Y G R a.!.=X;X;X0XeX7X_.D.t.R I x                           ",
"                                                      G G R ~ ! ~ Y A D G R t.C.].[.Q.C.b.( Q T G                               ",
"                                                        x k f f f f f j x R 8.h.A.].l.w.G j j z x                               ",
"                                                          * + + + + + , C 7.h.].XX].f.S h * #                                   ",
"                                                            . . . . . @ B &.x.G.G.z.x.S > X .                                   ",
"                                                                  . . @ 0 i O.O.$.O.O.y 0 X .                                   ",
"                                                                    . @ & e y t  . . .t 0 X                                     "
};
