/* XPM */
static char *tile0031697913299[] = {
/* columns rows colors chars-per-pixel */
"64 64 248 2 ",
"   c None",
".  c #010000",
"X  c #0A0502",
"o  c #0E0904",
"O  c #09090B",
"+  c #130100",
"@  c #130C05",
"#  c #1A0E04",
"$  c #140B0A",
"%  c #1B120A",
"&  c #1B1107",
"*  c #060F1E",
"=  c #370604",
"-  c #26190C",
";  c #2C1C0E",
":  c #251808",
">  c #361B04",
",  c #3A0D1A",
"<  c #291D12",
"1  c #381915",
"2  c #37220B",
"3  c #2C2319",
"4  c #332311",
"5  c #3A2512",
"6  c #3A2919",
"7  c #14192D",
"8  c #27192B",
"9  c #321622",
"0  c #162039",
"q  c #342C25",
"w  c #392B35",
"e  c #322D2F",
"r  c #4A0506",
"t  c #5A0000",
"y  c #550708",
"u  c #49160E",
"i  c #54160D",
"p  c #650100",
"a  c #670504",
"s  c #740100",
"d  c #7F0000",
"f  c #701508",
"g  c #472A07",
"h  c #562B06",
"j  c #5A3304",
"k  c #593407",
"l  c #442D15",
"z  c #472514",
"x  c #4C3215",
"c  c #4C331B",
"v  c #433A11",
"b  c #533619",
"n  c #5B3C1C",
"m  c #533719",
"M  c #502B13",
"N  c #633B03",
"B  c #683B0A",
"V  c #683818",
"C  c #6E270E",
"Z  c #44372A",
"A  c #5A3B25",
"S  c #48302E",
"D  c #6B3D28",
"F  c #773A25",
"G  c #683D33",
"H  c #672E26",
"J  c #6C4303",
"K  c #6F4903",
"L  c #774906",
"P  c #7B5606",
"I  c #64421E",
"U  c #6B451E",
"Y  c #744616",
"T  c #735213",
"R  c #5B4126",
"E  c #584939",
"W  c #4E483E",
"Q  c #664421",
"!  c #6A4622",
"~  c #6D4923",
"^  c #694A2A",
"/  c #744D24",
"(  c #774B29",
")  c #7B5126",
"_  c #765029",
"`  c #7B532A",
"'  c #745127",
"]  c #654B33",
"[  c #775635",
"{  c #704C3D",
"}  c #373F42",
"|  c #374146",
" . c #4A4B47",
".. c #5F5242",
"X. c #725B45",
"o. c #786754",
"O. c #820000",
"+. c #8B0500",
"@. c #921205",
"#. c #B70000",
"$. c #AA0D00",
"%. c #952113",
"&. c #8B3604",
"*. c #B13005",
"=. c #C50100",
"-. c #D22C04",
";. c #874B08",
":. c #885804",
">. c #845818",
",. c #895318",
"<. c #8B6305",
"1. c #966805",
"2. c #9C7011",
"3. c #A57509",
"4. c #A97819",
"5. c #A76607",
"6. c #834D29",
"7. c #8D5D2C",
"8. c #865629",
"9. c #915E2B",
"0. c #925528",
"q. c #834B34",
"w. c #825C3B",
"e. c #8A5834",
"r. c #9A5C33",
"t. c #95622E",
"y. c #98652B",
"u. c #8E6033",
"i. c #85613C",
"p. c #8B643B",
"a. c #956433",
"s. c #9B6632",
"d. c #9D6934",
"f. c #9E6C3A",
"g. c #92673B",
"h. c #A36C35",
"j. c #A46E39",
"k. c #A96C39",
"l. c #B8663D",
"z. c #AB733B",
"x. c #A7723A",
"c. c #B2773C",
"v. c #B4793E",
"b. c #B97C3F",
"n. c #A27021",
"m. c #A1531B",
"M. c #C97608",
"N. c #836344",
"B. c #966E47",
"V. c #947451",
"C. c #A66D42",
"Z. c #A57444",
"A. c #A77A4C",
"S. c #AA7849",
"D. c #B57B42",
"F. c #BA7E42",
"G. c #B37346",
"H. c #A77A54",
"J. c #AF7252",
"K. c #896C57",
"L. c #C57749",
"P. c #AD8308",
"I. c #B58909",
"U. c #BD940B",
"Y. c #AD8710",
"T. c #BD8E13",
"R. c #C99A0F",
"E. c #E5930D",
"W. c #CCA50E",
"Q. c #D4AB0D",
"!. c #D8AE0C",
"~. c #DDB50F",
"^. c #D0A616",
"/. c #E2B913",
"(. c #E8A00F",
"). c #D89E30",
"_. c #ECC01A",
"`. c #BD8145",
"'. c #BD834A",
"]. c #B6834E",
"[. c #AD8358",
"{. c #B28354",
"}. c #BA8A59",
"|. c #A58767",
" X c #BA8E62",
".X c #BD9369",
"XX c #BD9976",
"oX c #AD8F72",
"OX c #C48546",
"+X c #C68749",
"@X c #C78849",
"#X c #C98A4B",
"$X c #C9864B",
"%X c #D18D4E",
"&X c #C28B54",
"*X c #CA8E51",
"=X c #C68A5A",
"-X c #CD9154",
";X c #CC935A",
":X c #C6915B",
">X c #D69358",
",X c #D28E56",
"<X c #C89867",
"1X c #D29B64",
"2X c #D39C69",
"3X c #C59D74",
"4X c #D79E72",
"5X c #D6A16C",
"6X c #CBA37A",
"7X c #D5A473",
"8X c #D6A97B",
"9X c #DAAC7D",
"0X c #D6A677",
"qX c #E7A977",
"wX c #E3A16B",
"eX c #DCA044",
"rX c #B39D87",
"tX c #AE9C8A",
"yX c #B9A087",
"uX c #C8A887",
"iX c #D3AC84",
"pX c #D9AE82",
"aX c #D2AE8A",
"sX c #DBB186",
"dX c #DCB48B",
"fX c #D5B18C",
"gX c #D4B493",
"hX c #DEB993",
"jX c #DFBD9A",
"kX c #DDB790",
"lX c #C5B099",
"zX c #E6B78A",
"xX c #E2BC95",
"cX c #E1BE9A",
"vX c #F1B989",
"bX c #E3C19E",
"nX c #EEC093",
"mX c #F8C798",
"MX c #E4C4A4",
"NX c #E4C7A8",
"BX c #E5C9AC",
"VX c #E8C9A9",
"CX c #E7CDB2",
"ZX c #E8CFB5",
"AX c #E9D0B6",
"SX c #EBD2B9",
"DX c #FACEA1",
"FX c #DEC8B0",
/* pixels */
"                                                                                                                                ",
"                                                                                                                                ",
"                          t.9.9.9.9.7.t.t.7.9.9.9.7.9.t.9.t.                                                                    ",
"                          s.f.j.Z.S.A.A.A.A.A.A.A.A.A.S.Z.Z.f.                                                                  ",
"                  9.7.9.s.c.'.:X6XuXgXgXgXgXgXgXgXgXgXaX6X<XA.7.9.9.                                                            ",
"                f.Z.Z.A.{.:X7XsXbXBXAXSXZXSXSXSXAXAXSXBXMXaX XZ.d.h.s.                                                          ",
"              a.S.<X6XfXgXjXbXNXFXZXSXSXSXZXAXAXAXAXAXAXCXbXaX<X&Xb.j.t.                                                        ",
"            f.Z..XgXNXZXSXSXAXAXAXZXZXZXZXZXZXZXAXAXAXAXAXCXNXdX7X:XD.h.s.                                                      ",
"          a.{.3XfXNXCXAXAXAXAXAXZXZXZXZXZXZXZXZXZXZXZXZXAXAXBXNXxX0X:X`.x.y.                                                    ",
"        9.a. XgXVXCXAXZXAXZXZXZXZXZXZXAXZXZXZXZXZXZXZXAXCXAXSXCXbXfX7X;X`.k.s.                                                  ",
"        0.s..XMXAXAXZXAXZXZXZXZXZXZXZXZXZXZXZXZXZXZXAXZXAXAXAXCXbXdXsX8X1X`.z.s.t.                                              ",
"        y.x.3XBXSXCXZXZXZXZXZXZXAXZXZXZXZXZXZXZXZXAXAXCXBXBXBXMXxXdXdXsX7X*Xv.d.7.                                              ",
"      s.z.'.8XBXSXZXZXZXZXSXAXAXAXAXAXZXAXAXAXAXAXAXAXBXbXhXhXxXdXdXdXsX7X*Xv.y.9.                                              ",
"    t.s.D.;XsXCXSXZXZXZXCXBXNXNXBXBXAXZXCXBXBXNXBXBXBXMXxXdXsXfXdXdXhXsX7X*XF.k.s.                                              ",
"    9.f.}.iXcXCXAXZXZXAXBXcXhXhXjXNXCXAXCXNXjXhXkXjXjXkXdXsXfXdXfXsXdXsX7X*XOXF.k._ n                                           ",
"    U ` [.dXNXZXAXZXCXBXNXcXxXgXjXNXAXAXCXNXjXkXdXsX8X8XsXdXdXdXdXdXsX8X1X#X#X#Xx._ n                                           ",
"    & 6 K.dXVXAXAXAXBXcXcXNXVXNXBXCXAXAXCXCXBXbXkX0X1X1X8XdXdXdXdXdX7X;X#X#X#X@Xz._ n                                           ",
"    . % X.9XxXNXCXCXjXuXiXcXCXAXSXSXSXSXAXZXBXcXpX<X'.+X<X8X9X8X8X7X1X#X+X@X#X#Xz._ n                                           ",
"    . % [ :X9XhXBXCXaX{.{.8XMXCXSXSXSXSXZXBXjX9X1X'.z.z.}.-X;X-X;X;X#X#X@X@X#X#Xz._ n                                           ",
"    . % Q `.1XsXbXMX6XB.f. X6XrXrXrXyXlXgXfX8X1XOXk.t.s.b.@X@X@X+X+X@X@X@X@X+X`.j._ n                                           ",
"    . @ n f.<XiXxXkX<Xf.y.x.g.E e e Z [ A.&X;X'.j.y.9.s.b.+X+X+X+X+X#X+X#X@X`.x.7.~ n                                           ",
"      & x 7.{.7XsXsX<XS.t.) m % . . O 2 U a.c.c.h.d.h.z.`.#X#X@X+X@X#X+X#X+Xv.t./ m l                                           ",
"        m / d.&X7XsX7X'.7.l & . . . . X - n t.z.v.`.F.OXOX#X#X#X@X@X@X@X#X+Xz.` c ; @                                           ",
"        Z R u.'.2XpX9X1Xg.3 . . . . . . X l 7.v.OX@X`.F.F.F.F.F.OX@X#X@X+X`.a.n 4 @ .                                           ",
"        W W i.'.1X8XdX8XV.3 . . . . . . X c z.@X@X`.z.d.d.h.s.j.v.OX@X@X`.h.~ 4 o                                               ",
"         .E B. X0XnXbXbXoXR - X . . . X ; ' `.@X'.z.y.9.7.t.y.j.b.@XOX`.x.7.m @ .                                               ",
"        ` p.[.8XbXBXCXVXfX{.' ; . . X 4 U d.`.`.x.s.t.9.9.s.z.`.+X@X`.h.7./ l @ .                                               ",
"        ` [ [.3XXXrXlXBXbX9X[.] q 3 Z ^ s.`.'.c.9.7.y.s.t.y.j.D.c.z.s.8.I c ; o .                                               ",
"        W ..X.Z.[ Z o.lXSXCXfXXX|.|.|.{.`.OXOXf.( ` x.c.h.7.8._ ) ' ' ~ l : o                                                   ",
"        |  .{ a.I 6 X.yXCXAXNXcXkXzXdX7X;X-X+Xf.~ ` ].}.d.) n l 6 l l 6 ; X                                                     ",
"        |  .X.c.z.d.[.8XcXcXxXkXdXdXzXsX0X1X#Xs.~ [ 3X<Xp.n ; @ @ @ @ & @                                                       ",
"        }  .V.&X-X%X5XsXkX9X9XkXhXsX9X9X0X1X'.7.! i..X X[ 5 : @ & % o . .                                                       ",
"        |  .V.6X5X-X5XcXjX5X2XjXbX9X-X-X:X'.h.' Q ` {.Z.c % ; l I I 5 X .                                                       ",
"           .o.|.{.`. XuX6X'.}.3XuX X`.`.`.z.h.7.` u.v.a.4 o 5 I ) 8.l X .                                                       ",
"            q q Q a.g.i.i.g.s.i.i.p.d.d.s.z.`.`.D.v.x._ ; o 5 I ~ I 2 X .                                                       ",
"            . . 6 7.9./ ( t.a./ U 7.s.y.y.h.v.z.f.u.` m @ X - l m m 5 % #                                                       ",
"            . X m x.c.7.y.v.D.s.t.x.D.z.y.7.' n 6 4 3 - o . X & 5 m b l z u                                                     ",
"              X c e.u.' _ u.u._ ' s.z.7.~ n 6 < X O 3 3 q q e Z ] [ _ A M u u                                                   ",
"                - 4 ; ; - ; ; : 4 n ~ c : & @ O O < A [ V.oXtXtXyX.XB.Q M u u                                                   ",
"                  . . . . X @ @ : g x ; o X o : v T y.c.{.3XuXuXuXXXB.U M 1 =                                                   ",
"                          > g j j j j g > > 2 K Y.W.T.Y.8.' _ ` e.e.7.Y g : X                                                   ",
"                          l k J P L K K P P P 3.R.R.T.2.P Y Y / ( q.,.L g o .                                                   ",
"                          e q l J :.P.U.W.Q.W.I.<.P ,.0.h.D.}.=X&XG.0.N > X .                                                   ",
"                          8 9 u C 5.M.E.(.(.W.3.N V V r.L.wXvXvXqX,Xh.V ; O O                                                   ",
"                      0 8 u y a @.$.-.-.-.*.*.&.L L L s.,XvXDXDXvXqXJ.G S 7 7                                                   ",
"                      0 8 r p s +.#.=.#.$.$.@.&.;.:.1.4.@X0XxXmXvXqXJ.G S w 8                                                   ",
"                      0 8 r p s +.#.=.@.C ;.3.5.:.1.R.R.4.z.7XvXvX>XN.w w H S $ .                                               ",
"                      0 8 , y p s $.$.+.j P P.P.3.I.~.!.I.4.-XwX>XJ.X.w S q.H - @                                               ",
"                          0 9 i p s s f g K 1.P.W.!.Q.Q.!.^.eX,XJ.e.^ H q.G.a.n 6                                               ",
"                          0 8 i y r r h Y L ;.4./.~.I.I.~._.).b.0.D F e.C.$XD.7.!                                               ",
"                              H H 1 1 ( k.r.6.4./.W.<.<.^./.R.<.V B 6.z.L.#XOXb.7.4 .                                           ",
"                              q.D q 3 [ =XJ.q.n.Q.U.K L U.Q.2.L N Y j.<X1X;X-X-Xg.l @                                           ",
"                          A ~ 8.( 6 3 K.0XJ.q.y.R.3.J K P.U.<.j ,.z.<XkXhX8X5X-Xk.Q l                                           ",
"                          A Q 8.7.A Z V.<XJ.~ T 3.1.J J <.2.>.` C.2XxXCXBXhX7X-Xj.Q l                                           ",
"                          n Q 8.9.d.f.Z.C.] 6 x :.:.k j N P Z..XaXcXBXZXNXkX0X-Xg.l @                                           ",
"                          n I ` s.F.OXF.r.^ 6 l k J k k j /  XkXVXZXZXBXMXzX0X&X8.4 .                                           ",
"                          n ! 8.s.F.$XOXF.s.( m : ; x V Y a..XzXVXAXBXxXxXdX7XS./ : .                                           ",
"                          n I ( u.D.#X%X#Xv.7.x @ X 4 n ' g.}.6XdXjXdX8X6X.XH.8.m : .                                           ",
"                              I _ C.,X>X%Xk.( l o . o ; b _ g.S.}.<X;X;XS.w.R 3 %                                               ",
"                              M V 0.l.J.B.[ b - o . . @ 4 x n ' k.@X%X#Xj.! 5 o .                                               ",
"                          . + r i f C H S e & @         @ @ @ 5 0.L.>X%XC.q.z + .                                               ",
"                          . + = t t y , 0 * .           + + + = 6.l.L.G.r.F u $ .                                               ",
"                                                        = r t a O.%.%.%.%.f = + .                                               ",
"                                                        t p s O.O.d O.s p t = X .                                               "
};
