/* XPM */
static char *tile0041697913299[] = {
/* columns rows colors chars-per-pixel */
"64 64 242 2 ",
"   c None",
".  c #010000",
"X  c #0B0602",
"o  c #0E0905",
"O  c #0D0C0C",
"+  c #08080A",
"@  c #140D05",
"#  c #160E06",
"$  c #1C1209",
"%  c #181104",
"&  c #1A1713",
"*  c #22160A",
"=  c #25180C",
"-  c #2B1C0D",
";  c #251900",
":  c #361905",
">  c #2B1D11",
",  c #231A13",
"<  c #381C17",
"1  c #380B0F",
"2  c #33210E",
"3  c #3B2605",
"4  c #342312",
"5  c #3C2612",
"6  c #3E2914",
"7  c #36291D",
"8  c #372F12",
"9  c #26192C",
"0  c #321623",
"q  c #16203A",
"w  c #352D25",
"e  c #3C352D",
"r  c #24242D",
"t  c #4A070C",
"y  c #5B0200",
"u  c #53090A",
"i  c #531802",
"p  c #4A160F",
"a  c #640201",
"s  c #6C0000",
"d  c #730000",
"f  c #7C0400",
"g  c #661309",
"h  c #6F160B",
"j  c #472904",
"k  c #542E01",
"l  c #5F2C0B",
"z  c #5B3301",
"x  c #583408",
"c  c #432D15",
"v  c #482F16",
"b  c #4D3318",
"n  c #4C3315",
"m  c #523619",
"M  c #5C3D1D",
"N  c #543919",
"B  c #502917",
"V  c #693B02",
"C  c #782617",
"Z  c #683D15",
"A  c #733809",
"S  c #483829",
"D  c #553823",
"F  c #44252C",
"G  c #663825",
"H  c #7B3628",
"J  c #732C22",
"K  c #5F4102",
"L  c #6D4202",
"P  c #6F4805",
"I  c #764A04",
"U  c #7D5804",
"Y  c #795104",
"T  c #69431D",
"R  c #734519",
"E  c #7F5618",
"W  c #5A442F",
"Q  c #634321",
"!  c #6D4923",
"~  c #6A4827",
"^  c #734C24",
"/  c #774928",
"(  c #7B532A",
")  c #785129",
"_  c #634D37",
"`  c #6A533A",
"'  c #785735",
"]  c #68574A",
"[  c #890300",
"{  c #970000",
"}  c #851509",
"|  c #AD0000",
" . c #A50000",
".. c #B40000",
"X. c #8B2A0C",
"o. c #AC2C0A",
"O. c #8E3026",
"+. c #A03026",
"@. c #CC0000",
"#. c #C60000",
"$. c #D53305",
"%. c #855906",
"&. c #8B441E",
"*. c #80481C",
"=. c #8B5719",
"-. c #8B6407",
";. c #996907",
":. c #9F7109",
">. c #A67907",
",. c #AF6C08",
"<. c #82562A",
"1. c #85592C",
"2. c #8C5C2C",
"3. c #875726",
"4. c #915E2B",
"5. c #864932",
"6. c #855834",
"7. c #975834",
"8. c #804620",
"9. c #A75D34",
"0. c #95622E",
"q. c #9A642D",
"w. c #88623B",
"e. c #936333",
"r. c #9A6631",
"t. c #9D6934",
"y. c #9D6B3A",
"u. c #96673E",
"i. c #9B723A",
"p. c #A36C35",
"a. c #A46E39",
"s. c #A5653D",
"d. c #A5713C",
"f. c #AC733B",
"g. c #B1763C",
"h. c #B5793E",
"j. c #B97A3D",
"k. c #AC6B34",
"l. c #956844",
"z. c #9A734A",
"x. c #9A7857",
"c. c #856544",
"v. c #A47544",
"b. c #A6794A",
"n. c #AB7C4D",
"m. c #A97543",
"M. c #B37B41",
"N. c #BA7E42",
"B. c #B6794A",
"V. c #A67C55",
"C. c #B3764E",
"Z. c #C47B53",
"A. c #AA8409",
"S. c #B78A09",
"D. c #B89312",
"F. c #BA8024",
"G. c #C3990B",
"H. c #D6990E",
"J. c #E89B0E",
"K. c #CBA40D",
"L. c #D4AC0E",
"P. c #D8AB12",
"I. c #EBA00F",
"U. c #E8B91F",
"Y. c #E0A92F",
"T. c #F1C222",
"R. c #BD8145",
"E. c #BD844B",
"W. c #B7814C",
"Q. c #AB8257",
"!. c #BE8955",
"~. c #BD8B5A",
"^. c #B4875A",
"/. c #AE804F",
"(. c #A78868",
"). c #B9926A",
"_. c #BD9A77",
"`. c #B28F6C",
"'. c #C38546",
"]. c #C58749",
"[. c #C6884A",
"{. c #C98A4A",
"}. c #C68C55",
"|. c #CD9156",
" X c #CC935A",
".X c #C5925E",
"XX c #D6965C",
"oX c #D68E4D",
"OX c #E3A044",
"+X c #CC9662",
"@X c #CF9861",
"#X c #C69869",
"$X c #D19B65",
"%X c #D39D69",
"&X c #D89866",
"*X c #C69D74",
"=X c #D99D7C",
"-X c #CA8C67",
";X c #E19D64",
":X c #D7A26B",
">X c #CCA174",
",X c #CCA37A",
"<X c #C3A17F",
"1X c #D6A676",
"2X c #D6A97C",
"3X c #D9AA7C",
"4X c #D9A776",
"5X c #E7AD7B",
"6X c #E5A670",
"7X c #B29D87",
"8X c #AE9C8A",
"9X c #BCA58C",
"0X c #C8A887",
"qX c #D3AC83",
"wX c #DAAE82",
"eX c #D5A886",
"rX c #DBB085",
"tX c #DCB48B",
"yX c #D6B18A",
"uX c #D4B594",
"iX c #DEBA94",
"pX c #DDBA96",
"aX c #E5B88A",
"sX c #F1BE8D",
"dX c #E2BB94",
"fX c #E1BE9A",
"gX c #E8BD96",
"hX c #E3C09D",
"jX c #E7C197",
"kX c #F5C698",
"lX c #F4C08E",
"zX c #DDC3A7",
"xX c #E4C5A5",
"cX c #E4C7A9",
"vX c #E5C9AC",
"bX c #E9CAAA",
"nX c #FCD5A8",
"mX c #E7CDB2",
"MX c #E8CFB5",
"NX c #E9D0B6",
"BX c #EBD2B9",
"VX c #FFDBB0",
/* pixels */
"                                        ! ! *.&.&.&.&.&.R R ^ 1.3.^ R R &.X.                                                    ",
"                                        p.p.d.v.b.n.n.n.Q./.n.n.n.n.n.b.m.v.                                                    ",
"                                2.4.2.r.f.R..X>X0XuXuXuXuXuXuXuXuXuXuXqX*X/.e.0.0.                                              ",
"                              y.v.m.b./.}.%XrXfXvXBXBXBXNXBXNXBXBXBXmXxXtX).m.y.t.t.                                            ",
"                            4.m.#X,XqXuXpXzXzXvXMXMXBXNXBXNXNXBXMXBXBXMXxXyX>X~.R.d.q.                                          ",
"                          y.m.^.yXhXmXNXBXNXNXNXMXMXMXMXMXMXNXMXMXMXmXMXmXxXpX2X XE.a.q.                                        ",
"                        e.n.#XyXzXmXMXBXBXMXNXNXMXMXMXMXMXMXMXMXMXMXMXMXBXvXcXfX3X+XR.f.r.4.                                    ",
"                      4.e.Q.yXxXmXMXMXMXMXmXMXMXMXMXMXMXMXMXMXMXMXMXMXmXBXBXmXxXtX2X XE.f.t.                                    ",
"                        e.^.pXBXMXMXMXMXMXMXMXMXMXMXMXMXMXMXMXMXMXMXMXNXBXBXmXxXtXrX2X@X].g.t.0.                                ",
"                      q.p.).cXBXBXMXMXMXMXNXMXMXMXMXNXMXMXMXMXMXMXMXMXmXvXvXcXpXtXiXtX2X|.h.t.0.                                ",
"                    q.k.N.>XcXNXMXMXMXMXNXMXMXmXMXMXMXMXMXMXBXMXMXBXmXzXpXiXuXiXtXtXtX1X|.R.t.0.                                ",
"                  4.r.m. XwXvXNXMXMXMXMXmXvXvXvXmXMXMXMXmXvXvXvXvXvXxXiXtXrXrXrXtXtXtX1X|.j.f.t.1.                              ",
"                  4.y.^.1XpXvXBXMXMXMXvXhXiXtXpXxXmXNXMXvXpXpXpXiXiXiXtXtXrXtXtXtXtXyX1X X'.R.f.<.M                             ",
"                  T ) Q.qXxXmXBXMXMXmXcXhXiXiXpXxXMXNXMXvXpXtXtXrX3X2XyXtXtXtXtXrXyX2X%X|.[.{.h.<.Q                             ",
"                  % 4 ' qXxXmXNXMXvXhXhXxXvXvXvXmXMXMXMXmXvXxXpX3X@X@X2XtXtXtXtXtX2X@X|.[.{.{.M.<.M                             ",
"                  . O _ *XdXxXmXmXzXqX,XpXvXBXBXBXBXBXNXMXvXhXrX>X].E.+X2X2X2X2X1X@X{.[.].{.{.h.<.M                             ",
"                  . o W }.4XtXxXNXuX^.Q.>XfXmXBXBXBXBXNXmXpXrX%X].f.a.E. X|.|.|. X{.{.].].{.{.M.( M                             ",
"                  . o M m. X3XfXcXqXb.t.^.>X9X7X8X8XuXuXyXqX%XE.f.t.r.g.].].].].{.].].].].].'.f.( Q                             ",
"                  . X n r.!.qXdXpX>Xv.0.a.l._ e w e ` z.~. X].f.r.4.q.h.].{.].].].{.].{.{.'.f.0.^ Q                             ",
"                    o c <.n.>XrXtX>Xn.0.<.Z = . . . - Z 2.f.M.p.t.t.f.j.].{.{.{.].{.{.{.{.h.r.) N v                             ",
"                      b ! e.!.:XrX4X}.t.m $ X . . . X $ b 2.f.h.N.N.N.].}.{.{.{.].[.[.{.{.M.1.M 2 #                             ",
"                        Q 1.N.$X3X3X%Xv.6 . . . . . . . 4 3.f.'.{.'.N.N.B.F.N.].[.{.{.[.'.t.Q 4 @ .                             ",
"                        M <.R. X3XtXwX(.e . . . . . . . c t.].[.'.f.p.t.t.r.p.g.'.{.[.R.f.) 6 o . .                             ",
"                        ! e.!.:XtXjXjX_.` - X . . . X * Q m.{.'.g.t.4.4.0.q.p.h.{.'.'.k.0.Q * . . .                             ",
"                        2.b.>XiXbXBXNXuX^.( 2 . . . - T e.N.R.f.q.0.4.2.q.f.N.].[.R.a.4.^ b $ . . .                             ",
"                        1.b.#X<X7X9XzXbXaX~.' w 7 w ~ e.h.'.h.0.2.0.t.q.0.p.f.M.f.p.2.^ m 4 O + . .                             ",
"                        T 1.z.' S ] 9XBXbXiX<X(.(.(.Q.R.'.].f.( ) p.h.a.0.1.( ) ) ^ ! b = @ O O O                               ",
"                        Q ) q.R 6 W 7XmXmXcXhXtXaXtX2X@X|.{.d.^ ^ n.}.d.<.M c 6 6 c c 4 @ . O &                                 ",
"                        T ( f.f.y.V.,XpXhXpXiXtXiXtXtX3X:X}.d.! ' ).>Xz.T 4 % @ @ @ @ @                                         ",
"                        T w.[.XX|. XrXtXrX3XtXpXrX2X3X3X%X].r.! ) ^._.' 6 * # % * @ . .                                         ",
"                        Q l.>X4X|.$XjXhX1X$XtXxXrXXX X+XE.d.1.T ) n.n.Q * - c D Q c o .                                         ",
"                      5 v ` x.(.W.!.<X<X!.E.*X0X).R.F.B.f.p.e.<.2.f.t.c o - M <.<.m @ .                                         ",
"                      @ % & 7 W 2.t.c.w.e.r.u.' e.r.r.t.b.F.R.R.m.f.<.4 o - Q T T 6 o .                                         ",
"                        . . . 4 <.0.^ ^ 4.i.( ! <.p.r.q.t.f.d.i.e.<.Q * X $ 6 m N 6 * @                                         ",
"                          . . 6 y.h.0.4.f.F.r.2.p.N.f.r.2.( Q 8 4 4 , o . . @ 2 m m v c                                         ",
"                            . 6 ' 2.( ) w.c.( ) e.d.e.) D v - o + & 7 w w w e W ' ` G Z                                         ",
"                              , 4 > = = > > , = m ! N - % @ O o & N ' x.(.7X8X_._.l.~ M                                         ",
"                                . . X % ; ; % % 2 n 5 ; ; 8 8 8 N R 0.}.rXjXfXuX*Xx.`                                           ",
"                                    : k U -.L : j j k z U A.D.A.-.P R m.&X;X&XC.l.'                                             ",
"                                    c K -.>.;.U Y U -.>.A.K.K.S.:.E *.M.XX6X&XC.7.5.                                            ",
"                                    r w N %.A.K.L.L.L.L.D.-.Y P U q.Z.XX5XsXsX4XZ.9.5.                                          ",
"                                    9 0 p V ,.H.I.I.I.J.,.A i i Z g.;X5XlXnXnXsX&Xm./ G                                         ",
"                                q 9 1 u a f X.o.o.$.$.$.o.} a y C k.;XsXnXVXnXkX5Xn.Z l                                         ",
"                                q 9 t a d [ [ [ | @.@.@...{ d a h 5.C.4XkXkXkXaX%Xa.R z                                         ",
"                                q 0 t s d [  ...#.@.@.@...[ d a u F ] V.&X6X&XR.q.=.I V V k                                     ",
"                                q 9 0 u a [ { | | | | | { [ s y t 0 S i.oXOXOXF.;.%.%.V z k                                     ",
"                                    q 0 t a d d f d d s s a y y i l =.D.U.T.U.P.S.;.V z k k                                     ",
"                                    q 9 p g h C J H H H O.J C C C A %.S.L.L.L.G.A.-.V z k k                                     ",
"                                        G H 5.B.-X=XeXeXeX-XZ.B.9.A V %.;.>.:.%.L I I V z k                                     ",
"                                        G / m.oX5XnXnXnXkXsX5X&Xj.E V %.;.;.:.%.I L %.L z k                                     ",
"                                        D ! t.|.4XdXgXgXdXaX5X|.j.=.%.;.S.H.L.G.>.-.L z k k                                     ",
"                                        ^ 6.m..X4XtXdXiXpXpXwX%Xm.=.L -.A.D.G.G.>.%.j j j z                                     ",
"                                    M ! 0.W..X2XdXcXvXvXvXvXxXrX^.S ; k P Y Y Y I j ; @                                         ",
"                                    N ^ a.|.3XpXcXMXNXNXNXNXbXdX`._ 4 j l Z T V x : X .                                         ",
"                                    Q ^ a.|.rXvXMXMXBXNXNXMXvXpX,XV.e./ / 7.g.7.H < X .                                         ",
"                                    m ^ e.W.qXvXMXMXMXMXmXmXxXdX2X}.y./ G 5.t.6.D < @ .                                         ",
"                                        ^ 6.).fXbXBXBXMXvXpXpXaX*Xz.~ 5 $ , < > $ #                                             ",
"                                        6 D c.).yXfXxXxXfXwX>X*XV.' b - # . . . .                                               ",
"                                        o * S w.n.$X3XiXwX+XC.w.` Q N b 6 $ . .                                                 ",
"                                        . X - v ! e.!.1X4X:X!.l.' ( ^ M c = .                                                   ",
"                                            @ % $ 5 ' }.5XsXsX2X-X}.s.m % X                                                     ",
"                                              . . . B 9.Z.=X=X&X}.Z.7.c .                                                       ",
"                                                . . t } +.+.O.O.C C g * .                                                       ",
"                                                $ = p h } } f g g g u : = 5                                                     "
};
