/* XPM */
static char *tile0051697913299[] = {
/* columns rows colors chars-per-pixel */
"64 64 244 2 ",
"   c None",
".  c #010100",
"X  c #0A0402",
"o  c #0D0904",
"O  c #0D0C0B",
"+  c #05060B",
"@  c #120201",
"#  c #130C05",
"$  c #180B04",
"%  c #1A1106",
"&  c #1D1309",
"*  c #161009",
"=  c #1B1614",
"-  c #270605",
";  c #3C0204",
":  c #22160B",
">  c #26190C",
",  c #2B1C0D",
"<  c #261805",
"1  c #381807",
"2  c #291C11",
"3  c #381918",
"4  c #380C14",
"5  c #372206",
"6  c #322213",
"7  c #3A2513",
"8  c #3D2914",
"9  c #37291D",
"0  c #352D17",
"q  c #151326",
"w  c #271A2B",
"e  c #361724",
"r  c #15203B",
"t  c #362B27",
"y  c #3C342D",
"u  c #272733",
"i  c #23232C",
"p  c #440608",
"a  c #550201",
"s  c #5B0000",
"d  c #5B080C",
"f  c #57170C",
"g  c #630000",
"h  c #660705",
"j  c #730000",
"k  c #7A0000",
"l  c #740708",
"z  c #67170C",
"x  c #472802",
"c  c #5A3703",
"v  c #432C15",
"b  c #462C19",
"n  c #4A3115",
"m  c #48311B",
"M  c #52351A",
"N  c #56391C",
"B  c #5C3D1D",
"V  c #593719",
"C  c #502F0B",
"Z  c #693906",
"A  c #772519",
"S  c #653E1C",
"D  c #702B10",
"F  c #4D2C29",
"G  c #483628",
"H  c #553725",
"J  c #473538",
"K  c #683B26",
"L  c #793326",
"P  c #7D2E21",
"I  c #5C4714",
"U  c #684202",
"Y  c #764A04",
"T  c #7C5406",
"R  c #66421C",
"E  c #784A17",
"W  c #5D4226",
"Q  c #574634",
"!  c #644321",
"~  c #6A4621",
"^  c #6E4922",
"/  c #67492A",
"(  c #744C25",
")  c #7A4E24",
"_  c #764B2C",
"`  c #7B5126",
"'  c #7C532A",
"]  c #74512C",
"[  c #784836",
"{  c #6A533A",
"}  c #775635",
"|  c #644E37",
" . c #6C5B4A",
".. c #850000",
"X. c #8C0402",
"o. c #930001",
"O. c #9B0001",
"+. c #86180C",
"@. c #AB0000",
"#. c #A40000",
"$. c #B30000",
"%. c #B50700",
"&. c #AC2F04",
"*. c #823527",
"=. c #933226",
"-. c #992A1F",
";. c #CC0000",
":. c #C40000",
">. c #CB0D01",
",. c #CE2F04",
"<. c #885A05",
"1. c #8F5A09",
"2. c #8C6604",
"3. c #9C6C07",
"4. c #89631D",
"5. c #986A12",
"6. c #A47408",
"7. c #A67807",
"8. c #A47411",
"9. c #82562A",
"0. c #83592C",
"q. c #8B5B2B",
"w. c #865624",
"e. c #915E2B",
"r. c #945D25",
"t. c #8A5A35",
"y. c #965A3A",
"u. c #824C2F",
"i. c #95612E",
"p. c #9A642C",
"a. c #8A623A",
"s. c #946332",
"d. c #9A6631",
"f. c #9E6934",
"g. c #9C6C3B",
"h. c #99653C",
"j. c #A36C35",
"k. c #A26D3A",
"l. c #A46736",
"z. c #A7713B",
"x. c #AC743B",
"c. c #AC7137",
"v. c #B1773D",
"b. c #B4793E",
"n. c #BA7C3E",
"m. c #A7762F",
"M. c #A6561B",
"N. c #C57909",
"B. c #8B5843",
"V. c #945D44",
"C. c #886344",
"Z. c #9A6947",
"A. c #9C7349",
"S. c #997858",
"D. c #A66D46",
"F. c #A47544",
"G. c #A77A4C",
"H. c #AB7849",
"J. c #B57B41",
"K. c #BA7E42",
"L. c #B97A4B",
"P. c #AE774F",
"I. c #A55A42",
"U. c #C47E4B",
"Y. c #B3840B",
"T. c #BA950B",
"R. c #B28B11",
"E. c #BF8336",
"W. c #C3980B",
"Q. c #CF930F",
"!. c #E89D0E",
"~. c #CCA80E",
"^. c #D5AB0E",
"/. c #DBB20F",
"(. c #CFA816",
"). c #E3B816",
"_. c #E6B623",
"`. c #C89926",
"'. c #BD8144",
"]. c #BC834A",
"[. c #B5824E",
"{. c #AF8153",
"}. c #B5895D",
"|. c #BB8957",
" X c #A88868",
".X c #B58962",
"XX c #BE9367",
"oX c #BD9C7A",
"OX c #C38446",
"+X c #C68749",
"@X c #C6884A",
"#X c #C98A4A",
"$X c #C68A54",
"%X c #CD9359",
"&X c #CA9157",
"*X c #D7955B",
"=X c #DB9C45",
"-X c #E59859",
";X c #CD9D6B",
":X c #C89767",
">X c #D29A64",
",X c #D59A69",
"<X c #CA9E71",
"1X c #C29974",
"2X c #D18D69",
"3X c #DAA36A",
"4X c #CAA27A",
"5X c #D5A675",
"6X c #D6A97B",
"7X c #D8AB7D",
"8X c #D8A577",
"9X c #E9AE7D",
"0X c #E0A06A",
"qX c #E4A460",
"wX c #B39C86",
"eX c #AE9A85",
"rX c #BBA58E",
"tX c #C9A787",
"yX c #DAAE82",
"uX c #D4AA85",
"iX c #DCB084",
"pX c #DCB48B",
"aX c #D4B18D",
"sX c #D3B393",
"dX c #DEBA94",
"fX c #DBB995",
"gX c #E4B78C",
"hX c #F1BD8B",
"jX c #E1BB94",
"kX c #E1BE9B",
"lX c #E8BD96",
"zX c #E3C09C",
"xX c #E8C39D",
"cX c #F1C292",
"vX c #DCC3A9",
"bX c #E3C4A4",
"nX c #E4C7A9",
"mX c #E6C9AC",
"MX c #EBCBAA",
"NX c #E7CCB2",
"BX c #E8CFB5",
"VX c #E9D0B6",
"CX c #EBD2B9",
"ZX c #FBD5AA",
/* pixels */
"                                                                                                                                ",
"                                                                                                                                ",
"                                                    i.q.e.e.e.q.e.e.r.e.e.e.e.i.e.e.                                            ",
"                                                  d.j.k.F.F.G.G.G.G.G.G.G.G.G.G.F.F.k.                                          ",
"                                          q.r.q.p.c.'.&X1XtXaXsXsXsXsXsXsXsXsXaX6X1X{.i.q.i.                                    ",
"                                        g.F.F.G.{.&X;XyXjXmXVXCXCXVXCXCXCXCXCXBXnXpXXXF.j.f.f.                                  ",
"                                      q.F.:X4XaXsXfXbXnXmXBXVXVXVXVXCXVXVXCXVXVXNXnXaX4X|.'.x.i.e.                              ",
"                                    g.z.}.uXzXBXCXVXVXVXVXVXVXBXBXVXBXBXBXBXBXBXVXNXnXjX7X%X'.z.f.                              ",
"                                  s.H.:XaXvXmXVXVXVXVXVXBXBXBXBXVXBXBXBXBXBXVXBXVXBXBXnXfXyX:X].c.f.e.                          ",
"                                  i.{.iXbXmXVXVXVXBXBXBXBXVXBXBXBXBXBXBXBXBXBXBXBXVXVXBXbXpX6X*X].z.f.                          ",
"                                  s..XfXVXVXVXBXBXVXBXBXBXBXBXBXBXBXBXVXBXBXBXVXVXVXVXBXnXfXiX7X;X@Xv.f.i.                      ",
"                                p.g.XXbXVXVXBXBXBXBXVXVXVXBXBXBXBXBXBXBXBXBXVXVXNXnXnXnXdXpXpXpX6X%XK.j.e.                      ",
"                              i.j.K.4XbXCXBXBXBXBXBXBXBXVXBXBXBXBXVXCXVXVXVXVXMXbXfXdXdXpXpXpXpX8X%Xn.j.i.                      ",
"                            e.d.x.&X7XbXVXVXBXBXBXmXmXnXmXNXBXBXBXNXmXmXmXmXmXnXfXpXpXiXpXpXpXpX5X%X'.z.f.0.                    ",
"                            e.f.{.5XfXNXVXVXBXCXNXzXfXfXfXbXBXVXBXmXfXdXfXfXfXfXpXpXpXpXpXaXpXpX6X%XOXOXv.0.!                   ",
"                            R ] G.uXbXNXVXVXNXNXbXkXfXfXfXbXBXCXBXnXdXfXpXiX7X7XiXpXaXpXpXpXiX6X;X#X#X#XJ.' B                   ",
"                            $ 6  .uXxXNXCXVXmXzXkXbXmXmXmXmXVXVXBXNXNXbXfX6X3X%X5XpXpXpXdXpX6X%X#X#X#X#XJ.9.H                   ",
"                            . o | <XlXbXNXBXvXuX4XfXmXCXCXCXCXCXVXBXNXzXpX3X|.OX:X6X6X5X5X6X>X&X#X#X#X#XJ.9.R                   ",
"                            . o W |.5XdXbXNXsX}.{.4XzXMXCXCXCXCXVXNXzXiX>X$Xx.j.].&X%X%X%X&X#X#X+X#X#X#XJ.0.B                   ",
"                            . o M x.%X7XkXbXaXG.d.|.4XoXwXwXrXrXsXaX7X;X].x.d.d.v.+X#X+X#X+XOX#X+X+X#XOXz.' !                   ",
"                            . o n s.|.6XdXdX4XF.i.k.Z.{ y t y { A.|.&X].x.d.i.d.v.+X@X+X+X#X+X+X#X#X'.x.i.( !                   ",
"                              o v ' G.;XiXiX4X[.i.9.B < . . . , R q.x.'.j.d.d.j.n.+X#X#X+X#X+X#X#X#XK.f.` B n                   ",
"                                n R s.|.3XyX5X&Xf.N & X . . . X : n 0.m.n.'.'.'.OX+X#X#X+X+X@X@X#X#Xb.0.B , %                   ",
"                                  ! 9.[.%X6X7X3XG.8 . . . . . . . 6 9.x.'.+X'.'.'.n.'.'.OX+X#X@XOXOXj.~ 7 # .                   ",
"                                  ! 9.J.*X7XpXiX}.G . . . . . . . 8 f.+X#XOXx.j.j.f.f.j.v.OX#X#XOXz.9.8 # . .                   ",
"                                  ^ s.|.3XpXzXzXoX{ 2 o . . . X & ! F.#XOXv.f.e.q.i.d.f.v.OX@X'.c.i.R > . . .                   ",
"                                  q.F.4XdXbXNXNXsX}.0.7 . . . > R s.K.'.c.p.i.e.q.p.c.K.@X@X'.z.i.( n & . . .                   ",
"                                  q.A.:XrXwXrXvXMXgXXX} t 0 t / s.b.OXJ.s.q.i.f.p.s.j.v.J.x.j.q.( M 6 * + . .                   ",
"                                  ^ 9.g.} Q  .rXVXMXfXoX X X X{.].OX@Xx.' ) g.b.c.i.9.` ] ' ( ^ M > # O O O                     ",
"                                  B ` i.( 7 Q eXMXNXnXzXdXdXgX6X%X&X#Xx.( ] H.$XF.' B v 8 v v v 6 o + O =                       ",
"                                  B 9.c.x.j.G.4XjXdXdXdXpXgXpXpX7X3X&Xj.( ] }.<XA.! 7 * # # * # #                               ",
"                                  ! a.|.%X#X*XiXdXiX7XpXjXiX7X7X6X;X].g.^ } .XXXa.v : % % & # . .                               ",
"                                  R C.4X3X&X3XdXzX6X*XpXnXpX%X&X%X].z.q.R ] [.[.W & , v I ~ v o .                               ",
"                                  n { S.}.[.|.oXtX|.].oXtXXX].n.'.v.k.e.' q.z.f.v o , W ) 9.N # .                               ",
"                                  * = 9 W 0.g.a.} g.f.a.} a.f.f.f.x.n.'.b.v.x.q.7 o , W ~ R 8 o .                               ",
"                                  . . . 6 9.i.) ( e.d.' ( 0.d.f.i.f.x.x.k.s.' W > X % 8 M N v : #                               ",
"                                    . . 7 d.J.d.e.x.'.d.q.f.n.x.d.q.' ! 8 6 6 2 o . . # , M M n v                               ",
"                                      . 8 ' a.` ] q.a.' ( s.z.d.( ! n , O + = 9 9 t t y Q } ] W B                               ",
"                                        = 6 , > > , 6 > , M ^ N , % # o O = m } S. XoXwXwXoXS./ B                               ",
"                                          . . + o # % o $ 7 n 5 % o % , 0 I 4.m.{.XXaXxXlX7X{.[ V                               ",
"                                              q i C c C 5 x x x 5 x c T R.T.W.R.4.0.H.,X0X*XP.L K                               ",
"                                              r u V Y Y Y T T Y T 2.3.Y././.W.8.T E x.>X0X*XU.I.u.                              ",
"                                              r i n Z 1.Y.W.~.~.^././././.T.2.T r.J.3XhXhXhX,XU.l.Z x                           ",
"                                              i 3 f D 1.7.Q.!.!.!.!.!.Q.N.1.Z Z l.*XhXZXhXiX,X$Xl.w.U                           ",
"                                          r w 4 d X.%.,.,.&.&.&.,.,.,.,.&.+.h z M.*X9XcX9X*XL.y.r.8.2.5 .                       ",
"                                          r w p j @.:.;.$.O.X.O.;.;.;.$.o.k g h *.D.&X3XqX=XE.j.5.Y.2.x #                       ",
"                                          r w p j @.:.@.o.....#.:.;.;.%.o.k g a p b 4.`._.).).(.W.6.T c 1                       ",
"                                          u e e d o.@.o.k j k X.@.@.$.O.l h d 4 @ o c 6.T.^././.W.6.<.U c x                     ",
"                                      . = F F e e d l j s s g g j k l d p w w w + X 5 U <.3.3.6.6.Y.7.1.U 1 .                   ",
"                                    : 6 M _ [ J w 4 p d A +.*.*.L *.A z y u u i = % 1 Z Y 3.6.3.8.Y.7.2.U < .                   ",
"                                  X m a.D.L.D.u.F - - S v.2XuXiXuX2XL.y.K J F G m v c Y 7.~./.^.Q.7.1.Y C % .                   ",
"                                  X H L.-X-XU.y.K 8 m h.>XcXZXZXZXcX8XU.I.y.^ ~ ~ ^ E T 5.T.~.(.R.5.Z x 1 $ .                   ",
"                                  X H L.-X*XOXl.t.e.k.XX7XzXVXMXkXgXiX;X+Xz.e.q.q.9.) R C C I 9.r.u.V , @ o                     ",
"                                  X m t.l.k.h.d.g.].>X7XjXnXNXnXfXdXpX6X%X'.k.s.q.9.^ I > + 2 } y.y.K 2 .                       ",
"                                    : 6 3 6 m ) z.:X7XzXmXVXNXmXmXbXjX8X%X'.j.q.` ^ R N > o J P.,X2Xt.6 .                       ",
"                                      . . . % M 0..XiXzXmXVXVXVXmXxXdX6X%X'.c.w.! m M N 7 2 H S.L.P.u.7 .                       ",
"                                              % 9 h.>XyXkXNXBXNXzXdXfX8X%X'.c.9.v & 7 B M m b t 9 0 6                           ",
"                                              . & ~ g.}.2XtXtXtX1XXXoXXXL.k.9.R , X > v N B b : o . .                           ",
"                                                  > 8 ] D.Z.V.B.B.B.B.B.' ! 7 : $   X % b K K H 3 o .                           ",
"                                                    @ V t.B.V.V.Z.V.t.L N 7 # .     X @ 4 D L K b $ .                           ",
"                                                      K u.P.1XuXgX8X$Xt.7 o     . X - p a d z h p @ .                           ",
"                                                      A *.I.U.uXuX2XL.u.2 .       X - s s s a s p @ .                           ",
"                                                  s s l +.+.-.=.*.*.A f $ .                                                     ",
"                                                  a s j k ..k j s s a ; @ .                                                     "
};
