/* XPM */
static char *tile0061697913298[] = {
/* columns rows colors chars-per-pixel */
"64 64 243 2 ",
"   c None",
".  c #010100",
"X  c #0A0401",
"o  c #0E0905",
"O  c #0D0D0C",
"+  c #03060B",
"@  c #140C05",
"#  c #170905",
"$  c #1A1103",
"%  c #1B1209",
"&  c #191512",
"*  c #21160A",
"=  c #25190C",
"-  c #2C1D0D",
";  c #211407",
":  c #341E07",
">  c #390E1A",
",  c #2C1E10",
"<  c #300402",
"1  c #3A2207",
"2  c #2D2217",
"3  c #332212",
"4  c #3B2611",
"5  c #3E2914",
"6  c #33281D",
"7  c #372F07",
"8  c #10162A",
"9  c #231A2D",
"0  c #2E1726",
"q  c #211D32",
"w  c #16213A",
"e  c #342D27",
"r  c #322A2F",
"t  c #470406",
"y  c #580301",
"u  c #5E1206",
"i  c #440B13",
"p  c #441817",
"a  c #610101",
"s  c #680403",
"d  c #730000",
"f  c #7A0903",
"g  c #68150C",
"h  c #7C1B00",
"j  c #492904",
"k  c #5C3503",
"l  c #442D15",
"z  c #482B14",
"x  c #51271C",
"c  c #4A3117",
"v  c #4B3219",
"b  c #493517",
"n  c #56391B",
"m  c #5B3C1C",
"M  c #52371D",
"N  c #562A04",
"B  c #632A08",
"V  c #663C09",
"C  c #63371A",
"Z  c #6D2818",
"A  c #483829",
"S  c #513C28",
"D  c #463539",
"F  c #512D2A",
"G  c #743C23",
"H  c #663229",
"J  c #5D4103",
"K  c #784905",
"L  c #7A5406",
"P  c #63411F",
"I  c #6A4419",
"U  c #734819",
"Y  c #534332",
"T  c #5C4228",
"R  c #6A4621",
"E  c #6E4924",
"W  c #684828",
"Q  c #744D25",
"!  c #7C4D2A",
"~  c #74472A",
"^  c #7C5126",
"/  c #7B5229",
"(  c #76522D",
")  c #774737",
"_  c #755534",
"`  c #654E37",
"'  c #7A6148",
"]  c #544D45",
"[  c #820000",
"{  c #880000",
"}  c #891A00",
"|  c #941700",
" . c #90130B",
".. c #A70300",
"X. c #AD1603",
"o. c #943706",
"O. c #932A0E",
"+. c #B62606",
"@. c #A73305",
"#. c #823C29",
"$. c #C90301",
"%. c #DA0100",
"&. c #D40000",
"*. c #C91706",
"=. c #E70903",
"-. c #F40100",
";. c #E8160E",
":. c #CA2903",
">. c #CC2C0C",
",. c #F6241B",
"<. c #D43C27",
"1. c #F43227",
"2. c #895719",
"3. c #8D510B",
"4. c #AD5A04",
"5. c #956C07",
"6. c #957408",
"7. c #AB7C0F",
"8. c #854C29",
"9. c #82562A",
"0. c #85592C",
"q. c #8C5C2C",
"w. c #865527",
"e. c #915E2B",
"r. c #965827",
"t. c #8A5D31",
"y. c #835938",
"u. c #93573A",
"i. c #A64C23",
"p. c #A85935",
"a. c #BA5732",
"s. c #94612E",
"d. c #9B662D",
"f. c #8E6033",
"g. c #8A643D",
"h. c #946333",
"j. c #9B6632",
"k. c #9E6934",
"l. c #976A3B",
"z. c #A36C35",
"x. c #A26D3A",
"c. c #A76838",
"v. c #AB733B",
"b. c #A6713B",
"n. c #B1773D",
"m. c #B4793E",
"M. c #BA7C3E",
"N. c #A6762F",
"B. c #C6653B",
"V. c #C7661E",
"C. c #866344",
"Z. c #9A6C46",
"A. c #997148",
"S. c #927659",
"D. c #A37444",
"F. c #A77A4D",
"G. c #AB7C4C",
"H. c #A87847",
"J. c #B47B41",
"K. c #BA7E42",
"L. c #B77847",
"P. c #A67D53",
"I. c #B0764F",
"U. c #CE734C",
"Y. c #EC6C55",
"T. c #BA950C",
"R. c #AE8713",
"E. c #D48E0D",
"W. c #CDA70E",
"Q. c #CEA711",
"!. c #E99C0E",
"~. c #BD8144",
"^. c #BA834B",
"/. c #B7844A",
"(. c #AB8259",
"). c #BB8553",
"_. c #B68656",
"`. c #A88968",
"'. c #BA9269",
"]. c #BE9164",
"[. c #B59472",
"{. c #C28446",
"}. c #C68648",
"|. c #C78849",
" X c #C98A4A",
".X c #C88649",
"XX c #D28F4E",
"oX c #C48B52",
"OX c #C58B57",
"+X c #D48D53",
"@X c #CD9155",
"#X c #CD945B",
"$X c #C3905C",
"%X c #D1965A",
"&X c #D79557",
"*X c #C89868",
"=X c #D19A64",
"-X c #D19E6B",
";X c #DC9A65",
":X c #C59B71",
">X c #C79F75",
",X c #E5896A",
"<X c #E59E7B",
"1X c #D4A16D",
"2X c #D9A46F",
"3X c #CDA57B",
"4X c #C9A275",
"5X c #D7AA7C",
"6X c #D8AB7D",
"7X c #D5A575",
"8X c #E6AB7E",
"9X c #F0B37F",
"0X c #B29D88",
"qX c #AC9B89",
"wX c #BAA48D",
"eX c #C8A683",
"rX c #D9AE82",
"tX c #D2AC85",
"yX c #DAB186",
"uX c #DCB48B",
"iX c #D6B58F",
"pX c #D3B393",
"aX c #DEBA94",
"sX c #DDBD9C",
"dX c #DBB791",
"fX c #CFAF93",
"gX c #E6B789",
"hX c #E1BE9A",
"jX c #E0BC96",
"kX c #E9B08B",
"lX c #DBBEA0",
"zX c #E3C19D",
"xX c #F8C899",
"cX c #E4C4A3",
"vX c #E4C7A9",
"bX c #E5C9AC",
"nX c #EACCAE",
"mX c #E7CDB1",
"MX c #E8CFB5",
"NX c #E9D0B6",
"BX c #EBD2B9",
"VX c #FBCEA2",
"CX c #D5C0AB",
/* pixels */
"                                                                                                                                ",
"                                                                                                                                ",
"                                        e.e.q.e.e.e.e.e.s.e.e.f.e.e.s.s.                                                        ",
"                                      k.D.H.F.F.H.F.F.F.F.F.F.H.H.D.k.k.k.                                                      ",
"                              e.e.q.j._.:XtXpXpXpXpXpXpXpXpXpXfXtX4X_.~.v.d.q.r.e.                                              ",
"                              k.x.k.F.:XaXvXMXBXBXBXBXBXNXNXBXMXcXjX6X=X).(.H.b.D.                                              ",
"                          e.j.n.~.$X4XdXvXmXMXBXNXNXBXNXNXNXNXNXnXvXcXzXsXpXtX4X].x.q.                                          ",
"                          d.b.^.=XrXhXvXmXBXMXMXMXMXMXMXNXNXNXMXNXNXNXNXBXBXmXlX3X_.D.k.                                        ",
"                      e.z.v.}.*XrXhXbXmXMXMXMXMXMXMXMXMXMXMXMXMXNXMXNXNXNXNXNXmXsXeX*XD.s.                                      ",
"                    d.j.v.}.=XrXdXvXMXBXMXMXMXMXMXMXMXMXMXMXMXMXNXMXMXMXMXNXNXNXmXcXtXF.e.                                      ",
"                  s.z.m.OX-XrXrXaXvXNXNXBXMXMXMXNXMXMXMXMXMXMXMXMXMXMXMXNXmXMXNXNXMXpXG.e.                                      ",
"                  s.z.{.#X6XuXuXdXlXvXbXbXmXMXMXNXNXMXMXMXMXMXMXMXMXMXMXNXmXMXMXNXBXsX_.z.d.                                    ",
"                  s.z.~.#X6XuXuXuXuXaXaXaXcXMXNXMXNXNXNXMXMXMXMXNXNXNXNXMXMXMXMXNXBXhX*XJ.z.s.                                  ",
"                q.k.v.~.#XrXuXuXuXyXuXyXuXsXvXbXbXvXbXbXMXMXMXMXmXbXbXbXbXMXNXMXNXNXcX5XoXv.h.                                  ",
"              P t.m.{.}.#X6XuXuXuXuXuXuXuXdXdXaXaXaXdXsXbXMXBXmXlXaXdXaXcXmXNXMXNXNXbXdX-XL.j.                                  ",
"            n P t.~. X|.@X-XrXuXuXuXuXuXuXrX5XrXuXuXaXhXbXMXMXmXcXaXdXaXzXvXmXMXNXNXmXhXeXA.Q                                   ",
"            n P t.~.|.|. X@X=X5XuXuXuXuXuX7X%X1XrXaXcXbXMXMXBXMXnXvXbXvXcXzXlXmXBXBXmXzX4X` ,                                   ",
"            n P t.~. X|.|.}. X-X5X5X5X5X7X$X^.oX7XuXcXmXMXBXBXBXBXBXNXvXdX3XtXvXmXmXcXgX[.Y .                                   ",
"            n m q.~. X X|.|.|.@X#X#X@X#X@XJ.z.n.oX1XuXcXmXBXBXBXBXBXvXjX:XG.].sXmXzXuX7XG.S X                                   ",
"            n P 0.n.}.|.|.|.|.|.}.|.|.|.}.v.d.k.n.oX-XrXiXfXwX0X0XwXwX:X_.j.(.pXvXjX6X@Xz.z X                                   ",
"            m P ^ j.n.~.|.|.|.|.|.|.|. X^.v.d.s.d.v.oX@X).A.` e e A ` D.z.s.F.eXjXjX7X).q.4 .                                   ",
"            5 c m 9.z.~. X|.|.|.|.|.|. X|.M.z.j.k.v.m.b.0.n * . . . : P w.j._.7XuX6X*XD.Q 4 X                                   ",
"            @ % 3 P h.M. X X|.|.|.|.|.|.|.}.~.~.M.n.z.9.l % . . . . X = m b.#X6X6X-X/.t.P c                                     ",
"            . . $ 5 E v.{.|. X|.}.{.K.K.K.K.~.~.}.{.v.Q - . . . . . . . S /.2XrX6X#Xv./ m                                       ",
"            . . . @ c 0.n.{. X X{.v.z.k.z.k.z.v.}. X{.q.3 . . . . . . . Y '.gXyX5X@Xn./ m                                       ",
"            . . . . - E j.n.{.}.{.v.k.d.s.e.e.z.m.}. Xx.M $ . . . . o 3 ' eXzXhXuX1X^.t.R                                       ",
"            . . . . = n ^ s.b.~.|.{.M.z.s.q.q.d.k.v.{.J.q.m * . . X c t.'.sXmXnXcXuX*XD.0.                                      ",
"              . . X % 4 n Q s.x.n.J.v.z.s.j.k.s.q.j.~.~.n.f.T e 2 e C.*XgXnXCXwX0X4X].Z.0.                                      ",
"                O O O @ , n E ( ( ( ^ 0.s.v.m.j.Q 0.J.}.~.~.(.`.`.`.eXsXNXmXqX] Y g.l./ R                                       ",
"                  & O + @ 3 l l l 5 c P 9.J.oXD.E ( J. X@X=X6XgXgXdXzXvXNXvX`.S l / e.Q m                                       ",
"                          @ @ @ @ o % 5 E (.:X(.W Q n.@X1XrXuXdXdXdXgXsXjXaX>XA.k.n.z.^ m                                       ",
"                          . X % % $ $ - v C.:X(.( Q b.oX-X5X5X5XuXaXuX6XyXjX6X#XXX%X^.y.m                                       ",
"                          . $ v I m l * = ` /.D.E R e.v.|.#X#X=XuXcXyX=X6XcXdX%X%X2X:Xg.m                                       ",
"                          . % m 0.Q n * o n v.b.0.0.h.z.n.K.M.~.:XeX].^.].eX4X)./.(.S.` l                                       ",
"                          . @ v R R n = o b s.v.J.J.~.J.b.k.k.j.g.g.g.j.g.g.g.l.y.S 6 % @                                       ",
"                          @ * l n v 4 $ X - W 0.h.b.v.b.j.d.k.h./ E 9.j.0.E ^ d.Q = . . .                                       ",
"                          l c n v - @ . . O 2 3 2 c W / q.j.n.J.k.q.z.J.v.e.j.m.t.- . .                                         ",
"                          P R _ _ Y e e e 6 6 & + o 3 v P ! k.b.t.Q 9.h.0.Q / h.( 3 .                                           ",
"                          P _ (.[.wX0X0X`.A._ b & O o @ % 1 m R v = = - - * - - ,                                               ",
"                          l T A.4XtXfXeX'.H.0.I b 7 7 : $ $ 4 z : # @ $ $ @ X . .                                               ",
"                          O 3 U k.k.C.y.^ C V L 5.R.R.R.k : j j j 1 j k k j :                                                   ",
"                          . $ j K w.8.! U U U 2.7.E.W.T.6.L L L K K K L J z j                                                   ",
"                          . # j V r.U.OXOXoXm.c.e.2.L 5.T.W.W.W.E.7.3.J b 6 q                                                   ",
"                          + O 1 U v.;XkXkX9X&XL.8.C k K R.W.!.!.E.7.3.B p 0 9                                                   ",
"                          8 9 F 8.).8XxXVXxXkX|.2.K K K o.@.:.>.:.:.X.f s i > q w                                               ",
"                          9 r D ) _.8XxXVXgX1X{.7.5.3.o.| ......$.$...{ d a i 9 w                                               ",
"                      . & F D D D S.=X9XkX*XN.R.W.T.5.3.*.$.| h ......{ d s i 9 w                                               ",
"                      @ 3 G G D D y.U.;X2XL.4.4.!.V.4.+.=.=.| N } ....f s t > q w                                               ",
"                      l R Z.D.8.H ) u.L.+XB.+.*.>.:.+.$.-.=.} N u s d a i 0 9                                                   ",
"                    v Q h.K.U.p.8.G ~ u.B.<.$.&.%.%.%.=.;.*.O.V B g g g p q                                                     ",
"                  . l h.K..XoX^.z.U x O.*.*.$.%.-.-.-.=.>.i.2.w.8.U G H H                                                       ",
"                  % S v.@X#X#X=XoXl.8.+.%.%.%.;.,.,.;.>.i.h.e.s.d.e.0.8.~                                                       ",
"                  c E J.@X2XyXaXdXeX).<.-.-.-.1.Y.U.a.i.r.d.h.s.e.e.e.t./ R                                                     ",
"                  v Q J.%X6XhXvXBXvXkXY.1.,.1.Y.rXeXA.s.s.s.e.s.j.z.j.e.Q R n                                                   ",
"                  % n v.%X5XjXvXMXMXcXkX,X,X,X8XuX4XD.s.q.e.e.d.v.m.v.s.^ C m                                                   ",
"                  . 5 k.#X5XjXvXbXMXbXcXdXtX4X4X:XP._ ^ 0.d.j.z.K..XJ.s.Q R m                                                   ",
"                  . 3 0.^.6XaXaXzXvXNXvXuX:XG.Z.g.T 3 4 E z.n.K..X{.n.h.^ P m                                                   ",
"                  . - m y.(.>X4X6XaXaXyX*X(.q.I c = X % C e.K. XXX.Xb.t.Q P                                                     ",
"                    @ * 6 W g./.#X%X*X).D.f.E l % X . @ z / L.+X&XXXk.Q P                                                       ",
"                      . # z ^ H.|.XX{.k.E m b = o . . @ 1 S y.D.L.p.8.Z z                                                       ",
"                      . % x y.L.+X+XU.Q - # @ X         @ & e D H Z g u < X .                                                   ",
"                      . # x #.p.B.U.p.H < X # #         . + 8 8 > y a y < X .                                                   ",
"                      . # t g  .O.O.O.f y y t t                                                                                 ",
"                      . # t s d [ [ f [ [ d y                                                                                   "
};
