/* XPM */
static char *tile0081697913298[] = {
/* columns rows colors chars-per-pixel */
"64 64 242 2 ",
"   c None",
".  c #010100",
"X  c #090502",
"o  c #0D0904",
"O  c #0A0A0B",
"+  c #140101",
"@  c #140D05",
"#  c #180C07",
"$  c #1A1209",
"%  c #1A1106",
"&  c #191614",
"*  c #060711",
"=  c #250706",
"-  c #3E0506",
";  c #22160A",
":  c #26190C",
">  c #2B1C0E",
",  c #261C05",
"<  c #341A0C",
"1  c #2C1F12",
"2  c #361216",
"3  c #3A2207",
"4  c #2E2318",
"5  c #332212",
"6  c #3B2612",
"7  c #3E2914",
"8  c #3C3208",
"9  c #141826",
"0  c #25182C",
"q  c #321724",
"w  c #14203B",
"e  c #362928",
"r  c #3C342B",
"t  c #262633",
"y  c #2A232E",
"u  c #420303",
"i  c #540101",
"p  c #5C0000",
"a  c #5A0B09",
"s  c #4C1012",
"d  c #6D0101",
"f  c #630605",
"g  c #740101",
"h  c #7B0000",
"j  c #7D0A0B",
"k  c #65150B",
"l  c #482901",
"z  c #5A3502",
"x  c #432C15",
"c  c #432D18",
"v  c #4A2F18",
"b  c #502919",
"n  c #4B3116",
"m  c #4C331A",
"M  c #44321B",
"N  c #563A1B",
"B  c #5B3D1D",
"V  c #54361B",
"C  c #67241B",
"Z  c #792618",
"A  c #643D1C",
"S  c #702F07",
"D  c #4C3929",
"F  c #573928",
"G  c #4D2F2D",
"H  c #663B25",
"J  c #7C3426",
"K  c #772F23",
"L  c #5B451B",
"P  c #774C05",
"I  c #795406",
"U  c #62401E",
"Y  c #664319",
"T  c #6E440C",
"R  c #7C601E",
"E  c #58442E",
"W  c #654322",
"Q  c #6A4621",
"!  c #6E4924",
"~  c #6B4B29",
"^  c #754D25",
"/  c #764629",
"(  c #7C5226",
")  c #7C532A",
"_  c #73512F",
"`  c #7B4935",
"'  c #775637",
"]  c #674F37",
"[  c #735A42",
"{  c #585149",
"}  c #850000",
"|  c #8A0303",
" . c #9C0000",
".. c #950000",
"X. c #901A0B",
"o. c #A90200",
"O. c #B80000",
"+. c #B81008",
"@. c #852E16",
"#. c #913617",
"$. c #BB2905",
"%. c #A63A04",
"&. c #A92D0A",
"*. c #833328",
"=. c #943126",
"-. c #CC0000",
";. c #C50400",
":. c #DA0100",
">. c #D80804",
",. c #C51C02",
"<. c #D21A04",
"1. c #E50601",
"2. c #F80000",
"3. c #E31301",
"4. c #C92703",
"5. c #D33104",
"6. c #855A06",
"7. c #825513",
"8. c #A54F04",
"9. c #8F680E",
"0. c #AA6F0A",
"q. c #82562B",
"w. c #86592C",
"e. c #8C5C2C",
"r. c #845527",
"t. c #915E2A",
"y. c #995929",
"u. c #844D31",
"i. c #895C32",
"p. c #865A38",
"a. c #985D3B",
"s. c #8C4627",
"d. c #95612E",
"f. c #98632D",
"g. c #8A6239",
"h. c #946332",
"j. c #9B6632",
"k. c #9E6934",
"l. c #99693A",
"z. c #A36C35",
"x. c #A26D3A",
"c. c #AB6B3A",
"v. c #AC743B",
"b. c #A8713A",
"n. c #B1773C",
"m. c #B4793E",
"M. c #BC793A",
"N. c #A5742D",
"B. c #CD7308",
"V. c #8B5843",
"C. c #945F47",
"Z. c #866542",
"A. c #996947",
"S. c #9B724A",
"D. c #987957",
"F. c #A46945",
"G. c #A47444",
"H. c #A77A4D",
"J. c #AA7A4A",
"K. c #A77647",
"L. c #B67C42",
"P. c #BA7E43",
"I. c #B57848",
"U. c #AB7E50",
"Y. c #BE7C52",
"T. c #A15640",
"R. c #C17C4F",
"E. c #B58E0F",
"W. c #D0920E",
"Q. c #E79B0D",
"!. c #CCA80E",
"~. c #D6AE0E",
"^. c #D8B10F",
"/. c #E3B824",
"(. c #D2A81B",
"). c #BD8145",
"_. c #BC834A",
"`. c #B5824D",
"'. c #AE855B",
"]. c #B78655",
"[. c #A88868",
"{. c #B98E65",
"}. c #BE9368",
"|. c #B19679",
" X c #C38446",
".X c #C68749",
"XX c #C6884A",
"oX c #C98A4A",
"OX c #CA844C",
"+X c #C48B52",
"@X c #C68B56",
"#X c #CD945B",
"$X c #C99157",
"%X c #D4955A",
"&X c #D9964E",
"*X c #E39658",
"=X c #C7986A",
"-X c #D09962",
";X c #D29E6B",
":X c #D79866",
">X c #C59C74",
",X c #D59A76",
"<X c #CB8560",
"1X c #D7A26B",
"2X c #CCA37A",
"3X c #D7A97B",
"4X c #D9AB7D",
"5X c #D5A473",
"6X c #E7AB77",
"7X c #E0A06A",
"8X c #E3A661",
"9X c #AF9D8A",
"0X c #B49D87",
"qX c #BDA58C",
"wX c #C9A685",
"eX c #DAAD81",
"rX c #D4AA84",
"tX c #DCB185",
"yX c #DCB48B",
"uX c #D6B38F",
"iX c #D3B393",
"pX c #DCB791",
"aX c #DEB994",
"sX c #DDBC9B",
"dX c #E5B88C",
"fX c #F1BB89",
"gX c #E0BB94",
"hX c #E1BE9A",
"jX c #E8BE97",
"kX c #E8AF81",
"lX c #E4C19D",
"zX c #F5C699",
"xX c #E4C4A3",
"cX c #E4C7A9",
"vX c #E6C9AC",
"bX c #EBCDAC",
"nX c #E7CDB2",
"mX c #E8CFB5",
"MX c #E9D0B6",
"NX c #EBD2B9",
"BX c #F8D6AE",
"VX c #D7C2AC",
/* pixels */
"                                                                                                                                ",
"                                                                                                                                ",
"                                                            d.d.d.t.t.d.t.t.t.t.t.t.t.e.t.d.                                    ",
"                                                          x.x.K.H.H.H.H.J.H.H.H.H.H.K.b.x.k.j.                                  ",
"                                                    t.e.h.].=XwXiXiXiXiXiXiXiXiXiXuXwX2X].).b.h.e.t.e.                          ",
"                                                  j.z.l.K.=XaXcXMXNXMXNXMXNXNXMXMXMXcXgXtX;X@XU.K.G.G.                          ",
"                                              t.j.v.).$X2XiXcXnXMXMXMXMXMXMXMXNXMXMXMXcXxXlXsXiXrX2X{.G.t.                      ",
"                                              f.b._.#X4XaXcXnXMXmXmXmXmXMXmXMXMXmXmXMXMXMXMXNXMXnXlXrX].G.k.                    ",
"                                          t.z.n._.-X4XsXvXmXMXmXmXmXmXmXMXnXMXnXMXMXMXnXMXMXMXMXmXbXsXrX=XJ.d.                  ",
"                                        j.k.G._.-X3XaXcXmXMXmXmXmXmXmXmXMXMXMXMXMXnXMXMXmXmXmXmXmXMXnXxXwXU.d.                  ",
"                                      d.z.n.XX;X4XtXpXxXmXMXMXmXmXmXmXmXmXmXmXmXMXnXnXMXmXmXMXmXmXmXMXmXiX'.t.                  ",
"                                      d.z.P.#X3XpXyXpXhXcXvXvXnXmXmXmXmXmXmXmXmXMXMXnXMXMXMXmXmXmXmXNXNXxX].z.f.                ",
"                                      d.k.).#X3XyXyXyXpXpXpXsXlXmXmXMXmXMXMXmXmXnXMXnXMXnXMXMXmXmXmXMXNXxX=XP.z.d.              ",
"                                    e.k.v.).#X3XyXyXyXyXtXyXyXsXcXvXvXcXcXvXmXmXMXnXnXvXcXvXvXmXMXmXMXMXxX4X@Xv.j.t.            ",
"                                  U w.v.).XX#X3XyXyXyXyXyXyXyXyXaXsXaXaXaXhXcXmXMXnXxXaXaXaXxXnXMXMXMXMXvXaX2X`.j.t.            ",
"                                  Y w.).oXoX$X;X3XtXyXyXyXyXyXtX3X3XtXpXaXhXvXmXMXnXxXsXpXaXsXcXnXmXMXMXvXlXrXS.^ Y             ",
"                                  A w.).oXoXoX$X-X3XyXyXuXyXyX5X-X;XeXaXxXvXmXmXMXmXbXcXvXcXxXhXxXvXmXNXbXxX2X[ 4 @             ",
"                                  U w.L.oXXXXXXXoX1X3X3X4X4X2X#X_._.5XyXxXbXmXMXNXNXNXNXMXvXpX3XwXcXmXnXxXjX}.E X .             ",
"                                  U w.).oXXX.X.XoXoX$X$X$X#X$X).z.v.@X1XyXsXvXNXNXNXNXNXbXsX>XJ.{.sXnXxXyX5X`.F X .             ",
"                                  W ) n. X.X.XXXXXoXoXXX.X.XXXv.j.j.v.+X;XeXuXiXwX0X9X0XqX>X'.k.H.uXcXaX3X#Xx.n X .             ",
"                                  U ^ f.n.).oXoXoX XoXXX.XoX.Xn.d.t.j.v.XX$X].S.] r t D ] G.z.f.H.2XaXaX3X].e.x X .             ",
"                                  M U ( k.).oXoX.XoXXXXXoXoXXXm.z.z.k.b.m.b.e.B ; . . . > U r.h.].2XyXeX=XK.( x X               ",
"                                  $ 5 U e.).oXoXoX.X.X.X.XoXXX X).P.P.m.z.w.n $ X . . . X ; L x.$X3XeX1X_.g.Y n                 ",
"                                  . @ 6 ~ z. X.XoXoX X).).).P.).P. XXX Xv.) > . . . . . . . M H.1XeX3X#XL.) B                   ",
"                                  . . @ x w.v.).oXoX Xn.k.k.k.k.z.v. XoX Xh.5 . . . . . . . D {.tXtX4X#Xm.) B                   ",
"                                  . . . > Q f.n. X.X Xn.k.f.d.t.t.z.m. XoXb.F $ X . . . X 5 [ wXlXhXdX1X_.h.!                   ",
"                                  . . . $ N ( d.b.).XX.X).z.f.t.t.d.k.v. Xm.d.B , . . X 7 e.{.sXbXMXzXpX>XG.w.                  ",
"                                  . . X $ 5 V ^ t.x.v.m.n.k.f.f.k.d.w.j.). Xn.d.E e 4 r ' =XdXcXVXqX0X|.=XS.w.                  ",
"                                    O O & @ > V ! ^ ^ ) ) w.f.b.m.k.^ ) n.XX)._.'.[.[.[.wXaXbXmX9X{ D [ l.w.Q                   ",
"                                      & * . @ 5 x M x 7 M U r.K.@XK.! _ v.oX$X-X4XdXyXaXhXcXMXvX|.E x ( d.^ L                   ",
"                                              @ @ @ o o % 6 Q H.2X'._ ^ v.$X1X4XyXpXyXyXpXaXhXpX2XH.k.v.b.( U                   ",
"                                              . X @ ; $ % : M Z.=X'._ ^ k.XX;X3X4X4XyXaXyX4XtXpX3X%XoX%X].p.U                   ",
"                                              . # v Y B x : & ~ `.H.~ Y t.v.].#X#X-XyXcXtX=X4XlXgX#X%X5X=XZ.W                   ",
"                                              . $ B r.( N > o m z.v.w.) h.b.m.).M._.=XwX}._.].qX2X].`.'.D.] M                   ",
"                                              . o c Y ! B , X 7 t.n.n.).).m.b.k.k.j.g.g.g.k.g.g.g.l.i.E 4 & @                   ",
"                                              @ ; x N m 7 $ X 1 W ) g.x.v.v.j.f.k.h.) ! q.j.t.^ ( f.( , . . .                   ",
"                                              x n N m 5 o . . $ 1 4 5 x Y ) t.j.v.L.z.e.j.).v.t.j.L.g.5 . .                     ",
"                                              B W _ _ E e e e 4 4 & O o 5 m U ( l.b.e.^ ) h.i.^ ) h.) 5 .                       ",
"                                              B _ D.|.0X9X0X[.D._ m & O o @ $ 1 L ! m , : 4 1 , ; 1 1                           ",
"                                              B ) '.6XlXhXiX}._.N.r.L 8 , @ @ @ 3 n < @ o % @ o O . .                           ",
"                                              H u.U.:X7X:XK.r.9.E.!.E.E.I z l 3 l l l l z z x 9 9                               ",
"                                              u.T.R.%X7X%Xc.T 6.0.E.^.^.E.9.6.I I I P P P P N t w                               ",
"                                          l T c.OX:X6XzXfX5XL.y.I 9.!.~.^.~.~.!.!.!.E.0.6.T M w w                               ",
"                                        l T 7.c.@X7XkXzXzXfX%Xy.z S 8.E.Q.Q.Q.Q.Q.W.W.B.8.S s q 0                               ",
"                                      . 8 9.0.t.T.@X:X6XfX6X%Xy.k k X.&.$.5.5.5.%.%.$.4.,.o.} a 2 0 w                           ",
"                                      - S 8.0.s.=.M.&X8X1X@XF.J f d h ..O.-.-.;. .|  .O.-.;.o.d s 0 w                           ",
"                                      ;.;.,.,.+.4.W././.(.( x - p d h  .O.-.-.O. .} | ..O.;.o.d s 0 w                           ",
"                                      3.3.1.:.-.>.B.Q.W.0.z o o - s f j o.o.O.o.| h g g ..o.| a 2 y t                           ",
"                                      %.4.3.2.-.;.4.5.5.$.p X * 0 0 0 s f g g d d f p f d g a q q G G = .                       ",
"                                      6.%.<.3.:.:.:.:.1.-.h = & t t t e C Z K *.J *.Z Z a u 2 e G [ ` G 1 $                     ",
"                                          8.$.>.2.2.2.2.1.X.b M G G F ` a.R.-XrXrX,X<XF.H = = G u.c.I.I.p.c X                   ",
"                                          I #.$.>.3.>.>.<.&.! Q Q / u.T.@X7XzXBXBXBXfX-Xp.7 v H T.R.*X*XI.m .                   ",
"                                          Y T K @.@.@.@.@.s.r.w.w.f.v.+X;XtXdXlXNXbXlX4X].S.t.e.x.OX%X*XI.b .                   ",
"                                          B B B L E F N L Y r.e.f.z.R.#X3XyXaXsXvXmXxXgX4X-X_.k.y.l.x.x.p.c X                   ",
"                                          B B B B B B L U W ! ( t.b.).#X3XaXxXvXmXmXmXvXlX3X#Xx.( c 5 4 5 ;                     ",
"                                          x v F B B B B L m n W t.b. X#X4XgXxXbXnXmXmXvXlX3X'.' n # . . .                       ",
"                                          # : v B B B H B 5 $ v r.v. X%XeXaXaXlXnXMXvXgX6X-Xg.7 #                               ",
"                                          . $ c W H B V x ; X 5 Y r.x.`.{.>X}.>XqXwXrX>XU.l.W $ .                               ",
"                                          . $ b J / H 6 @ X   @ : 7 Q u.V.V.V.V.V.A.F.A._ 6 $                                   ",
"                                          . # b H K C < + X     . % 5 B ` p.C.C.C.V.i.u.b O                                     ",
"                                          . # u k k a i u = X .     @ c a.@X4XyXeX,XF.u.F                                       ",
"                                          . + u i p p p i = X       . < s.Y.,XrX,XR.T.K Z                                       ",
"                                                                    . # k Z @.*.=.=.X.j d p                                     ",
"                                                                    . + - i i p d j } } g p                                     "
};
