/* XPM */
static char *tile0071697913298[] = {
/* columns rows colors chars-per-pixel */
"64 64 245 2 ",
"   c None",
".  c #010101",
"X  c #0D0905",
"o  c #0C0D0D",
"O  c #070707",
"+  c #140D05",
"@  c #120E09",
"#  c #1A1209",
"$  c #191209",
"%  c #181715",
"&  c #0D0F10",
"*  c #370502",
"=  c #23160A",
"-  c #25190C",
";  c #2B1C0C",
":  c #251A01",
">  c #321808",
",  c #2D1E10",
"<  c #38121A",
"1  c #2A2218",
"2  c #332212",
"3  c #3A2816",
"4  c #393008",
"5  c #241A2E",
"6  c #2E1726",
"7  c #231E31",
"8  c #16213A",
"9  c #1D2326",
"0  c #332C25",
"q  c #3C332B",
"w  c #363838",
"e  c #292C30",
"r  c #4F070A",
"t  c #580402",
"y  c #591509",
"u  c #450A12",
"i  c #47170D",
"p  c #620101",
"a  c #6D0200",
"s  c #720000",
"d  c #790300",
"f  c #681509",
"g  c #781409",
"h  c #6A1D11",
"j  c #462905",
"k  c #583604",
"l  c #442D15",
"z  c #472B16",
"x  c #4B3116",
"c  c #4B3418",
"v  c #56391B",
"b  c #5C3C1D",
"n  c #52361A",
"m  c #552E06",
"M  c #7A2200",
"N  c #7A2719",
"B  c #6E3306",
"V  c #493A2A",
"C  c #513B25",
"Z  c #512526",
"A  c #7B3529",
"S  c #6F3523",
"D  c #795406",
"F  c #61401F",
"G  c #694619",
"H  c #774619",
"J  c #6E4904",
"K  c #57412B",
"L  c #574736",
"P  c #41403A",
"I  c #6B4621",
"U  c #6D4924",
"Y  c #694928",
"T  c #744C24",
"R  c #784D27",
"E  c #7C5126",
"W  c #7B522A",
"Q  c #75512C",
"!  c #745433",
"~  c #685138",
"^  c #383E40",
"/  c #394245",
"(  c #544C45",
")  c #524F48",
"_  c #685B4D",
"`  c #6D6355",
"'  c #860000",
"]  c #950000",
"[  c #9D0000",
"{  c #881504",
"}  c #AD0000",
"|  c #A40500",
" . c #B60000",
".. c #AE1701",
"X. c #983604",
"o. c #972C0F",
"O. c #AF3303",
"+. c #913027",
"@. c #A12F25",
"#. c #C30000",
"$. c #CC0101",
"%. c #D80400",
"&. c #C21804",
"*. c #D91401",
"=. c #E80400",
"-. c #FD0000",
";. c #F30000",
":. c #E31407",
">. c #D53305",
",. c #CA2112",
"<. c #D23214",
"1. c #F82A21",
"2. c #845C08",
"3. c #86441D",
"4. c #9B4209",
"5. c #976B08",
"6. c #8C640F",
"7. c #A47A08",
"8. c #82562B",
"9. c #86592D",
"0. c #8C5C2C",
"q. c #845526",
"w. c #915E2B",
"e. c #854B34",
"r. c #8C5F32",
"t. c #845A38",
"y. c #8F4F31",
"u. c #A55A38",
"i. c #BB5A2C",
"p. c #95612E",
"a. c #99632C",
"s. c #8B6239",
"d. c #936233",
"f. c #9A6632",
"g. c #9D6934",
"h. c #97693A",
"j. c #A26C35",
"k. c #A26D39",
"l. c #A6673A",
"z. c #A5703C",
"x. c #AC743B",
"c. c #AA7037",
"v. c #B1763C",
"b. c #B4793E",
"n. c #BA7C3E",
"m. c #A6732E",
"M. c #CF683C",
"N. c #D6621E",
"B. c #846443",
"V. c #986A44",
"C. c #997149",
"Z. c #98795B",
"A. c #846F56",
"S. c #A47443",
"D. c #AA7C4E",
"F. c #A77848",
"G. c #B57B41",
"H. c #BA7E42",
"J. c #B5784A",
"K. c #AA7D54",
"L. c #B77449",
"P. c #907A60",
"I. c #D07C4E",
"U. c #B28D0C",
"Y. c #CC990D",
"T. c #EB9D0E",
"R. c #CAA50D",
"E. c #D3AE0F",
"W. c #E5A10F",
"Q. c #BE8144",
"!. c #BB834B",
"~. c #B4814D",
"^. c #AC835A",
"/. c #BA8653",
"(. c #B78657",
"). c #BD905F",
"_. c #A78869",
"`. c #BC8E62",
"'. c #BB9167",
"]. c #AC9276",
"[. c #C38446",
"{. c #C68748",
"}. c #C6884A",
"|. c #C98A4A",
" X c #C48B52",
".X c #CB8E52",
"XX c #C3885A",
"oX c #CD945B",
"OX c #CA9157",
"+X c #D3945B",
"@X c #D68856",
"#X c #C89868",
"$X c #D09A63",
"%X c #D29E6A",
"&X c #DA9B65",
"*X c #C59C72",
"=X c #C59D76",
"-X c #D59A78",
";X c #CA8A67",
":X c #E58869",
">X c #E29E65",
",X c #D7A26C",
"<X c #CDA57C",
"1X c #CAA076",
"2X c #D7AA7B",
"3X c #DAAB7D",
"4X c #D6A675",
"5X c #E3A36C",
"6X c #E6AB78",
"7X c #E8B079",
"8X c #AE9C89",
"9X c #B49D87",
"0X c #BDA58C",
"qX c #C8A784",
"wX c #D2AB83",
"eX c #D9AE82",
"rX c #D7A685",
"tX c #DAB186",
"yX c #DCB48B",
"uX c #D9B78D",
"iX c #D4B594",
"pX c #DEB993",
"aX c #DDBC9B",
"sX c #DBB692",
"dX c #E2B88E",
"fX c #E5B687",
"gX c #E3BD94",
"hX c #E1BE9A",
"jX c #EEBE91",
"kX c #F1BB8A",
"lX c #E3C19E",
"zX c #E9C195",
"xX c #F6C899",
"cX c #F1C18D",
"vX c #E4C4A4",
"bX c #E4C6A9",
"nX c #E5C9AC",
"mX c #EACBAC",
"MX c #FCD5A9",
"NX c #E7CDB1",
"BX c #E8CFB5",
"VX c #E9D0B7",
"CX c #EBD2B9",
"ZX c #FBD4A8",
"AX c #D6C1AB",
/* pixels */
"                                                U G R 3.3.3.3.3.3.H H H U E w.w.p.                                              ",
"                                                z.F.F.D.D.^.D.D.D.D.K.K.D.F.S.k.g.f.                                            ",
"                                        p.w.w.f./.*XeXiXiXiXiXiXiXiXiXaXiXwX*XXXQ.c.p.0.w.w.                                    ",
"                                        g.g.g.F.*XsXbXNXVXCXCXCXCXCXCXCXNXbXgX3X$XXXK.F.S.S.                                    ",
"                                    p.a.x.!.XX1XyXbXBXBXVXCXVXVXVXVXVXCXBXBXnXvXaXaXiXwX1X`.z.0.                                ",
"                                    g.z.Q.$X3XhXbXBXVXBXBXBXBXBXBXBXBXBXBXBXBXVXVXCXCXNXvXwX(.S.g.                              ",
"                                0.g.b.!.$XtXaXnXBXBXBXBXBXBXBXBXBXBXVXBXBXBXBXVXBXCXCXBXnXaXwX'.F.p.                            ",
"                              f.g.x.}.$X3XuXbXBXCXBXBXBXBXBXBXBXVXBXBXBXBXBXBXBXBXBXBXVXVXNXvXwXD.p.                            ",
"                            p.j.G. X%X2XyXsXvXBXCXVXVXVXVXVXVXNXBXBXBXBXBXBXBXBXBXBXBXBXVXBXBXiX^.w.                            ",
"                            w.j.Q.+X2XyXyXyXlXbXnXnXnXNXVXNXVXVXBXBXBXBXBXBXVXVXVXBXBXBXBXVXCXaX).j.a.                          ",
"                            p.j.Q.oX2XyXyXyXsXpXpXpXvXNXVXVXVXVXBXBXVXBXBXVXBXCXBXBXBXBXBXVXVXvX#Xn.j.p.                        ",
"                          0.g.x.Q.oX2XyXyXyXyXyXyXyXaXvXnXnXnXbXnXBXBXVXBXnXnXbXnXNXBXVXBXVXVXvX2X Xx.p.w.                      ",
"                        F 9.G.[.{.oX2XyXyXyXyXyXyXyXyXpXaXaXuXpXaXnXBXCXNXvXpXpXsXvXNXVXBXVXBXnXdX*XJ.f.w.                      ",
"                      v F 9.H.|.|.OX%XeXeXuXyXyXyXyXeX2X3XtXuXpXaXnXBXBXNXvXpXsXpXaXbXNXNXVXCXnXlXwXC.T                         ",
"                      v I 9.H.|.}.|..X$X2XyXyXyXyXeX4X$X,X3XpXvXnXBXBXBXNXnXnXnXnXvXaXvXNXBXVXNXvX1X_ ;                         ",
"                        b r.Q.|.|.{.{. X%X2X2X2X2X4X#XQ./.4XyXvXNXBXCXCXCXCXCXBXnXsX<XwXbXBXNXvXpX'.K X                         ",
"                        F 9.Q.|.|.}.{.|..XoXoXOXoX.X!.z.v. X,XyXvXnXVXCXCXCXCXnXhX=XD.'.aXNXlXyX,X~.C O                         ",
"                        I 9.v.[.}.}.{.{.{.{.{.{.{.[.c.p.g.b./.,XeXiXiX0X9X8X9X0X*X~.h.D.iXbXpX2XoXz.x O .                       ",
"                        b W f.v.[.}.|.}.{.{.{.{.|.{.x.p.p.f.x.}. X/.C.~ q 0 q ! V.k.p.F.wXpXpX2X/.0.3 . .                       ",
"                        l b E g.H.|.|.}.|.|.{.{.|.{.n.k.f.g.c.b.x.9.b = . . . ; G q.f.~.<XyXtX#XS.H 3 X                         ",
"                        # 2 F r.Q.|.|.{.{.{.{.|.{.{.{.Q.Q.Q.b.k.8.l # X . . . X = b k.oX2X3X,X!.s.G c                           ",
"                        . # 3 U k.[.{.|.|.{.[.Q.n.Q.Q.n.[.{.[.c.R ; . . . . . . . C D.,XeX2XoXb.W b                             ",
"                        . . + l 9.v.[.{.{.[.x.j.g.g.g.j.x.[.|.[.d.2 . . . . . . . K '.fXtX2XoXG.W b                             ",
"                      . . . . ; I a.v.[.{.[.x.j.p.p.w.p.g.b.}.|.z.v # . . . . X 2 _ qXhXhXyX,X!.s.G                             ",
"                      . . . . = v E p.c.Q.{.[.Q.k.p.p.w.p.g.v.Q.G.0.b = . . . l r.'.aXNXVXvXyX*XS.9.                            ",
"                        . . O $ 3 v T 0.z.v.b.x.g.p.p.g.p.0.f.G.[.b.p.K 0 1 V t.#XfXbXAX0X9X<X'.h.9.                            ",
"                          o & o @ ; v U T W R W 9.p.c.b.g.T W G.{.[.Q.^._._._.qXaXmXNX8X) V B.h.9.U                             ",
"                            % o . + 3 l l l 3 x F 9.G. XS.Y R v.|.OX$X3XyXdXsXaXnXNXbX].C l q.w.T b                             ",
"                                    + + + X X # 3 G D.*X^.Q T b.OX,X3XyXyXyXdXpXpXaXpX=XF.g.v.x.W b                             ",
"                                    . O + = # @ ; c B.*X^.Y T k. X%X2X3X3XyXgXyX2XtXpX3XoX|.+X!.9.K                             ",
"                                    . + c G b l = - Y (.F.Y I 0.x./.oXOX%XsXvXeX$X2XvXpX$X+X,X*XB.b                             ",
"                                    . $ b 8.R b - X n z.x.9.8.d.c.b.n.H.!.'.qX#X!.).qX1X!.~.^.Z.~ c                             ",
"                                    . + l I S C = X l 0.x.x.G.H.b.c.j.g.f.s.B.s.f.s.s.s.h.9.C 1 - $                             ",
"                                    + - l v n z # O , I 9.h.k.x.x.g.p.g.f.E G 8.f.0.U E f.W - . . .                             ",
"                                    l c n c , o . . # , 1 2 l Y W w.g.x.G.g.w.k.Q.z.w.g.b.s., . .                               ",
"                                    b I ! ! V Z 0 0 0 1 % O @ 2 c b E f.x.r.T 8.d.9.T E s.W 2 .                                 ",
"                                    b Y Z.=X9X9X]._.C.! c % O o @ @ , b Y c - - 2 ; - - , ,                                     ",
"                                    b ! Z.qXsXlXgX3X/.0.G c 4 4 4 : : j x > + # : # + O . .                                     ",
"                                        e.C.`.&X>X+Xk.H J 5.U.U.7.D k k m > j J 2.D j >                                         ",
"                                        R u.J.&X>X+Xc.H 2.7.U.Y.Y.U.7.2.D D D 5.U.2.k l                                         ",
"                                    Y e.l.I.2XcXkX6X;XI.w.D J D 5.Y.E.E.R.E.R.7.D x 0 7                                         ",
"                                    S e.L.5XxXMXZXjX6X+Xl.B j y B 7.T.T.T.W.Y.5.B u 6 5                                         ",
"                                    m H /.fXxXMXMXZXkX@Xu.h t a { &.>.>.>.O.X.{ g p r < 5 8                                     ",
"                                    k H F.,XjXxXxXxX4XK.3.f p d ]  .$.%.$.} ] ' ' d t u 5 8                                     ",
"                                j k B 2.6.m..X,X5X&XZ.( Z t p d ]  .$.$.$.#. .| ' s p u 5 8                                     ",
"                                M X.X.4.X.4.i.M.M.M.e.V < r p s ' | } } } } } ] d p r < 5 8                                     ",
"                                *.%.:.*.$...&.&.,.,.o.G m r t t p a s a s s s a p u 6 7                                         ",
"                                *.=.-.-.=.=.%.%.%.%.&.O.X.N N N A A +.A A N N f f u 7                                           ",
"                                M ..%.-.-.-.;.;.;.;.=.:.<.n.L.XX;X-XrXrX-XXXL.y.A Z                                             ",
"                                m M |  .#.$.:.1.1.1.1.1.1.I.&X7XzXZXMXMXxX6X@Xh.R S                                             ",
"                                    * * * y u.:X:X:X:X:X@X.XoX3XgXgXgXzXgX,X}.d.Y v                                             ",
"                                    . . . % ` pXzXuXpXgX2X$X%XtXpXpXpXhXyX4XOXz.W U                                             ",
"                                        . % ` uXzXyXuXuXtX3XtXlXnXnXnXnXvXuX4XOXJ.d.I v                                         ",
"                                        . % ~ _.<XtXtX3X3XtXhXnXCXVXBXVXVXbXpX4X|.h.Y C                                         ",
"                                        . X $ V P.wX3X$X,XtXaXnXVXVXVXBXVXmXbXtX.Xh.L P                                         ",
"                                        . . . O L Z.^.D.).<XhXvXNXBXVXVXVXVXbX<X~.` ) /                                         ",
"                                            . . & 0 V ) P.qXgXgXaXnXVXCXBXmXsX_.` )                                             ",
"                                            . . . & 9 ^ ` _.=X-XeXhXnXvXaXwX].` w e                                             ",
"                                            . O % e ^ / / _ A.K.%XeXdX3X#X_.` w % O                                             ",
"                                              O 9 w ) ) _ ` A.`.,X3X%X~.r.L e % O                                               ",
"                                                O % K F.'.=XrXjXjX6X/.Y , $ & O                                                 ",
"                                                . . z u.J.I.-XrX-XI.u.3 . . .                                                   ",
"                                                . . > h N N +.@.@.o.g * . .                                                     ",
"                                                % @ < y f f f d { { g i - 1                                                     "
};
