/* XPM */
static char *floor1697626423[] = {
/* columns rows colors chars-per-pixel */
"64 64 239 2 ",
"   c #1D0809",
".  c #17140F",
"X  c #1D1813",
"o  c #210907",
"O  c #250B0A",
"+  c #2A0E0C",
"@  c #2E110E",
"#  c #31110F",
"$  c #290B12",
"%  c #281813",
"&  c #341412",
"*  c #3A1614",
"=  c #351916",
"-  c #3B1916",
";  c #371A19",
":  c #3E1B19",
">  c #2C231C",
",  c #3B211D",
"<  c #3D2721",
"1  c #51180E",
"2  c #441414",
"3  c #4C1415",
"4  c #471817",
"5  c #421E1B",
"6  c #4B1D1C",
"7  c #5D1314",
"8  c #561916",
"9  c #54151A",
"0  c #5B161B",
"q  c #551B1C",
"w  c #5B1A1C",
"e  c #66161D",
"r  c #641C1D",
"t  c #6A1919",
"y  c #78171A",
"u  c #7A1D1D",
"i  c #582E0F",
"p  c #45201D",
"a  c #49221F",
"s  c #54221E",
"d  c #592419",
"f  c #65231C",
"g  c #782E1B",
"h  c #491D23",
"j  c #571921",
"k  c #7F0F25",
"l  c #6D1720",
"z  c #641B22",
"x  c #6B1A22",
"c  c #7B1424",
"v  c #741B22",
"b  c #7B1A24",
"n  c #462421",
"m  c #4C2522",
"M  c #4E2925",
"N  c #4B2A28",
"B  c #532522",
"V  c #5C2221",
"C  c #522926",
"Z  c #5C2926",
"A  c #552D29",
"S  c #592F2B",
"D  c #4E322D",
"F  c #583422",
"G  c #56312D",
"H  c #5B312D",
"J  c #4E3530",
"K  c #5A3532",
"L  c #5D3531",
"P  c #632323",
"I  c #692825",
"U  c #632C2A",
"Y  c #6B2D2B",
"T  c #752223",
"R  c #7B2223",
"E  c #742B2A",
"W  c #7A2A28",
"Q  c #62312D",
"!  c #6C312C",
"~  c #753429",
"^  c #7A322B",
"/  c #613632",
"(  c #6F3733",
")  c #643A35",
"_  c #6A3934",
"`  c #663D39",
"'  c #693E3A",
"]  c #753935",
"[  c #754B15",
"{  c #674521",
"}  c #66403C",
"|  c #6D423D",
" . c #6F4540",
".. c #714641",
"X. c #754A45",
"o. c #794C46",
"O. c #794E49",
"+. c #7B504B",
"@. c #86181B",
"#. c #95191B",
"$. c #9C1B1D",
"%. c #A6171A",
"&. c #A31C1D",
"*. c #AB1A1B",
"=. c #B41C1E",
"-. c #B9191A",
";. c #87231F",
":. c #97241C",
">. c #953918",
",. c #A7251A",
"<. c #B7241C",
"1. c #B6341D",
"2. c #8D0D23",
"3. c #851622",
"4. c #831B24",
"5. c #8B1B23",
"6. c #911721",
"7. c #931B24",
"8. c #9C1A24",
"9. c #A21923",
"0. c #A81923",
"q. c #B51A22",
"w. c #BA1921",
"e. c #822223",
"r. c #832529",
"t. c #892828",
"y. c #942024",
"u. c #982727",
"i. c #86342C",
"p. c #9C362B",
"a. c #863732",
"s. c #983C35",
"d. c #A62324",
"f. c #AB2424",
"g. c #A52B23",
"h. c #A12E29",
"j. c #B82824",
"k. c #A83727",
"l. c #BC3222",
"z. c #B63828",
"x. c #A83C34",
"c. c #B13D32",
"v. c #C3171C",
"b. c #C41B1D",
"n. c #CC1A1D",
"m. c #D31B1D",
"M. c #D81B1D",
"N. c #C3231E",
"B. c #CC241C",
"V. c #C62B1E",
"C. c #CA2B1D",
"Z. c #D3221E",
"A. c #D8281E",
"S. c #C7351D",
"D. c #D53B1C",
"F. c #DD3C1C",
"G. c #C21921",
"H. c #C81F20",
"J. c #C92822",
"K. c #D32C22",
"L. c #D82A22",
"P. c #C43322",
"I. c #CD3324",
"U. c #CA3628",
"Y. c #DC3324",
"T. c #D53825",
"R. c #D93A22",
"E. c #E32F21",
"W. c #E43522",
"Q. c #E33A24",
"!. c #E63826",
"~. c #EB3C24",
"^. c #9D561C",
"/. c #AE4A17",
"(. c #9C7C16",
"). c #B86D13",
"_. c #944526",
"`. c #8C4930",
"'. c #9D4839",
"]. c #AF4926",
"[. c #A24237",
"{. c #B74735",
"}. c #BE6D2F",
"|. c #BD6332",
" X c #D3580F",
".X c #CA481B",
"XX c #DC4A1B",
"oX c #CD591B",
"OX c #D35912",
"+X c #DB5817",
"@X c #E5481A",
"#X c #E75716",
"$X c #ED541B",
"%X c #EC5B1C",
"&X c #F25A18",
"*X c #D46818",
"=X c #EB650E",
"-X c #F1660C",
";X c #F26B0B",
":X c #EF7C0F",
">X c #F07A0C",
",X c #EA6718",
"<X c #F16716",
"1X c #EA7618",
"2X c #F17815",
"3X c #CD4626",
"4X c #D64824",
"5X c #D85222",
"6X c #CC5530",
"7X c #EC4323",
"8X c #E74922",
"9X c #F14125",
"0X c #E75A23",
"qX c #D46A28",
"wX c #DE7629",
"eX c #E37023",
"rX c #884A43",
"tX c #994A45",
"yX c #DC8511",
"uX c #EA860E",
"iX c #EC8C0D",
"pX c #F1860A",
"aX c #F08D0B",
"sX c #ED970C",
"dX c #F19708",
"fX c #F09C0A",
"gX c #E98817",
"hX c #F18512",
"jX c #E19E18",
"kX c #D6AE0E",
"lX c #EDA80B",
"zX c #F0A906",
"xX c #E8B909",
"cX c #F0B803",
"vX c #EEAA10",
"bX c #D68626",
"nX c #EDC205",
"mX c #F0C400",
"MX c #F2C800",
/* pixels */
": @ o O B C C m : & & : & O @ @ o & & & @ C M m 5 & : & # 5 a p p & + o & e.*.5.5.7.9.G.u.H A & & n H | | X.X.` p p a q 7.V C p ",
": - & & H H H M n 5 + + O 5 5 - * & & & = H H a B S M @ O & 5 p : - - @ : K ! H H Z V q.M.w.5.b b 7.4.B H L M H H H M 5.*.4.- p ",
"B m 5 : A H H C A a : 5 O 5 m M H 5 + o o + & - M C p O & n C m a m m & p H H A A C n d R ,.&.v u.z.&.y q p : G L / m y ,.v M m ",
"C M p & : n H A a * 5 a m @ p a 5 - a S p + + @ - - O + - S H H H C m : & : C H B 5 - a M 5 & m 5 5 * s H & + + & - & o + p H H ",
"M : - - # C H a & p p B a & + - 5 p m m A - - p n m M A A M n H F a - - - & H G : & m a B 5 # # p : a m m A & - p M a C A A m M ",
"& + * - + - : & @ p M 5 & - 5 5 m M m C C : m a n m H H H H A - @ u >.p * # 5 - @ & n a 5 # 5 5 p m m m C M a m a a A H H H H M ",
"5 5 + O 5 m B a 5 O & & - 5 n 5 : & - : & n M P ^.U.p H H C i d f 9.f C m m m m a 5 = = & 5 p n 5 - * - & @ C C C a p S H H m - ",
"n 5 5 o - n m m - + # 5 n m B m M : | ..X.M D Q.I.q M H H a .XR.@.a C C 5 5 & 5 m | } A : a M m m a 5 m a & C H H S 5 & p 5 - G ",
"m - O + O # * * & @ + : a a C C B / ' ' ` I =.W.1.p H ) ) ) C t x C H H C a H C = p - - 5 H _ / S 5 5 B m n @ A H a # & - & & a ",
"- # @ @ a a - - 5 5 5 : p - p - # & 6 d 4.E i.m.j.6 M ) ) L : # & & - : # ) / p # # 5 a m 5 p : & # * 5 n p O + # * + * - - 5 S ",
"S C # - m M C p p p 5 C A n - @.j.@X@X5.K / S Y n.8.@ & - & - - 5 p n a p - # @ @ p H S S C - 4 9.P.@X.Xh C - + = - & @ * & H H ",
"H - + + H C a p p p p S M 9 7.A.~.gX1Xr.) ) / r W.A.p.* a C a M M H | ` H H a - # & C H S n r 0.W.0XgX+XE _ ) A # & # + @ & p H ",
"O o o @ # M C a M p z x e -.A.g.k.` x.w.7.C , S.;XpX:X3Xn M H L S H | ) / / S a 5 3 e x e c n.A.g.p.} j.0.t.M q .X1 + n n 5 + + ",
"a a p - = = H S a S.4X3.#.$.f L } L ` w.J.t.L H H ! oXhXT.U } X.| Q | O.| / C p @ 1.8XU.5.#.$.M ' ) ) ] Z.j.^ H H H C H H H S - ",
"p p - 5 p & & p 4XwX^ n 5 5 ' ..| | X.T c.( ) / / C M a.'.T.P./ X.| +.o.| C * # #.,X6XZ p - C | .. ...| S.a.` / ) H m A H H A m ",
"p p - - p p y oXmXeXf 5 p n ) ..X.| n #.M ) ) ) / A p H N XX2XwX^.C a , # # # 2.uXcX6X= p 5 M | ....` q T C ) _ ) H m C H H C 5 ",
"5 - 5 m m M 0.W.hX,XR p - @ # - 5 4 <.n.d C S / L 5 2 7 q.uXmXxXd - # # @ @ 6.b.8XaXF.q a # # = : : 9 Z.&.s G H ) A 5 2 3 * & C ",
"C a 5 a B M @.k.k.9XW.n m p - 8 *.V.-X$XY.y v j 0 #.G.M.%XaX(.{ L C # - a p 4 u.x.U.7Xl.C p a # 3.w.XX-X8XJ.y x h e %.H.-.5 a H ",
"H C a S H - G A H E *.T.Z m - >.;XOXOX+X=XfX<XP.A.S.-.I.,Xg F p = @ - n C G S A H H 4.I.,.N a &  X=X X X#X:XaX%XZ.C.V.-.$.M m B ",
"H C S H - @ ) ) / A C.fXxXP.5.8X].A m a *XdX).t 8 - - & e z = n p & # 5 a H ) ) ) L Z #XcXjXd.g.,X^ C n f iXdX[ t 2 - - : p 5 A ",
"n & @ @ @ p ` | ) = B.aXzXqX&XOXK ` L a G G K a * p p 5 5 x c z P - & - 5 5 A | | G 3 #XfXjX0X&Xp.) } C C G K H 5 * a p : # + + ",
"- & O o O # - p 4 2 4.Z.{.C s 4 / ' F H | | | M p H H C h M r 6.9.t 5 C C 5 # : 5 4 2 0.L.s.Z s p } L A / | | | 5 M H H m p & o ",
"n * & : & 0 t x b 5.0.U.! K 5 & & & L X.O.| K , / .. .C : 5 H K d.m.w.x 5 - * l l 4.$.N.k.H H * @ & # | X.O.| M 5 | ..} p : C @ ",
"= * : M 0.2.c 5.%.-.A.T.y q 9 x - # M o.+.} @ # & 5 : # - L ) ) ) S n.j.k.0.k 3.6.*.-.W.l.0 9 0 8 - # L O.O.G @ # * 5 : # - & + ",
"& m B : sXlX#XA.<.[.^ ~ I.b.{.B p : @ : n # & - 5 p 5 - 5 S ' o.X.r.j.$X;XzXiX#XM.z.a.^ ^ L.q.'.n p & & p n + * - a 6 - : 5 5 : ",
"5 5 5 h mXmXsXqXtX ...` C ,._ ) L * & n M a - m H H - 5 m C 9 p.U.v.7X;XfXmXnXpX{.rXX. .L T p.) _ A & & m M 5 5 C H C * 5 5 5 : ",
"& & & $ dXcXgXX.O.....) p.B.u ) M & M H H H a p - 4 3 * B I c b 7.I Z A *XzXcX}.O.o... .U l.<.I ) 5 @ G H H H 5 5 - 3 5 5 5 5 m ",
"5 B n ; _.&X8X} O.o.) f.:XR.R M M a ) | | | H - q I.#XD.-.0.( '  . .L K _ T.-Xc...O.X.Y I.2Xj.f A p A ' | | ) A - u XXOX: 5 & * ",
": K C 5 ` j.W.u.Y E -.~.J.e * - C } ........} ` H r.T.$XP.( | ......| ) _ G Y.K.W Y W L.W.f.4 - 5 S  .........) ) S h.Y.t.- * n ",
"5 - : ` ' :.n.0.8.q.M.=.S A : * Q | ......| ) H p H Q y.4.) ' ......' X.o.) =.b.9.8.H.M.;.S n - 5 )  .......| L S 5 H Y y.8 p B ",
": &   N 5.*.e.R b 9.q.w.Y S : & p M L | o.X.} a C p q 5.b A ) ..o.X.O.X.) $.%.R T 5.9.w.j.G C & & p C ` ..o.X./ n B 5 r 6.3 p p ",
"5 5 & & Q r.H H S n 5.H.Z.9.5.4.d.d.v V H M S Q L H t j.$.w B L | X.' W A.S.Q H H S 6 0.n.H.9.b 7.f.8.r Z S n L L / M 6.=.1 - 5 ",
"M M p - C K H L H C - y W.E.H.*.f.b.m.%.z n X.O.O.C j.7XP d p m M p 5.A.7Xs.H H S H C 2 7.~.Z.b.0.f.m.n.7.h L O.O...x T.P., S S ",
"A M 5 & * C / L H H C % Y.;XS.0.v v 6.8.5.q.'.tXs.7.g.! S m M | | H n.8X8X[.H ) / S S M 2 7X;Xb.6.b v $.7.7.f.tXtXu.7.l.  p S H ",
"a * - - & b 7.6 q A ) a q d 2 B H H S Z b H.,XnXvXz.@.: : p  .X.| r.7X=X#XQ.y.R 6 6 / / 5 d 1 4 S S H S B 7.m.sXxXaX9.w H S m m ",
"& + - & G / i.9.u M S ) C H B S ) ) '  . .' 3XlXfX2XQ.5.e - K / W J.+X~ M N H u.8.P B S H H / a H ) ) |  .' a.,XzXaXeXY.E H K C ",
"p p @ o C H n a L ) ) A L ) H ) ) ' ........K 8XhX3X5 a 7.f.k.g.7.#.a a M m n 5 A ) ) L A ) ) H ) _ | | X.| ..E <XhXg.n B S n 5 ",
"a 5 5 O 5 & # p ) ` M - B ) L m / ........ .G Q.l.6 B / H W /.J.b 6 S H p : & & M ' / n - S ) S C ` | | | X.} E ~.;.n C ) 5 & A ",
"m - @ n p H H - - & - : M ) ' A 5 H / ` L e.b.E.l.6 H ) ) ) C 8 0 m H H n M H C & - & * 5 A ) ) a a H ) } Q y.M.~.x B L / : & n ",
"- & @ # m ` m # # 5 m M n * & & 2 7 r z 4.Q U J.w.8 m / / H & # & & & & # L / 5 + & n M B 5 - & 2 2 e r ;.T Q ~ M.9.2 A A - n H ",
"H C & p p * @ @ - A S S S h 4 #.K.#X#Xt.S ) S U m.8.O # * - - - p a C C M 5 # + & 5 H H A A - 0 -.D.#XXXI ) H H d.H.@.@ & & H H ",
"C = O M L A 5 & # n A A n e f.W.@XwXqXr.( _ L r 8X@X{.2 a C M C C S ..) L H B : & + M A A 6 4.j.!.0XbX6XW ` _ A $.$X4Xp.O & 5 A ",
"O O = H L H S 5 2 b R v b -.m.T a.L z.H.8.6 : T.=XhXaX5XC C Q ) H H ' ) L / S n 5 r b b v @.n.N.W ] ) J.q.7.6 w @X;XiX_.C n @ O ",
"p a 5 : : A C & y.$X4Xv @.@.s ` ` / ` 0.Y.i.K G G Q ].,XQ.f } X.X.` o.+.X.H B 2 & 1.$Xz.T @.@.M ' _ ` ] J.U.( H J G `.{ H H S p ",
"p p - - p - # ;.0XwXU m a n | ....| | T x./ ` ) ) C M _ `.7XT.] | | X. ./ n & 2 k.2X6Xn a p A | ......` l.( ) ) _ H n H H H H m ",
"5 5 - 5 n n 3.*XcX1Xf - - : Q | ..} p *.n / ) ` L S 5 M < +XhXgX).n 5 * & # 2 2.pXcX3X- - - p ` ....L e ;.C ) ) ) H m p A H m : ",
"5 5 5 m C M w.~.2X,X:.a - # @ # 5 8 S.A.R m A H A = 0 @.J.uXMXkXM 5 + + & & @.J.7X2XR.T p & # @ * - y F.<.x M A L M 2 e & & * A ",
"S a 5 a C n r W i.7XW.C C a - t n.D.-X=XW.u.e.x v %.m.m.,XuX{ F S C & 5 m a 4 P ^ z.7XP.A m m & #.n.#X-X$XR.t.b z 4.=.n.p 5 n H ",
"H C a H S * L S S U *.R.x n & >.;X/././.2XzX>XF.C.,.#.,.oXg C 5 * + * a A H L L A G T J.P.h : *  X=X/./.XXiXdX2XA.1.,.q m B m A ",
"H B A A & & ` ` ` M C.lXmX4Xf.8X_.G C p ).uX^.* - 5 2 * 9 x 2 n a - + 5 a A ) ` ' / B ,XxXvXj.l.#XQ A M h yXyXi * & 5 n m 5 - C ",
"5 & @ O O m ) ..H = B.>XsX|.<XOXK | G M L / ' m # p p p 5 z b v x - * : 5 5 m ' | C 3 @XpXbX0X<X_.` | M C L / ` 5 & p 5 & @ O O ",
": & + O O + * * 0 9 c L.x.m , & H ) C L | X...M C ) ) C a M 9 @.w.y q M A p & & - 0 0 9.T.a.n - 8 ` H C ) X.X. .6 H ` H p M - O ",
"a & & 5 m m # 5 B S $.I.U G : & # # L o.o.X.C - ) | | M - p ) L t.n.b.b 5 2 2 c b 4.%.J.d.K S * e # @  .O.O.' p p } & # - m C # ",
"& - p B m M m O # & * l.5.x e v : & p X.+.H + # # - - # - H ` ) ) K v.K..XG.k 3.$.*.b.W.I.y z e q 5 @ A o.o.n : : p p p - - * O ",
"& m m 5 M m 5 # * * & K P.b.! H p - @ & - @ & : a a p - p C ' rXrXt.J.$X>XcXfX&XA.c.] / F K.j.'.m 5 & @ = 5 n 5 p p 5 5 5 5 5 5 ",
"5 5 5 M A : 5 n S A n = - #./ ) H - & A A C 5 m H H # p C C 4 u.J.n.7X:XfXmXmXdX[.o.....H R r.) ) B * : A M B m p p 5 p 5 p 5 - ",
"& 5 & # # O 5 n A H C # a M C H n & m H H H n 5 = 9 9 & d e.4.v W U N p.oXdXfX|.+.+.X.| E .XC.R H - # C C C C M a a p 5 5 5 5 a ",
"5 C m 5 - # * 5 n a 5 # a S S A H a L | | | / p u *.=.Y.n.8._ | ' ..) H ) z.~.z.| X.| 5 1 1Xd.S C G p - p H H H a S p p p 5 # = ",
"* S S 5 & & # + + + # # + & 5 C H - O @ ' X.} _ H t G m p.) | ) ) C  .` | K :.:.4 w + @ @   , p C H # O O p G H F - p C M - - a ",
"p & & + 5 m m 5 + # & - & o + & O O & #   / * - : 5 5 - # A m m B * n ..o.H B a - + # - - @ O @ # o @ # @ O - - - 5 5 5 = & a s ",
": * o @ C H S m 5 & & - & @ : = + & & & 5 H C m p - p & @ : p p 5 - & = n S S A M - @ - - @ - - @ @ = & # a H s a p - 5 # @ 5 p ",
"5 p & - H H H C C a O O o p n 5 n & & + @ n C p m H C + O & : - : p p + n H H H a C & O o @ p p a p # & o = M C p C H a o @ * - ",
"M M m & M S H m m 5 n m & - M B H p @ & @ O # & m m @ O = S H S B M m : 5 C H Q H H M & % > > > X X % > X - L O.o.| = > > a H H ",
"A C : & * C H A 5 - p n m & * : * - p C n & + - p p @ & - B H K H S m & & : A ) / H H G # > > X = : : . . X > J J , . = 5 5 C H "
};
